<?xml version="1.0" standalone="no"?><!DOCTYPE svg PUBLIC "-//W3C//DTD SVG 1.1//EN" "http://www.w3.org/Graphics/SVG/1.1/DTD/svg11.dtd"><svg t="1732069798181" class="icon" viewBox="0 0 1024 1024" version="1.1" xmlns="http://www.w3.org/2000/svg" p-id="73606" xmlns:xlink="http://www.w3.org/1999/xlink" width="32" height="32"><path d="M987.624767 350.60942V84.993102A85.308094 85.308094 0 0 0 902.395421 0.09692H121.520156A85.295979 85.295979 0 0 0 36.351386 84.993102v854.110716a85.295979 85.295979 0 0 0 85.16877 84.896182h780.875265a85.308094 85.308094 0 0 0 85.229346-84.896182V540.264401l-252.3564 251.447772a22.467352 22.467352 0 0 1-31.620269 0l-63.543414-63.307171a22.249281 22.249281 0 0 1 0-31.499118zM231.040169 162.359784h516.282668a27.125587 27.125587 0 1 1 0 54.251174H231.040169a27.125587 27.125587 0 1 1 0-54.251174z m230.912769 435.978089H231.040169a27.131645 27.131645 0 1 1 0-54.257232h230.912769a27.131645 27.131645 0 1 1 0 54.257232z m225.218698 211.165244a20.498657 20.498657 0 0 1-9.26801 34.33404l-89.409037 23.872697a20.54106 20.54106 0 0 1-25.199294-25.132662l23.927215-89.100103a20.631923 20.631923 0 0 1 34.467304-9.189262z m-456.131467-402.031731a27.125587 27.125587 0 1 1 0-54.251174H633.562559a27.125587 27.125587 0 1 1 0 54.251174H231.040169z" p-id="73607" fill="#08cf16"></path></svg>