<svg xmlns="http://www.w3.org/2000/svg" viewBox="0 0 22 22" class="design-iconfont">
  <path d="M11,1 C12.1722892,1 13.3180723,1.20240963 14.3975904,1.59277109 C14.7238361,1.70789925 14.9633544,1.98904699 15.0251819,2.32944108 C15.0870094,2.66983516 14.961661,3.01725546 14.6967412,3.23975999 C14.4318214,3.46226452 14.0679717,3.52571868 13.7433735,3.40602409 C10.2063575,2.12885756 6.25597593,3.46323703 4.21788727,6.62359006 C2.17979861,9.78394308 2.59396137,13.9329854 5.21655072,16.6281035 C7.83914006,19.3232217 11.9753435,19.8503878 15.190106,17.89925 C18.4048685,15.9481123 19.846491,12.0355929 18.6662651,8.46506024 C18.5580093,8.13792547 18.6325011,7.77788672 18.8616802,7.52056708 C19.0908594,7.26324744 19.439908,7.1477399 19.7773429,7.21755503 C20.1147778,7.28737015 20.3893346,7.53190137 20.4975904,7.85903614 C20.8289157,8.86385541 21,9.92048192 21,11 C21,16.5228475 16.5228475,21 11,21 C5.4771525,21 1,16.5228475 1,11 C1,5.4771525 5.4771525,1 11,1 Z M17.3614458,3.67394057 C17.6172619,3.67394057 17.8625848,3.77563659 18.0433735,3.95662651 C18.3807322,4.29384941 18.4206885,4.82711286 18.1373494,5.21084338 L18.0433735,5.3192771 L13.6999123,9.66323807 C13.8997205,10.0660252 14.0120482,10.5198948 14.0120482,11 C14.0120482,12.0761012 13.4379551,13.0704597 12.5060241,13.6085103 C11.5740932,14.1465609 10.4259068,14.1465609 9.49397589,13.6085103 C8.56204493,13.0704597 7.98795181,12.0761012 7.98795181,11 C7.98795181,9.33649172 9.33649172,7.98795181 11,7.98795181 C11.4801052,7.98795181 11.9339748,8.10027946 12.3367619,8.30008771 L16.6795181,3.95662651 C16.8603067,3.77563659 17.1056296,3.67394057 17.3614458,3.67394057 Z" fill="#666" fill-rule="nonzero"/>
</svg>
