<svg width="22px" height="22px" xmlns="http://www.w3.org/2000/svg" viewBox="0 0 22 22" class="design-iconfont">
  <path d="M21.1176471,17.4705882 L19.0588235,17.4705882 L19.0588235,20.1176471 C19.0588235,20.6047059 18.6635294,21 18.1764706,21 C17.6894118,21 17.2941177,20.6047059 17.2941177,20.1176471 L17.2941177,17.4705882 L15.2352941,17.4705882 C14.7482353,17.4705882 14.3529412,17.0752941 14.3529412,16.5882353 C14.3529412,16.1005882 14.7482353,15.7058823 15.2352941,15.7058823 L17.2941177,15.7058823 L17.2941177,13.6470588 C17.2941177,13.1594118 17.6894118,12.7647059 18.1764706,12.7647059 C18.6635294,12.7647059 19.0588235,13.1594118 19.0588235,13.6470588 L19.0588235,15.7058823 L21.1176471,15.7058823 C21.6047059,15.7058823 22,16.1005882 22,16.5882353 C22,17.0752941 21.6047059,17.4705882 21.1176471,17.4705882 Z M14.6470588,14.5294118 L6.41176471,14.5294118 C5.92470588,14.5294118 5.52941176,14.1341177 5.52941176,13.6470588 C5.52941176,13.1594118 5.92470588,12.7647059 6.41176471,12.7647059 L14.6470588,12.7647059 C15.1341177,12.7647059 15.5294118,13.1594118 15.5294118,13.6470588 C15.5294118,14.1341177 15.1341177,14.5294118 14.6470588,14.5294118 Z M14.6470588,7.47058824 L6.41176471,7.47058824 C5.92470588,7.47058824 5.52941176,7.07529412 5.52941176,6.58823529 C5.52941176,6.10058824 5.92470588,5.70529412 6.41176471,5.70529412 L14.6470588,5.70529412 C15.1341177,5.70529412 15.5294118,6.10058824 15.5294118,6.58823529 C15.5294118,7.07529412 15.1341177,7.47058824 14.6470588,7.47058824 Z M14.6470588,11 L6.41176471,11 C5.92470588,11 5.52941176,10.6047059 5.52941176,10.1176471 C5.52941176,9.63 5.92470588,9.23529412 6.41176471,9.23529412 L14.6470588,9.23529412 C15.1341177,9.23529412 15.5294118,9.63 15.5294118,10.1176471 C15.5294118,10.6047059 15.1341177,11 14.6470588,11 Z M18.1764706,11.5882353 C17.6894118,11.5882353 17.2941177,11.1929412 17.2941177,10.7052941 L17.2941177,2.76470588 L3.76470588,2.76470588 L3.76470588,18.6470588 L14.6470588,18.6470588 C15.1341177,18.6470588 15.5294118,19.0417647 15.5294118,19.5294118 C15.5294118,20.0164706 15.1341177,20.4117647 14.6470588,20.4117647 L2.88235295,20.4117647 C2.39529412,20.4117647 2,20.0164706 2,19.5294118 L2,1.88235295 C2,1.39529412 2.39529412,1 2.88235295,1 L18.1764706,1 C18.6635294,1 19.0588235,1.39529412 19.0588235,1.88235295 L19.0588235,10.7052941 C19.0588235,11.1929412 18.6635294,11.5882353 18.1764706,11.5882353 Z" fill="#626363" fill-rule="nonzero"/>
</svg>
