<?xml version="1.0" standalone="no"?><!DOCTYPE svg PUBLIC "-//W3C//DTD SVG 1.1//EN" "http://www.w3.org/Graphics/SVG/1.1/DTD/svg11.dtd"><svg t="1749105053045" class="icon" viewBox="0 0 1024 1024" version="1.1" xmlns="http://www.w3.org/2000/svg" p-id="9274" xmlns:xlink="http://www.w3.org/1999/xlink" width="32" height="32"><path d="M928 518.208c25.6 0 44.8-19.2 44.8-44.8v-83.2c0-57.6-32-102.4-83.2-128-6.4-70.4-64-128-134.4-128H480l-12.8-19.2c-6.4-12.8-19.2-25.6-32-25.6H192c-76.8 0-140.8 64-140.8 140.8v576c0 76.8 64 140.8 140.8 140.8h341.248a318.08 318.08 0 0 1-19.712-83.2H192c-32 0-51.2-25.6-51.2-51.2v-576c0-38.4 19.2-57.6 51.2-57.6h217.6l83.2 140.8c6.4 12.8 19.2 19.2 38.4 19.2H832c32 0 51.2 25.6 51.2 51.2v83.2c0 25.6 19.2 44.8 44.8 44.8z m-396.8-300.8l19.2 32h249.6c-12.8-19.2-32-32-51.2-32H531.2z m332.8 582.528V640h-64v160H640v64h160V1024h64v-160H1024v-64h-160z" fill="#707070" p-id="9275"></path></svg>