<svg width="22px" height="22px" xmlns="http://www.w3.org/2000/svg" viewBox="0 0 22 22" class="design-iconfont">
  <path d="M10.0112108,20 C4.48206278,20 0,15.5224215 0,10 C0,4.47757848 4.48206278,0 10.0112108,0 C15.5403587,0 20.0224224,4.47757848 20.0224224,10 C20.0246637,15.5224215 15.5426009,20 10.0112108,20 Z M9.95515695,1.86547085 C5.46188341,1.86547085 1.97757848,5.50224215 1.97757848,9.98878924 C1.97757848,14.4753363 5.46188341,17.9887892 9.95515695,17.9887892 C14.4484305,17.9887892 18.0919283,14.4753363 18.0919283,9.98878924 C18.0919283,5.50224215 14.4484305,1.86547085 9.95515695,1.86547085 Z M14.0246637,10.9887892 L11.0201794,10.9887892 L11.0201794,13.9887892 C11.0201794,14.5403587 10.5717489,14.9887892 10.0201794,14.9887892 L10.0179372,14.9887892 C9.46636771,14.9887892 9.01793722,14.5426009 9.01793722,13.9887892 L9.01793722,10.9887892 L6.01345291,10.9887892 C5.45964126,10.9887892 5.01345291,10.5426009 5.01345291,9.99103139 L5.01345291,9.98878924 C5.01345291,9.43721973 5.46188341,8.98878924 6.01345291,8.98878924 L9.01793722,8.98878924 L9.01793722,5.98878924 C9.01793722,5.43721973 9.46636771,4.98878924 10.0179372,4.98878924 L10.0201794,4.98878924 C10.573991,4.98878924 11.0201794,5.43497758 11.0201794,5.98878924 L11.0201794,8.98878924 L14.0246637,8.98878924 C14.5784753,8.98878924 15.0246637,9.43497758 15.0246637,9.98878924 L15.0246637,9.99103139 C15.0246637,10.5426009 14.5784753,10.9887892 14.0246637,10.9887892 Z" transform="translate(1 1)" fill="#626363" fill-rule="nonzero"/>
</svg>
