<svg width="8" height="12" viewBox="0 0 8 12" fill="none" xmlns="http://www.w3.org/2000/svg">
    <g id="&#228;&#184;&#139;&#228;&#184;&#128;&#231;&#186;&#167;" opacity="0.7">
        <path id="&#229;&#189;&#162;&#231;&#138;&#182;&#231;&#187;&#147;&#229;&#144;&#136;" fill-rule="evenodd"
            clip-rule="evenodd"
            d="M7.76738 11.8051C7.91579 11.6827 7.99984 11.5131 8 11.3357C7.99984 11.1584 7.91579 10.9888 7.76738 10.8664L1.9238 6L7.76738 1.13362C7.91579 1.01121 7.99984 0.841631 8 0.664276C7.99984 0.486922 7.91579 0.317344 7.76738 0.194931C7.45209 -0.0649776 6.95632 -0.0649776 6.64103 0.194931L0.23385 5.53065C0.0845823 5.65264 0 5.8224 0 6C0 6.1776 0.0845823 6.34736 0.23385 6.46935L6.64103 11.8051C6.95632 12.065 7.45209 12.065 7.76738 11.8051Z"
            fill="currentColor" />
    </g>
</svg>