<svg t="1690184657228" class="icon" viewBox="0 0 1024 1024" version="1.1" xmlns="http://www.w3.org/2000/svg" p-id="9514" xmlns:xlink="http://www.w3.org/1999/xlink" width="22" height="22"><path d="M296 281.984a32 32 0 0 0 32 32h320a32 32 0 1 0 0-64h-320a32 32 0 0 0-32 32zM448 393.984H328a32 32 0 0 0 0 64H448a32 32 0 0 0 0-64z m-52.032 458.048H208v-704H768V432a35.968 35.968 0 1 0 72 0V107.968a32 32 0 0 0-32-32h-640a32 32 0 0 0-32 32v784a32 32 0 0 0 32 32h228.032a35.968 35.968 0 1 0 0-71.936z m476.032-88.064h-144v-36.544a112 112 0 1 0-64 0v36.608h-144a16 16 0 0 0-16 16v151.936c0 8.832 7.168 16 16 16h352a16 16 0 0 0 16-16v-151.936a16 16 0 0 0-16-16z m-225.984-144a50.048 50.048 0 1 1 100.032 0.064 50.048 50.048 0 0 1-100.032 0z m179.968 266.048H566.016v-60.032h259.968v60.032z" p-id="9515" fill="#666666"></path></svg>