<svg width="22px" height="22px" xmlns="http://www.w3.org/2000/svg" viewBox="0 0 22 22" class="design-iconfont">
  <path d="M8.250204,0.252020956 C8.58164974,0.584994098 8.58623194,1.1211114 8.25936839,1.45866675 L8.250204,1.46783114 L2.92263373,6.79234661 L17.474171,6.79234661 C17.9486732,6.79234661 18.3333333,7.1770067 18.3333333,7.65150896 C18.3333333,8.12601123 17.9486732,8.51067131 17.474171,8.51067131 L2.93943512,8.51067131 L8.2486766,13.8199128 C8.58012234,14.1528859 8.58470454,14.6890032 8.25784099,15.0265586 L8.2486766,15.035723 C7.91647518,15.3678337 7.37923833,15.371914 7.04203081,15.0448874 L0.277177389,8.27850655 C0.233971564,8.23780671 0.195072227,8.19276538 0.161095009,8.14409538 L0.252738993,8.25101336 C0.164058155,8.16243993 0.0957733166,8.05558197 0.0526496279,7.93789641 C-0.0613112858,7.62912908 0.0130456688,7.28232824 0.243574595,7.04742237 L7.03592121,0.252020956 C7.37194915,-0.0840069853 7.91570345,-0.0840069853 8.2517314,0.252020956 L8.250204,0.252020956 Z" transform="translate(1.833333 3.666667)" fill="#606266" fill-rule="nonzero"/>
</svg>
