<?xml version="1.0" standalone="no"?><!DOCTYPE svg PUBLIC "-//W3C//DTD SVG 1.1//EN" "http://www.w3.org/Graphics/SVG/1.1/DTD/svg11.dtd"><svg t="1749118895894" class="icon" viewBox="0 0 1024 1024" version="1.1" xmlns="http://www.w3.org/2000/svg" p-id="48873" xmlns:xlink="http://www.w3.org/1999/xlink" width="32" height="32"><path d="M341.796571 295.497143c0-66.925714 24.502857-107.593143 56.941715-132.096 33.462857-25.307429 77.970286-35.401143 120.100571-35.401143 42.057143 0 83.675429 10.093714 114.358857 34.925714 29.878857 24.210286 52.370286 64.841143 52.370286 132.608 0 66.742857-23.332571 104.301714-46.957714 132.169143-6.070857 7.168-12.178286 13.714286-18.285715 20.260572l-0.182857 0.182857c-5.961143 6.4-12.141714 13.019429-17.517714 19.602285-10.715429 13.129143-21.065143 29.403429-21.065143 50.212572v0.365714c0 13.019429 0 23.625143 0.292572 32 0.256 8.118857 0.804571 15.908571 2.450285 22.418286a32.548571 32.548571 0 0 0 14.884572 20.845714c7.68 4.534857 16.018286 4.644571 20.370285 4.644572h212.48v148.443428H192l0.073143-148.406857h213.394286c8.009143 0 17.152-1.828571 24.941714-8.301714 7.570286-6.290286 11.081143-14.628571 12.873143-21.723429 3.072-12.068571 3.072-29.037714 3.072-47.104v-3.181714c0-19.017143-11.849143-34.413714-21.504-45.641143-4.132571-4.790857-8.850286-9.874286-13.531429-14.921143l-3.730286-4.022857a437.101714 437.101714 0 0 1-18.285714-20.918857c-23.881143-29.366857-47.542857-69.997714-47.542857-136.923429z m177.005715-210.176c-47.908571 0-102.546286 11.337143-145.773715 44.032-44.214857 33.389714-73.874286 87.222857-73.874285 166.180571 0 78.994286 28.635429 128.841143 57.051428 163.84 6.948571 8.557714 13.860571 16.164571 20.077715 22.893715l4.132571 4.498285c4.571429 4.937143 8.557714 9.216 12.105143 13.348572 9.947429 11.556571 11.190857 16.091429 11.190857 17.846857v0.292571c0 10.386286 0 18.688-0.292571 25.6a95.451429 95.451429 0 0 1-1.024 11.702857h-210.285715c-23.552 0.036571-42.642286 19.126857-42.678857 42.642286l-0.073143 148.443429c0 23.588571 19.090286 42.678857 42.642286 42.678857h640c23.588571 0 42.678857-19.090286 42.678857-42.642286v-148.443428c0-23.552-19.126857-42.678857-42.678857-42.678858h-207.177143a172.544 172.544 0 0 1-0.365714-6.582857c-0.219429-7.606857-0.219429-17.554286-0.219429-31.012571 0-5.851429 2.633143-12.434286 11.446857-23.222857 4.352-5.339429 9.508571-10.898286 15.725715-17.554286l0.365714-0.365714a585.142857 585.142857 0 0 0 19.382857-21.540572c28.452571-33.536 57.088-80.530286 57.088-159.744 0-78.189714-26.550857-132.022857-68.169143-165.741714-40.850286-33.097143-93.293714-44.470857-141.238857-44.470857z m-348.16 789.357714a21.321143 21.321143 0 1 0 0 42.642286h682.678857a21.321143 21.321143 0 1 0 0-42.642286H170.678857z" p-id="48874" fill="#707070"></path></svg>