<svg width="22px" height="22px" xmlns="http://www.w3.org/2000/svg" viewBox="0 0 22 22" class="design-iconfont">
  <path d="M17.1281247,4.10919542 C17.6384041,4.10941652 18.0577261,4.49711367 18.0787386,4.98811498 C18.0997512,5.4791163 17.7149783,5.8987281 17.2064483,5.93938589 L17.1281247,5.94252875 L4.61810165,5.94252875 C4.10782228,5.94230765 3.68850026,5.55461049 3.66748769,5.06360918 C3.64647512,4.57260787 4.03124808,4.15299607 4.53977802,4.11233827 L4.61810165,4.10919542 L17.1281247,4.10919542 Z M17.1281247,10.510246 C17.6384041,10.5104671 18.0577261,10.8981643 18.0787386,11.3891656 C18.0997512,11.8801669 17.7149783,12.2997787 17.2064483,12.3404365 L17.1281247,12.3435793 L4.61810165,12.3435793 C4.10782228,12.3433582 3.68850026,11.9556611 3.66748769,11.4646598 C3.64647512,10.9736585 4.03124808,10.5540467 4.53977802,10.5133889 L4.61810165,10.510246 L17.1281247,10.510246 Z M17.1281247,16.9112966 C17.6384041,16.9115177 18.0577261,17.2992148 18.0787386,17.7902162 C18.0997512,18.2812175 17.7149783,18.7008293 17.2064483,18.7414871 L17.1281247,18.7446299 L4.61810165,18.7446299 C4.10782228,18.7444088 3.68850026,18.3567117 3.66748769,17.8657104 C3.64647512,17.374709 4.03124808,16.9550972 4.53977802,16.9144394 L4.61810165,16.9112966 L17.1281247,16.9112966 Z" fill="#606266" fill-rule="nonzero"/>
</svg>
