<svg width="22" height="22" viewBox="0 0 22 22" fill="none" xmlns="http://www.w3.org/2000/svg">
    <path
        d="M12.8333 2.75V6.41667C12.8333 6.65978 12.9299 6.89294 13.1018 7.06485C13.2737 7.23676 13.5069 7.33333 13.75 7.33333H17.4167"
        stroke="#797575" stroke-width="1.3" stroke-linecap="round" stroke-linejoin="round" />
    <path
        d="M11 19.25H6.41666C5.93043 19.25 5.46412 19.0568 5.1203 18.713C4.77648 18.3692 4.58333 17.9029 4.58333 17.4167V4.58333C4.58333 4.0971 4.77648 3.63079 5.1203 3.28697C5.46412 2.94315 5.93043 2.75 6.41666 2.75H12.8333L17.4167 7.33333V11.4583"
        stroke="#797575" stroke-width="1.3" stroke-linecap="round" stroke-linejoin="round" />
    <path
        d="M12.8333 16.0417C12.8333 16.6495 13.0748 17.2323 13.5045 17.6621C13.9343 18.0919 14.5172 18.3333 15.125 18.3333C15.7328 18.3333 16.3157 18.0919 16.7454 17.6621C17.1752 17.2323 17.4167 16.6495 17.4167 16.0417C17.4167 15.4339 17.1752 14.851 16.7454 14.4212C16.3157 13.9914 15.7328 13.75 15.125 13.75C14.5172 13.75 13.9343 13.9914 13.5045 14.4212C13.0748 14.851 12.8333 15.4339 12.8333 16.0417Z"
        stroke="#797575" stroke-width="1.3" stroke-linecap="round" stroke-linejoin="round" />
    <path d="M16.9583 17.875L19.25 20.1667" stroke="#797575" stroke-width="1.3" stroke-linecap="round"
        stroke-linejoin="round" />
</svg>