<svg xmlns="http://www.w3.org/2000/svg" viewBox="0 0 14 14" class="design-iconfont">
  <g fill-rule="nonzero" fill="none">
    <path fill="#209AC2" d="M8.1701951 10.4971747L13.9991801 10.4971747 13.9991801 11.6622798 8.1701951 11.6622798z"/>
    <path fill="#209AC2" d="M10.5046823 8.16155072L11.6692295 8.16155072 11.6692295 13.9978856 10.5046823 13.9978856z"/>
    <path d="M5.83011462,5.83733738 L0,5.83733738 L0,0.00442936453 L5.83011462,0.00442936453 L5.83011462,5.83733738 Z M1.16602292,4.67075578 L4.6640917,4.67075578 L4.6640917,1.17101097 L1.16602292,1.17101097 L1.16602292,4.67075578 Z M14,5.83290802 L8.16988538,5.83290802 L8.16988538,0 L14,0 L14,5.83290802 Z M9.3359083,4.66632641 L12.8339771,4.66632641 L12.8339771,1.1665816 L9.3359083,1.1665816 L9.3359083,4.66632641 Z M5.84150157,14 L0.0113869426,14 L0.0113869426,8.16709198 L5.84150157,8.16709198 L5.84150157,14 Z M1.17740987,12.8334184 L4.67547864,12.8334184 L4.67547864,9.33367359 L1.17740987,9.33367359 L1.17740987,12.8334184 Z" fill="#606266"/>
  </g>
</svg>
