<?xml version="1.0" standalone="no"?><!DOCTYPE svg PUBLIC "-//W3C//DTD SVG 1.1//EN" "http://www.w3.org/Graphics/SVG/1.1/DTD/svg11.dtd"><svg t="1710398040967" class="icon" viewBox="0 0 1024 1024" version="1.1" xmlns="http://www.w3.org/2000/svg" p-id="6765" width="24" height="24" xmlns:xlink="http://www.w3.org/1999/xlink"><path d="M480.832 960V64h78.4v896H480.832zM128 136.832h308.032v78.4H197.568v593.536h238.4v78.464H128V136.832zM604.032 887.232h78.336v-78.464H604.032v78.464zM604.032 215.168h78.336V136.768H604.032v78.4zM794.368 887.168h-78.4v-78.4h78.464v78.4zM794.368 215.168h-78.4V136.768h78.464v78.4zM912 887.168h-78.4v-78.4h78.4v78.4zM912 674.368v78.4h-78.4v-78.4h78.4zM912 539.968v78.4h-78.4V539.968h78.4zM912 405.568v78.4h-78.4V405.568h78.4zM912 271.168v78.4h-78.4V271.168h78.4zM912 215.168h-78.4V136.768h78.4v78.4z" p-id="6766" fill="#666666"></path></svg>