<svg width="22" height="22" viewBox="0 0 22 22" fill="none" xmlns="http://www.w3.org/2000/svg">
    <path
        d="M9.16666 4.58333C9.16666 5.06956 9.35982 5.53588 9.70364 5.8797C10.0475 6.22351 10.5138 6.41667 11 6.41667C11.4862 6.41667 11.9525 6.22351 12.2964 5.8797C12.6402 5.53588 12.8333 5.06956 12.8333 4.58333C12.8333 4.0971 12.6402 3.63079 12.2964 3.28697C11.9525 2.94315 11.4862 2.75 11 2.75C10.5138 2.75 10.0475 2.94315 9.70364 3.28697C9.35982 3.63079 9.16666 4.0971 9.16666 4.58333Z"
        stroke="currentColor" stroke-width="1.3" stroke-linecap="round" stroke-linejoin="round" />
    <path
        d="M15.5833 7.33333C15.5833 7.81956 15.7765 8.28588 16.1203 8.6297C16.4641 8.97351 16.9304 9.16667 17.4167 9.16667C17.9029 9.16667 18.3692 8.97351 18.713 8.6297C19.0568 8.28588 19.25 7.81956 19.25 7.33333C19.25 6.8471 19.0568 6.38079 18.713 6.03697C18.3692 5.69315 17.9029 5.5 17.4167 5.5C16.9304 5.5 16.4641 5.69315 16.1203 6.03697C15.7765 6.38079 15.5833 6.8471 15.5833 7.33333Z"
        stroke="currentColor" stroke-width="1.3" stroke-linecap="round" stroke-linejoin="round" />
    <path
        d="M2.75 10.0833C2.75 10.5696 2.94315 11.0359 3.28697 11.3797C3.63079 11.7235 4.0971 11.9167 4.58333 11.9167C5.06956 11.9167 5.53588 11.7235 5.8797 11.3797C6.22351 11.0359 6.41667 10.5696 6.41667 10.0833C6.41667 9.5971 6.22351 9.13079 5.8797 8.78697C5.53588 8.44315 5.06956 8.25 4.58333 8.25C4.0971 8.25 3.63079 8.44315 3.28697 8.78697C2.94315 9.13079 2.75 9.5971 2.75 10.0833Z"
        stroke="currentColor" stroke-width="1.3" stroke-linecap="round" stroke-linejoin="round" />
    <path
        d="M11.9167 17.4167C11.9167 17.9029 12.1098 18.3692 12.4536 18.713C12.7975 19.0568 13.2638 19.25 13.75 19.25C14.2362 19.25 14.7025 19.0568 15.0464 18.713C15.3902 18.3692 15.5833 17.9029 15.5833 17.4167C15.5833 16.9304 15.3902 16.4641 15.0464 16.1203C14.7025 15.7765 14.2362 15.5833 13.75 15.5833C13.2638 15.5833 12.7975 15.7765 12.4536 16.1203C12.1098 16.4641 11.9167 16.9304 11.9167 17.4167Z"
        stroke="currentColor" stroke-width="1.3" stroke-linecap="round" stroke-linejoin="round" />
    <path d="M5.95834 8.70833L9.16667 5.95833" stroke="currentColor" stroke-width="1.3" stroke-linecap="round"
        stroke-linejoin="round" />
    <path d="M12.8333 5.04166L15.5833 6.41666" stroke="currentColor" stroke-width="1.3" stroke-linecap="round"
        stroke-linejoin="round" />
    <path d="M16.9583 9.16667L14.6667 15.5833" stroke="currentColor" stroke-width="1.3" stroke-linecap="round"
        stroke-linejoin="round" />
    <path d="M12.375 16.0417L5.95834 11.4583" stroke="currentColor" stroke-width="1.3" stroke-linecap="round"
        stroke-linejoin="round" />
</svg>