<svg xmlns="http://www.w3.org/2000/svg" viewBox="0 0 24 24" class="design-iconfont">
  <path d="M20.625,4.3125 L16.6875,4.3125 L16.6875,2.8125 C16.6875,2.709375 16.603125,2.625 16.5,2.625 L15.1875,2.625 C15.084375,2.625 15,2.709375 15,2.8125 L15,4.3125 L9,4.3125 L9,2.8125 C9,2.709375 8.915625,2.625 8.8125,2.625 L7.5,2.625 C7.396875,2.625 7.3125,2.709375 7.3125,2.8125 L7.3125,4.3125 L3.375,4.3125 C2.96015625,4.3125 2.625,4.64765625 2.625,5.0625 L2.625,20.625 C2.625,21.0398437 2.96015625,21.375 3.375,21.375 L20.625,21.375 C21.0398437,21.375 21.375,21.0398437 21.375,20.625 L21.375,5.0625 C21.375,4.64765625 21.0398437,4.3125 20.625,4.3125 Z M19.6875,19.6875 L4.3125,19.6875 L4.3125,10.78125 L19.6875,10.78125 L19.6875,19.6875 Z M4.3125,9.1875 L4.3125,6 L7.3125,6 L7.3125,7.125 C7.3125,7.228125 7.396875,7.3125 7.5,7.3125 L8.8125,7.3125 C8.915625,7.3125 9,7.228125 9,7.125 L9,6 L15,6 L15,7.125 C15,7.228125 15.084375,7.3125 15.1875,7.3125 L16.5,7.3125 C16.603125,7.3125 16.6875,7.228125 16.6875,7.125 L16.6875,6 L19.6875,6 L19.6875,9.1875 L4.3125,9.1875 Z" fill="#BFC6D8" fill-rule="nonzero"/>
</svg>
