<svg width="22" height="22" viewBox="0 0 22 22" fill="none" xmlns="http://www.w3.org/2000/svg">
    <path d="M3.66666 6.41667H18.3333" stroke="#B52B21" stroke-width="1.5" stroke-linecap="round"
        stroke-linejoin="round" />
    <path d="M9.16666 10.0833V15.5833" stroke="#B52B21" stroke-width="1.5" stroke-linecap="round"
        stroke-linejoin="round" />
    <path d="M12.8333 10.0833V15.5833" stroke="#B52B21" stroke-width="1.5" stroke-linecap="round"
        stroke-linejoin="round" />
    <path
        d="M4.58334 6.41667L5.50001 17.4167C5.50001 17.9029 5.69316 18.3692 6.03698 18.713C6.3808 19.0569 6.84711 19.25 7.33334 19.25H14.6667C15.1529 19.25 15.6192 19.0569 15.963 18.713C16.3069 18.3692 16.5 17.9029 16.5 17.4167L17.4167 6.41667"
        stroke="#B52B21" stroke-width="1.5" stroke-linecap="round" stroke-linejoin="round" />
    <path
        d="M8.25 6.41667V3.66667C8.25 3.42355 8.34658 3.19039 8.51849 3.01849C8.69039 2.84658 8.92355 2.75 9.16667 2.75H12.8333C13.0764 2.75 13.3096 2.84658 13.4815 3.01849C13.6534 3.19039 13.75 3.42355 13.75 3.66667V6.41667"
        stroke="#B52B21" stroke-width="1.5" stroke-linecap="round" stroke-linejoin="round" />
</svg>