<svg width="22px" height="22px" xmlns="http://www.w3.org/2000/svg" viewBox="0 0 22 22" class="design-iconfont">
  <g fill="#000" fill-rule="nonzero" opacity=".6">
    <path d="M19.1995764,4.08281901 L14.2180198,4.08281901 C14.1426845,2.43756944 12.7705579,1.12205729 11.0944926,1.12205729 C9.41842717,1.12205729 8.04630062,2.43756944 7.97096535,4.08281901 L2.97586667,4.08281901 C2.55077082,4.08281901 2.20615767,4.42482639 2.20615767,4.8467079 C2.20615767,5.26858941 2.55077082,5.61059679 2.97586667,5.61059679 L19.1995764,5.61059679 C19.6246722,5.61059679 19.9692854,5.26858941 19.9692854,4.8467079 C19.9692854,4.42482639 19.6246722,4.08281901 19.1995764,4.08281901 Z M11.0944926,2.6498112 C11.9214246,2.6498112 12.6023765,3.28064019 12.6752343,4.08279514 L9.51377487,4.08279514 C9.58663263,3.28064019 10.2675605,2.6498112 11.0944926,2.6498112 L11.0944926,2.6498112 Z M17.2753039,7.13448351 C16.850208,7.13448351 16.5055949,7.47649089 16.5055949,7.8983724 L16.5055949,19.3130924 L5.74200837,19.3130924 L5.74200837,7.8983724 C5.74200837,7.47649089 5.39739522,7.13448351 4.97229937,7.13448351 C4.54720353,7.13448351 4.20259038,7.47649089 4.20259038,7.8983724 L4.20259038,20.0769813 C4.20259038,20.4988628 4.54720353,20.8408702 4.97229937,20.8408702 L17.2753039,20.8408702 C17.7003997,20.8408702 18.0450129,20.4988628 18.0450129,20.0769813 L18.0450129,7.8983724 C18.0450129,7.47649089 17.7003997,7.13448351 17.2753039,7.13448351 L17.2753039,7.13448351 Z"/>
    <path d="M9.61580942,16.229822 L9.61580942,9.43612847 C9.61580942,9.01424696 9.27119627,8.67223958 8.84610042,8.67223958 C8.42100458,8.67223958 8.07639143,9.01424696 8.07639143,9.43612847 L8.07639143,16.2297982 C8.07639143,16.6516797 8.42100458,16.9936871 8.84610042,16.9936871 C9.27119627,16.9936871 9.61580942,16.6517036 9.61580942,16.229822 Z M14.2228545,16.229822 L14.2228545,9.43612847 C14.2228545,9.01424696 13.8782413,8.67223958 13.4531455,8.67223958 C13.0280497,8.67223958 12.6834365,9.01424696 12.6834365,9.43612847 L12.6834365,16.2297982 C12.6834365,16.6516797 13.0280497,16.9936871 13.4531455,16.9936871 C13.8782413,16.9936871 14.2228545,16.6517036 14.2228545,16.229822 Z"/>
  </g>
</svg>
