<svg width="22px" height="22px" xmlns="http://www.w3.org/2000/svg" viewBox="0 0 22 22" class="design-iconfont">
  <path d="M10,0 C15.5227273,0 20,4.47727272 20,10 C20,15.5227273 15.5227273,20 10,20 C4.47727272,20 0,15.5227273 0,10 C0,4.47727272 4.47727272,0 10,0 Z M10,1.59090908 C5.35590908,1.59090908 1.59090908,5.35590908 1.59090908,10 C1.59090908,14.6440909 5.35590908,18.4090909 10,18.4090909 C14.6440909,18.4090909 18.4090909,14.6440909 18.4090909,10 C18.4090909,5.35590908 14.6440909,1.59090908 10,1.59090908 Z M5.78045454,8.86363636 C6.46252621,8.86363636 7.01545454,9.41656469 7.01545454,10.0986364 C7.01545454,10.780708 6.46252621,11.3336364 5.78045454,11.3336364 C5.09838288,11.3336364 4.54545454,10.780708 4.54545454,10.0986364 C4.54545454,9.41656469 5.09838288,8.86363636 5.78045454,8.86363636 Z M10.0986364,8.86363637 C10.780708,8.86363637 11.3336364,9.4165647 11.3336364,10.0986364 C11.3336364,10.780708 10.780708,11.3336364 10.0986364,11.3336364 C9.4165647,11.3336364 8.86363637,10.780708 8.86363637,10.0986364 C8.86363637,9.4165647 9.4165647,8.86363637 10.0986364,8.86363637 Z M14.4168182,8.86363636 C15.0988898,8.86363636 15.6518182,9.41656469 15.6518182,10.0986364 C15.6518182,10.780708 15.0988898,11.3336364 14.4168182,11.3336364 C13.7347465,11.3336364 13.1818182,10.780708 13.1818182,10.0986364 C13.1818182,9.41656469 13.7347465,8.86363636 14.4168182,8.86363636 Z" transform="translate(1 1)" fill="#666" fill-rule="nonzero"/>
</svg>
