
<svg width="22px" height="22px" xmlns="http://www.w3.org/2000/svg" viewBox="0 0 22 22" class="design-iconfont">
  <path d="M13.1833333,2.44444444 C13.3604167,2.44444444 13.5291667,2.51586806 13.6541667,2.64190972 L13.6541667,2.64190972 L18.1375,7.16260417 C18.2625,7.28864583 18.3333333,7.46090278 18.3333333,7.63946181 L18.3333333,7.63946181 L18.3333333,18.8833333 C18.3333333,19.2551562 18.0354167,19.5555556 17.6666667,19.5555556 L17.6666667,19.5555556 L4.33333333,19.5555556 C3.96458333,19.5555556 3.66666667,19.2551562 3.66666667,18.8833333 L3.66666667,18.8833333 L3.66666667,3.11666667 C3.66666667,2.74484375 3.96458333,2.44444444 4.33333333,2.44444444 L4.33333333,2.44444444 Z M11.5805556,3.83472222 L5.04444444,3.83472222 L5.04444444,18.1652778 L16.9555556,18.1652778 L16.9555556,9.25451389 L12.4555556,9.25451389 C11.9722222,9.25451389 11.5805556,8.85958333 11.5805556,8.37222222 L11.5805556,8.37222222 L11.5805556,3.83472222 Z M10.8333333,14.0822917 C10.925,14.0822917 11,14.1579167 11,14.2503472 L11,14.2503472 L11,15.2586806 C11,15.3511111 10.925,15.4267361 10.8333333,15.4267361 L10.8333333,15.4267361 L7,15.4267361 C6.90833333,15.4267361 6.83333333,15.3511111 6.83333333,15.2586806 L6.83333333,15.2586806 L6.83333333,14.2503472 C6.83333333,14.1579167 6.90833333,14.0822917 7,14.0822917 L7,14.0822917 Z M15,11.2253472 C15.0916667,11.2253472 15.1666667,11.3009722 15.1666667,11.3934028 L15.1666667,11.3934028 L15.1666667,12.4017361 C15.1666667,12.4941667 15.0916667,12.5697917 15,12.5697917 L15,12.5697917 L7,12.5697917 C6.90833333,12.5697917 6.83333333,12.4941667 6.83333333,12.4017361 L6.83333333,12.4017361 L6.83333333,11.3934028 C6.83333333,11.3009722 6.90833333,11.2253472 7,11.2253472 L7,11.2253472 Z M12.875,3.99475694 L12.875,7.94826389 L16.7958333,7.94826389 L12.875,3.99475694 Z" fill="#606266" fill-rule="nonzero"/>
</svg>
