<svg width="22px" height="22px" xmlns="http://www.w3.org/2000/svg" viewBox="0 0 22 22" class="design-iconfont">
  <path d="M3.56657963,14.7336815 C3.71018277,14.7336815 3.82767624,14.8511749 3.82767624,14.9947781 L3.82767624,14.9947781 L3.82767624,18.8067885 C3.82767624,19.0078329 3.9921671,19.1723238 4.19321149,19.1723238 L4.19321149,19.1723238 L18.6057441,19.1723238 C18.8067885,19.1723238 18.9712794,19.0078329 18.9712794,18.8067885 L18.9712794,18.8067885 L18.9712794,14.9947781 C18.9712794,14.8511749 19.0887728,14.7336815 19.232376,14.7336815 L19.232376,14.7336815 L20.537859,14.7336815 C20.6814621,14.7336815 20.7989556,14.8511749 20.7989556,14.9947781 L20.7989556,14.9947781 L20.7989556,19.4334204 C20.7989556,20.2976501 20.0966057,21 19.232376,21 L19.232376,21 L3.56657963,21 C2.70234987,21 2,20.2976501 2,19.4334204 L2,19.4334204 L2,14.9947781 C2,14.8511749 2.11749347,14.7336815 2.26109661,14.7336815 L2.26109661,14.7336815 Z M11.3994778,1 C11.9033943,1 12.3133159,1.40992167 12.3133159,1.91383812 L12.3133159,13.6501305 L16.845953,9.11749347 C17.2036554,8.75979112 17.7806789,8.75979112 18.1383812,9.11749347 C18.4960836,9.47519582 18.4960836,10.0522193 18.1383812,10.4099217 L12.0469974,16.5013055 C12.0365535,16.5117493 12.0261097,16.5221932 12.0130548,16.5326371 C12.0078329,16.537859 12.002611,16.5430809 11.997389,16.5456919 C11.9921671,16.5509138 11.9869452,16.5561358 11.9791123,16.5613577 C11.9712794,16.5665796 11.9660574,16.5718016 11.9582245,16.5770235 C11.9530026,16.5796345 11.9477807,16.5848564 11.9451697,16.5874674 L11.921671,16.6031332 C11.9164491,16.6057441 11.9138381,16.6083551 11.9086162,16.6109661 L11.8965405,16.618799 L11.8965405,16.618799 L11.8825065,16.6266319 C11.8772846,16.6292428 11.8746736,16.6318538 11.8694517,16.6344648 C11.8616188,16.6396867 11.8537859,16.6449086 11.843342,16.6475196 C11.8381201,16.6501305 11.8328982,16.6527415 11.8302872,16.6553525 C11.8224543,16.6605744 11.8146214,16.6631854 11.8067885,16.6684073 L11.7911227,16.6762402 C11.7832898,16.6788512 11.7754569,16.6840731 11.770235,16.6866841 L11.7610966,16.6906005 L11.7310705,16.7023499 L11.7310705,16.7023499 L11.7075718,16.7101828 C11.7023499,16.7127937 11.6971279,16.7154047 11.689295,16.7154047 C11.6814621,16.7180157 11.6736292,16.7206266 11.6631854,16.7232376 C11.6579634,16.7258486 11.6527415,16.7258486 11.6475196,16.7284595 C11.6370757,16.7310705 11.6292428,16.7336815 11.618799,16.7362924 C11.613577,16.7362924 11.6083551,16.7389034 11.6031332,16.7389034 C11.5926893,16.7415144 11.5848564,16.7441253 11.5744125,16.7441253 L11.5587467,16.7467363 L11.5587467,16.7467363 C11.5483029,16.7493473 11.54047,16.7493473 11.5300261,16.7519582 C11.5248042,16.7519582 11.5195822,16.7545692 11.5117493,16.7545692 C11.5039164,16.7545692 11.4934726,16.7571802 11.4856397,16.7571802 C11.4778068,16.7571802 11.4699739,16.7571802 11.462141,16.7597911 C11.4543081,16.7597911 11.4490862,16.7597911 11.4412533,16.7624021 C11.4099217,16.7650131 11.381201,16.7650131 11.3498695,16.7624021 C11.3420366,16.7624021 11.3368146,16.7624021 11.3289817,16.7597911 C11.3211488,16.7597911 11.3133159,16.7597911 11.305483,16.7571802 C11.2976501,16.7571802 11.2872063,16.7545692 11.2793734,16.7545692 C11.2741514,16.7545692 11.2689295,16.7519582 11.2610966,16.7519582 C11.2506527,16.7493473 11.2428198,16.7493473 11.232376,16.7467363 L11.2167102,16.7441253 L11.2167102,16.7441253 C11.2062663,16.7415144 11.1984334,16.7389034 11.1879896,16.7389034 C11.1827676,16.7389034 11.1775457,16.7362924 11.1723238,16.7362924 C11.1618799,16.7336815 11.154047,16.7310705 11.1436031,16.7284595 C11.1383812,16.7258486 11.1331593,16.7258486 11.1279373,16.7232376 C11.1201044,16.7206266 11.1122715,16.7180157 11.1018277,16.7154047 C11.0966057,16.7127937 11.0887728,16.7127937 11.0835509,16.7101828 L11.0600522,16.7023499 C11.0522193,16.6997389 11.0469974,16.6971279 11.0391645,16.694517 C11.0339426,16.691906 11.0261097,16.689295 11.0208877,16.6866841 C11.0130548,16.6840731 11.0052219,16.6788512 11,16.6762402 L10.9843342,16.6684073 C10.9765013,16.6631854 10.9686684,16.6605744 10.9608355,16.6553525 L10.953329,16.651436 C10.9399478,16.6422977 10.9321149,16.6370757 10.921671,16.6318538 C10.9164491,16.6292428 10.9138381,16.6266319 10.9086162,16.6240209 L10.8965405,16.616188 L10.8965405,16.616188 L10.8759791,16.6044386 L10.8759791,16.6044386 L10.8577023,16.5923629 L10.8577023,16.5923629 L10.845953,16.5822454 C10.8407311,16.5796345 10.8381201,16.5744125 10.8328982,16.5718016 C10.8250653,16.5665796 10.8198433,16.5613577 10.8120104,16.5561358 C10.8067885,16.5509138 10.8015666,16.5456919 10.7937337,16.54047 C10.7885117,16.535248 10.7832898,16.5300261 10.7780679,16.5274151 L10.7467363,16.4960836 L4.66057441,10.4099217 C4.30287206,10.0522193 4.30287206,9.47519582 4.66057441,9.11749347 C5.01827676,8.75979112 5.59530026,8.75979112 5.95300261,9.11749347 L10.4856397,13.6501305 L10.4856397,1.91383812 C10.4856397,1.40992167 10.8955614,1 11.3994778,1 Z" fill="#666" fill-rule="nonzero"/>
</svg>
