<svg width="22" height="22" viewBox="0 0 22 22" fill="none" xmlns="http://www.w3.org/2000/svg">
    <path
        d="M3.66667 18.3333H7.33334L16.9583 8.70833C17.1991 8.46757 17.3901 8.18175 17.5204 7.86719C17.6507 7.55263 17.7177 7.21548 17.7177 6.875C17.7177 6.53452 17.6507 6.19737 17.5204 5.8828C17.3901 5.56824 17.1991 5.28242 16.9583 5.04166C16.7176 4.80091 16.4318 4.60993 16.1172 4.47963C15.8026 4.34934 15.4655 4.28227 15.125 4.28227C14.7845 4.28227 14.4474 4.34934 14.1328 4.47963C13.8182 4.60993 13.5324 4.80091 13.2917 5.04166L3.66667 14.6667V18.3333Z"
        stroke="#797575" stroke-width="1.3" stroke-linecap="round" stroke-linejoin="round" />
    <path d="M12.375 5.95833L16.0417 9.62499" stroke="#797575" stroke-width="1.3" stroke-linecap="round"
        stroke-linejoin="round" />
    <path d="M14.6667 17.4167H20.1667" stroke="#797575" stroke-width="1.3" stroke-linecap="round"
        stroke-linejoin="round" />
</svg>