<svg width="22px" height="22px" xmlns="http://www.w3.org/2000/svg" viewBox="0 0 22 22" class="design-iconfont">
  <path d="M4.73417722,16.9525316 L4.85949366,16.9525316 L8.9949367,16.2006329 C9.05759492,16.2006329 9.12025314,16.1379747 9.12025317,16.1379747 L19.6468354,5.61139242 C19.7721519,5.48607598 19.7721519,5.36075951 19.6468354,5.23544304 L15.5113924,1.1 L15.4487342,1.1 C15.386076,1.1 15.3234177,1.1 15.2607595,1.16265825 L4.73417722,11.6265823 C4.67151899,11.6892405 4.67151899,11.7518987 4.67151899,11.7518987 L3.91962026,15.8873418 C3.85696204,16.2006329 3.98227848,16.4512658 4.17025317,16.6392405 C4.29556961,16.8272152 4.4835443,16.9525316 4.73417722,16.9525316 Z M6.42594936,12.6291139 L15.4487342,3.66898735 L17.2658228,5.48607595 L8.24303796,14.4462025 L6.05,14.8221519 L6.42594936,12.6291139 L6.42594936,12.6291139 Z M20.2107595,19.0202531 L1.91455696,19.0202531 C1.47594936,19.0202531 1.1,19.3962025 1.1,19.8348101 L1.1,20.7120253 C1.1,20.8373418 1.22531644,20.9 1.28797469,20.9 L20.7120253,20.9 C20.8373418,20.9 20.9,20.7746836 20.9,20.7120253 L20.9,19.8348101 C20.9626582,19.3962025 20.6493671,19.0202531 20.2107595,19.0202531 L20.2107595,19.0202531 Z" fill="#000" fill-rule="nonzero" opacity=".6"/>
</svg>
