<svg width="22" height="22" viewBox="0 0 22 22" fill="none" xmlns="http://www.w3.org/2000/svg">
<g opacity="0.6">
<path d="M19.7083 16.5L13.6191 11M8.38099 11L2.29174 16.5M1.83337 6.41669L9.31788 11.6558C9.92396 12.0801 10.227 12.2922 10.5566 12.3744C10.8478 12.447 11.1523 12.447 11.4435 12.3744C11.7731 12.2922 12.0761 12.0801 12.6822 11.6558L20.1667 6.41669M6.23337 18.3334H15.7667C17.3069 18.3334 18.0769 18.3334 18.6652 18.0336C19.1826 17.77 19.6033 17.3493 19.867 16.8318C20.1667 16.2436 20.1667 15.4735 20.1667 13.9334V8.06669C20.1667 6.52654 20.1667 5.75647 19.867 5.16821C19.6033 4.65077 19.1826 4.23007 18.6652 3.96642C18.0769 3.66669 17.3069 3.66669 15.7667 3.66669H6.23337C4.69323 3.66669 3.92316 3.66669 3.3349 3.96642C2.81745 4.23007 2.39676 4.65077 2.13311 5.16821C1.83337 5.75647 1.83337 6.52654 1.83337 8.06669V13.9334C1.83337 15.4735 1.83337 16.2436 2.13311 16.8318C2.39676 17.3493 2.81745 17.77 3.3349 18.0336C3.92316 18.3334 4.69323 18.3334 6.23337 18.3334Z" stroke="black" stroke-width="1.5" stroke-linecap="round" stroke-linejoin="round"/>
</g>
</svg>
