<?xml version="1.0" standalone="no"?><!DOCTYPE svg PUBLIC "-//W3C//DTD SVG 1.1//EN" "http://www.w3.org/Graphics/SVG/1.1/DTD/svg11.dtd"><svg t="1749105335276" class="icon" viewBox="0 0 1024 1024" version="1.1" xmlns="http://www.w3.org/2000/svg" p-id="11447" xmlns:xlink="http://www.w3.org/1999/xlink" width="32" height="32"><path d="M919.741471 719.016891c-1.693572-30.206976-20.056801-47.967478-43.742247-47.282886-23.840988 0.688685-40.188304 18.556635-42.101887 49.281403-1.595334 25.640983-0.409322 51.444673-0.968048 77.166497-0.578168 26.643823-15.991206 40.839127-41.046858 44.438095-13.477966 1.935072-27.377534 1.182942-41.08779 1.188058-159.538553 0.064468-319.078129 0.046049-478.616682 0.032746-10.292414-0.001023-20.645203 0.562818-30.864962-0.334621-35.814694-3.14769-48.301076-15.563464-50.138934-51.569516-1.221828-23.960715 0.763386-48.109718-0.959861-72.01108-2.142803-29.701462-20.004613-48.282656-43.302225-48.321542-23.249517-0.037862-41.031509 18.325367-43.059702 48.423873-1.840928 27.327392-1.076518 54.870702-0.642636 82.307587 1.362021 86.438675 40.626279 126.044718 126.214587 126.486786 92.632747 0.479931 185.270611 0.110517 277.905404 0.077771 99.497085-0.033769 199.00338 0.76748 298.490232-0.308015 68.364017-0.740874 109.594047-39.547715 113.969705-106.714464C922.014234 787.716552 921.659147 753.212714 919.741471 719.016891z" p-id="11448" fill="#707070"></path><path d="M238.126422 467.705168c12.254092-9.238408 22.774703-20.849864 33.675984-31.794124 61.688991-61.921281 123.256208-123.963313 184.865381-185.964412 4.249791 1.658779 8.497535 3.318582 12.747325 4.978385 0 16.573467 0 33.144888 0 49.719378-0.001023 118.532627-0.042979 237.065254 0.052189 355.597881 0.010233 13.722536-0.723477 27.703969 1.567705 41.107233 3.6399 21.305235 17.866926 32.837896 39.497573 33.399691 21.552875 0.559748 36.686551-10.092869 41.423435-31.070646 2.973728-13.170974 2.368954-27.284413 2.38021-40.974203 0.11768-141.230582 0.083911-282.46321 0.050142-423.694815 71.058382 71.16276 181.4107 181.499727 210.272028 210.079646 8.475022 8.393157 16.972557 17.704221 27.28646 23.122627 29.699416 15.60542 62.062498-4.018523 61.885466-45.154409-5.275143-7.586792-13.059434-22.639626-24.340361-34.311457-40.479947-41.896202-231.079936-231.665267-272.376481-272.768407-6.058996-6.028297-11.984962-12.650111-19.189038-16.97665-17.968234-10.791787-35.894512-11.535731-51.291177 1.772366-2.177596 0.810459-4.317329 1.603521-6.377244 2.334161-7.358595 2.608407-12.603039 11.308557-18.676361 17.380856-87.465051 87.451748-174.932148 174.905542-262.326591 262.429944-7.270591 7.2798-15.075347 14.359033-20.803815 22.774703-13.072737 19.204387-13.731746 39.46585 3.464915 56.119135C199.057615 482.412125 219.563648 481.70195 238.126422 467.705168z" p-id="11449" fill="#707070"></path></svg>