<?xml version="1.0" standalone="no"?><!DOCTYPE svg PUBLIC "-//W3C//DTD SVG 1.1//EN" "http://www.w3.org/Graphics/SVG/1.1/DTD/svg11.dtd"><svg t="1749106095996" class="icon" viewBox="0 0 1024 1024" version="1.1" xmlns="http://www.w3.org/2000/svg" p-id="5300" xmlns:xlink="http://www.w3.org/1999/xlink" width="32" height="32"><path d="M35.293867 120.490667v784.725333c-1.706667 27.306667 6.826667 47.752533 22.186666 61.405867 11.946667 15.36 32.426667 22.186667 61.405867 22.186666h784.759467c54.5792 0 83.592533-27.306667 85.2992-81.885866V120.490667c-1.706667-56.285867-30.72-85.2992-85.2992-85.2992H118.8864c-29.013333 0-49.4592 8.533333-61.405867 23.893333-15.36 11.912533-23.893333 32.392533-22.186666 61.405867z m868.352-17.066667c10.24 0 15.36 5.12 17.066666 17.066667v784.725333c-1.706667 10.24-6.826667 15.36-17.066666 15.36H118.8864c-5.12 0-10.24 0-13.653333-1.706667-1.706667-3.413333-1.706667-6.826667-1.706667-11.946666V120.490667c0-6.826667 0-11.946667 1.706667-13.653334 3.413333-1.706667 8.533333-3.413333 13.653333-3.413333h271.2576v344.610133c-32.426667 11.946667-47.752533 37.546667-47.752533 80.1792v155.2384c0 56.285867 29.013333 83.592533 85.2992 83.592534h49.4592v71.645866c0 8.533333 3.413333 17.066667 10.24 23.893334s15.36 10.24 23.893333 10.24 17.066667-3.413333 23.893333-10.24 10.24-15.36 10.24-23.893334v-71.645866h47.752534c56.285867 0 85.2992-27.306667 85.2992-83.592534v-155.2384c0-35.84-11.946667-61.405867-35.84-73.352533V103.424h261.0176z m-329.284267 0v64.8192h-56.285867c-8.533333 0-17.066667 3.413333-23.893333 10.24s-10.24 15.36-10.24 23.893333 3.413333 17.066667 10.24 23.893334 15.36 10.24 23.893333 10.24h56.285867v206.4384h-116.0192v-73.352534h47.752533c8.533333 0 17.066667-3.413333 23.893334-10.24s10.24-15.36 10.24-23.893333c0-8.533333-3.413333-17.066667-10.24-23.893333s-15.36-10.24-23.893334-10.24h-47.752533V103.424h116.0192z m32.426667 409.429333c1.706667 1.706667 3.413333 6.826667 3.413333 15.36v155.2384c0 10.24-5.12 15.36-17.066667 15.36h-47.752533v-112.605866c0-8.533333-3.413333-17.066667-10.24-23.893334-6.826667-6.826667-15.36-10.24-23.893333-10.24s-17.066667 3.413333-23.893334 10.24c-6.826667 6.826667-10.24 15.36-10.24 23.893334v112.605866h-49.4592c-11.946667 0-17.066667-5.12-17.066666-15.36v-155.2384c0-10.24 5.12-15.36 13.653333-17.066666H593.134933c1.706667 0 5.12 0 6.826667 1.706666h6.826667z" p-id="5301" fill="#707070"></path></svg>