<svg width="22" height="22" viewBox="0 0 22 22" fill="none" xmlns="http://www.w3.org/2000/svg">
<g clip-path="url(#clip0_447_49)">
<path d="M3 19L7.59366 17.2332C7.88748 17.1202 8.03439 17.0637 8.17183 16.9899C8.29392 16.9244 8.4103 16.8487 8.51977 16.7638C8.64302 16.6682 8.75431 16.5569 8.97691 16.3343L18.3142 6.99696C19.2286 6.0826 19.2286 4.60013 18.3142 3.68577C17.3999 2.77141 15.9174 2.77141 15.0031 3.68577L5.66573 13.0231C5.44314 13.2457 5.33184 13.357 5.2362 13.4802C5.15125 13.5897 5.07562 13.7061 5.01008 13.8282C4.9363 13.9656 4.8798 14.1125 4.76679 14.4063L3 19ZM3 19L4.7037 14.5704C4.82562 14.2534 4.88657 14.095 4.99113 14.0224C5.0825 13.9589 5.19556 13.9349 5.30483 13.9558C5.42985 13.9797 5.54993 14.0997 5.79007 14.3399L7.66013 16.21C7.90028 16.4501 8.02035 16.5702 8.04422 16.6952C8.06509 16.8045 8.0411 16.9175 7.97765 17.0089C7.90506 17.1134 7.74657 17.1744 7.42959 17.2963L3 19Z" stroke="#666666" stroke-width="1.8" stroke-linecap="round" stroke-linejoin="round"/>
</g>
<defs>
<clipPath id="clip0_447_49">
<rect width="22" height="22" fill="white"/>
</clipPath>
</defs>
</svg>
