<svg xmlns="http://www.w3.org/2000/svg" viewBox="0 0 26 26" class="design-iconfont">
  <g fill-rule="nonzero" fill="none">
    <path d="M20.6186567,23 L1.66507682,23 C1.22171823,23 0.916909199,22.5810056 1.02774885,22.1480447 L5.33664017,10.2486034 C5.40591495,9.95530726 5.68301407,9.74581006 5.97396815,9.74581006 L24.927548,9.74581006 C25.3709066,9.74581006 25.564876,10.1648045 25.564876,10.5977654 L21.2559846,22.4972067 C21.1867099,22.8044693 20.9234657,23 20.6186567,23 L20.6186567,23 Z" fill="#9DD6FE"/>
    <path d="M22.5223464,5.98882682 L11.9497207,5.98882682 L9.88268156,3.12569832 C9.82681564,3.05586592 9.72905028,3 9.6452514,3 L1.74022346,3 C1.32122905,3 1,3.33519553 1,3.74022346 L1,22.0921788 C1,22.1201117 1,22.1480447 1.02793296,22.1620112 L5.37150838,10.3184358 C5.44134078,10.0251397 5.72067039,9.81564246 6.01396648,9.81564246 L23.2486034,9.81564246 L23.2486034,6.72905028 C23.2625698,6.32402235 22.9273743,5.98882682 22.5223464,5.98882682 Z" fill="#7DC1F5"/>
  </g>
</svg>
