<?xml version="1.0" standalone="no"?><!DOCTYPE svg PUBLIC "-//W3C//DTD SVG 1.1//EN" "http://www.w3.org/Graphics/SVG/1.1/DTD/svg11.dtd"><svg t="1763360194143" class="icon" viewBox="0 0 1024 1024" version="1.1" xmlns="http://www.w3.org/2000/svg" p-id="9636" width="32" height="32" xmlns:xlink="http://www.w3.org/1999/xlink"><path d="M710.4 352c70.4 0 140.8 25.6 192 76.8s76.8 115.2 76.8 192c0 70.4-25.6 140.8-76.8 192-51.2 51.2-115.2 76.8-192 76.8-70.4 0-140.8-25.6-192-76.8-51.2-51.2-76.8-115.2-76.8-192 0-70.4 25.6-140.8 76.8-192s121.6-76.8 192-76.8z m-300.8 460.8c6.4 0 19.2 6.4 25.6 12.8 6.4 6.4 12.8 12.8 12.8 25.6 0 6.4-6.4 19.2-12.8 25.6-6.4 6.4-12.8 12.8-25.6 12.8H83.2c-6.4 0-19.2-6.4-25.6-12.8-6.4-6.4-12.8-12.8-12.8-25.6 0-6.4 6.4-19.2 12.8-25.6 6.4-6.4 12.8-12.8 25.6-12.8h326.4z m300.8-396.8c-25.6 0-51.2 6.4-76.8 12.8-25.6 12.8-44.8 25.6-64 44.8-19.2 19.2-32 38.4-44.8 64-12.8 25.6-12.8 51.2-12.8 76.8 0 25.6 0 57.6 12.8 76.8 12.8 25.6 25.6 44.8 44.8 64 19.2 19.2 38.4 32 64 44.8 25.6 12.8 51.2 12.8 76.8 12.8 51.2 0 102.4-19.2 140.8-57.6 38.4-38.4 57.6-89.6 57.6-140.8 0-51.2-19.2-102.4-57.6-140.8-38.4-32-89.6-51.2-140.8-57.6zM288 588.8c6.4 0 19.2 6.4 25.6 12.8 6.4 6.4 12.8 12.8 12.8 25.6s-6.4 19.2-12.8 25.6c-6.4 6.4-12.8 12.8-25.6 12.8H83.2c-6.4 0-19.2-6.4-25.6-12.8-6.4-6.4-12.8-12.8-12.8-25.6s6.4-19.2 12.8-25.6c6.4-6.4 12.8-12.8 25.6-12.8h204.8z m422.4-121.6c19.2 0 32 12.8 32 32v83.2h57.6c19.2 0 32 12.8 32 32v6.4c0 6.4 0 19.2-6.4 25.6-6.4 6.4-12.8 12.8-19.2 12.8h-96c-12.8 0-19.2-6.4-25.6-12.8-6.4-6.4-12.8-19.2-12.8-25.6V499.2c0-19.2 19.2-32 38.4-32zM384 364.8c6.4 0 19.2 6.4 25.6 12.8 6.4 6.4 6.4 12.8 6.4 25.6s0 12.8-6.4 19.2c-6.4 6.4-19.2 12.8-25.6 12.8H83.2c-12.8 0-19.2-6.4-25.6-12.8-6.4-6.4-12.8-12.8-12.8-19.2s6.4-19.2 12.8-25.6c6.4-6.4 12.8-12.8 25.6-12.8H384zM83.2 140.8h768c6.4 0 19.2 6.4 25.6 12.8 6.4 6.4 12.8 12.8 12.8 25.6 0 6.4-6.4 19.2-12.8 25.6-6.4 6.4-12.8 12.8-25.6 12.8h-768c-12.8-6.4-19.2-12.8-25.6-19.2s-12.8-12.8-12.8-25.6c0-6.4 6.4-19.2 12.8-25.6s12.8-6.4 25.6-6.4z" fill="#707070" p-id="9637"></path></svg>