<?xml version="1.0" standalone="no"?><!DOCTYPE svg PUBLIC "-//W3C//DTD SVG 1.1//EN" "http://www.w3.org/Graphics/SVG/1.1/DTD/svg11.dtd"><svg t="1763539443128" class="icon" viewBox="0 0 1091 1024" version="1.1" xmlns="http://www.w3.org/2000/svg" p-id="1649" width="34.09375" height="32" xmlns:xlink="http://www.w3.org/1999/xlink"><path d="M631.621386 803.177386a41.73774 41.73774 0 0 1 0.804055-7.96745 12.353202 12.353202 0 0 1 0.950246-3.727889 38.887001 38.887001 0 0 1 2.777643-6.578628 37.863659 37.863659 0 0 1 1.973588-3.36241 33.551003 33.551003 0 0 1 2.339068-3.216218 35.232208 35.232208 0 0 1 2.631451-2.923834l118.049825-118.049826a39.398672 39.398672 0 0 1 55.699051 55.699051l-51.167107 51.167107h282.954101a39.398672 39.398672 0 1 1 0 78.724249h-282.807909l51.167107 51.167106a39.325576 39.325576 0 0 1-55.333571 55.333572l-118.049826-118.049825a36.547933 36.547933 0 0 1-2.631451-2.923835 33.258619 33.258619 0 0 1-2.339068-3.216218 37.49818 37.49818 0 0 1-1.973588-3.36241 39.325576 39.325576 0 0 1-2.850739-6.359341 19.151117 19.151117 0 0 0-0.950246-3.727889 42.395603 42.395603 0 0 1-1.096438-8.186737z" p-id="1650" fill="#707070"></path><path d="M284.927689 568.101078v1.973588a25.218074 25.218074 0 0 1-3.654793-1.973588z" p-id="1651" fill="#707070"></path><path d="M281.345992 568.101078a25.218074 25.218074 0 0 0 3.654793 1.973588v-1.973588z m0 0a25.218074 25.218074 0 0 0 3.654793 1.973588v-1.973588z m-102.334214-196.408595v162.345921a127.917767 127.917767 0 0 1-3.654793 33.916482v0.584767a66.955814 66.955814 0 0 1-13.08416 24.487116 65.78628 65.78628 0 0 1-16.958242 14.619173 28.434292 28.434292 0 0 1-3.216218 1.973588 78.651153 78.651153 0 0 1-23.609965 8.259833 127.917767 127.917767 0 0 1-24.194732 2.046685 103.869227 103.869227 0 0 1-38.156042-6.505533 101.383967 101.383967 0 0 1-12.20701-5.774573 77.189235 77.189235 0 0 1-12.791777-8.8446 79.674495 79.674495 0 0 1-15.350132-18.785638 4.020273 4.020273 0 0 1-0.657863-1.096438 68.929403 68.929403 0 0 1-8.332928-19.004925l-6.432437-24.925691h47.804697a127.917767 127.917767 0 0 0 4.239561 17.6892 26.753087 26.753087 0 0 0 2.777643 5.920765 34.281962 34.281962 0 0 0 9.867942 9.867942 54.383325 54.383325 0 0 0 29.238346 7.309587 49.266614 49.266614 0 0 0 20.832322-3.435506 21.92876 21.92876 0 0 0 6.286245-3.947177 22.732815 22.732815 0 0 0 6.505532-8.552216 55.991434 55.991434 0 0 0 4.751232-16.665858 193.338568 193.338568 0 0 0 0.87715-20.393747V371.619388z" p-id="1652" fill="#707070"></path><path d="M415.915483 547.999714a89.250054 89.250054 0 0 1-3.216218 19.662789 66.882718 66.882718 0 0 1-5.774574 14.619173 56.795489 56.795489 0 0 1-18.858733 21.92876 63.520308 63.520308 0 0 1-7.309587 3.947177 75.069455 75.069455 0 0 1-18.56635 6.066957 201.08673 201.08673 0 0 1-30.627169 3.216218h-29.238346a168.924549 168.924549 0 0 1-17.031337-1.681205 92.100792 92.100792 0 0 1-9.867942-1.900492 67.321293 67.321293 0 0 1-14.619174-5.48219 72.218717 72.218717 0 0 1-8.47912-4.60504 70.464416 70.464416 0 0 1-21.05161-21.92876 72.072525 72.072525 0 0 1-6.797916-13.08416 73.899921 73.899921 0 0 1-4.020272-17.543008l-2.558356-16.007995h48.389464a74.046113 74.046113 0 0 0 2.046685 13.449639 31.138839 31.138839 0 0 0 17.616103 21.92876 49.266614 49.266614 0 0 0 7.96745 2.850739 109.205225 109.205225 0 0 0 32.381469 2.558356 98.533229 98.533229 0 0 0 24.706403-3.72789 32.235277 32.235277 0 0 0 8.259833-3.654793 19.662788 19.662788 0 0 0 6.432436-6.213149 27.630238 27.630238 0 0 0 3.654794-15.861803 23.609965 23.609965 0 0 0-2.850739-11.037476 22.879006 22.879006 0 0 0-7.748162-7.309586 60.742665 60.742665 0 0 0-14.034406-5.701478 393.840531 393.840531 0 0 0-25.802842-5.774574l-32.600756-6.505532a368.768649 368.768649 0 0 1-28.361197-6.724819 62.78935 62.78935 0 0 1-21.270897-9.867943 43.85752 43.85752 0 0 1-12.572489-14.619173 59.06146 59.06146 0 0 1-5.701478-16.227282 84.060247 84.060247 0 0 1-1.096438-17.616104 67.759869 67.759869 0 0 1 12.280106-39.398673c1.169534-1.608109 2.485259-3.070026 3.654793-4.458847a69.514169 69.514169 0 0 1 20.759227-16.446571 114.468128 114.468128 0 0 1 27.922621-9.867942l4.312656-0.657862a181.716325 181.716325 0 0 1 29.238347-2.192876 157.375402 157.375402 0 0 1 36.547933 4.166464 77.920194 77.920194 0 0 1 26.679992 11.329859 80.405454 80.405454 0 0 1 15.130844 13.376544 65.78628 65.78628 0 0 1 4.531944 5.409094 41.810836 41.810836 0 0 1 9.867942 20.466843l2.265972 15.861803h-48.243272a58.915269 58.915269 0 0 0-5.48219-13.303448 20.466843 20.466843 0 0 0-8.332929-7.675066 50.143765 50.143765 0 0 0-15.56942-4.751231 172.360054 172.360054 0 0 0-19.662788-1.973588 106.427582 106.427582 0 0 0-27.484046 2.777642h-0.950246a34.501249 34.501249 0 0 0-17.104433 8.8446 21.92876 21.92876 0 0 0-5.993861 12.572489 19.662788 19.662788 0 0 0 1.681205 11.32986 18.858734 18.858734 0 0 0 7.309586 8.8446 61.912199 61.912199 0 0 0 13.742023 5.043615l2.631451 0.657862c7.309587 1.900493 14.619173 3.216218 19.662789 4.312657l27.191662 4.312656a226.597188 226.597188 0 0 1 30.480977 7.309586 92.758655 92.758655 0 0 1 27.264758 14.034407 59.646227 59.646227 0 0 1 18.273967 21.270897 63.739596 63.739596 0 0 1 5.993861 32.01599z m258.320794-85.887643a112.640731 112.640731 0 0 0-13.815119-35.232208 123.678207 123.678207 0 0 0-20.247555-26.387608 62.78935 62.78935 0 0 0-4.60504-4.312656 101.749447 101.749447 0 0 0-32.746948-18.785638 113.883361 113.883361 0 0 0-38.448426-6.35934 108.401171 108.401171 0 0 0-40.129631 8.040545 119.365551 119.365551 0 0 0-31.358127 19.662788l-2.265972 2.046684a98.460133 98.460133 0 0 0-19.662788 23.098294 128.57563 128.57563 0 0 0-12.864873 30.700265 161.541866 161.541866 0 0 0-5.189806 41.445356 166.146906 166.146906 0 0 0 2.558355 34.13577 108.328075 108.328075 0 0 0 10.598901 30.919552l4.166464 7.309586a137.785709 137.785709 0 0 0 18.712542 22.659719 91.004354 91.004354 0 0 0 23.244486 16.738954 86.984082 86.984082 0 0 0 9.867942 4.458848 135.30045 135.30045 0 0 0 79.893782 1.242629 97.80227 97.80227 0 0 0 14.619174-5.701477 87.71504 87.71504 0 0 0 16.007995-9.867942 103.723035 103.723035 0 0 0 21.92876-22.440432 84.498822 84.498822 0 0 0 4.605039-7.309586 139.393818 139.393818 0 0 0 10.745093-25.802841 172.067671 172.067671 0 0 0 6.871011-46.562068 168.120494 168.120494 0 0 0-2.485259-33.697194z m-86.764794 109.6438a70.537512 70.537512 0 0 1-26.753088 3.508602 64.689842 64.689842 0 0 1-26.387608-6.871012l-2.339067-1.169534a54.675708 54.675708 0 0 1-20.832322-19.662788 73.534442 73.534442 0 0 1-9.867943-26.095224 159.202798 159.202798 0 0 1-2.777642-28.434292 176.087943 176.087943 0 0 1 1.315725-23.025199 71.707045 71.707045 0 0 1 23.975445-43.85752 70.098936 70.098936 0 0 1 19.662788-11.329859 59.06146 59.06146 0 0 1 23.609965-3.435506 56.06453 56.06453 0 0 1 25.583553 6.797916 68.856307 68.856307 0 0 1 18.858734 15.569419 82.744521 82.744521 0 0 1 13.376543 23.53687 106.573774 106.573774 0 0 1 5.774574 35.01292 153.062745 153.062745 0 0 1-3.508602 33.258619 58.476694 58.476694 0 0 1-14.619173 29.238347 63.6665 63.6665 0 0 1-16.738954 12.791777 46.927547 46.927547 0 0 1-8.406024 3.800985z m320.598472-199.624812v243.847812h-46.123492l-19.955172-30.77336-39.325576-60.450282-43.85752-67.613677v159.422086h-43.85752V372.131059h45.538725l19.004925 28.799771 23.244486 35.451496 39.325576 59.719323 19.955172 30.334785V372.131059z" p-id="1653" fill="#707070"></path><path d="M285.000785 568.027982v1.973588a25.437362 25.437362 0 0 1-3.654793-1.973588z m330.612606 416.646442a39.325576 39.325576 0 0 1-39.325576 39.325576H292.895139a86.691698 86.691698 0 0 1-86.618602-86.618602V646.606039h78.724248v290.702263a7.894354 7.894354 0 0 0 7.894354 7.894353h283.027197a39.325576 39.325576 0 0 1 39.325576 39.471769z m424.394604-715.681634v-1.388821a27.337854 27.337854 0 0 0-1.681205-5.48219 28.141909 28.141909 0 0 0-1.24263-3.070027 24.267828 24.267828 0 0 0-1.900492-3.435505 26.16832 26.16832 0 0 0-2.046685-2.923835 19.589692 19.589692 0 0 0-2.265972-2.777643 10.525805 10.525805 0 0 0-1.388821-1.608109L818.015847 13.595831a39.325576 39.325576 0 0 0-29.238347-13.011064H293.114426a86.691698 86.691698 0 0 0-86.618602 86.618602v234.418446h78.724249V87.203369a7.894354 7.894354 0 0 1 7.894353-7.894353h432.94682v196.774073a39.325576 39.325576 0 0 0 39.325577 39.325577h196.774074v173.164109a39.325576 39.325576 0 1 0 78.724248 0V276.009994a34.793633 34.793633 0 0 0-0.657863-7.309587z m-235.441788-32.162181V116.514812l108.254979 120.461989z" p-id="1654" fill="#707070"></path></svg>