<svg t="1722312257606" class="icon" viewBox="0 0 1821 1024" version="1.1"
  xmlns="http://www.w3.org/2000/svg" p-id="827" width="20" height="20">
  <path d="M1415.86317615-333.46663832H228.93376191c-79.13195406 0-148.36699029 69.23720567-148.36699033 148.3648209v1285.84218739c0 79.12978465 69.23937508 148.36699029 148.36699033 148.36699031h329.95221947c1.32551879 0.08460758 2.65971529 0.14752091 4.00258952 0.14752091 33.29416873 0 60.28832666-26.99198847 60.28832669-60.28832667 0-29.01606224-20.50106826-53.23335588-47.8032846-58.98016325l-308.2037317-0.00216944c-39.31215427 0-71.17884124-31.86668697-71.17884124-71.17233297V-144.96962043c0-39.31215427 31.86668697-71.17884124 71.17884124-71.17884122h1106.15303585c39.30781541 0 71.17884124 31.86451753 71.17884123 71.17884122v236.01827719c4.85300418 28.43031743 29.59312933 50.06816449 59.40320121 50.0681645 32.2485058 0 58.58315845-25.32370052 60.20371907-57.16869319l0.12365724-0.00216944V-185.10398685c0-79.13195406-69.23720567-148.3648209-148.36699031-148.36482087z" fill="#666666" p-id="828"></path>
  <path d="M1181.72579059 277.47604301c-294.34327405 0-532.95184496 238.61290975-532.95184492 532.95184497S887.38468598 1343.37973292 1181.72579059 1343.37973292s532.95184496-238.61290975 532.95184495-532.95184494-238.61290975-532.95184496-532.95184495-532.95184497z m0 972.40363262c-242.69793741 0-439.44094055-196.74517255-439.44094054-439.44310996 0-242.695768 196.74300314-439.44094055 439.44094054-439.44094056 242.695768 0 439.44094055 196.74517255 439.44094059 439.44094056 0 242.69793741-196.74517255 439.44310999-439.44094059 439.44310996z" fill="#666666" p-id="829"></path>
  <path d="M844.69907548 765.23876078a42.23870891 42.23870891 0 0 1-3.12180285 0.52066205c-0.93068341 0.11714898-1.96983811 0.16921516-3.12180288 0.16921517-6.01798555 0-11.10528768-1.90475536-15.2705841-5.72511315-4.16312697-3.82035779-6.24794461-9.07904453-6.24794461-15.79341553v-26.72297976c0-6.93999126 0.5770671-12.78225335 1.73554017-17.52678632 1.15413423-4.7401941 3.12180287-8.50197743 5.89866717-11.28101111 2.77469485-2.77252542 6.52996988-4.7401941 11.28101107-5.89649772 4.7401941-1.15413423 10.58462562-1.73554016 17.52461691-1.73554016h97.51566329c1.6183912 0 2.43192566-0.22778966 2.4319257-0.69855493 0-0.45774871-0.23212849-1.15196479-0.69855492-2.0826482a134.59114021 134.59114021 0 0 1-1.73554019-3.64029552c-0.69638549-1.50558111-1.03915468-3.29969574-1.03915469-5.37800512 0-5.08730213 2.54473577-9.19619349 7.63420735-12.32016577 5.08730213-3.1239723 11.21809778-4.68595846 18.39455637-4.68595846 7.3999094 0 13.01655127 1.79411466 16.83040078 5.37800512 3.81601895 3.58605989 7.45848388 10.47181551 10.93173368 20.64858918 0.45774871 1.15847303 0.92200571 1.90909421 1.38626269 2.25620222 0.45774871 0.34710803 1.61622179 0.51849264 3.47108035 0.51849263h94.39169104c7.63420734 0 14.05570595 0.46425702 19.26232645 1.38626272 5.2066205 0.92634458 9.3675781 2.54907462 12.49155037 4.85734303 3.1239723 2.31911556 5.32160005 5.44308787 6.59505265 9.36974754 1.26911374 3.93533734 1.90909421 8.79484981 1.90909419 14.57419853 0 16.89331412-2.31911556 30.13765505-6.93999126 39.73736162-4.62955339 9.60404544-11.79950372 14.40281398-21.51852869 14.40281402-1.62056062 0-2.77469485-0.11497955-3.47108033-0.34710807 2.54039693 4.39959435 3.81601895 10.99247756 3.81601895 19.78081912v127.70755399c0 11.80167315-2.60114081 20.24507607-7.80776136 25.33671706-5.2066205 5.08730213-14.05570595 7.63420734-26.54942573 7.63420732h-75.30942688c-3.47108034 0-5.20878996 1.73554016-5.20878989 5.20662054v19.78081908c0.69855493 6.93999126-1.27345259 12.14878118-5.89649776 15.61769211-4.63172283 3.47108034-9.72119435 5.20878996-15.27058405 5.20878993-5.55589796 0-10.64753893-1.73770959-15.2705841-5.20878993-4.62955339-3.47108034-6.59505266-8.67553141-5.89866716-15.61769211v-19.78081908c0-3.47108034-1.73554016-5.2066205-5.20878993-5.20662055h-77.73050538c-12.49155037 0-21.22999513-2.49050016-26.20231773-7.46499212-4.97666144-4.97449203-7.46282274-13.47213058-7.46282271-25.50810166v-127.70755401c0.00433884-8.32625396 1.15630366-14.91913721 3.4754192-19.77864969z m126.66622994-45.1131973h-102.37517579c-3.24329068 0-5.55372853 0.86560066-6.93999129 2.60114084-1.39060155 1.73770959-2.08264821 4.68812788-2.0826482 8.85125486v12.83865843c0 5.0938104-0.81353444 8.4477418-2.43192564 10.06613295 4.85734307-1.3862627 10.63669182-2.08481763 17.35106283-2.08481761h77.73701367c3.47324975 0 5.20878996-1.73554016 5.20878993-5.20662049v-7.63203793c-0.00216942-9.71685554 4.51023502-16.19042035 13.53504388-19.43371105z m-13.53070505 103.0715613v-27.76213446c0-3.47108034-1.73554016-5.20878996-5.20878994-5.20878993h-62.11932159c-4.62955339 0-6.93999126 2.89401323-6.93999123 8.67770085v24.29105408c0 3.47108034 1.73554016 5.20445109 5.20662049 5.20445112h63.85703117c3.47108034 0.00216942 5.2066205-1.73337076 5.2066205-5.20445112z m0 78.08195229v-30.54116818c0-3.47324975-1.73554016-5.20878996-5.20878994-5.20878993h-63.85486175c-3.47108034 0-5.20878996 1.73554016-5.20878989 5.20878993v26.72297978c0 6.01798555 2.30609901 9.02697831 6.9399912 9.02697829h62.11932159c3.47541919 0.00216942 5.21095937-1.73554016 5.21095935-5.20662047z m135.34393074-147.83765061c-0.23212849-0.92417515-0.34927743-2.02407374-0.34927746-3.29969574 0-1.26911374 0.57923652-3.52531598 1.73770959-6.76643724 2.77469485-7.63203788 4.16312697-13.53721332 4.16312698-17.69600146 0-2.31260725-0.93068341-3.82035779-2.77469484-4.51240443-1.85268912-0.69638549-5.0938104-1.03915468-9.71685553-1.03915467h-99.5961421c9.02263946 3.24762954 13.5350439 9.71468611 13.53504391 19.4358805v7.63203785c0 3.47108034 1.73770959 5.20445109 5.20878993 5.20445111h75.30942684c5.77500994 0 9.94247574 0.34927743 12.4915504 1.04132408z m-20.47937399 69.75569832v-24.29105411c0-5.7815182-2.42758679-8.67770084-7.28926873-8.67770086h-60.03884278c-3.47108034 0-5.20878996 1.73770959-5.20878991 5.20878995v27.76213445c0 3.47108034 1.73770959 5.20445109 5.20878991 5.20445107h62.12149096c3.47108034 0.00216942 5.2066205-1.73337076 5.20662055-5.20445107z m0 74.2572556v-26.72081035c0-3.47324975-1.73554016-5.20878996-5.20662055-5.20878992h-62.12149096c-3.47108034 0-5.20878996 1.73554016-5.20878991 5.20878992v30.53899873c0 3.47324975 1.73770959 5.20878996 5.20878991 5.20878994h60.03884278c2.77469485 0 4.68812788-0.63347214 5.72728256-1.90475533s1.56198615-3.64463438 1.56198617-7.11788411zM1264.96446661 711.44352376c-0.46642642-6.93999126 1.15413423-12.43297589 4.85734304-16.48546218 3.70103941-4.04163916 8.90115164-6.07222116 15.61769211-6.07222118h67.67521954c2.31260725 0.23429792 3.52097712 0 3.64029548-0.69421606 0.11497955-0.69855493-0.23212849-1.90909421-1.03698523-3.64246494a131.55394494 131.55394494 0 0 1-2.95258774-6.93999124c-1.15847303-2.8896744-1.85268912-6.52996988-2.08481761-10.93173362 0-2.77469485 0.80702617-5.14370718 2.43192567-7.11354531 1.61622179-1.96332983 3.64246493-3.58605989 6.07222115-4.85734303 2.43192566-1.26911374 5.2066205-2.25403279 8.33059282-2.95258774 3.12180287-0.69855493 6.07222116-1.03915468 8.84908544-1.03915469 5.77717932 0 10.9295642 3.00899279 15.44196869 9.02697833 4.51023502 6.01798555 8.84908544 14.57419859 13.01655127 25.68165565 0.69855493 2.31694614 2.30609901 3.47108034 4.85951248 3.47108034h68.01364985c6.24794461 0 11.21809778 1.85268912 14.92347604 5.55372856 3.70103941 3.70537827 5.55372853 8.56272132 5.55372852 14.57636802 0 6.01798555-1.85268912 10.87532858-5.55372852 14.57419857-3.70537827 3.70537827-8.67553141 5.55372853-14.92347604 5.55372854h-97.51566334c-1.85485855 0-3.81818838 1.62056062-5.89866714 4.8595125l-25.33237822 38.17320602c-5.32376947 8.10063374-7.98131538 12.73018716-7.98131537 13.88432137 0 2.08264821 3.47108034 2.77469485 10.41107162 2.08264822 6.93999126-0.69638549 17.00612425-1.03698524 30.19622953-1.03698526 0.92200571 0 1.84835027-0.17355402 2.77252542-0.52066206 0.92417515-0.34710803 2.08481763-1.3862627 3.47324975-3.12180287 1.3862627-1.73554016 3.00465392-4.27810652 4.85734306-7.63420734 1.85051972-3.34742309 4.27810652-8.15703878 7.28926874-14.40064454 6.70786276-12.25942188 13.41355609-18.39672578 20.13226596-18.39672582 2.08264821 0 4.33885041 0.52066204 6.76643724 1.56198617a27.34126596 27.34126596 0 0 1 6.76643723 4.16312698 19.78732736 19.78732736 0 0 1 5.03089707 6.42149861c1.26911374 2.54907462 1.90909421 5.2066205 1.90909421 7.98348479 0 4.39742487-1.62056062 9.60404544-4.85951249 15.61769213a326.63299892 326.63299892 0 0 1-26.72297976 41.64211692c-9.95115343 13.18793587-20.47286574 25.28031201-31.58249229 36.26845076-11.10311826 10.99247756-22.50344774 20.8828871-34.18363307 29.6712286-11.68669362 8.79484981-23.07617599 16.08194911-34.1858025 21.86563674-5.32160005 3.00899279-10.75817965 4.51023502-16.3075693 4.51023502-6.71220161 0-11.79950372-2.08481763-15.27058409-6.2457752-3.47108034-4.16312697-5.2066205-8.67770084-5.20662051-13.5372133 0-7.3999094 6.24360577-14.576368 18.73732555-21.51852871 15.2705841-8.32842341 29.2633767-17.35106287 41.99139446-27.06791835 12.49155037-9.25259854 18.74166442-14.46138847 18.7416644-15.622031 0-1.15196479-1.73770959-1.73554016-5.20878994-1.73554017l-17.69817089 0.34927747c-8.10063374 0.23212849-14.8084965 0.11931838-20.132266-0.34927747-5.32160005-0.45774871-9.25476796-1.2647749-11.79950372-2.42758679 2.54256635 5.55372853 3.81818838 10.47181551 3.8181884 14.74775258 0 4.28895365-2.31911556 8.15703878-6.93999128 11.62594974-4.62955339 3.24329068-8.91199876 4.85951248-12.83865842 4.85951247-4.16312697 0-8.27635717-2.54256635-12.32016576-7.63203789-4.0524863-5.08730213-7.80993077-10.76034906-11.28101114-17.00612425-1.62056062-2.54473577-2.89401323-3.82035779-3.81818835-3.82035782-0.93068341 0-1.3862627 1.3862627-1.38626271 4.16312699v137.42657896c0 6.24794461-1.96766867 11.33524674-5.89649774 15.27058407-3.93533734 3.93099847-9.02697831 5.89649772-15.27058405 5.89649772-6.24794461 0-11.33741616-1.96766867-15.27058407-5.89649772-3.93533734-3.93533734-5.89866718-9.02263946-5.89866718-15.27058407v-95.43952335c0-2.08264821-0.29070298-3.11963345-0.86560067-3.1196335-0.58140596 0-1.33202708 0.92634458-2.25620221 2.77252543-5.08947154 12.73018716-9.601876 20.82214319-13.53504392 24.29322351-3.70537827 3.24762954-7.7513563 4.85734307-12.14878118 4.85734308-4.39742487 0-9.13978843-1.50124224-14.22709053-4.51023502-4.85951248-3.00465392-7.2892687-7.3999094-7.28926872-13.18576643 0-5.77717932 1.61622179-11.56737522 4.85734303-17.3532323a443.94683675 443.94683675 0 0 0 16.31190821-33.31803243 407.46578235 407.46578235 0 0 0 13.18576642-34.35501767c7.8641664-22.9047914 11.80167315-37.01473299 11.80167317-42.3428413 0-2.77469485-1.85268912-4.16095755-5.55372854-4.16095755h-18.04527893c-6.4800731 0-11.68886305-1.90909421-15.61769212-5.729452-3.93533734-3.81601895-5.89649772-8.84908544-5.89649771-15.09486063 0-6.24360577 1.96332983-11.28101114 5.89649771-15.09486064 3.92665964-3.81601895 9.13544957-5.72728255 15.61769212-5.72728255h22.55551396c3.47108034 0 5.2066205-1.73554016 5.20662051-5.20878996v-30.5389987c0-6.24577519 1.96549925-11.33524674 5.89866716-15.27058405 3.93099847-3.93099847 9.02263946-5.89649772 15.27058405-5.89649774 6.24577519 0 11.33524674 1.96766867 15.27058408 5.89649774 3.93099847 3.93533734 5.89649772 9.02697831 5.89649771 15.27058405v30.5389987c0 3.47324975 1.73554016 5.20878996 5.20878997 5.20878996h7.63637673z m19.08009472 93.01193661l2.7768643-7.63420734a105.16505663 105.16505663 0 0 1 3.12180287-7.63203787c2.30609901-4.39308606 7.05497077-12.60436049 14.22709055-24.63816219a632.18786247 632.18786247 0 0 1 10.58462562-16.65901617 594.80649663 594.80649663 0 0 1 9.88824013-14.57636801c0.69855493-1.15196479 1.0413241-2.13688382 1.04132408-2.95258774 0-0.80485677-1.27345259-1.21704755-3.81818836-1.21704755h-28.46068938c0.92417515 6.4800731-0.58357538 12.09237612-4.510235 16.83040085-3.93533734 4.74453294-9.48689647 7.11571469-16.65901624 7.11571467h-14.92130661c-3.24762954-0.69855493-4.98316971 0.29070298-5.20878991 2.9504183a17.984535 17.984535 0 0 0 1.03698525 7.80993077 1914.41361802 1914.41361802 0 0 1 17.69817087 22.9069608 1173.46813077 1173.46813077 0 0 1 13.18793587 17.6981709z m154.77547242 84.32989686c0 1.15847303 0.57923652 2.31911556 1.7377096 3.47324978 11.33524674 11.33741616 20.65075862 21.11284615 27.93785787 29.32629002 7.2892687 8.21127444 12.78225335 14.86056274 16.48112333 19.95437313 3.70103941 5.08730213 6.4779037 9.48472705 8.32842341 13.18793585 1.85051972 3.70103941 2.83543872 7.05497077 2.95258771 10.06396355 0.11497955 3.00465392-0.63998045 5.72728255-2.25403279 8.15703882-1.62273006 2.43192566-3.93750677 4.79659915-6.93999126 7.11354527-4.63172283 3.23678242-8.4477418 5.3780051-11.45239569 6.42149863-3.00899279 1.03915468-5.67087751 1.21487813-7.98348477 0.51849264-2.31694614-0.69638549-4.57097894-2.31911556-6.76426783-4.85951251a552.15776636 552.15776636 0 0 1-8.1570388-9.71468609c-6.01798555-8.32842341-11.33741616-15.44196865-15.96263071-21.34280522-4.62955339-5.89649772-8.4477418-10.5824562-11.45022628-14.05353654-3.00899279-3.24762954-5.44091845-6.02015495-7.28926872-8.33059282-1.85268912-2.31911556-3.35827024-4.04163916-4.51240445-5.20662053-1.85268912-2.31260725-3.47108034-3.47324975-4.85734303-3.47324974-1.3862627 0-2.66405413 0.58140596-3.81818837 1.73770959a380.62131475 380.62131475 0 0 1-32.10098491 24.98527015 383.83857234 383.83857234 0 0 1-34.18363306 21.17142068c-23.8333054 12.95146852-39.79810554 19.43154162-47.89440042 19.43154164-4.16312697 0-7.69495125-0.75062112-10.5824562-2.25403283-2.89401323-1.51208938-5.26519498-3.47324975-7.11354527-5.89649771-1.85268912-2.43192566-3.18471623-4.97666144-3.9917424-7.63420732a26.63620277 26.63620277 0 0 1-1.21704751-7.80993079c0-7.63203788 6.47573428-14.11428042 19.43371104-19.43371101 34.01007905-13.18576645 64.77686742-31.97949707 92.31121223-56.39420842 27.52566709-24.40603363 50.31764839-53.38304621 68.36509672-86.9288683 6.47573428-12.02946281 12.49155037-18.04744836 18.04310953-18.04744834 5.55589796 0 10.76034906 1.90909421 15.6176921 5.72945199 4.85951248 3.81818838 7.29143813 8.84908544 7.2914381 15.09486061 0 4.16312697-1.85268912 9.95115343-5.55372853 17.35106286-3.47324975 7.87067468-9.14412726 17.69817089-17.00612425 29.49767464a371.68762175 371.68762175 0 0 1-12.32016575 17.69817086 274.09385911 274.09385911 0 0 1-13.36148991 16.65901621c-1.15630366 1.62273006-1.73554016 2.89618265-1.73554015 3.82035779zM344.22569542 320.13995928c-19.79166622 0-36.30750035-16.50932588-36.30750035-36.2576036 0-19.91315403 16.51583415-36.26845074 36.30750035-36.26845071h315.96376573c19.79600508 0 36.3009921 16.35312725 36.30099206 36.26845071 0 19.75044714-16.50715645 36.25760357-36.30099206 36.2576036H344.22569542zM344.22569542 171.69270021c-19.79166622 0-36.30750035-16.51366474-36.30750035-36.26845071 0-19.90230691 16.51583415-36.26411185 36.30750035-36.26411186h711.82529262c19.75044714 0 36.26845074 16.36180496 36.26845068 36.26411186 0 19.75044714-16.51583415 36.26845074-36.26845068 36.26845071H344.22569542zM344.22569542 26.4909013c-19.79166622 0-36.30750035-16.51366474-36.30750035-36.26845073 0-19.74827772 16.51583415-36.25326475 36.30750035-36.25326472h957.20680904c19.75044714 0 36.26845074 16.50715645 36.26845067 36.25326472 0 19.75044714-16.51366474 36.26845074-36.26845067 36.26845073H344.22569542z" fill="#666666" p-id="830"></path>
</svg>