<?xml version="1.0" standalone="no"?>
<!DOCTYPE svg PUBLIC "-//W3C//DTD SVG 1.1//EN" "http://www.w3.org/Graphics/SVG/1.1/DTD/svg11.dtd"><svg t="1744621156553"
    class="icon" viewBox="0 0 1024 1024" version="1.1" xmlns="http://www.w3.org/2000/svg" p-id="1569"
    xmlns:xlink="http://www.w3.org/1999/xlink" width="200" height="200">
    <path
        d="M112 856.001a8 8 0 0 1 8-8h784a8 8 0 0 1 8 8v48a8 8 0 0 1-8 8H120a8 8 0 0 1-8-8v-48zM703.561 65.562a8 8 0 0 0-11.314 0L588.048 169.76l135.765 135.764 104.199-104.199a8 8 0 0 0 0-11.313L703.561 65.562zM677.558 351.78L541.794 216.016 133.996 623.813l-20.114 155.879 155.878-20.114L677.558 351.78z"
        fill="currentColor" p-id="1570"></path>
</svg>