<?xml version="1.0" standalone="no"?><!DOCTYPE svg PUBLIC "-//W3C//DTD SVG 1.1//EN" "http://www.w3.org/Graphics/SVG/1.1/DTD/svg11.dtd"><svg t="1739863946932" class="icon" viewBox="0 0 1024 1024" version="1.1" xmlns="http://www.w3.org/2000/svg" p-id="18924" xmlns:xlink="http://www.w3.org/1999/xlink" width="32" height="32"><path d="M384 832H159.573333a32.426667 32.426667 0 0 1-32.426666-32.426667V160.426667a32.426667 32.426667 0 0 1 32.426666-32.426667h512a32.426667 32.426667 0 0 1 32.426667 32.426667v192a32.426667 32.426667 0 0 0 64 0V160.426667A96.426667 96.426667 0 0 0 672.426667 64h-512A96.426667 96.426667 0 0 0 64 160.426667v640a96.426667 96.426667 0 0 0 96.426667 96.426666H384a32.426667 32.426667 0 1 0 0-64z" fill="#707070" p-id="18925"></path><path d="M880.64 495.786667a272.213333 272.213333 0 1 0 79.36 192 269.653333 269.653333 0 0 0-79.36-192z m-192.853333 401.066666a208.213333 208.213333 0 1 1 208.213333-208.213333 208.213333 208.213333 0 0 1-208.213333 208.213333zM640 288.426667A31.573333 31.573333 0 0 0 608.426667 256H223.573333a32.426667 32.426667 0 1 0 0 64h384a31.573333 31.573333 0 0 0 32.426667-31.573333zM415.573333 480.426667a31.573333 31.573333 0 0 0-32.426666-32.426667H223.573333a32.426667 32.426667 0 0 0 0 64H384a31.573333 31.573333 0 0 0 31.573333-31.573333zM223.573333 640a32.426667 32.426667 0 0 0 0 64h96.426667a32.426667 32.426667 0 0 0 0-64z" fill="#707070" p-id="18926"></path><path d="M816.64 581.12a31.573333 31.573333 0 0 0-43.52 11.093333l-79.36 130.56-68.266667-45.226666a32.426667 32.426667 0 0 0-35.84 52.906666L682.666667 795.306667a31.573333 31.573333 0 0 0 17.92 5.12h6.826666a32.426667 32.426667 0 0 0 20.48-14.506667L827.733333 624.64a31.573333 31.573333 0 0 0-11.093333-43.52z" fill="#707070" p-id="18927"></path></svg>