<?xml version="1.0" standalone="no"?><!DOCTYPE svg PUBLIC "-//W3C//DTD SVG 1.1//EN" "http://www.w3.org/Graphics/SVG/1.1/DTD/svg11.dtd"><svg t="1702279557795" class="icon" viewBox="0 0 1024 1024" version="1.1" xmlns="http://www.w3.org/2000/svg" p-id="7655" width="32" height="32" xmlns:xlink="http://www.w3.org/1999/xlink"><path d="M366.7 546.6a149.8 149.8 0 0 1 0-69.2L324.4 453l42.7-73.9 42.3 24.4a149.2 149.2 0 0 1 59.9-34.6V320h85.3v48.9c22.7 6.7 43.2 18.8 59.9 34.6l42.3-24.4 42.7 73.9-42.3 24.4a149.8 149.8 0 0 1 0 69.2l42.3 24.4-42.7 73.9-42.3-24.4a149.2 149.2 0 0 1-59.9 34.6V704h-85.3v-48.9a149.2 149.2 0 0 1-59.9-34.6l-42.3 24.4-42.7-73.9 42.3-24.4zM512 576a64 64 0 1 0 0-128 64 64 0 0 0 0 128z m128-405.3H213.3v682.7h597.3V341.3H639.9V170.7z m-512-43c0-23.4 19.1-42.4 42.6-42.4h512.1L896 298.6v597a42.7 42.7 0 0 1-42.4 43.1H170.4a42.7 42.7 0 0 1-42.4-42.4V127.7z" p-id="7656" fill="#606266"></path></svg>