<svg width="18" height="18" viewBox="0 0 18 18" fill="none" xmlns="http://www.w3.org/2000/svg">
    <path
        d="M15.6245 3.25L15.7007 3.25391C16.0791 3.29213 16.3745 3.61154 16.3745 4C16.3745 4.38846 16.0791 4.70787 15.7007 4.74609L15.6245 4.75H6.4585C6.04428 4.75 5.7085 4.41421 5.7085 4C5.7085 3.58579 6.04428 3.25 6.4585 3.25H15.6245Z"
        fill="currentColor" />
    <path
        d="M15.6245 8.24957L15.7007 8.25348C16.0791 8.29171 16.3745 8.61111 16.3745 8.99957C16.3745 9.38803 16.0791 9.70744 15.7007 9.74567L15.6245 9.74957H6.4585C6.04428 9.74957 5.7085 9.41379 5.7085 8.99957C5.7085 8.58536 6.04428 8.24957 6.4585 8.24957H15.6245Z"
        fill="currentColor" />
    <path
        d="M15.6245 13.2491L15.7007 13.2531C16.0791 13.2913 16.3745 13.6107 16.3745 13.9991C16.3745 14.3876 16.0791 14.707 15.7007 14.7452L15.6245 14.7491H6.4585C6.04428 14.7491 5.7085 14.4134 5.7085 13.9991C5.7085 13.5849 6.04428 13.2491 6.4585 13.2491H15.6245Z"
        fill="currentColor" />
    <path
        d="M2.37549 4.00781V4C2.37549 3.58579 2.71127 3.25 3.12549 3.25C3.5397 3.25 3.87549 3.58579 3.87549 4V4.00781C3.87532 4.42188 3.5396 4.75781 3.12549 4.75781C2.71138 4.75781 2.37566 4.42188 2.37549 4.00781Z"
        fill="currentColor" />
    <path
        d="M2.37549 9.00739V8.99957C2.37549 8.58536 2.71127 8.24957 3.12549 8.24957C3.5397 8.24957 3.87549 8.58536 3.87549 8.99957V9.00739C3.87532 9.42146 3.5396 9.75739 3.12549 9.75739C2.71138 9.75739 2.37566 9.42146 2.37549 9.00739Z"
        fill="currentColor" />
    <path
        d="M2.37549 14.007V13.9991C2.37549 13.5849 2.71127 13.2491 3.12549 13.2491C3.5397 13.2491 3.87549 13.5849 3.87549 13.9991V14.007C3.87532 14.421 3.5396 14.757 3.12549 14.757C2.71138 14.757 2.37566 14.421 2.37549 14.007Z"
        fill="currentColor" />
</svg>