<svg width="24" height="24" viewBox="0 0 24 24" fill="none" xmlns="http://www.w3.org/2000/svg">
<path fill-rule="evenodd" clip-rule="evenodd" d="M3 5C3 4.44772 3.44772 4 4 4H5C5.55228 4 6 4.44772 6 5C6 5.55228 5.55228 6 5 6H4C3.44772 6 3 5.55228 3 5Z" fill="#727372"/>
<path fill-rule="evenodd" clip-rule="evenodd" d="M8 5C8 4.44772 8.44772 4 9 4L20 4C20.5523 4 21 4.44772 21 5C21 5.55228 20.5523 6 20 6L9 6C8.44772 6 8 5.55228 8 5Z" fill="#727372"/>
<path fill-rule="evenodd" clip-rule="evenodd" d="M8 12C8 11.4477 8.44772 11 9 11L20 11C20.5523 11 21 11.4477 21 12C21 12.5523 20.5523 13 20 13L9 13C8.44772 13 8 12.5523 8 12Z" fill="#727372"/>
<path fill-rule="evenodd" clip-rule="evenodd" d="M3 12C3 11.4477 3.44772 11 4 11H5C5.55228 11 6 11.4477 6 12C6 12.5523 5.55228 13 5 13H4C3.44772 13 3 12.5523 3 12Z" fill="#727372"/>
<path fill-rule="evenodd" clip-rule="evenodd" d="M3 19C3 18.4477 3.44772 18 4 18H5C5.55228 18 6 18.4477 6 19C6 19.5523 5.55228 20 5 20H4C3.44772 20 3 19.5523 3 19Z" fill="#727372"/>
<path fill-rule="evenodd" clip-rule="evenodd" d="M8 19C8 18.4477 8.44772 18 9 18L20 18C20.5523 18 21 18.4477 21 19C21 19.5523 20.5523 20 20 20L9 20C8.44772 20 8 19.5523 8 19Z" fill="#727372"/>
</svg>
