<svg width="18" height="18" viewBox="0 0 18 18" fill="none" xmlns="http://www.w3.org/2000/svg">
    <path
        d="M9.1875 1.6875L9.3375 1.68825C9.87523 1.69243 10.4124 1.72372 10.947 1.782L11.2028 1.812L11.4735 1.8495L11.7394 1.89187L11.8725 1.91512L12.1342 1.965C14.3351 2.41013 15.8771 3.36225 15.9356 4.61362L15.9375 4.6875V12.5625C15.9375 13.8503 14.3783 14.8313 12.1342 15.285L11.8725 15.3349L11.7394 15.3581L11.4735 15.4001L11.2028 15.4376C10.5652 15.5194 9.88837 15.5625 9.1875 15.5625C8.48663 15.5625 7.80975 15.5194 7.17225 15.4376L6.9015 15.4001L6.63563 15.3581C4.22588 14.9505 2.50012 13.9609 2.43937 12.6353L2.4375 12.5625V4.6875L2.43937 4.61362C2.49787 3.36225 4.03987 2.41013 6.24075 1.965L6.5025 1.91512L6.63563 1.89187L6.9015 1.84988L7.17225 1.81237C7.74171 1.74025 8.31469 1.69943 8.88862 1.69012L9.1875 1.6875ZM11.7394 11.2331L11.4735 11.2751L11.2028 11.3126C10.5652 11.3944 9.88837 11.4375 9.1875 11.4375C8.48663 11.4375 7.80975 11.3944 7.17225 11.3126L6.9015 11.2751L6.63563 11.2331C5.379 11.0205 4.308 10.6496 3.5625 10.1554V12.5625C3.5625 12.9307 3.98738 13.3144 4.70625 13.638L4.87762 13.7115C5.142 13.8202 5.44012 13.9211 5.76712 14.0108L5.9895 14.0689C6.21562 14.1251 6.4545 14.1769 6.70312 14.2219L6.95588 14.265L7.215 14.3036C7.39013 14.328 7.56937 14.3494 7.75237 14.3674L8.0295 14.3921L8.31187 14.4116L8.5995 14.4259C8.99135 14.4414 9.38365 14.4414 9.7755 14.4259L10.0631 14.4116L10.3455 14.3921L10.623 14.3674C10.8056 14.3494 10.9849 14.328 11.16 14.3036L11.4191 14.265L11.6719 14.2219C11.9209 14.1769 12.1594 14.1255 12.3855 14.0689L12.6079 14.0108C12.9349 13.9208 13.233 13.8202 13.4974 13.7115L13.6687 13.638C14.3599 13.3267 14.7795 12.9604 14.8106 12.6049L14.8125 12.5625V10.155C14.0674 10.6496 12.9964 11.0205 11.7394 11.2331ZM14.8125 6.405C14.1041 6.87487 13.1025 7.233 11.9261 7.45013L11.7386 7.48312L11.4731 7.52513L11.2024 7.56262C10.5649 7.64438 9.888 7.6875 9.18712 7.6875C8.58637 7.6875 8.00325 7.656 7.44712 7.59525L7.17187 7.56262L6.90112 7.52513L6.63525 7.48312C5.37862 7.2705 4.30763 6.89962 3.56212 6.40537V8.4375C3.56212 8.80575 3.987 9.18938 4.70587 9.513L4.87725 9.5865C5.14162 9.69525 5.43975 9.79613 5.76675 9.88575L5.98912 9.94387C6.21525 10.0001 6.45412 10.0519 6.70275 10.0969L6.9555 10.14L7.21462 10.1786C7.38975 10.203 7.569 10.2244 7.752 10.2424L8.02912 10.2671L8.3115 10.2866L8.59913 10.3009C8.99097 10.3164 9.38328 10.3164 9.77512 10.3009L10.0627 10.2866L10.3451 10.2671L10.6226 10.2424C10.8052 10.2244 10.9845 10.203 11.1596 10.1786L11.4187 10.14L11.6715 10.0969C11.9205 10.0519 12.159 10.0005 12.3851 9.94387L12.6075 9.88575C12.9345 9.79575 13.2326 9.69525 13.497 9.5865L13.6684 9.513C14.3595 9.20175 14.7791 8.83538 14.8103 8.47988L14.8121 8.4375V6.405H14.8125ZM9.1875 2.8125L9.039 2.81325L8.81775 2.817L8.5995 2.82412L8.31187 2.83837L8.0295 2.85787L7.752 2.88262C7.63013 2.89463 7.51012 2.90813 7.39162 2.92313L7.21537 2.94637L6.95588 2.985L6.70312 3.02812C6.51638 3.06187 6.33562 3.09937 6.16125 3.1395L5.9895 3.18075L5.76712 3.23925C5.49487 3.31425 5.24212 3.39675 5.01262 3.48488L4.87762 3.5385L4.70625 3.612C3.98738 3.93563 3.5625 4.31925 3.5625 4.6875C3.5625 5.04 3.95137 5.406 4.61437 5.72062L4.70625 5.763L4.87762 5.8365C5.09775 5.92725 5.3415 6.01237 5.60625 6.09L5.7675 6.13575L5.9895 6.19388C6.159 6.23625 6.33563 6.27563 6.51825 6.312L6.70312 6.34688L6.95588 6.39L7.215 6.42863C7.33163 6.44513 7.45013 6.45975 7.5705 6.47363L7.75237 6.49237L8.0295 6.51713L8.31187 6.53662L8.5995 6.55087C8.92672 6.56381 9.25427 6.56594 9.58162 6.55725L9.7755 6.55087L10.0631 6.53662L10.3455 6.51713L10.623 6.49237C10.7449 6.48037 10.8649 6.46688 10.9834 6.45188L11.1596 6.42863L11.4191 6.39L11.6719 6.34688C11.8586 6.31313 12.0394 6.27562 12.2137 6.2355L12.3855 6.19425L12.6079 6.13575C12.8801 6.06075 13.1329 5.97825 13.3624 5.89013L13.4974 5.8365L13.6687 5.763C14.3876 5.43938 14.8125 5.05575 14.8125 4.6875C14.8125 4.335 14.4236 3.969 13.7606 3.65437L13.6687 3.612L13.4974 3.5385C13.259 3.44149 13.0158 3.35688 12.7688 3.285L12.6075 3.23925L12.3855 3.18113C12.2102 3.1374 12.0339 3.09801 11.8567 3.063L11.6719 3.02812L11.4191 2.985L11.16 2.94637C11.0417 2.9298 10.9232 2.9148 10.8045 2.90138L10.6226 2.88262L10.3455 2.85787L10.0631 2.83837L9.7755 2.82412C9.64687 2.81887 9.51675 2.8155 9.3855 2.81362L9.1875 2.8125Z"
        fill="currentColor" />
</svg>