<svg xmlns="http://www.w3.org/2000/svg" viewBox="0 0 23 22" class="design-iconfont">
  <path
    d="M11.5695198,3.76158664 C13.2872651,3.76158664 14.6926931,5.16701461 14.6926931,6.88475992 C14.6926931,8.60250522 13.2872651,10.0079332 11.5695198,10.0079332 C10.6911273,10.0079332 9.8908142,9.6565762 9.28569937,9.01242171 C8.68058455,8.36826722 8.38778706,7.54843424 8.44634656,6.67004175 C8.54394572,5.12797495 9.8322547,3.8591858 11.3743215,3.78110647 C11.432881,3.76158664 11.4914405,3.76158664 11.5695198,3.76158664 M11.5695198,14.6731733 C12.8773486,14.6731733 15.0050104,15.0050104 16.8398747,15.7272443 C18.4014614,16.3518789 19.377453,17.1326722 19.377453,17.7768267 L19.377453,19.3579332 L3.76158664,19.3579332 L3.76158664,17.7768267 C3.76158664,17.1326722 4.73757829,16.3518789 6.29916493,15.7272443 C8.13402923,15.0050104 10.261691,14.6731733 11.5695198,14.6731733 M11.5695198,2.2 L11.2962422,2.2 C8.95386221,2.33663883 7.04091858,4.23006263 6.88475992,6.55292276 C6.70908142,9.28569937 8.85626305,11.55 11.55,11.55 C14.126618,11.55 16.2347599,9.44185804 16.2347599,6.86524008 C16.2347599,4.28862213 14.1461378,2.2 11.5695198,2.2 Z M11.5695198,13.1115866 C8.44634656,13.1115866 2.2,14.6731733 2.2,17.7768267 L2.2,20.1192067 C2.2,20.548643 2.55135699,20.9 2.98079332,20.9 L20.1582463,20.9 C20.5876827,20.9 20.9390397,20.548643 20.9390397,20.1192067 L20.9390397,17.7573069 C20.9390397,14.6731733 14.6926931,13.1115866 11.5695198,13.1115866 Z"
    transform="translate(.246)" fill="currentColor" fill-rule="nonzero" opacity=".8" />
</svg>