<svg xmlns="http://www.w3.org/2000/svg" viewBox="0 0 23 22" class="design-iconfont">
  <path
    d="M15.9153625,4.18822726 C16.3356941,4.18822726 16.6764401,4.52897328 16.6764401,4.9493048 L16.6764401,4.9493048 L16.6764401,20.1389225 C16.6764401,20.559254 16.3356941,20.9 15.9153625,20.9 L15.9153625,20.9 L2.96107755,20.9 C2.54074603,20.9 2.2,20.559254 2.2,20.1389225 L2.2,20.1389225 L2.2,4.9493048 C2.2,4.52897328 2.54074603,4.18822726 2.96107755,4.18822726 L2.96107755,4.18822726 Z M15.1862183,5.67844903 L3.79666619,5.67844903 L3.79666619,19.4097782 L15.1862183,19.4097782 L15.1862183,5.67844903 Z M19.7303303,1.1013393 C20.1891057,1.1013393 20.4924723,1.40577032 20.5084389,1.86241684 L20.5084389,1.86241684 L20.5084389,17.0924834 C20.4924723,17.5491299 20.1869768,17.8535609 19.7303303,17.8535609 C19.2736837,17.8535609 18.9692527,17.5491299 19.0182172,17.0924834 L19.0182172,17.0924834 L19.0182172,2.59156107 L6.78562529,2.59156107 C6.32791431,2.62455884 6.02348329,2.32012782 6.02348329,1.86241684 C6.01122059,1.65686382 6.08760934,1.45590627 6.23331741,1.3104017 C6.37902548,1.16489714 6.5800896,1.08878932 6.78562529,1.1013393 L6.78562529,1.1013393 Z M12.0588815,15.5777794 C12.2612937,15.5656456 12.4591226,15.6412969 12.6017915,15.7853925 C12.7444604,15.9294881 12.8181396,16.1280599 12.8039924,16.3303414 C12.7935557,16.742897 12.4545268,17.0710353 12.0418504,17.0680012 L12.0418504,17.0680012 L6.84310527,17.0680012 C6.64059741,17.0804912 6.44255537,17.0049541 6.29980412,16.8607753 C6.15705287,16.7165965 6.08348996,16.5178127 6.09799438,16.3154392 C6.10729297,15.9028053 6.44634899,15.5741818 6.85907193,15.5777794 L6.85907193,15.5777794 Z M12.057817,11.7457805 C12.2603249,11.7332904 12.4583669,11.8088276 12.6011182,11.9530064 C12.7438694,12.0971851 12.8174323,12.295969 12.8029279,12.4983425 C12.7936293,12.9109764 12.4545733,13.2395999 12.0418504,13.2360023 L12.0418504,13.2360023 L6.84310527,13.2360023 C6.64059741,13.2484924 6.44255537,13.1729552 6.29980412,13.0287765 C6.15705287,12.8845977 6.08348996,12.6858139 6.09799438,12.4834403 C6.10729297,12.0708064 6.44634899,11.7421829 6.85907193,11.7457805 L6.85907193,11.7457805 Z M12.057817,8.0202261 C12.2603249,8.00773602 12.4583669,8.08327318 12.6011182,8.22745194 C12.7438694,8.37163071 12.8174323,8.57041454 12.8029279,8.7727881 C12.7936293,9.18542196 12.4545733,9.51404548 12.0418504,9.51044787 L12.0418504,9.51044787 L6.84310527,9.51044787 C6.64059741,9.52293796 6.44255537,9.44740079 6.29980412,9.30322203 C6.15705287,9.15904327 6.08348996,8.96025944 6.09799438,8.75788588 C6.10729297,8.34525201 6.44634899,8.01662849 6.85907193,8.0202261 L6.85907193,8.0202261 Z"
    transform="translate(.246)" fill="currentColor" fill-rule="nonzero" />
</svg>