<svg width="24" height="24" viewBox="0 0 24 24" fill="none" xmlns="http://www.w3.org/2000/svg">
<path fill-rule="evenodd" clip-rule="evenodd" d="M2.58579 11.5858C2.96086 11.2107 3.46957 11 4 11H8C8.53043 11 9.03914 11.2107 9.41421 11.5858C9.78929 11.9609 10 12.4696 10 13V19C10 19.5304 9.78929 20.0391 9.41421 20.4142C9.03914 20.7893 8.53043 21 8 21H4C3.46957 21 2.96086 20.7893 2.58579 20.4142C2.21071 20.0391 2 19.5304 2 19V13C2 12.4696 2.21071 11.9609 2.58579 11.5858ZM8 13L4 13V19L8 19V13Z" fill="#727372"/>
<path fill-rule="evenodd" clip-rule="evenodd" d="M14.5858 7.58579C14.9609 7.21071 15.4696 7 16 7H20C20.5304 7 21.0391 7.21071 21.4142 7.58579C21.7893 7.96086 22 8.46957 22 9V19C22 19.5304 21.7893 20.0391 21.4142 20.4142C21.0391 20.7893 20.5304 21 20 21H16C15.4696 21 14.9609 20.7893 14.5858 20.4142C14.2107 20.0391 14 19.5304 14 19V9C14 8.46957 14.2107 7.96086 14.5858 7.58579ZM20 9H16L16 19H20L20 9Z" fill="#727372"/>
<path fill-rule="evenodd" clip-rule="evenodd" d="M8.58579 3.58579C8.96086 3.21071 9.46957 3 10 3H14C14.5304 3 15.0391 3.21071 15.4142 3.58579C15.7893 3.96086 16 4.46957 16 5V19C16 19.5304 15.7893 20.0391 15.4142 20.4142C15.0391 20.7893 14.5304 21 14 21H10C9.46957 21 8.96086 20.7893 8.58579 20.4142C8.21071 20.0391 8 19.5304 8 19V5C8 4.46957 8.21071 3.96086 8.58579 3.58579ZM14 5L10 5L10 19H14V5Z" fill="#727372"/>
<path fill-rule="evenodd" clip-rule="evenodd" d="M3 20C3 19.4477 3.44772 19 4 19H18C18.5523 19 19 19.4477 19 20C19 20.5523 18.5523 21 18 21H4C3.44772 21 3 20.5523 3 20Z" fill="#727372"/>
</svg>
