<svg width="18" height="18" viewBox="0 0 18 18" fill="none" xmlns="http://www.w3.org/2000/svg">
    <path
        d="M2.5 15V4.71387C2.50011 4.12675 2.73328 3.5636 3.14844 3.14844C3.5636 2.73328 4.12675 2.50011 4.71387 2.5H6.42871L6.5293 2.50977C6.7572 2.55634 6.92871 2.75833 6.92871 3C6.92871 3.24167 6.7572 3.44366 6.5293 3.49023L6.42871 3.5H4.71387C4.39197 3.50011 4.08309 3.62784 3.85547 3.85547C3.62784 4.08309 3.50011 4.39197 3.5 4.71387V15C3.5 15.3219 3.62788 15.6307 3.85547 15.8584C4.08309 16.086 4.39197 16.2138 4.71387 16.2139H13.2861C13.608 16.2138 13.9169 16.086 14.1445 15.8584C14.3721 15.6307 14.5 15.3219 14.5 15V4.71387C14.4999 4.39197 14.3722 4.08309 14.1445 3.85547C13.9452 3.6561 13.6834 3.53337 13.4053 3.50586L13.2861 3.5H11.5713C11.2952 3.49992 11.0713 3.2761 11.0713 3C11.0713 2.7239 11.2952 2.50008 11.5713 2.5H13.2861L13.5049 2.51074C14.0117 2.56113 14.4883 2.78516 14.8516 3.14844C15.2667 3.5636 15.4999 4.12675 15.5 4.71387V15C15.5 15.5872 15.2667 16.1502 14.8516 16.5654C14.4364 16.9806 13.8732 17.2138 13.2861 17.2139H4.71387C4.12675 17.2138 3.5636 16.9806 3.14844 16.5654C2.73331 16.1502 2.5 15.5872 2.5 15Z"
        fill="currentColor" />
    <path
        d="M11.0712 2.99957C11.0711 2.67768 10.9433 2.3688 10.7157 2.14117C10.5165 1.94205 10.2552 1.8192 9.97742 1.79156L9.8573 1.78571H8.14246C7.82056 1.78582 7.51168 1.91355 7.28406 2.14117C7.05643 2.3688 6.9287 2.67768 6.92859 2.99957C6.92859 3.32162 7.05633 3.63122 7.28406 3.85895C7.51168 4.08653 7.82059 4.21431 8.14246 4.21442H9.8573L9.97742 4.20856C10.2552 4.18092 10.5165 4.05803 10.7157 3.85895C10.9434 3.63122 11.0712 3.32162 11.0712 2.99957ZM12.0712 2.99957C12.0712 3.58684 11.838 4.15072 11.4227 4.56598C11.0594 4.9292 10.5828 5.15335 10.076 5.20367L9.8573 5.21442H8.14246C7.55537 5.21431 6.99218 4.9811 6.57703 4.56598C6.16177 4.15072 5.92859 3.58684 5.92859 2.99957C5.9287 2.41246 6.16187 1.8493 6.57703 1.43414C6.99219 1.01898 7.55534 0.785816 8.14246 0.785706H9.8573L10.076 0.796448C10.5829 0.846777 11.0594 1.07088 11.4227 1.43414C11.8379 1.8493 12.0711 2.41246 12.0712 2.99957Z"
        fill="currentColor" />
    <path
        d="M11.5712 8.5L11.6718 8.50977C11.8999 8.55619 12.0712 8.75819 12.0712 9C12.0712 9.24181 11.8999 9.44381 11.6718 9.49023L11.5712 9.5H6.42859C6.15245 9.5 5.92859 9.27614 5.92859 9C5.92859 8.72386 6.15245 8.5 6.42859 8.5H11.5712Z"
        fill="currentColor" />
    <path
        d="M11.5712 11.9286L11.6718 11.9384C11.8999 11.9848 12.0712 12.1868 12.0712 12.4286C12.0712 12.6704 11.8999 12.8724 11.6718 12.9188L11.5712 12.9286H6.42859C6.15245 12.9286 5.92859 12.7047 5.92859 12.4286C5.92859 12.1524 6.15245 11.9286 6.42859 11.9286H11.5712Z"
        fill="currentColor" />
</svg>