<?xml version="1.0" standalone="no"?><!DOCTYPE svg PUBLIC "-//W3C//DTD SVG 1.1//EN" "http://www.w3.org/Graphics/SVG/1.1/DTD/svg11.dtd"><svg t="1744617998017" class="icon" viewBox="0 0 1024 1024" version="1.1" xmlns="http://www.w3.org/2000/svg" p-id="19386" xmlns:xlink="http://www.w3.org/1999/xlink" width="32" height="32"><path d="M512 546.909091v69.818182H372.363636A174.731636 174.731636 0 0 0 197.818182 791.272727v34.909091c0 19.223273 15.685818 34.909091 34.909091 34.909091h232.727272V930.909091H232.727273c-57.716364 0-104.727273-47.010909-104.727273-104.727273V791.272727A244.642909 244.642909 0 0 1 372.363636 546.909091h139.636364z m256-58.414546a104.727273 104.727273 0 0 1 104.494545 97.559273l0.232728 7.168v34.909091H884.363636a81.454545 81.454545 0 0 1 81.175273 74.798546l0.279273 6.656v139.636363a81.454545 81.454545 0 0 1-74.752 81.175273l-6.702546 0.279273h-232.727272a81.454545 81.454545 0 0 1-81.175273-74.752l-0.279273-6.702546v-139.636363a81.454545 81.454545 0 0 1 74.752-81.175273l6.702546-0.279273h11.636363v-34.909091a104.727273 104.727273 0 0 1 97.559273-104.494545l7.168-0.232728z m116.363636 209.454546h-232.727272a11.636364 11.636364 0 0 0-11.310546 8.983273l-0.325818 2.653091v139.636363a11.636364 11.636364 0 0 0 8.983273 11.357091l2.653091 0.279273h232.727272a11.636364 11.636364 0 0 0 11.310546-8.936727l0.325818-2.699637v-139.636363a11.636364 11.636364 0 0 0-11.636364-11.636364z m-116.363636-139.636364a34.909091 34.909091 0 0 0-34.583273 30.161455l-0.325818 4.747636v34.909091h69.818182v-34.909091a34.909091 34.909091 0 0 0-25.6-33.652363l-4.561455-0.93091-4.747636-0.325818zM512 93.090909c115.479273 0 209.454545 93.975273 209.454545 209.454546S627.525818 512 512 512a209.687273 209.687273 0 0 1-209.454545-209.454545C302.545455 187.066182 396.520727 93.090909 512 93.090909z m0 69.818182c-76.986182 0-139.636364 62.650182-139.636364 139.636364s62.650182 139.636364 139.636364 139.636363 139.636364-62.650182 139.636364-139.636363-62.650182-139.636364-139.636364-139.636364z" fill="#000000" fill-opacity=".65" p-id="19387"></path></svg>