<?xml version="1.0" standalone="no"?><!DOCTYPE svg PUBLIC "-//W3C//DTD SVG 1.1//EN" "http://www.w3.org/Graphics/SVG/1.1/DTD/svg11.dtd"><svg t="1744783874359" class="icon" viewBox="0 0 1024 1024" version="1.1" xmlns="http://www.w3.org/2000/svg" p-id="3490" xmlns:xlink="http://www.w3.org/1999/xlink" width="32" height="32"><path d="M814.08 604.16h87.04a40.96 40.96 0 0 1 40.96 40.96v256a40.96 40.96 0 0 1-40.96 40.96h-256a40.96 40.96 0 0 1-40.96-40.96v-256a40.96 40.96 0 0 1 40.96-40.96h87.04v-56.32H291.84v56.32h87.04a40.96 40.96 0 0 1 40.96 40.96v256a40.96 40.96 0 0 1-40.96 40.96H122.88a40.96 40.96 0 0 1-40.96-40.96v-256a40.96 40.96 0 0 1 40.96-40.96h87.04V506.88a40.96 40.96 0 0 1 40.96-40.96h220.16v-46.08H386.56a40.96 40.96 0 0 1-40.96-40.96V122.88a40.96 40.96 0 0 1 40.96-40.96h256a40.96 40.96 0 0 1 40.96 40.96v256a40.96 40.96 0 0 1-40.96 40.96H552.96v46.08h220.16a40.96 40.96 0 0 1 40.96 40.96v97.28z m-476.16 81.92H163.84v174.08h174.08v-174.08z m522.24 0h-174.08v174.08h174.08v-174.08zM601.6 163.84h-174.08v174.08h174.08V163.84z" p-id="3491" fill="#515151"></path></svg>