<svg xmlns="http://www.w3.org/2000/svg" viewBox="0 0 18 18" class="design-iconfont">
  <path d="M16.4285714,3.88214286 L13.5714286,3.88214286 L13.5714286,2.14285714 C13.5714286,1.5125 13.0589286,1 12.4285714,1 L5.57142857,1 C4.94107143,1 4.42857143,1.5125 4.42857143,2.14285714 L4.42857143,3.88214286 L1.57142857,3.88214286 C1.25535714,3.88214286 1,4.1375 1,4.45357143 L1,16.275 C1,16.5910714 1.25535714,16.8464286 1.57142857,16.8464286 L16.4285714,16.8464286 C16.7446429,16.8464286 17,16.5910714 17,16.275 L17,4.45357143 C17,4.1375 16.7446429,3.88214286 16.4285714,3.88214286 Z M12.4285714,2.14285714 L12.4285714,3.875 L5.57142857,3.875 L5.57142857,2.14285714 L12.4285714,2.14285714 Z M15.8571429,15.7035714 L2.14285714,15.7035714 L2.14285714,10.8642857 L7.16071429,10.8642857 L7.16071429,11.9357143 C7.16071429,12.2517857 7.41607143,12.5071429 7.73214286,12.5071429 L10.2678571,12.5071429 C10.5839286,12.5071429 10.8392857,12.2517857 10.8392857,11.9357143 L10.8392857,10.8642857 L15.8571429,10.8642857 L15.8571429,15.7035714 Z M8.30357143,11.3642857 L8.30357143,9.22142857 L9.69642857,9.22142857 L9.69642857,11.3642857 L8.30357143,11.3642857 Z M15.8571429,9.72142857 L10.8392857,9.72142857 L10.8392857,8.65 C10.8392857,8.33392857 10.5839286,8.07857143 10.2678571,8.07857143 L7.73214286,8.07857143 C7.41607143,8.07857143 7.16071429,8.33392857 7.16071429,8.65 L7.16071429,9.72142857 L2.14285714,9.72142857 L2.14285714,5.025 L15.8571429,5.025 L15.8571429,9.72142857 Z" fill="#606266" fill-rule="nonzero" opacity=".8"/>
</svg>
