<svg width="24" height="24" viewBox="0 0 24 24" fill="none" xmlns="http://www.w3.org/2000/svg">
<path fill-rule="evenodd" clip-rule="evenodd" d="M8.46447 3.46447C9.40215 2.52678 10.6739 2 12 2C13.3261 2 14.5979 2.52678 15.5355 3.46447C16.4732 4.40215 17 5.67392 17 7C17 8.32608 16.4732 9.59785 15.5355 10.5355C14.5979 11.4732 13.3261 12 12 12C10.6739 12 9.40215 11.4732 8.46447 10.5355C7.52678 9.59785 7 8.32608 7 7C7 5.67392 7.52678 4.40215 8.46447 3.46447ZM12 4C11.2044 4 10.4413 4.31607 9.87868 4.87868C9.31607 5.44129 9 6.20435 9 7C9 7.79565 9.31607 8.55871 9.87868 9.12132C10.4413 9.68393 11.2044 10 12 10C12.7956 10 13.5587 9.68393 14.1213 9.12132C14.6839 8.55871 15 7.79565 15 7C15 6.20435 14.6839 5.44129 14.1213 4.87868C13.5587 4.31607 12.7956 4 12 4Z" fill="#727372"/>
<path fill-rule="evenodd" clip-rule="evenodd" d="M10 16C9.20435 16 8.44129 16.3161 7.87868 16.8787C7.31607 17.4413 7 18.2044 7 19V21C7 21.5523 6.55228 22 6 22C5.44772 22 5 21.5523 5 21V19C5 17.6739 5.52678 16.4021 6.46447 15.4645C7.40215 14.5268 8.67392 14 10 14H14C14.4345 14 14.8563 14.0562 15.2576 14.1597C15.7924 14.2975 16.1142 14.8428 15.9763 15.3776C15.8385 15.9124 15.2932 16.2342 14.7584 16.0963C14.5157 16.0338 14.2615 16 14 16H10Z" fill="#727372"/>
<path fill-rule="evenodd" clip-rule="evenodd" d="M19 15C19.5523 15 20 15.4477 20 16V19C20 19.5523 19.5523 20 19 20C18.4477 20 18 19.5523 18 19V16C18 15.4477 18.4477 15 19 15Z" fill="#727372"/>
<path fill-rule="evenodd" clip-rule="evenodd" d="M19 21C19.5523 21 20 21.4477 20 22V22.01C20 22.5623 19.5523 23.01 19 23.01C18.4477 23.01 18 22.5623 18 22.01V22C18 21.4477 18.4477 21 19 21Z" fill="#727372"/>
</svg>
