<svg width="18" height="18" viewBox="0 0 18 18" fill="none" xmlns="http://www.w3.org/2000/svg">
    <path
        d="M15.3861 11.3643C14.4123 13.9922 11.9742 15.7359 9.17222 15.8045L9.06851 15.8063H8.99995C7.38101 15.8063 5.80952 15.2262 4.57905 14.1715C3.36089 13.1309 2.54526 11.6912 2.28335 10.1215L2.26401 10.002L3.29233 10.6875L3.85835 9.83849L1.96694 8.57638C1.88257 8.52013 1.78413 8.49025 1.68218 8.49025C1.5978 8.49025 1.51519 8.51134 1.44136 8.55001C1.27437 8.63966 1.17065 8.81193 1.17065 9.00001C1.17065 13.3172 4.68276 16.8293 8.99995 16.8293H9.00347C10.6154 16.8293 12.1658 16.3406 13.4876 15.4178C14.806 14.4967 15.7974 13.21 16.3511 11.7L16.3951 11.5822L15.4283 11.2535L15.3861 11.3643ZM8.99995 1.17072C7.38628 1.17072 5.83589 1.65939 4.51401 2.58224C3.1939 3.50333 2.20425 4.79005 1.64878 6.30001L1.60483 6.41779L2.57163 6.7465L2.61382 6.634C3.59819 3.97618 6.16284 2.19025 8.99819 2.19025C10.6189 2.19025 12.1886 2.77032 13.4208 3.82501C14.639 4.86739 15.4546 6.30704 15.7148 7.87677L15.7341 7.9963L14.7058 7.31075L14.1398 8.15978L16.0312 9.42189C16.1156 9.47814 16.214 9.50802 16.316 9.50802C16.3986 9.50802 16.483 9.48693 16.5568 9.44825C16.7238 9.35861 16.8275 9.18634 16.8257 8.99825C16.8292 4.68282 13.3171 1.17072 8.99995 1.17072Z"
        fill="currentColor" />
    <path
        d="M11.3502 7.90311V7.18065H7.68162V7.90311H11.3502ZM6.67791 7.11913L7.39861 6.64804C7.2158 6.43182 7.03826 6.21385 6.86599 5.99061L6.30173 5.33319L5.61091 5.73925C5.73572 5.8869 5.90271 6.10487 6.11365 6.39843C6.36501 6.71132 6.5531 6.95214 6.67791 7.11913ZM6.92927 11.0373V7.83983H5.39294V8.62382H6.11365V11.257C6.13474 11.5699 6.03982 11.7896 5.83064 11.9162L6.33337 12.5754C6.45818 12.4488 6.60408 12.3135 6.77107 12.1676C6.93806 12.0006 7.19998 11.8019 7.55505 11.5717C7.70095 11.468 7.80642 11.3941 7.86794 11.3519C7.78533 11.0637 7.72205 10.7701 7.67986 10.473L6.92927 11.0373Z"
        fill="currentColor" />
    <path
        d="M12.6035 11.6648V5.61444H7.86975V6.36678H11.7563V11.3836C11.7985 11.7387 11.6104 11.8951 11.192 11.8547H10.1567C10.2393 12.1887 10.292 12.4594 10.3131 12.6685H11.5664C12.3012 12.6668 12.6457 12.3328 12.6035 11.6648Z"
        fill="currentColor" />
    <path d="M10.9107 8.71875H8.02612V11.3836H10.9107V8.71875ZM10.1583 10.6928H8.77847V9.40781H10.1583V10.6928Z"
        fill="currentColor" />
</svg>