<svg width="24" height="24" viewBox="0 0 24 24" fill="none" xmlns="http://www.w3.org/2000/svg">
<path fill-rule="evenodd" clip-rule="evenodd" d="M9.87868 3.87868C10.4413 3.31607 11.2044 3 12 3C12.7956 3 13.5587 3.31607 14.1213 3.87868C14.6839 4.44129 15 5.20435 15 6C15 6.79565 14.6839 7.55871 14.1213 8.12132C13.5587 8.68393 12.7956 9 12 9C11.2044 9 10.4413 8.68393 9.87868 8.12132C9.31607 7.55871 9 6.79565 9 6C9 5.20435 9.31607 4.44129 9.87868 3.87868ZM12 5C11.7348 5 11.4804 5.10536 11.2929 5.29289C11.1054 5.48043 11 5.73478 11 6C11 6.26522 11.1054 6.51957 11.2929 6.70711C11.4804 6.89464 11.7348 7 12 7C12.2652 7 12.5196 6.89464 12.7071 6.70711C12.8946 6.51957 13 6.26522 13 6C13 5.73478 12.8946 5.48043 12.7071 5.29289C12.5196 5.10536 12.2652 5 12 5Z" fill="#727372"/>
<path fill-rule="evenodd" clip-rule="evenodd" d="M2.87868 15.8787C3.44129 15.3161 4.20435 15 5 15C5.79565 15 6.55871 15.3161 7.12132 15.8787C7.68393 16.4413 8 17.2044 8 18C8 18.7956 7.68393 19.5587 7.12132 20.1213C6.55871 20.6839 5.79565 21 5 21C4.20435 21 3.44129 20.6839 2.87868 20.1213C2.31607 19.5587 2 18.7956 2 18C2 17.2044 2.31607 16.4413 2.87868 15.8787ZM5 17C4.73478 17 4.48043 17.1054 4.29289 17.2929C4.10536 17.4804 4 17.7348 4 18C4 18.2652 4.10536 18.5196 4.29289 18.7071C4.48043 18.8946 4.73478 19 5 19C5.26522 19 5.51957 18.8946 5.70711 18.7071C5.89464 18.5196 6 18.2652 6 18C6 17.7348 5.89464 17.4804 5.70711 17.2929C5.51957 17.1054 5.26522 17 5 17Z" fill="#727372"/>
<path fill-rule="evenodd" clip-rule="evenodd" d="M16.8787 15.8787C17.4413 15.3161 18.2043 15 19 15C19.7957 15 20.5587 15.3161 21.1213 15.8787C21.6839 16.4413 22 17.2043 22 18C22 18.7957 21.6839 19.5587 21.1213 20.1213C20.5587 20.6839 19.7957 21 19 21C18.2043 21 17.4413 20.6839 16.8787 20.1213C16.3161 19.5587 16 18.7957 16 18C16 17.2043 16.3161 16.4413 16.8787 15.8787ZM19 17C18.7348 17 18.4804 17.1054 18.2929 17.2929C18.1054 17.4804 18 17.7348 18 18C18 18.2652 18.1054 18.5196 18.2929 18.7071C18.4804 18.8946 18.7348 19 19 19C19.2652 19 19.5196 18.8946 19.7071 18.7071C19.8946 18.5196 20 18.2652 20 18C20 17.7348 19.8946 17.4804 19.7071 17.2929C19.5196 17.1054 19.2652 17 19 17Z" fill="#727372"/>
<path fill-rule="evenodd" clip-rule="evenodd" d="M6 18C6 17.4477 6.44772 17 7 17H17C17.5523 17 18 17.4477 18 18C18 18.5523 17.5523 19 17 19H7C6.44772 19 6 18.5523 6 18Z" fill="#727372"/>
<path fill-rule="evenodd" clip-rule="evenodd" d="M12.47 7.15201C12.9383 6.8593 13.5553 7.00168 13.848 7.47001L18.848 15.47C19.1407 15.9383 18.9983 16.5553 18.53 16.848C18.0617 17.1407 17.4447 16.9983 17.152 16.53L12.152 8.53001C11.8593 8.06167 12.0017 7.44472 12.47 7.15201Z" fill="#727372"/>
<path fill-rule="evenodd" clip-rule="evenodd" d="M11.53 7.15201C11.9983 7.44472 12.1407 8.06167 11.848 8.53001L6.84801 16.53C6.5553 16.9983 5.93835 17.1407 5.47001 16.848C5.00168 16.5553 4.8593 15.9383 5.15201 15.47L10.152 7.47001C10.4447 7.00168 11.0617 6.8593 11.53 7.15201Z" fill="#727372"/>
</svg>
