<svg width="24" height="24" viewBox="0 0 24 24" fill="none" xmlns="http://www.w3.org/2000/svg">
<path fill-rule="evenodd" clip-rule="evenodd" d="M6 5C5.73478 5 5.48043 5.10536 5.29289 5.29289C5.10536 5.48043 5 5.73478 5 6V12C5 12.5523 4.55228 13 4 13C3.44772 13 3 12.5523 3 12V6C3 5.20435 3.31607 4.44129 3.87868 3.87868C4.44129 3.31607 5.20435 3 6 3H18C18.7956 3 19.5587 3.31607 20.1213 3.87868C20.6839 4.44129 21 5.20435 21 6V12C21 12.5523 20.5523 13 20 13C19.4477 13 19 12.5523 19 12V6C19 5.73478 18.8946 5.48043 18.7071 5.29289C18.5196 5.10536 18.2652 5 18 5H6Z" fill="#727372"/>
<path fill-rule="evenodd" clip-rule="evenodd" d="M2 18C2 17.4477 2.44772 17 3 17H10C10.5523 17 11 17.4477 11 18C11 18.5523 10.5523 19 10 19H3C2.44772 19 2 18.5523 2 18Z" fill="#727372"/>
<path fill-rule="evenodd" clip-rule="evenodd" d="M13 18C13 17.4477 13.4477 17 14 17H21C21.5523 17 22 17.4477 22 18C22 18.5523 21.5523 19 21 19H14C13.4477 19 13 18.5523 13 18Z" fill="#727372"/>
<path fill-rule="evenodd" clip-rule="evenodd" d="M6.70711 14.2929C7.09763 14.6834 7.09763 15.3166 6.70711 15.7071L4.41421 18L6.70711 20.2929C7.09763 20.6834 7.09763 21.3166 6.70711 21.7071C6.31658 22.0976 5.68342 22.0976 5.29289 21.7071L2.29289 18.7071C1.90237 18.3166 1.90237 17.6834 2.29289 17.2929L5.29289 14.2929C5.68342 13.9024 6.31658 13.9024 6.70711 14.2929Z" fill="#727372"/>
<path fill-rule="evenodd" clip-rule="evenodd" d="M17.2929 14.2929C17.6834 13.9024 18.3166 13.9024 18.7071 14.2929L21.7071 17.2929C22.0976 17.6834 22.0976 18.3166 21.7071 18.7071L18.7071 21.7071C18.3166 22.0976 17.6834 22.0976 17.2929 21.7071C16.9024 21.3166 16.9024 20.6834 17.2929 20.2929L19.5858 18L17.2929 15.7071C16.9024 15.3166 16.9024 14.6834 17.2929 14.2929Z" fill="#727372"/>
</svg>
