<svg width="22" height="22" viewBox="0 0 22 22" fill="none" xmlns="http://www.w3.org/2000/svg">
    <path
        d="M10.2822 17.7687C10.5442 18.4742 11.0458 19.0651 11.6993 19.4383C12.3529 19.8115 13.1168 19.9431 13.8575 19.8102C14.5982 19.6773 15.2687 19.2883 15.7517 18.7112C16.2348 18.1341 16.4996 17.4057 16.5 16.6531V11.9167L11 8.84583"
        stroke="currentColor" stroke-width="1.3" stroke-linecap="round" stroke-linejoin="round" />
    <path
        d="M4.77951 13.7628C4.29914 14.3425 4.03783 15.0725 4.04127 15.8253C4.04471 16.5781 4.31269 17.3058 4.79833 17.881C5.28397 18.4562 5.95638 18.8424 6.69794 18.972C7.43951 19.1016 8.20304 18.9664 8.85501 18.59L12.8333 16.2672V9.9"
        stroke="currentColor" stroke-width="1.3" stroke-linecap="round" stroke-linejoin="round" />
    <path
        d="M5.5 6.99416C4.22492 6.77783 2.94525 7.35625 2.2605 8.54241C1.83833 9.27373 1.72391 10.1428 1.9424 10.9585C2.16088 11.7741 2.69439 12.4696 3.42558 12.892L7.33333 15.1965L12.8333 12.1275"
        stroke="currentColor" stroke-width="1.3" stroke-linecap="round" stroke-linejoin="round" />
    <path
        d="M11.7178 4.23134C11.4558 3.52584 10.9542 2.93486 10.3006 2.56168C9.64712 2.1885 8.88324 2.05686 8.1425 2.18976C7.40176 2.32266 6.73129 2.71166 6.24826 3.28876C5.76524 3.86586 5.50039 4.59435 5.5 5.34692V9.99167L11 13.1542"
        stroke="currentColor" stroke-width="1.3" stroke-linecap="round" stroke-linejoin="round" />
    <path
        d="M17.2205 8.23717C17.7009 7.65754 17.9622 6.92748 17.9587 6.17468C17.9553 5.42188 17.6873 4.69425 17.2017 4.11903C16.716 3.54382 16.0436 3.15764 15.3021 3.02803C14.5605 2.89841 13.797 3.03362 13.145 3.41L9.16666 5.73283V12.1"
        stroke="currentColor" stroke-width="1.3" stroke-linecap="round" stroke-linejoin="round" />
    <path
        d="M16.5 14.9435C17.7751 15.1598 19.0547 14.5814 19.7395 13.3952C20.1617 12.6639 20.2761 11.7949 20.0576 10.9792C19.8391 10.1635 19.3056 9.46804 18.5744 9.04567L14.6254 6.74117L9.16666 9.87617"
        stroke="currentColor" stroke-width="1.3" stroke-linecap="round" stroke-linejoin="round" />
</svg>