<svg xmlns="http://www.w3.org/2000/svg" xmlns:xlink="http://www.w3.org/1999/xlink" viewBox="0 0 54 34" class="design-iconfont">
  <defs>
    <linearGradient x1="50%" y1="0%" x2="50%" y2="100%" id="y9qwz0s5e__jiau6m3yba">
      <stop stop-color="#FFF" offset="0%"/>
      <stop stop-color="#F4F6F9" offset="100%"/>
    </linearGradient>
    <linearGradient x1="8.41521708%" y1="17.0960445%" x2="100%" y2="77.3683506%" id="y9qwz0s5e__u87u7saonb">
      <stop stop-color="#157EB4" offset="0%"/>
      <stop stop-color="#1DB3D9" offset="100%"/>
      <stop stop-color="#1DB6DB" offset="100%"/>
    </linearGradient>
    <path d="M17.6034607,9.65769337 C17.8522709,9.80134401 18.0055443,10.0668213 18.0055443,10.3541226 L18.005,12.45 L20.1017579,12.4506051 C20.5458871,12.4506051 20.905925,12.8106431 20.905925,13.2547723 C20.905925,13.6989015 20.5458871,14.0589394 20.1017579,14.0589394 L18.005,14.058 L18.0055443,16.155153 C18.0055443,16.5992823 17.6455064,16.9593202 17.2013772,16.9593202 C16.9880769,16.9593202 16.7834924,16.87469 16.6326663,16.7238639 C16.4818402,16.5730378 16.3971387,16.3684533 16.39721,16.155153 L16.397,14.058 L14.3015343,14.0589394 C14.0142331,14.0589394 13.7487557,13.905666 13.6051051,13.6568559 C13.4614545,13.4080457 13.4614545,13.1014989 13.6051051,12.8526887 C13.7487557,12.6038785 14.0142331,12.4506051 14.3015343,12.4506051 L16.397,12.45 L16.39721,10.3541226 C16.39721,10.0668213 16.5504834,9.80134401 16.7992936,9.65769337 C17.0481038,9.51404274 17.3546506,9.51404274 17.6034607,9.65769337 Z M7.53066217,0 L10.1284717,2.5978095 L19.5816043,2.5978095 L19.5816043,8.01504512 C19.5816043,8.45917437 19.2215664,8.81921226 18.7774372,8.81921226 C18.3333079,8.81921226 17.97327,8.45917437 17.97327,8.01504512 L17.97327,4.20802644 L9.46335283,4.20802644 L6.86554333,1.60994799 L1.60860323,1.60994799 L1.60860323,14.4212181 L11.8944119,14.4212181 C12.3385412,14.4212181 12.6985791,14.781256 12.6985791,15.2253852 C12.6985791,15.6695144 12.3385412,16.0295523 11.8944119,16.0295523 L0,16.0295523 L0,0 L7.53066217,0 Z M17.9068388,0.000806856661 C18.1941401,0.000806856661 18.4596174,0.154080237 18.603268,0.402890419 C18.7469187,0.651700602 18.7469187,0.95824739 18.603268,1.20705757 C18.4596174,1.45586775 18.1941401,1.60914113 17.9068388,1.60914113 L10.9665268,1.60914113 C10.6792255,1.60914113 10.4137482,1.45586775 10.2700976,1.20705757 C10.126447,0.95824739 10.126447,0.651700602 10.2700976,0.402890419 C10.4137482,0.154080237 10.6792255,0.000806856661 10.9665268,0.000806856661 L17.9068388,0.000806856661 Z" id="y9qwz0s5e__94aqpe719c"/>
  </defs>
  <g fill="none" fill-rule="evenodd">
    <rect stroke="#E2E5ED" fill="url(#y9qwz0s5e__jiau6m3yba)" x=".5" y=".5" width="53" height="33" rx="3"/>
    <g transform="translate(16 9)" fill-rule="nonzero">
      <use fill="url(#y9qwz0s5e__u87u7saonb)" xlink:href="#y9qwz0s5e__94aqpe719c"/>
      <use fill="#7D8598" xlink:href="#y9qwz0s5e__94aqpe719c"/>
    </g>
  </g>
</svg>
