<svg xmlns="http://www.w3.org/2000/svg" viewBox="0 0 8 12" class="design-iconfont">
  <path d="M11.3357232,0 C11.5130771,0.000159212928 11.6826565,0.0842061198 11.8050692,0.232617225 C12.0649769,0.547914198 12.0649769,1.04367734 11.8050692,1.35897432 L11.8050692,1.35897432 L6.46934602,7.76615052 C6.34735822,7.91541793 6.17759835,8 6,8 C5.82240165,8 5.65264178,7.91541793 5.53065398,7.76615052 L5.53065398,7.76615052 L0.194930789,1.35897432 C-0.0649769296,1.04367734 -0.0649769296,0.547914198 0.194930789,0.232617225 C0.317343529,0.0842061198 0.486922894,0.000159212928 0.66427681,0 C0.841630726,0.000159212928 1.01121009,0.0842061198 1.13362283,0.232617225 L1.13362283,0.232617225 L6,6.075 L10.8663772,0.232617225 C10.9643074,0.113888341 11.0924242,0.0363525436 11.2305589,0.0100058631 Z" transform="rotate(-90 6 6)" fill="#4C4C4C" fill-rule="nonzero" opacity=".7"/>
</svg>
