<svg xmlns="http://www.w3.org/2000/svg" xmlns:xlink="http://www.w3.org/1999/xlink" viewBox="0 0 32 32" width="14" height="14" style="" filter="none">
    
    <g>
    <path d="M16 29.333c-7.364 0-13.333-5.969-13.333-13.333s5.969-13.333 13.333-13.333 13.333 5.969 13.333 13.333-5.969 13.333-13.333 13.333zM16 26.667c5.891 0 10.667-4.776 10.667-10.667s-4.776-10.667-10.667-10.667v0c-5.891 0-10.667 4.776-10.667 10.667s4.776 10.667 10.667 10.667v0zM14.671 21.333l-5.657-5.657 1.885-1.885 3.772 3.772 7.541-7.543 1.887 1.885-9.428 9.428z" fill="rgba(0,144,192,1)"></path>
    </g>
  </svg>