<svg width="12" height="12" viewBox="0 0 12 12" fill="none" xmlns="http://www.w3.org/2000/svg">
<path id="loading-circle" d="M6.00059 12.0012C5.19074 12.0012 4.40434 11.843 3.66481 11.53C2.9499 11.2277 2.30882 10.794 1.75798 10.2432C1.20715 9.69235 0.773513 9.05127 0.47114 8.33636C0.158219 7.59683 0 6.81043 0 6.00059C0 5.76736 0.18869 5.57867 0.421916 5.57867C0.655142 5.57867 0.843832 5.76736 0.843832 6.00059C0.843832 6.69675 0.979783 7.37181 1.24934 8.0082C1.50952 8.62233 1.88104 9.17433 2.35453 9.64782C2.82801 10.1213 3.38002 10.494 3.99414 10.753C4.62936 11.0214 5.30442 11.1573 6.00059 11.1573C6.69675 11.1573 7.37181 11.0214 8.0082 10.7518C8.62233 10.4916 9.17433 10.1201 9.64782 9.64665C10.1213 9.17316 10.494 8.62115 10.753 8.00703C11.0214 7.37181 11.1573 6.69675 11.1573 6.00059C11.1573 5.30442 11.0214 4.62936 10.7518 3.99297C10.4916 3.37885 10.1201 2.82801 9.64665 2.35335C9.17316 1.87987 8.62115 1.50718 8.00703 1.24817C7.37181 0.979783 6.69675 0.843832 6.00059 0.843832C5.76736 0.843832 5.57867 0.655142 5.57867 0.421916C5.57867 0.18869 5.76736 0 6.00059 0C6.81043 0 7.59683 0.158219 8.33636 0.47114C9.05127 0.773513 9.69235 1.20715 10.2432 1.75798C10.794 2.30882 11.2265 2.95107 11.5289 3.66481C11.8418 4.40434 12 5.19074 12 6.00059C12 6.81043 11.8418 7.59683 11.5289 8.33636C11.2277 9.05127 10.794 9.69235 10.2432 10.2432C9.69235 10.794 9.0501 11.2265 8.33636 11.5289C7.59683 11.843 6.81043 12.0012 6.00059 12.0012Z" fill="rgba(0,144,192,1)"/>
</svg>
