<svg width="22" height="22" viewBox="0 0 22 22" fill="none" xmlns="http://www.w3.org/2000/svg">
    <path
        d="M12.8333 2.75V6.41667C12.8333 6.65978 12.9299 6.89294 13.1018 7.06485C13.2737 7.23676 13.5069 7.33333 13.75 7.33333H17.4167"
        stroke="#797575" stroke-width="1.3" stroke-linecap="round" stroke-linejoin="round" />
    <path
        d="M11 19.25H6.41666C5.93043 19.25 5.46412 19.0568 5.1203 18.713C4.77648 18.3692 4.58333 17.9029 4.58333 17.4167V4.58333C4.58333 4.0971 4.77648 3.63079 5.1203 3.28697C5.46412 2.94315 5.93043 2.75 6.41666 2.75H12.8333L17.4167 7.33333V11.4583"
        stroke="#797575" stroke-width="1.3" stroke-linecap="round" stroke-linejoin="round" />
    <path
        d="M19.4749 17.8904C19.4041 18.4304 19.1876 18.9409 18.8487 19.3672C18.5098 19.7935 18.0612 20.1195 17.5511 20.3103C17.041 20.501 16.4886 20.5493 15.9531 20.45C15.4176 20.3506 14.9193 20.1074 14.5116 19.7464C14.1038 19.3853 13.8021 18.9201 13.6386 18.4006C13.4752 17.8811 13.4562 17.3269 13.5838 16.7975C13.7114 16.268 13.9807 15.7833 14.3629 15.3953C14.745 15.0072 15.2256 14.7305 15.753 14.5949C17.2151 14.2199 18.7286 14.9725 19.2874 16.375"
        stroke="#797575" stroke-width="1.3" stroke-linecap="round" stroke-linejoin="round" />
    <path d="M19.5 14.5V16.375H17.625" stroke="#797575" stroke-width="1.3" stroke-linecap="round"
        stroke-linejoin="round" />
</svg>