<svg width="22px" height="22px" xmlns="http://www.w3.org/2000/svg" viewBox="0 0 22 22" class="design-iconfont">
  <path d="M18.8136167,1.1 L3.03867381,1.1 C2.81599906,1.1 2.60246509,1.18855357 2.44514297,1.34614099 C2.28782085,1.50372841 2.19962688,1.71741128 2.20000119,1.94008571 L2.20000119,20.0613286 C2.20000119,20.5252143 2.5747881,20.9 3.03867381,20.9 L18.8136167,20.9 C19.0360462,20.9 19.2493655,20.8116402 19.4066469,20.6543588 C19.5639283,20.4970774 19.6522881,20.2837581 19.6522881,20.0613286 L19.6522881,1.94008571 C19.6522881,1.47667094 19.2770308,1.10078016 18.8136167,1.1 Z M3.87875952,19.2212429 L3.87875952,2.78017143 L17.9749452,2.78017143 L17.9749452,19.2198286 L3.87875952,19.2198286 L3.87875952,19.2212429 Z M6.73420238,7.64814286 L15.1152595,7.64814286 C15.5788355,7.64814286 15.9546381,7.27234027 15.9546381,6.80876429 C15.9546381,6.3451883 15.5788355,5.96938571 15.1152595,5.96938571 L6.73420238,5.96938571 C6.2706264,5.96938571 5.89482381,6.3451883 5.89482381,6.80876429 C5.89482381,7.27234027 6.2706264,7.64814286 6.73420238,7.64814286 Z M6.73420238,16.0320286 L15.1152595,16.0320286 C15.5788355,16.0320286 15.9546381,15.656226 15.9546381,15.19265 C15.9546381,14.729074 15.5788355,14.3532714 15.1152595,14.3532714 L6.73420238,14.3532714 C6.2706264,14.3532714 5.89482381,14.729074 5.89482381,15.19265 C5.89482381,15.656226 6.2706264,16.0320286 6.73420238,16.0320286 Z M6.73420238,11.8400857 L15.1152595,11.8400857 C15.5788355,11.8400857 15.9546381,11.4642831 15.9546381,11.0007071 C15.9546381,10.5371312 15.5788355,10.1613286 15.1152595,10.1613286 L6.73420238,10.1613286 C6.2706264,10.1613286 5.89482381,10.5371312 5.89482381,11.0007071 C5.89482381,11.4642831 6.2706264,11.8400857 6.73420238,11.8400857 Z" fill="#666" fill-rule="nonzero"/>
</svg>
