<?xml version="1.0" encoding="UTF-8"?>
<svg width="22px" height="22px" viewBox="0 0 22 22" version="1.1" xmlns="http://www.w3.org/2000/svg" xmlns:xlink="http://www.w3.org/1999/xlink">
    <title>重新分析</title>
    <g id="2023.6" stroke="none" stroke-width="1" fill="none" fill-rule="evenodd">
        <g id="文件列表备份" transform="translate(-860.000000, -352.000000)" fill="#666666" fill-rule="nonzero">
            <g id="reanalysis.f85ac5ed备份-7" transform="translate(860.000000, 352.000000)">
                <path d="M15.0183049,10.5855375 C17.6589902,10.5855375 19.8726104,12.5229715 20.2142625,15.0498606 L21.6615383,15.0498606 L19.277092,17.9137445 L16.8926458,15.0498606 L18.3399216,15.0498606 C17.9994559,13.5339556 16.6364068,12.353903 14.9340782,12.353903 C13.0597374,12.353903 11.4416355,13.9543422 11.4416355,15.8083843 C11.4416355,17.661284 12.9743244,19.2617233 14.9340782,19.2617233 C15.7846494,19.2617233 16.6364068,18.9247286 17.2331115,18.4186653 L18.3399216,19.7666442 C17.4027512,20.5251679 16.2105281,21.0300887 14.9352645,21.0300887 C12.0395265,21.0300887 9.65508029,18.6711258 9.65508029,15.8083843 C9.65508029,12.9445005 12.0395265,10.5855375 15.0194912,10.5855375 L15.0183049,10.5855375 Z M18.3048673,1.90685 L18.3048673,8.374025 L16.6226764,8.374025 L16.6226764,2.7137 L2.78347596,2.7137 L2.78347596,18.4782125 L7.8146274,18.4782125 L7.8146274,20.0919125 L1.94045288,20.0919125 C2.17799653,20.1993352 1.89784557,19.9303852 1.1,19.2850625 L1.1,1.90685 C1.1,1.5071375 1.40456779,1.1680625 1.81708365,1.1086625 L1.94045288,1.1 L17.4644144,1.1 C17.9283341,1.1 18.3048673,1.46135 18.3048673,1.90685 Z M4.03772981,7.5783125 L10.3321308,7.6352375 L10.3321308,9.1821125 L4.03772981,9.12395 L4.03772981,7.577075 L4.03772981,7.5783125 Z M15.7873639,4.33235 L15.7873639,5.948525 L4.03772981,5.948525 L4.03772981,4.33235 L15.7873639,4.33235 Z" id="形状"></path>
            </g>
        </g>
    </g>
</svg>