<svg width="22" height="22" viewBox="0 0 22 22" fill="none" xmlns="http://www.w3.org/2000/svg">
    <path
        d="M12.8333 2.75V6.41667C12.8333 6.65978 12.9299 6.89294 13.1018 7.06485C13.2737 7.23676 13.5069 7.33333 13.75 7.33333H17.4167"
        stroke="#ffffff" stroke-width="1.3" stroke-linecap="round" stroke-linejoin="round" />
    <path
        d="M11 19.25H6.41666C5.93043 19.25 5.46412 19.0568 5.1203 18.713C4.77648 18.3692 4.58333 17.9029 4.58333 17.4167V4.58333C4.58333 4.0971 4.77648 3.63079 5.1203 3.28697C5.46412 2.94315 5.93043 2.75 6.41666 2.75H12.8333L17.4167 7.33333V11.4583"
        stroke="#ffffff" stroke-width="1.3" stroke-linecap="round" stroke-linejoin="round" />
    <path
        d="M20 19H13C13 17.3636 13.5526 17.3636 14.4739 17.3636C16.5 17.3636 14.9444 15.5091 14.9444 14.6162C14.9444 14.1875 15.1083 13.7765 15.4001 13.4734C15.6918 13.1703 16.0874 13 16.5 13C16.9126 13 17.3082 13.1703 17.5999 13.4734C17.8917 13.7765 18.0556 14.1875 18.0556 14.6162C18.0556 15.5091 16.5 17.3636 18.5261 17.3636C19.4474 17.3636 20 17.3636 20 19Z"
        stroke="#ffffff" stroke-width="1.3" stroke-linecap="round" stroke-linejoin="round" />
    <path d="M13 21H20" stroke="#ffffff" stroke-width="1.3" stroke-linecap="round" stroke-linejoin="round" />
</svg>