<svg xmlns="http://www.w3.org/2000/svg" viewBox="0 0 23 22" class="design-iconfont">
  <path d="M12.8972635,1.1 C12.9304367,1.1 12.9613984,1.10221155 12.9923601,1.10663465 C12.9945717,1.1088462 12.9989948,1.1088462 13.0012063,1.1088462 C13.0388026,1.1132693 13.0741874,1.12211549 13.1095722,1.13096169 C13.1471685,1.13980789 13.1825533,1.15307718 13.2179381,1.16855803 L13.2179381,1.16855803 C13.2378421,1.17519267 13.2533229,1.18403887 13.2710153,1.19288507 C13.2887077,1.20173126 13.3041885,1.21278901 13.3196694,1.22163521 C13.3218809,1.22384676 13.3240925,1.22384676 13.326304,1.2260583 C13.3395733,1.2349045 13.3550542,1.2437507 13.3683235,1.25480844 C13.370535,1.25480844 13.370535,1.25701999 13.3727466,1.25701999 C13.3882274,1.26807774 13.4014967,1.27913549 13.414766,1.29019323 L13.414766,1.29019323 L13.4236122,1.29903943 C13.4368815,1.31009717 13.4501508,1.32115492 13.4634201,1.33442422 L13.4634201,1.33442422 L18.9502737,6.82791243 C18.9657545,6.84118173 18.9768122,6.85445102 18.98787,6.86772032 C18.9922931,6.86993187 18.9945046,6.87435496 18.9967162,6.87656651 C19.0077739,6.88983581 19.0188317,6.90531665 19.0298894,6.91858595 C19.032101,6.91858595 19.032101,6.9207975 19.0343125,6.92300905 C19.0453703,6.93848989 19.0542165,6.95175919 19.0630627,6.96502848 C19.076332,6.98714397 19.0851782,7.00483637 19.0940243,7.02031721 L19.0940243,7.02031721 C19.1028705,7.04022115 19.1117167,7.055702 19.1183514,7.07339439 L19.1183514,7.07339439 C19.1338322,7.11099073 19.14489,7.14637552 19.1559477,7.18397185 C19.1670055,7.21935664 19.1736401,7.25474143 19.1780632,7.29233776 C19.1802748,7.29454931 19.1802748,7.29897241 19.1802748,7.30118396 C19.1824863,7.31887635 19.1846979,7.33656875 19.1846979,7.35647269 L19.1846979,7.35647269 L19.1846979,20.1038423 C19.1846979,20.5439406 18.8286384,20.9 18.3885402,20.9 L18.3885402,20.9 L2.99615771,20.9 C2.55605942,20.9 2.2,20.5439406 2.2,20.1038423 L2.2,20.1038423 L2.2,1.89615771 C2.2,1.45605942 2.55605942,1.1 2.99615771,1.1 L2.99615771,1.1 Z M12.3233173,2.48331542 L3.58331542,2.48331542 L3.58331542,19.5188961 L17.9003824,19.5188961 L17.9003824,7.97243829 L13.119475,7.97243829 C12.6793767,7.97243829 12.3233173,7.61637887 12.3233173,7.17628058 L12.3233173,7.17628058 L12.3233173,2.48331542 Z M7.885893,10.5167765 C8.18224059,10.1916788 8.68647381,10.1651402 9.01157154,10.4614878 C9.33666927,10.7578354 9.36320786,11.2620686 9.06686027,11.5871663 L9.06686027,11.5871663 L7.7465654,13.0423657 L9.08897576,14.6457389 C9.36984251,14.9818943 9.32561153,15.483916 8.98945605,15.7669943 C8.84128225,15.8908411 8.65993522,15.9527644 8.47858818,15.9527644 C8.25079861,15.9527644 8.0252206,15.8554563 7.8682006,15.6674746 L7.8682006,15.6674746 L6.0790573,13.5333296 C5.82251759,13.2281358 5.83136379,12.7814029 6.09896124,12.4872668 L6.09896124,12.4872668 Z M12.3753379,10.4614878 C12.7026472,10.1673517 13.2046688,10.1916788 13.5010164,10.5167765 L13.5010164,10.5167765 L15.2879482,12.4850553 C15.5555456,12.7791913 15.5643918,13.2259243 15.3078521,13.5311181 L15.3078521,13.5311181 L13.5187088,15.665263 C13.3616888,15.8532447 13.1361108,15.9505529 12.9083212,15.9505529 C12.7269742,15.9505529 12.5456272,15.8908411 12.3974534,15.7647828 C12.0590863,15.4817045 12.0148554,14.9796828 12.2979337,14.6435273 L12.2979337,14.6435273 L13.640344,13.0423657 L12.3200491,11.5871663 C12.0259131,11.259857 12.0502401,10.7578354 12.3753379,10.4614878 Z M13.5966327,3.50120552 L13.5966327,6.69691131 L16.8869154,6.69691131 L13.5966327,3.50120552 Z" transform="translate(.246)" fill="#303133" fill-rule="nonzero" opacity=".8"/>
</svg>
