<?xml version="1.0" standalone="no"?><!DOCTYPE svg PUBLIC "-//W3C//DTD SVG 1.1//EN" "http://www.w3.org/Graphics/SVG/1.1/DTD/svg11.dtd"><svg t="1745750379043" class="icon" viewBox="0 0 1024 1024" version="1.1" xmlns="http://www.w3.org/2000/svg" p-id="17336" xmlns:xlink="http://www.w3.org/1999/xlink" width="32" height="32"><path d="M896 85.333333a42.666667 42.666667 0 0 1 42.666667 42.666667v298.666667a42.666667 42.666667 0 0 1-42.666667 42.666666H597.333333a42.666667 42.666667 0 0 1-42.666666-42.666666V128a42.666667 42.666667 0 0 1 42.666666-42.666667h298.666667z m-42.666667 85.333334H640v213.333333h213.333333V170.666667zM563.221333 933.098667l191.978667-3.349334c69.589333-1.216 125.237333-57.749333 125.76-126.954666l-0.021333-3.253334-1.429334-81.781333 42.666667-0.736a21.333333 21.333333 0 0 0 16.469333-34.421333l-87.306666-112.277334a21.333333 21.333333 0 0 0-34.133334 0.597334L733.877333 686.186667a21.333333 21.333333 0 0 0 17.653334 33.824l42.656-0.746667 1.44 81.770667a42.666667 42.666667 0 0 1-39.786667 43.317333l-2.133333 0.085333-191.968 3.36 1.493333 85.312zM460.448 94.218667h-192c-69.610667 0-126.24 55.562667-127.957333 124.746666l-0.042667 3.253334v81.792l-42.666667-0.010667a21.333333 21.333333 0 0 0-17.066666 34.133333l85.333333 113.781334a21.333333 21.333333 0 0 0 34.133333 0l85.333334-113.781334a21.333333 21.333333 0 0 0-17.066667-34.133333h-42.666667v-81.781333a42.666667 42.666667 0 0 1 40.533334-42.613334l2.133333-0.053333h192v-85.333333zM426.666667 554.666667a42.666667 42.666667 0 0 1 42.666666 42.666666v298.666667a42.666667 42.666667 0 0 1-42.666666 42.666667H128a42.666667 42.666667 0 0 1-42.666667-42.666667V597.333333a42.666667 42.666667 0 0 1 42.666667-42.666666h298.666667z m-42.666667 85.333333H170.666667v213.333333h213.333333V640z" fill="#515151" p-id="17337"></path></svg>