<svg width="22px" height="22px" xmlns="http://www.w3.org/2000/svg" viewBox="0 0 20 20" class="design-iconfont">
  <path d="M47,27.586 L45.586,29 L39.929,23.343 L41.343,21.929 L47,27.586 Z M34,21 C31.243,21 29,18.757 29,16 C29,13.243 31.243,11 34,11 C36.757,11 39,13.243 39,16 C39,18.757 36.757,21 34,21 L34,21 Z M34,9 C30.134,9 27,12.134 27,16 C27,19.866 30.134,23 34,23 C37.866,23 41,19.866 41,16 C41,12.134 37.866,9 34,9 L34,9 Z" transform="translate(-27 -9)" fill="#FFF" fill-rule="evenodd"/>
</svg>
