<svg width="22px" height="22px" xmlns="http://www.w3.org/2000/svg" viewBox="0 0 22 22" class="design-iconfont">
  <path d="M19.2814564,17.9570358 L15.8625494,14.5462213 C16.258443,14.0343116 16.5851514,13.4744702 16.8388309,12.8743662 C17.2289591,11.9483272 17.4269059,10.9647703 17.4269059,9.95245432 C17.4269059,8.94013838 17.2289591,7.95658142 16.8388309,7.03054241 C16.4621553,6.1370969 15.9221256,5.33376285 15.2341162,4.64354744 C14.5461068,3.95333203 13.7447104,3.41266329 12.8529887,3.03304481 C11.9285962,2.64384001 10.9465493,2.44444444 9.93567518,2.44444444 C8.92480105,2.44444444 7.94275412,2.64384001 7.01836162,3.03687934 C6.12663995,3.41458055 5.32524354,3.95716656 4.63723415,4.64738197 C3.94922476,5.33759738 3.40919504,6.13901416 3.03251951,7.03437694 C2.64239128,7.96041595 2.44444444,8.94397291 2.44444444,9.95628885 C2.44444444,10.9686048 2.64239128,11.9521617 3.03251951,12.8782008 C3.40919504,13.7716463 3.94922476,14.5749803 4.63723415,15.2651957 C5.32524354,15.9554111 6.12663995,16.4960799 7.01836162,16.8756984 C7.94275412,17.2687377 8.92480105,17.466216 9.93567518,17.466216 C10.9465493,17.466216 11.9285962,17.2668204 12.8529887,16.8756984 C13.4622038,16.6168676 14.0291389,16.2832635 14.5461068,15.8787205 L17.9592484,19.2837832 C18.3224712,19.6461463 18.9182335,19.6461463 19.2833782,19.2837832 C19.646601,18.9137511 19.646601,18.3193989 19.2814564,17.9570358 Z M9.93567516,15.8069239 C6.71883494,15.8069239 4.10056417,13.1817057 4.10056417,9.95370132 C4.10056417,6.72569692 6.71695265,4.10047869 9.93567516,4.10047869 C13.1525154,4.10047869 15.7707862,6.72569692 15.7707862,9.95370132 C15.7707862,13.1817057 13.1525154,15.8069239 9.93567516,15.8069239 Z" fill="#606266" fill-rule="nonzero"/>
</svg>
