<?xml version="1.0" standalone="no"?><!DOCTYPE svg PUBLIC "-//W3C//DTD SVG 1.1//EN" "http://www.w3.org/Graphics/SVG/1.1/DTD/svg11.dtd"><svg t="1749088453500" class="icon" viewBox="0 0 1024 1024" version="1.1" xmlns="http://www.w3.org/2000/svg" p-id="4411" xmlns:xlink="http://www.w3.org/1999/xlink" width="32" height="32"><path d="M481.861704 942.981018H175.512541c-55.8449 0-100.520819-43.080351-100.520819-97.329682V172.321404c0-54.249331 44.67592-97.329682 100.520819-97.329682h660.565383c55.8449 0 100.520819 43.080351 100.520819 97.329682v390.914297h74.991723V172.321404c0-94.138545-78.182859-172.321404-175.512542-172.321404H175.512541C78.182859 1.595569 0 78.182859 0 172.321404v673.329932c0 94.138545 78.182859 172.321404 175.512541 172.321404h307.944732V942.981018z" p-id="4412" fill="#707070"></path><path d="M1008.399328 676.521068L472.288293 359.002925c-19.146823-11.16898-31.911371-3.191137-28.720234 19.146823L558.448995 994.039211c4.786706 22.33796 17.551254 25.529097 31.911371 6.382275 0 0 73.396154-103.711956 132.432191-167.534699l121.26321 180.299247c7.977843 11.16898 22.33796 14.360117 33.50694 6.382274l57.440468-39.889214c11.16898-7.977843 14.360117-22.33796 6.382274-33.506939l-121.26321-180.299247c76.587291-31.911371 185.085953-59.036037 185.085952-59.036037 20.742391-4.786706 22.33796-17.551254 3.191137-30.315803z" p-id="4413" fill="#707070"></path></svg>