<svg width="20px" height="20px" xmlns="http://www.w3.org/2000/svg" viewBox="0 0 20 20" class="design-iconfont">
  <path d="M6.3394024,0 C7.01847621,0 7.65200238,0.364381066 7.99153928,0.952359603 L7.99153928,0.952359603 C8.05986073,1.04138452 8.17994085,1.21115297 8.41803075,1.54861953 C8.63935376,1.52344865 8.86305329,1.5123593 9.08675282,1.51187087 L9.12815976,1.51187087 C9.36521449,1.51135328 9.60226922,1.52274019 9.83828877,1.54654918 L9.79911345,1.54342858 C10.0525261,1.18907092 10.2213938,0.954302824 10.2523582,0.910952664 C10.5691212,0.364381066 11.2026474,0.0124220818 11.8692991,0.0124220818 L11.8692991,0.0124220818 L11.9107061,0.0124220818 C12.2461023,0.0144924287 12.5773578,0.103517348 12.8672064,0.271215452 L12.8672064,0.271215452 L14.4593032,1.1945902 C15.3661152,1.72045833 15.6766672,2.88813401 15.1528694,3.79701633 L15.1528694,3.79701633 C15.1073218,3.89846333 15.0224376,4.08686491 14.8505988,4.45952736 C15.1259549,4.8446119 15.3599041,5.25868129 15.5524464,5.69345415 C15.949953,5.7307204 16.2253092,5.75763491 16.3164044,5.76798664 C16.8132877,5.77626803 17.2770454,5.97502134 17.6248637,6.32698032 C17.9809634,6.68308 18.1838574,7.17375223 18.1818027,7.67477619 L18.1818027,7.67477619 L18.1776463,9.51531465 C18.175576,10.5629102 17.322593,11.4158932 16.2749975,11.4179635 L16.2749975,11.4179635 L16.274,11.416 L16.2628284,11.4176108 C16.1706056,11.4302314 15.9915298,11.4464848 15.6252096,11.4803494 L15.4717029,11.4945663 C15.3909593,11.6705458 15.3019344,11.844455 15.2046281,12.0121531 C15.0783369,12.2253988 14.941694,12.4345039 14.7946994,12.6311868 C14.9810306,13.0369748 15.1093921,13.3206124 15.1487287,13.4096373 C15.388889,13.8423398 15.448929,14.3433638 15.3184972,14.8216139 C15.1880653,15.3081454 14.8630209,15.7304962 14.4261776,15.9789379 L14.4261776,15.9789379 L12.8299401,16.8940312 C12.5421619,17.059659 12.2129767,17.1466136 11.8817212,17.1466136 L11.8817212,17.1466136 L11.8403143,17.1466136 C11.1612405,17.1466136 10.5277143,16.7822325 10.1881774,16.194254 L10.1881774,16.194254 C10.1136449,16.0928069 9.96872063,15.8919833 9.67059067,15.4675622 C9.48397362,15.4850173 9.29307882,15.491255 9.10150405,15.4895596 L9.06009711,15.4895596 C8.85539155,15.487748 8.64990961,15.4768787 8.44494527,15.4572104 L8.48413567,15.4603283 C8.29882692,15.7209872 8.14907553,15.9305381 8.05123152,16.0668862 L7.97105113,16.1783537 C7.95054641,16.2067588 7.93646805,16.2261373 7.92942887,16.2356609 C7.61266579,16.7822325 6.97913961,17.1341915 6.31248789,17.1341915 C6.3088059,17.1341915 6.30512465,17.1341807 6.3014442,17.1341593 L6.29178442,17.1341915 L6.29178442,17.1341915 L6.27108095,17.1341915 C5.93568474,17.1341915 5.60649958,17.0451666 5.316651,16.8774684 L5.316651,16.8774684 L3.72455419,15.9540937 C3.28978133,15.7035817 2.9668072,15.2812309 2.83844569,14.7946994 C2.71008418,14.3102382 2.77840563,13.7843701 3.03098795,13.3516676 L3.03098795,13.3516676 C3.08067628,13.2336578 3.18419363,13.0059196 3.40365041,12.5318102 C3.16763085,12.196414 2.96059616,11.8423846 2.78668701,11.4717925 C2.25667819,11.4221042 1.90057851,11.3869083 1.8426088,11.3806973 C1.366429,11.3786269 0.915093358,11.1860846 0.565204721,10.836196 C0.200823655,10.4718149 0,9.98735375 0,9.47390771 L0,9.47390771 L0.00414069393,7.63336926 C0.00828138785,6.58577369 0.85919399,5.73486109 1.90264886,5.7307204 C1.98753309,5.72036866 2.19042709,5.70173554 2.7287173,5.65204721 C2.82602361,5.42637939 2.93989269,5.20485227 3.06204316,4.99160653 C3.15934947,4.82390843 3.26700751,4.65828067 3.37880624,4.5009343 C3.17798259,4.06202074 3.04548038,3.76803147 3.02270657,3.71834315 C2.78668701,3.3063441 2.72664695,2.81567187 2.85500846,2.33949207 C2.98958102,1.84053845 3.30841445,1.42646906 3.75353905,1.16974603 L3.75353905,1.16974603 L5.34977655,0.25258233 C5.63962513,0.0869545725 5.96673995,0 6.29799546,0 L6.29799546,0 Z M6.32130947,1.40796275 L6.26318864,1.41191699 C6.20434421,1.42048806 6.14617002,1.44027137 6.09096077,1.47201669 L6.09096077,1.47201669 L4.49472326,2.3891804 C4.25456301,2.52789364 4.16967878,2.83637534 4.30839203,3.07653559 C4.32702515,3.11173149 4.37878383,3.22560057 4.50507499,3.50302706 C4.59824061,3.70799141 4.72246142,3.98127721 4.86945606,4.30218099 C4.97918445,4.54234124 4.9460589,4.82183808 4.78043114,5.02887277 C4.58374818,5.27524406 4.4346832,5.4884898 4.31460307,5.69759484 C4.16760844,5.95017717 4.03717658,6.23174436 3.91502611,6.55885918 C3.8218605,6.80937116 3.58791129,6.987421 3.32083653,7.01226517 C2.63762203,7.07230523 2.14487945,7.11992321 2.04136211,7.13027494 C2.03101037,7.13234529 2.02479933,7.13234529 2.01858829,7.13234529 C1.99581447,7.13441564 1.97097031,7.13648598 1.94819649,7.13648598 C1.67077,7.13648598 1.44510218,7.3621538 1.44510218,7.6395803 L1.44510218,7.6395803 L1.44096149,9.48011875 C1.44096149,9.75754524 1.66662931,9.98321306 1.9440558,9.98528341 C1.98132204,9.98735375 2.09933182,9.99977583 2.3891804,10.0266903 C2.63348134,10.0494642 2.97094789,10.0825897 3.37052486,10.119856 C3.63552927,10.1447001 3.86119709,10.3144686 3.95850339,10.5608399 C4.16553809,11.0846376 4.44917563,11.5711692 4.80320496,12.0100827 C4.97090306,12.2191878 5.00609896,12.500755 4.89222988,12.7450559 C4.64970352,13.2670791 4.46316103,13.6739657 4.37409989,13.8691396 L4.33269296,13.9600659 C4.32301122,13.9813911 4.31756071,13.9934751 4.31667342,13.9955455 L4.31667342,13.9955455 L4.31046238,14.0100379 C4.22143746,14.1653139 4.1965933,14.3040272 4.23385954,14.4406701 C4.26905544,14.5711019 4.35186932,14.67876 4.46780875,14.7470814 L4.46780875,14.7470814 L6.05990556,15.6704562 C6.13167236,15.712433 6.21583798,15.7340403 6.30255538,15.7341196 L6.39944246,15.7160038 C6.53194467,15.6808079 6.64581375,15.597994 6.70792416,15.4882656 C6.72655729,15.4592808 6.80108978,15.3536931 6.92324025,15.1839246 C6.94773935,15.1497639 6.97419379,15.1129002 7.00246936,15.073487 L7.19290294,14.8076391 C7.29797305,14.6606444 7.417018,14.4934639 7.54641468,14.3102382 C7.70169071,14.0907814 7.96462477,13.981053 8.22962918,14.02246 L8.13819754,14.0138438 C8.17533464,14.0137646 8.21281289,14.0165975 8.25033265,14.02246 L8.15978061,14.0138424 C8.19662985,14.0138095 8.23381256,14.0166438 8.27103612,14.02246 C8.59172794,14.0739143 8.91587781,14.097704 9.23988814,14.0930298 L9.57161152,14.0749971 L9.57161152,14.0749971 L9.90661022,14.0369524 C9.94320414,14.0314777 9.97967775,14.0289305 10.0157687,14.0291879 C10.0225291,14.0291924 10.0295653,14.0291375 10.0365871,14.0291888 C10.2672787,14.0240438 10.4848708,14.1338151 10.6208799,14.326801 C11.03909,14.9209906 11.3475717,15.3516227 11.3993304,15.4261552 L11.3993304,15.4261552 L11.4158932,15.4509994 C11.5297622,15.6435417 11.69539,15.7491294 11.8837916,15.7491294 L11.8635732,15.7486778 C11.9431027,15.7452848 12.0204585,15.7228167 12.0908263,15.6828783 L12.0908263,15.6828783 L13.6870638,14.7657145 C13.8030032,14.6994634 13.8878874,14.5876647 13.9230833,14.4593032 C13.9582792,14.3309417 13.9396461,14.1922284 13.873395,14.0783594 C13.8609729,14.0576559 13.8506212,14.0369524 13.8402695,14.0162489 C13.8361288,14.0121083 13.8340584,14.0038269 13.8299177,13.9955455 C13.7864404,13.8961688 13.5835464,13.4489739 13.2999089,12.8278698 C13.1881102,12.5835688 13.2274468,12.2937203 13.3992855,12.0866856 C13.6187423,11.8237515 13.7988625,11.5711692 13.9520682,11.3144462 C14.076289,11.1012004 14.1860174,10.8672512 14.3019568,10.579473 C14.4013335,10.3331017 14.624931,10.1654036 14.8899354,10.1405594 C15.5400243,10.0825897 16.0120634,10.0391124 16.1321435,10.0266903 C16.1611284,10.0225497 16.1776912,10.0225497 16.1776912,10.0225497 C16.4944543,10.0204793 16.7346145,9.80309287 16.7346145,9.51738499 L16.7346145,9.51738499 L16.7387552,7.67477619 C16.7387552,7.54227399 16.6849262,7.41184213 16.5917606,7.31867652 C16.504806,7.23172194 16.3743741,7.18410396 16.1694098,7.16754119 C16.1631987,7.16754119 16.1549174,7.16754119 16.1445656,7.16547084 C16.0389779,7.15511911 15.5876423,7.10957147 14.9582568,7.04953141 C14.6911821,7.02468725 14.4572328,6.84456706 14.3661376,6.59198473 C14.1570325,6.01849862 13.8506212,5.48020841 13.4551849,4.98953618 C13.2874868,4.78457183 13.2522909,4.49472326 13.3640897,4.25456301 C13.616672,3.70799141 13.7988625,3.3063441 13.8506212,3.19454537 L13.8506212,3.19454537 L13.8506212,3.18626398 L13.873395,3.14692738 C13.9624199,2.99165136 13.9872641,2.85293812 13.9499978,2.71629522 C13.9148019,2.5879337 13.8299177,2.47613497 13.7160486,2.40988387 L13.7160486,2.40988387 L12.1218815,1.48443877 C12.0495605,1.44350237 11.9646485,1.42235189 11.8772223,1.42276562 L11.7823446,1.44096149 C11.6519127,1.47615739 11.540114,1.55897126 11.4759332,1.66869965 C11.4552298,1.7018252 11.391049,1.78877978 11.2378433,2.00409586 C11.1115522,2.18007535 10.9397134,2.4202356 10.7368194,2.70594348 C10.5815433,2.92540026 10.3186093,3.03512865 10.0536049,2.99165136 L10.1460401,3.0010313 C10.1085747,3.0009468 10.0707592,2.9978624 10.0329014,2.99165136 L10.1254815,3.00103161 C10.0879687,3.00095474 10.0501045,2.99787041 10.0121979,2.99165136 C9.71136962,2.9428684 9.40505347,2.91853138 9.10084144,2.9183954 L8.81661088,2.92754729 C8.61172321,2.93920257 8.40905925,2.96197639 8.21099606,2.99579206 C8.17318609,3.00229065 8.13524968,3.00554404 8.09754161,3.00570859 C8.09110463,3.00553158 8.084402,3.00566662 8.07770648,3.00570426 C7.84313949,3.01346051 7.61533214,2.90197815 7.47809323,2.70801383 C7.0930087,2.16144223 6.82179325,1.77842804 6.78038631,1.72252867 L6.76589388,1.7018252 C6.66183019,1.52343031 6.4942471,1.41914137 6.32130947,1.40796275 Z M9.10952664,11.7657818 C8.53604053,11.7657818 7.97083581,11.6125761 7.47395254,11.3247979 C5.91912197,10.4221266 5.3870428,8.42217145 6.28971408,6.86734088 C6.87148157,5.86529295 7.95427303,5.24211851 9.11366733,5.24211851 L9.11366733,5.24211851 L9.15507427,5.24211851 C9.72856038,5.24418886 10.2916948,5.39532419 10.788578,5.68310242 C11.5339029,6.11166424 12.0866856,6.83628567 12.3061424,7.66649481 C12.5297398,8.49670394 12.4075894,9.39730487 11.9748868,10.1405594 C11.3931193,11.1426074 10.3103279,11.7657818 9.15093358,11.7657818 L9.15093358,11.7657818 Z M9.13500287,6.64181669 C8.48136917,6.65019827 7.87256961,7.00296743 7.54227399,7.5691885 C7.02882794,8.455297 7.3310986,9.59398783 8.2172071,10.1095042 C8.50084463,10.275132 8.82174841,10.3620866 9.14886323,10.3620866 L9.13461389,10.361887 C9.78477246,10.3523314 10.3894334,10.0002177 10.7181862,9.43664146 C10.9686982,9.00807964 11.0349493,8.50705567 10.9065878,8.02466483 C10.782367,7.55055538 10.4676742,7.13855633 10.0432531,6.89425539 C9.75961559,6.72862763 9.43871181,6.64167306 9.11159699,6.64167306 Z" transform="translate(.909091 1.818182)" fill="#666" fill-rule="nonzero" opacity=".99949283"/>
</svg>
