<svg width="22px" height="22px" xmlns="http://www.w3.org/2000/svg" viewBox="0 0 22 22" class="design-iconfont">
  <path d="M17.1791122,0 C17.9867705,0 18.6416287,0.654858151 18.6416287,1.46494194 L18.6416287,1.46494194 L18.6416287,15.0374835 C18.6416287,15.8451418 17.9867705,16.5 17.1791122,16.5 L17.1791122,16.5 L1.46251654,16.5 C0.654858151,16.5 0,15.8451418 0,15.0374835 L0,15.0374835 L0,1.46251654 C0,0.654858151 0.654858151,0 1.46251654,0 L1.46251654,0 Z M12.8885786,6.80567397 C12.7236513,6.61406732 12.4253271,6.62134352 12.267676,6.81780097 L12.267676,6.81780097 L8.44039394,11.6055417 C8.12751727,11.9960312 7.54057034,12.0154344 7.20343966,11.6443481 L7.20343966,11.6443481 L5.58812289,9.86895487 C5.43289725,9.69917683 5.16852859,9.69190063 5.00602675,9.85197707 L5.00602675,9.85197707 L1.62501837,13.169925 L1.62501837,14.8798324 L17.0166103,14.8798324 L17.0166103,11.5909893 Z M17.0166103,1.62744377 L1.62501837,1.62744377 L1.62501837,10.8924739 L4.54034985,8.03050125 C4.99389975,7.58665295 5.72637072,7.60605615 6.15324122,8.07658386 L6.15324122,8.07658386 L7.76370719,9.84470087 L11.6807291,4.94296634 C12.1173012,4.39725121 12.9443628,4.38027341 13.4027635,4.91143613 L13.4027635,4.91143613 L17.0166103,9.1001029 L17.0166103,1.62744377 Z M5.22916348,3.46333725 C5.94989515,3.46333725 6.53416361,4.04760571 6.53416361,4.76833738 C6.53416361,5.23456902 6.285432,5.66538484 5.88166355,5.89850066 C5.47789511,6.13161649 4.98043186,6.13161649 4.57666341,5.89850066 C4.17289497,5.66538484 3.92416336,5.23456902 3.92416336,4.76833738 C3.92416336,4.04760571 4.50843182,3.46333725 5.22916348,3.46333725 Z" transform="translate(1.833333 2.75)" fill="#606266" fill-rule="nonzero"/>
</svg>
