<svg xmlns="http://www.w3.org/2000/svg" viewBox="0 0 22 22" class="design-iconfont">
  <path d="M18.3612832,13.0255625 C20.3675932,13.0255625 22,14.6579693 22,16.6642793 L22,16.8654169 C22,18.8714736 20.3675932,20.5041338 18.3612832,20.5041338 L18.2652742,20.4990673 C16.2718836,20.483868 14.6551827,18.8572876 14.6551827,16.8606038 C14.6626502,16.4567885 14.9921385,16.133337 15.3960228,16.133337 C15.6296988,16.133337 15.838471,16.2416107 15.9743811,16.4110785 C15.8061563,15.3873403 14.917741,14.6064059 13.846579,14.605025 L13.7553831,14.6004652 C12.5739724,14.6147393 11.6233437,15.5757524 11.6219054,16.7572485 L11.6219054,16.9586394 C11.6231623,18.1493758 12.5882055,19.1143057 13.778942,19.1154227 L14.9188909,19.1154227 C15.3227063,19.1228902 15.6461578,19.4523784 15.6461578,19.8562628 C15.6461578,20.2601472 15.3227063,20.5896354 14.9188909,20.5971029 L13.778942,20.5971029 C11.772632,20.5971029 10.1402252,18.9649495 10.1402252,16.9586394 L10.1402252,16.7572485 C10.1402252,14.7509384 11.772632,13.118785 13.778942,13.118785 L13.8731778,13.1235981 C15.8675817,13.1380374 17.4855491,14.7648712 17.4855491,16.7623149 C17.4780816,17.1661302 17.1485934,17.4895818 16.744709,17.4895818 C16.5105522,17.4895818 16.3014018,17.380862 16.1655127,17.2107934 C16.3330485,18.2355304 17.2218377,19.017522 18.2936462,19.0186537 L18.3861087,19.0237201 C19.5674994,19.008479 20.5174482,18.0469056 20.5183198,16.8654169 L20.5183198,16.6642793 C20.5169239,15.4735596 19.5520029,14.5086386 18.3612832,14.5072427 L17.2213343,14.5072427 C16.9533923,14.5121976 16.7036558,14.372088 16.568234,14.140834 C16.4328122,13.90958 16.4328122,13.6232252 16.568234,13.3919712 C16.7036558,13.1607172 16.9533923,13.0206076 17.2213343,13.0255625 L18.3612832,13.0255625 Z M8.88222831,0 L17.7635705,5.12774336 L17.7635705,11.3480644 C17.7683982,11.6160064 17.6282886,11.8657429 17.3970346,12.0011647 C17.1657806,12.1365865 16.8794259,12.1365865 16.6481719,12.0011647 C16.4169179,11.8657429 16.2768082,11.6160064 16.2817631,11.3480644 L16.281,6.82 L9.59026322,10.6843608 L9.59164874,19.4411071 C9.63061955,19.5700251 9.63472523,19.7102755 9.59793769,19.847306 C9.51094266,20.171355 9.21699133,20.3964576 8.88146835,20.3959661 C8.75161131,20.3959661 8.62402115,20.361943 8.51161827,20.2969164 L0,15.3824701 L0,5.12774336 L8.88222831,0 Z M1.482,6.857 L1.48218686,14.5275085 L8.109,18.353 L8.1095963,10.6843608 L1.482,6.857 Z M8.88222831,1.7109366 L2.206,5.565 L8.85056307,9.40103171 L15.524,5.546 L8.88222831,1.7109366 Z" fill="#666" fill-rule="nonzero"/>
</svg>
