<svg xmlns="http://www.w3.org/2000/svg" viewBox="0 0 24 24" class="design-iconfont">
  <defs>
    <linearGradient x1="50%" y1="100%" x2="50%" y2="0%" id="ke5g5v9kt__6m1mhpz9ia">
      <stop stop-color="#5CA8F7" offset="0%"/>
      <stop stop-color="#2F6FEC" offset="100%"/>
    </linearGradient>
  </defs>
  <path d="M9.50533416,6.88216715 L12.5408814,9.97205569 C12.7822846,10.2237324 12.7739348,10.6190765 12.5258132,10.8645353 C12.2776916,11.1099941 11.8780587,11.1182543 11.6197898,10.8832624 L11.6197898,10.8832624 L10.204,9.483 L10.2043597,16.2826874 C10.2043597,16.7210451 10.0012662,16.9584889 9.59507918,16.9950187 L9.47926553,17 C8.99586944,17 8.75417139,16.7608958 8.75417139,16.2826874 L8.754,9.494 L7.35032733,10.8441015 C7.11993985,11.0702891 6.76238612,11.0929078 6.50656538,10.9119578 L6.42537368,10.8441015 C6.17132781,10.5908626 6.17132781,10.1823132 6.42537368,9.92907424 L6.42537368,9.92907424 L9.50533416,6.88216715 Z M5.04373624,1.9077809 C6.57599244,0.0490720653 9.46574847,-0.417037859 11.6728926,0.359493634 C13.7194118,1.08051104 15.2111832,2.79953741 15.2229949,4.8975251 L15.222,4.906 L15.3633991,4.92434727 C16.2335792,5.05416094 17.0771768,5.35631735 17.7181827,5.96086359 L17.8878473,6.13333481 C19.1922444,7.56127403 19.3592767,10.0981346 18.3358415,11.7123268 C17.7256425,12.6751112 16.7514481,13.3561284 15.6613931,13.6913836 C14.846507,13.9416312 14.0103798,13.9282592 13.1684596,13.9282592 L13.1684596,13.9282592 C12.1942652,13.9263489 12.1990927,12.4372805 13.1645976,12.4372805 C14.0016903,12.4372805 14.8214039,12.4640245 15.6092558,12.1268589 C16.5593126,11.7199679 17.2950273,10.8899484 17.4437151,9.85934878 C17.5605412,9.05320784 17.4330945,8.05699339 16.9657902,7.37597623 C16.4067629,6.54977728 15.3572591,6.35874863 14.4149263,6.3339149 C13.8945192,6.3205429 13.5981092,5.86876012 13.6888667,5.39118848 C14.150378,2.94888709 11.5338599,1.4531327 9.39043909,1.49802443 C8.31003916,1.52094787 7.19874307,1.86193403 6.41571863,2.62604866 C5.60855658,3.41308673 5.36911137,4.4627892 5.50042003,5.54974226 C5.54772977,5.94135101 5.11904562,6.30717089 4.74732625,6.29475403 C3.69782247,6.2632343 2.68500788,6.5765213 2.07384331,7.4724457 C1.53026408,8.26139406 1.32847356,9.33497511 1.60943548,10.253823 C1.91067299,11.240486 2.80569599,11.9463369 3.77120084,12.2452967 C4.50884655,12.4697554 5.24552675,12.4363254 6.00731008,12.4363254 C6.97764246,12.4372805 6.97281493,13.9263489 6.00731008,13.9263489 C5.09297699,13.9253938 4.19216096,13.9444966 3.30968952,13.6579536 C1.03496009,12.9158073 -0.331229278,10.8670249 0.0694552363,8.50686588 C0.405824669,6.5061488 1.94335849,5.12275445 3.8687191,4.85080745 L3.956,4.84 L3.95777448,4.76783855 C3.99195817,3.81649752 4.31168958,2.89202206 4.88200817,2.11573139 Z" transform="translate(3 4)" fill="url(#ke5g5v9kt__6m1mhpz9ia)" fill-rule="nonzero"/>
</svg>
