<svg xmlns="http://www.w3.org/2000/svg" viewBox="0 0 54 34" class="design-iconfont">
  <defs>
    <linearGradient x1="50%" y1="0%" x2="50%" y2="100%" id="f3xbr74wk__d7grs5mjja">
      <stop stop-color="#FFF" offset="0%"/>
      <stop stop-color="#F4F6F9" offset="100%"/>
    </linearGradient>
  </defs>
  <g fill="none" fill-rule="evenodd">
    <rect stroke="#E2E5ED" fill="url(#f3xbr74wk__d7grs5mjja)" x=".5" y=".5" width="53" height="33" rx="3"/>
    <path d="M18.6536197,18 L0.981835034,18 C0.434831975,17.9946027 -0.00447085716,17.547246 3.43441059e-05,17.0002351 L3.43441059e-05,12.9815579 C3.43441059e-05,12.4393339 0.439593678,11.9997746 0.981817596,11.9997746 C1.52404151,11.9997746 1.96360085,12.4393339 1.96360085,12.9815579 L1.96360085,16.0004703 L1.96360085,16.0004703 L17.6718539,16.0004703 L17.6718539,12.9815579 C17.6718539,12.4393339 18.1114132,11.9997746 18.6536371,11.9997746 C19.195861,11.9997746 19.6354204,12.4393339 19.6354204,12.9815579 L19.6354204,17.0002351 L19.6354204,17.0002351 C19.6399256,17.547246 19.2006227,17.9946027 18.6536197,18 Z M15.4203376,5.29267781 L10.5115085,0.292217276 C10.3283881,0.105320716 10.0777463,0 9.81609109,0 C9.55443591,0 9.30379411,0.105320716 9.12067363,0.292217276 L4.21184456,5.29267781 C3.84043419,5.68836817 3.84620232,6.3062788 4.22493478,6.69496665 C4.40531017,6.88005314 4.65216837,6.98538639 4.91060146,6.98753743 C5.16903455,6.98968848 5.4176119,6.88847895 5.60104319,6.70642058 L8.83596155,3.41423256 L8.83596155,11.9997746 C8.83596155,12.552836 9.27611989,12.9995394 9.81772736,12.9995394 C10.3593348,12.9995394 10.7994932,12.552836 10.7994932,12.0014109 L10.7994932,3.41259627 L14.0327753,6.70478431 C14.2782167,6.96658852 14.6447426,7.06967393 14.9867244,6.97804247 C15.3327891,6.8841461 15.6011998,6.61073006 15.6886869,6.26298969 C15.7783168,5.91433984 15.6761552,5.54431535 15.4203376,5.29104154 L15.4203376,5.29267781 Z" transform="translate(17 8)" fill="#7D8598" fill-rule="nonzero"/>
  </g>
</svg>
