<?xml version="1.0" encoding="UTF-8"?>
<svg width="22px" height="22px" viewBox="0 0 22 22" version="1.1" xmlns="http://www.w3.org/2000/svg" xmlns:xlink="http://www.w3.org/1999/xlink">
    <title>查看文档</title>
    <g id="2023.6" stroke="none" stroke-width="1" fill="none" fill-rule="evenodd">
        <g id="文件列表备份" transform="translate(-860.000000, -300.000000)" fill="#666666" fill-rule="nonzero">
            <g id="reanalysis.f85ac5ed备份-8" transform="translate(860.000000, 300.000000)">
                <path d="M18.3048673,1.90685 L18.3048673,8.374025 L16.6226764,8.374025 L16.6226764,2.7137 L2.78347596,2.7137 L2.78347596,18.4782125 L7.8146274,18.4782125 L7.8146274,20.0919125 L1.94045288,20.0919125 C2.17799653,20.1993352 1.89784557,19.9303852 1.1,19.2850625 L1.1,1.90685 C1.1,1.5071375 1.40456779,1.1680625 1.81708365,1.1086625 L1.94045288,1.1 L17.4644144,1.1 C17.9283341,1.1 18.3048673,1.46135 18.3048673,1.90685 Z M4.03772981,7.5783125 L10.3321308,7.6352375 L10.3321308,9.1821125 L4.03772981,9.12395 L4.03772981,7.577075 L4.03772981,7.5783125 Z M15.7873639,4.33235 L15.7873639,5.948525 L4.03772981,5.948525 L4.03772981,4.33235 L15.7873639,4.33235 Z" id="形状"></path>
                <path d="M16.509895,11.467957 C18.217418,12.8621875 18.5918245,15.3229044 17.3762472,17.1618946 L17.377106,17.1610358 L19.2596101,19.0443987 C19.5850735,19.3813763 19.5804188,19.9170188 19.2491482,20.2482894 C18.9178776,20.5795599 18.3822352,20.5842147 18.0452575,20.2587512 L16.1618946,18.3762472 C14.3229044,19.5918245 11.8621875,19.217418 10.467957,17.509895 C9.07372646,15.8023721 9.19895125,13.3164866 10.7577189,11.7577189 C12.3164866,10.1989512 14.8023721,10.0737265 16.509895,11.467957 Z M13.7941648,12.2168862 C12.3712474,12.2168862 11.217745,13.3703886 11.217745,14.793306 C11.217745,16.2162234 12.3712474,17.3697258 13.7941648,17.3697258 C15.2170822,17.3697258 16.3705846,16.2162234 16.3705846,14.793306 C16.3705846,13.3703886 15.2170822,12.2168862 13.7941648,12.2168862 Z" id="形状结合"></path>
            </g>
        </g>
    </g>
</svg>