<svg width="22px" height="22px" xmlns="http://www.w3.org/2000/svg" viewBox="0 0 22 22" class="design-iconfont">
  <path d="M12.492514,10.2458101 C14.8301676,10.2458101 16.722905,12.1410056 16.722905,14.4762011 C16.722905,15.3463687 16.4598883,16.1550838 16.0100559,16.8286034 L16.0100559,16.8286034 L17.9962011,18.8147486 C18.3427933,19.1613408 18.3427933,19.7217877 17.9962011,20.0634637 C17.821676,20.2355307 17.5979888,20.3215642 17.3693855,20.3215642 C17.1407821,20.3215642 16.9146369,20.2355307 16.7425698,20.0634637 L16.7425698,20.0634637 L14.7392179,18.0601117 C14.0878212,18.4706145 13.3184358,18.7065922 12.492514,18.7065922 C10.1548603,18.7065922 8.26212291,16.8113966 8.26212291,14.4762011 C8.26212291,12.1385475 10.1573184,10.2458101 12.492514,10.2458101 Z M11.587486,0 C11.6071508,0 11.6243575,0.00245810056 11.6415642,0.00491620112 C11.6464804,0.00491620112 11.6513966,0.00737430168 11.6563128,0.00737430168 C11.6759777,0.00983240223 11.6956425,0.0147486034 11.7128492,0.0172067039 C11.732514,0.0196648045 11.7521788,0.0245810056 11.7693855,0.0294972067 C11.7743017,0.0319553073 11.7792179,0.0319553073 11.7841341,0.0344134078 C11.8013408,0.0393296089 11.8185475,0.0467039106 11.8406704,0.0540782123 C11.8578771,0.0589944134 11.8750838,0.0663687151 11.8922905,0.0737430168 L11.8922905,0.0737430168 L11.9070391,0.0811173184 C11.9242458,0.0884916201 11.9389944,0.0958659218 11.953743,0.103240223 L11.9552793,0.104469274 C11.9758659,0.113072626 11.9930726,0.122905028 12.0078212,0.13273743 L12.0078212,0.13273743 L12.0225698,0.140111732 L12.0717318,0.172067039 L12.1159777,0.208938547 L12.1258101,0.21877095 C12.1405587,0.231061453 12.1553073,0.243351955 12.1700559,0.258100559 L12.1700559,0.258100559 L17.6589944,5.74212291 C17.8261453,5.90927374 17.9195531,6.13296089 17.9195531,6.36893855 L17.9195531,6.36893855 L17.9195531,10.0806704 C17.9195531,10.5698324 17.5237989,10.9655866 17.0346369,10.9655866 C16.5454749,10.9655866 16.1497207,10.5698324 16.1497207,10.0806704 L16.1497207,10.0806704 L16.1497207,7.25385475 L11.5432402,7.25385475 C11.0540782,7.25385475 10.658324,6.85810056 10.658324,6.36893855 L10.658324,6.36893855 L10.658324,1.7698324 L1.7698324,1.7698324 L1.7698324,18.2301676 L8.25027933,18.2301676 C8.73944134,18.2301676 9.13519553,18.6259218 9.13519553,19.1150838 C9.13519553,19.6042458 8.73944134,20 8.25027933,20 L8.25027933,20 L1.3101676,20 C0.587486034,20 0,19.412514 0,18.6898324 L0,18.6898324 L0,1.3101676 C0,0.587486034 0.587486034,0 1.3101676,0 L1.3101676,0 Z M12.4949721,12.0181006 C11.1381006,12.0181006 10.0344134,13.1217877 10.0344134,14.4786592 C10.0344134,15.8355307 11.1381006,16.9392179 12.4949721,16.9392179 C13.8518436,16.9392179 14.9555307,15.8355307 14.9555307,14.4786592 C14.9555307,13.1217877 13.8518436,12.0181006 12.4949721,12.0181006 Z M12.4306145,3.02100559 L12.4306145,5.48402235 L14.8936313,5.48402235 L12.4306145,3.02100559 Z" transform="translate(2 1)" fill="#666" fill-rule="nonzero"/>
</svg>
