<?xml version="1.0" encoding="UTF-8"?>
<svg width="10px" height="10px" viewBox="0 0 10 10" version="1.1" xmlns="http://www.w3.org/2000/svg" xmlns:xlink="http://www.w3.org/1999/xlink">
    <title>+Value</title>
    <g id="页面-3" stroke="none" stroke-width="1" fill="none" fill-rule="evenodd">
        <g id="画板" transform="translate(-1339.000000, -358.000000)" fill-rule="nonzero">
            <g id="+Value" transform="translate(1339.000000, 358.000000)">
                <path d="M0,0 L9.99998884,0 L9.99998884,0.714951534 L0,0.714951534 L0,0 Z M0,0.648082511 L0.714146259,0.648082511 L0.714146259,9.99811338 L0,9.99811338 L0,0.648082511 Z M9.2839683,0.658721272 L10,0.658721272 L10,5.00325414 L9.2839683,5.00325414 L9.2839683,0.658721272 Z" id="形状" fill="#369AA2"></path>
                <path d="M0.676694078,9.28455727 L4.99906844,9.28455727 L4.99906844,9.99811338 L0.676694078,9.99811338 L0.676694078,9.28455727 Z M2.42830367,2.86093364 L7.92830367,2.86093364 L7.92830367,3.57056022 L2.42830367,3.57056022 L2.42830367,2.86093364 Z M2.42830367,5.14322195 L4.99795279,5.14322195 L4.99795279,5.85677805 L2.42830367,5.85677805 L2.42830367,5.14322195 Z" id="形状" fill="#369AA2"></path>
                <polygon id="路径" fill="#777777" points="4.99795279 7.14390013 9.99813687 7.14390013 9.99813687 7.85745623 4.99795279 7.85745623"></polygon>
                <polygon id="路径" fill="#777777" points="7.14151837 5.00324298 7.85566463 5.00324298 7.85566463 10 7.14151837 10"></polygon>
            </g>
        </g>
    </g>
</svg>