<?xml version="1.0" encoding="UTF-8"?>
<svg width="20px" height="20px" viewBox="0 0 20 20" version="1.1" xmlns="http://www.w3.org/2000/svg" xmlns:xlink="http://www.w3.org/1999/xlink">
    <title>修改</title>
    <g id="Jura2.0" stroke="none" stroke-width="1" fill="none" fill-rule="evenodd">
        <g id="2" transform="translate(-1877.000000, -408.000000)" fill="#5398A0" fill-rule="nonzero">
            <g id="21-修改" transform="translate(1877.000000, 408.000000)">
                <path d="M16.7817731,6.16224433 L13.8358133,3.21628456 C13.5474339,2.92790515 13.0811918,2.92790515 12.7945392,3.21628456 L3.21585286,12.793244 C3.07770703,12.9313899 3,13.1178867 3,13.3147445 L3,16.2624311 C3,16.6699613 3.32982316,16.9997845 3.73735335,16.9997845 L6.68331312,16.9997845 C6.8784441,16.9997845 7.06666779,16.9220775 7.20481362,16.7839316 L16.7834999,7.20524533 C17.0701525,6.91686591 17.0701525,6.45062374 16.7817731,6.16224433 L16.7817731,6.16224433 Z M6.37766548,15.5250778 L4.47297988,15.5250778 L4.47297988,13.6203922 L11.1039796,6.98939247 L13.0086652,8.89407806 L6.37766548,15.5250778 Z M14.0516662,7.85280389 L12.1452538,5.94639147 L13.3143128,4.77733241 L15.2189984,6.68374483 L14.0516662,7.85280389 L14.0516662,7.85280389 Z M16.2619994,16.2624311 C16.2619994,16.6699613 15.9321763,16.9997845 15.5246461,16.9997845 L9.63099971,16.9997845 C9.22346952,16.9997845 8.89364636,16.6699613 8.89364636,16.2624311 C8.89364636,15.8549009 9.22346952,15.5250778 9.63099971,15.5250778 L15.5246461,15.5250778 C15.9321763,15.5250778 16.2619994,15.8549009 16.2619994,16.2624311 Z" id="形状"></path>
            </g>
        </g>
    </g>
</svg>