<?xml version="1.0" standalone="no"?><!DOCTYPE svg PUBLIC "-//W3C//DTD SVG 1.1//EN" "http://www.w3.org/Graphics/SVG/1.1/DTD/svg11.dtd"><svg t="1734313259964" class="icon" viewBox="0 0 1024 1024" version="1.1" xmlns="http://www.w3.org/2000/svg" p-id="4371" width="32" height="32" xmlns:xlink="http://www.w3.org/1999/xlink"><path d="M895.783519 383.907222a125.409693 125.409693 0 0 0-62.704846 17.062544A127.969074 127.969074 0 0 0 725.158087 341.250864a125.409693 125.409693 0 0 0-62.704847 17.062544A127.969074 127.969074 0 0 0 511.876297 306.272651V127.969074a127.969074 127.969074 0 0 0-255.938149 0v409.074474l-28.57976-29.006324A131.808146 131.808146 0 0 0 133.087837 469.219939 133.087837 133.087837 0 0 0 0 602.307776 236.316224 236.316224 0 0 0 69.1033 767.814445l151.856635 151.430071 39.670413 79.340826A42.656358 42.656358 0 0 0 298.594506 1023.752593a39.670413 39.670413 0 0 0 19.195361-4.692199 42.656358 42.656358 0 0 0 18.768798-57.15952l-42.656358-85.312716a46.921994 46.921994 0 0 0-7.678145-11.090653L127.969074 708.948671a149.297253 149.297253 0 0 1-42.656358-106.640895 47.775121 47.775121 0 0 1 81.473644-33.698523l101.522132 101.522132a42.656358 42.656358 0 0 0 46.49543 8.957835A42.656358 42.656358 0 0 0 341.250864 639.845371V127.969074a42.656358 42.656358 0 0 1 85.312716 0v469.219939a42.656358 42.656358 0 0 0 85.312717 0v-170.625433a42.656358 42.656358 0 0 1 85.312716 0v170.625433a42.656358 42.656358 0 0 0 85.312716 0v-127.969074a42.656358 42.656358 0 0 1 85.312716 0v127.969074a42.656358 42.656358 0 0 0 85.312716 0v-85.312716a42.656358 42.656358 0 0 1 85.312716 0v263.189729a246.980313 246.980313 0 0 1-72.942372 175.744195 42.656358 42.656358 0 0 0 0 60.572028 42.656358 42.656358 0 0 0 60.572028 0A331.866466 331.866466 0 0 0 1023.752593 775.066026V511.876297a127.969074 127.969074 0 0 0-127.969074-127.969075z" p-id="4372" fill="#707070"></path></svg>