<?xml version="1.0" encoding="UTF-8"?>
<svg width="20px" height="20px" viewBox="0 0 20 20" version="1.1" xmlns="http://www.w3.org/2000/svg" xmlns:xlink="http://www.w3.org/1999/xlink">
    <title>导入AI数据 </title>
    <g id="页面-3" stroke="none" stroke-width="1" fill="none" fill-rule="evenodd">
        <g id="2" transform="translate(-1850.000000, -408.000000)" fill="#5398A0" fill-rule="nonzero">
            <g id="导入-(3)" transform="translate(1850.000000, 408.000000)">
                <path d="M16.6582374,12.0435215 L18.844189,14.2872562 C19.0267823,14.4283059 19.1456402,14.6529406 19.1456402,14.9063076 C19.1456402,15.1413904 19.0431468,15.3529649 18.8820857,15.4948853 L16.6582374,17.7778005 C16.479695,17.9578221 16.2238447,18.0355119 15.9767254,17.9847441 C15.7296061,17.9339762 15.5240482,17.7614953 15.429178,17.5253041 C15.3118792,17.2348642 15.3776634,16.9016728 15.5962681,16.6790061 L16.5686634,15.6803395 L13.1166169,15.6803395 C12.9151414,15.6787295 12.7225512,15.5962738 12.5812172,15.4511133 C12.4398832,15.3059528 12.3613837,15.1099791 12.3629649,14.9063076 C12.3629649,14.4796759 12.7006143,14.1331464 13.1166169,14.1331464 L16.5686634,14.1331464 L15.5954068,13.1344798 C15.3398233,12.8256848 15.3573245,12.3713416 15.6358874,12.0835726 C15.9122979,11.7983925 16.3608237,11.7808212 16.6582374,12.0435215 Z M16.3684114,3 C16.784414,3 17.1220792,3.34652946 17.1220792,3.77490257 L17.1220792,3.77490257 L17.1220792,9.48808438 C17.1241046,9.69205613 17.0458088,9.88847792 16.9044252,10.0340161 C16.7630416,10.1795543 16.5701882,10.2622494 16.3684114,10.2638576 C15.9524088,10.2638576 15.6147835,9.91645748 15.6147835,9.48895506 L15.6147835,9.48895506 L15.6147835,4.54806378 L3.50725581,4.54806378 L3.50725581,15.9203866 L10.022086,15.9203866 C10.4380886,15.9203866 10.7757139,16.2677867 10.7757139,16.6944185 C10.7773193,16.89809 10.6988198,17.0940636 10.5574858,17.2392242 C10.4161518,17.3843847 10.2235615,17.4668403 10.022086,17.4684504 L10.022086,17.4684504 L2.75362791,17.4675797 C2.3376253,17.4675797 2,17.1210502 2,16.6935478 L2,16.6935478 L2,3.77403189 C2,3.34652946 2.3376253,3 2.75362791,3 L2.75362791,3 Z M12.3383202,6.74391127 C12.4068323,6.73230225 12.5267284,6.76277594 12.6980086,6.83533236 C12.8692888,6.90788878 12.9663475,7.10959563 12.9891849,7.44045291 L12.9891849,7.44045291 L12.9891849,12.4903797 C13.0006036,12.5194023 12.9720569,12.6224324 12.9035448,12.7994701 C12.8350327,12.9765078 12.6466245,13.0795379 12.3383202,13.1085604 C12.2640988,13.1201695 12.141348,13.0955003 11.9700678,13.0345529 C11.7987876,12.9736055 11.7045835,12.7922144 11.6874555,12.4903797 L11.6874555,12.4903797 L11.6874555,7.44045291 C11.6703275,7.41143034 11.6960195,7.29534007 11.7645316,7.09218209 C11.8330437,6.88902411 12.0243065,6.77293384 12.3383202,6.74391127 Z M7.83365147,6.70908419 C7.94212892,6.69747516 8.09342641,6.72939999 8.28754394,6.80485867 C8.48166148,6.88031734 8.65008699,7.09218209 8.79282048,7.44045291 L8.79282048,7.44045291 L10.5056223,12.2465902 C10.5284596,12.2930263 10.551297,12.4091165 10.5741343,12.594861 C10.5798437,12.6354926 10.5484423,12.7254625 10.4799302,12.8647709 C10.4114182,13.0040792 10.2372833,13.0853424 9.9575257,13.1085604 C9.84333891,13.114365 9.72201545,13.0969514 9.59355532,13.0563198 C9.46509518,13.0156882 9.36946375,12.8966957 9.30666102,12.6993422 L9.30666102,12.6993422 L9.06686876,11.8634923 L6.63469021,11.8634923 L6.36064192,12.6993422 C6.3435139,12.7748009 6.28927518,12.8589664 6.19792575,12.9518386 C6.10657632,13.0447108 5.94386015,13.0969514 5.70977724,13.1085604 C5.50424102,13.1085604 5.33438817,13.0374551 5.2002187,12.8952446 C5.06604923,12.753034 5.04178453,12.5368158 5.12742462,12.2465902 L5.12742462,12.2465902 L6.9087385,7.44045291 C6.90302916,7.41143034 6.97011389,7.29098668 7.10999271,7.07912193 C7.24987152,6.86725719 7.49109111,6.74391127 7.83365147,6.70908419 Z M7.83365147,8.06734037 L7.0115066,10.6445444 L8.65579633,10.6445444 L7.83365147,8.06734037 Z" id="形状结合"></path>
            </g>
        </g>
    </g>
</svg>