<?xml version="1.0" encoding="UTF-8"?>
<svg width="20px" height="20px" viewBox="0 0 20 20" version="1.1" xmlns="http://www.w3.org/2000/svg" xmlns:xlink="http://www.w3.org/1999/xlink">
    <title>清除</title>
    <g id="页面-3" stroke="none" stroke-width="1" fill="none" fill-rule="evenodd">
        <g id="2" transform="translate(-1881.000000, -408.000000)" fill="#5398A0" fill-rule="nonzero">
            <g id="清除" transform="translate(1881.000000, 408.000000)">
                <path d="M17.9917565,17.4213198 L16.8975619,11.6040609 L17.2671107,11.6040609 C17.5644013,11.6040609 17.8038853,11.3832487 17.8038853,11.1091371 L17.8038853,7.45431472 C17.8038853,7.18020305 17.5644013,6.95939086 17.2671107,6.95939086 L12.1883964,6.95939086 L12.1883964,3.49492386 C12.1883964,3.22081218 11.9489123,3 11.6516217,3 L8.34839287,3 C8.05110228,3 7.81161819,3.22081218 7.81161819,3.49492386 L7.81161819,6.95939086 L2.73290389,6.95939086 C2.4356133,6.95939086 2.19612921,7.18020305 2.19612921,7.45431472 L2.19612921,11.1091371 C2.19612921,11.3832487 2.4356133,11.6040609 2.73290389,11.6040609 L3.10245262,11.6040609 L2.00825807,17.4213198 C2.00206452,17.4498731 2,17.4784264 2,17.5050761 C2,17.7791878 2.23948409,18 2.53677468,18 L17.4632399,18 C17.4942076,18 17.5251754,17.9980964 17.5540787,17.9923858 C17.8472402,17.9467005 18.0433694,17.6897208 17.9917565,17.4213198 Z M3.64129182,8.29187817 L9.25678079,8.29187817 L9.25678079,4.33248731 L10.7432338,4.33248731 L10.7432338,8.29187817 L16.3587227,8.29187817 L16.3587227,10.2715736 L3.64129182,10.2715736 L3.64129182,8.29187817 Z M13.3032361,16.6675127 L13.3032361,13.6979695 C13.3032361,13.6142132 13.2289134,13.5456853 13.1380746,13.5456853 L12.147106,13.5456853 C12.0562672,13.5456853 11.9819446,13.6142132 11.9819446,13.6979695 L11.9819446,16.6675127 L8.01806999,16.6675127 L8.01806999,13.6979695 C8.01806999,13.6142132 7.94374734,13.5456853 7.85290855,13.5456853 L6.86193991,13.5456853 C6.77110111,13.5456853 6.69677847,13.6142132 6.69677847,13.6979695 L6.69677847,16.6675127 L3.6165176,16.6675127 L4.54761522,11.7182741 L15.4503348,11.7182741 L16.3814324,16.6675127 L13.3032361,16.6675127 Z" id="形状"></path>
            </g>
        </g>
    </g>
</svg>