<?xml version="1.0" encoding="UTF-8"?>
<svg width="22px" height="22px" viewBox="0 0 22 22" version="1.1" xmlns="http://www.w3.org/2000/svg" xmlns:xlink="http://www.w3.org/1999/xlink">
    <title>切换</title>
    <g id="Jura-2023" stroke="none" stroke-width="1" fill="none" fill-rule="evenodd">
        <g id="Historical-Rules备份" transform="translate(-14.000000, -36.000000)" fill="#FFFFFF" fill-rule="nonzero">
            <g id="切换" transform="translate(14.000000, 36.000000)">
                <path d="M18.4270515,0 C20.3964779,0 22,1.58715351 22,3.53647628 L22,14.0287327 C21.9973095,15.9780555 20.3964779,17.565209 18.4270515,17.565209 L12.377,17.565 L12.383,19.645 L16.7266724,19.6450192 C17.3750764,19.7781697 17.7947903,20.4066399 17.6602666,21.0510881 C17.5418858,21.6129831 17.0414577,21.9991194 16.4845298,21.9991194 C16.4038156,21.9991194 16.3231014,21.9911304 16.2396967,21.9751523 L6.30108842,21.9751523 C5.64730341,22.1083028 5.01504219,21.6928733 4.88051853,21.0510881 C4.74599486,20.4066399 5.1657087,19.7781697 5.81411276,19.6450192 L9.981,19.645 L9.975,17.565 L3.57025804,17.565209 C1.6008316,17.565209 0,15.9780555 0,14.0287327 L0,3.53647628 C0,1.58715351 1.6008316,0 3.57025804,0 L18.4270515,0 Z M18.4270515,2.38073027 L3.57025804,2.38073027 C2.92723493,2.38073027 2.40259264,2.90001707 2.40259264,3.53913929 L2.40259264,14.0313957 C2.40259264,14.670518 2.92723493,15.1898048 3.57025804,15.1898048 L18.4270515,15.1898048 C19.0727651,15.1898048 19.5974074,14.670518 19.5974074,14.0313957 L19.5974074,3.53913929 C19.5974074,2.90001707 19.0727651,2.38073027 18.4270515,2.38073027 Z M15.1869372,9.78 L15.1869372,11.0236472 L12.8488304,13.950911 L10.1980871,13.950911 L10.1980871,13.7206603 L11.6886672,11.8507899 L6.29383402,11.8507899 L6.29383402,9.78 L15.1869372,9.78 L15.1869372,9.78 Z M11.2812025,3.9 L11.2812025,4.12878415 L9.79062235,5.99865459 L15.1869372,5.99865459 L15.1869372,8.07091102 L6.29383402,8.07091102 L6.29383402,6.82579729 L8.63194079,3.9 L11.2812025,3.9 L11.2812025,3.9 Z" id="形状结合"></path>
            </g>
        </g>
    </g>
</svg>