<svg xmlns="http://www.w3.org/2000/svg" width="400" height="400"><g fill-rule="evenodd"><path d="M290 84.808c-9.155 1.23-9.947 1.372-15.6 2.804-3.024.766-12.221 3.724-12.58 4.046a1.543 1.543 0 01-.889.342c-1.372 0-12.918 5.749-18.548 9.235-14.472 8.963-26.412 20.539-36.272 35.167-1.295 1.921-2.327 3.667-4.254 7.198-.661 1.21-1.326 2.29-1.478 2.4-.929.671-5.071 10.189-7.312 16.8-8.9 26.259-7.843 56.695 2.846 82 2.422 5.733 4.023 9.109 4.393 9.262.183.076 1.112 1.578 2.064 3.338 1.93 3.57 4.634 7.703 7.982 12.2 2.207 2.966 2.737 3.618 5.831 7.178 2.326 2.678 8.891 9.16 11.369 11.227 1.184.987 2.363 1.997 2.621 2.244.791.759 10.36 7.589 11.631 8.302.658.369 1.736.997 2.396 1.394 1.312.791 5.642 3.204 6.6 3.679 1.794.89 6.081 2.81 8 3.584 1.21.488 2.74 1.115 3.4 1.394.66.278 1.83.707 2.6.952.77.246 2.57.826 4 1.289 1.43.463 3.23.99 4 1.17.77.18 2.48.617 3.8.971 4.996 1.34 15.667 2.708 21.6 2.768l4.8.048.094-22.2c.051-12.21-.04-22.41-.204-22.668-.163-.257-1.645-.575-3.294-.706-34.897-2.785-60.333-26.486-65.97-61.472-1.444-8.962.567-25.916 3.968-33.454.223-.495.574-1.305.779-1.8 10.376-25.021 36.48-43.5 61.449-43.5 3.71 0 3.398 2.272 3.278-23.871L303 84.2l-3.8-.059c-2.09-.032-6.23.268-9.2.667" fill="#0c436c"/><path d="M97.167 84.166c-.092.092-.077 10.397.033 22.9l.2 22.734 2.6.086c4.518.151 12.539 1.429 15.6 2.486.55.19 2.08.659 3.4 1.042 1.32.383 2.58.818 2.8.967.22.149 1.66.787 3.2 1.419 1.54.631 3.471 1.565 4.292 2.074.821.509 1.596.926 1.722.926 2.597 0 15.955 11.45 21 18 .762.99 1.495 1.89 1.628 2 .963.795 5.973 9.674 7.674 13.6 9.791 22.597 6.37 51.077-8.383 69.8-.52.66-1.08 1.38-1.244 1.6-11.446 15.319-33.818 26.338-53.989 26.594-.394.005-.5 4.836-.5 22.806V316h3.445c3.27 0 11.219-.816 15.555-1.596 2.978-.537 8.234-1.641 9.6-2.017 4.281-1.181 6.085-1.729 6.695-2.037.382-.192.96-.35 1.286-.35.326 0 1.183-.252 1.905-.561.723-.308 2.574-1.056 4.114-1.662 5.037-1.983 11.42-5.022 14.101-6.715.926-.584 1.784-1.062 1.907-1.062.124 0 .712-.338 1.308-.752.596-.413 2.538-1.718 4.315-2.9 12.081-8.034 21.55-17.253 30.148-29.35 3.038-4.276 6.106-9.215 7.046-11.346.401-.909.872-1.652 1.047-1.652.175 0-.151-1.035-.725-2.3-8.857-19.533-11.751-32.415-11.744-52.269.007-18.153 3.927-35.362 11.478-50.387.762-1.516 1.226-2.866 1.031-3-.196-.134-.726-.964-1.18-1.844-13.434-26.074-44.312-50.281-71.732-56.236-.77-.167-2.48-.594-3.8-.948-6.081-1.631-24.967-3.715-25.833-2.85" fill="#f3344c"/><path d="M0 200v200h400V0H0v200M113.6 84.386c5.517.986 7.086 1.29 9.6 1.863 5.811 1.325 13.036 3.576 16.66 5.19.694.308 1.364.561 1.49.561.612 0 9.096 4.078 11.25 5.407.88.543 1.87 1.111 2.2 1.261.782.357 8.939 5.423 9.2 5.713.11.123 1.28 1.022 2.6 1.998s2.46 1.92 2.533 2.097c.074.178.374.324.667.324.293 0 .593.135.667.3.073.165 1.573 1.558 3.333 3.095 9.517 8.312 19.281 20.134 23.832 28.858.475.909 1.259 2.15 1.744 2.758l.882 1.106.932-1.758c1.58-2.984 1.737-3.242 4.519-7.441 1.488-2.246 3.557-5.155 4.598-6.466a804.968 804.968 0 003.493-4.432c1.913-2.449 12.932-13.344 15.2-15.028.88-.653 1.69-1.292 1.8-1.42 3.048-3.538 21.625-14.159 30-17.152.77-.276 1.76-.66 2.2-.856 1.409-.625 8.251-2.764 8.841-2.764.314 0 .882-.165 1.264-.367.382-.202 2.135-.663 3.895-1.024 1.76-.361 3.92-.812 4.8-1.003 4.32-.937 9.389-1.406 15.2-1.406h6.4l.103 22.977c.071 15.699-.03 23.11-.318 23.4-.232.233-2.888.634-5.903.891-7.46.638-13.254 1.969-19.682 4.523-3.016 1.198-8.086 3.701-8.729 4.309-.29.275-.785.5-1.1.5-.314 0-.571.18-.571.4 0 .22-.188.4-.417.4-.229 0-.634.186-.9.414-.266.228-1.566 1.173-2.889 2.1-30.779 21.563-38.235 65.598-16.309 96.324 3.581 5.019 8.001 9.837 12.073 13.162.942.77 2.085 1.715 2.539 2.1.454.385.944.7 1.089.7.145 0 .612.32 1.039.71 1.817 1.665 10.562 6.48 13.975 7.694.44.157 1.481.58 2.314.941.832.36 1.856.655 2.276.655.42 0 .874.18 1.01.4.136.22.665.4 1.175.4s1.574.27 2.363.6c.79.33 1.924.6 2.521.6.596 0 1.637.169 2.313.377.675.207 3.449.558 6.164.78 6.818.558 6.087-2.405 5.967 24.195L303.4 316.2l-5.8.115c-10.631.212-23.584-2.417-36.6-7.426-17.653-6.793-37.338-20.975-47.826-34.455-.756-.971-1.56-1.961-1.787-2.2-.702-.737-6.587-9.024-6.587-9.274 0-.13-.405-.802-.9-1.493-.921-1.285-1.119-1.623-2.679-4.566-1.01-1.905-1.29-1.879-2.431.226-1.005 1.854-1.22 2.204-4.349 7.073-5.04 7.844-13.682 17.705-21.049 24.018-4.681 4.011-14.116 10.982-14.864 10.982-.146 0-.549.248-.897.551-1.705 1.489-16.089 8.649-17.375 8.649-.273 0-.667.164-.876.365-.209.201-2.63 1.085-5.38 1.966-12.582 4.027-22.522 5.773-31.8 5.583l-5.6-.114-.103-22.848c-.089-19.655-.022-22.917.482-23.334.325-.27 3.07-.693 6.171-.952 3.072-.256 5.72-.601 5.884-.766.165-.165.986-.3 1.825-.3.838 0 2.203-.248 3.033-.552a45.96 45.96 0 013.308-1.03c.99-.263 2.31-.735 2.932-1.048.623-.314 1.354-.57 1.625-.57.271 0 1.202-.339 2.068-.753 3.672-1.754 5.222-2.525 5.975-2.972.44-.261 1.88-1.094 3.2-1.851 2.122-1.216 5.998-3.904 7.245-5.024.245-.22 1.21-1.03 2.145-1.8 3.761-3.099 6.885-6.623 11.899-13.422.463-.628 1.113-1.694 2.792-4.578 1.928-3.313 2.091-3.659 4.506-9.556 9.041-22.072 4.028-51.502-11.862-69.641C145.811 150.735 138.564 144 137.67 144c-.176 0-.668-.32-1.095-.71-2.494-2.285-11.331-6.868-16.775-8.701-1.1-.371-2.36-.821-2.8-1.001-.44-.18-1.34-.441-2-.58-.66-.139-2.37-.522-3.8-.85-3.145-.723-8.11-1.299-11.486-1.333-2.033-.02-2.561-.166-2.9-.799-.483-.903-.594-45.707-.114-46.202.426-.439 13.782.006 16.9.562" fill="#fbfbfb"/><path d="M291 83.785c-.22.072-2.02.344-4 .603s-4.32.627-5.2.818c-.88.191-3.04.642-4.8 1.003-1.76.361-3.513.822-3.895 1.024-.382.202-.95.367-1.264.367-.59 0-7.432 2.139-8.841 2.764-.44.196-1.43.58-2.2.856-8.375 2.993-26.952 13.614-30 17.152-.11.128-.92.767-1.8 1.42-2.268 1.684-13.287 12.579-15.2 15.028a804.968 804.968 0 01-3.493 4.432c-1.78 2.241-6.787 9.59-7.733 11.348-.236.44-.912 1.661-1.502 2.714-1.105 1.973-1.305 2.686-.755 2.686.174 0 .8-.945 1.391-2.1 9.631-18.818 29.837-38.17 49.892-47.785 6.077-2.913 8.768-4.115 9.216-4.115.217 0 .707-.179 1.089-.398 1.421-.813 9.825-3.384 15.295-4.678 5.729-1.356 18.843-2.99 22.784-2.839L303 84.2l.1 21.929c.12 26.143.432 23.871-3.278 23.871-24.969 0-51.073 18.479-61.449 43.5a77.625 77.625 0 01-.779 1.8c-3.401 7.538-5.412 24.492-3.968 33.454 5.637 34.986 31.073 58.687 65.97 61.472 1.649.131 3.131.449 3.294.706.164.258.255 10.458.204 22.668L303 315.8l-4.8-.048c-5.933-.06-16.604-1.428-21.6-2.768-1.32-.354-3.03-.791-3.8-.971-.77-.18-2.57-.707-4-1.17-1.43-.463-3.23-1.043-4-1.289-.77-.245-1.94-.674-2.6-.952-.66-.279-2.19-.906-3.4-1.394-1.919-.774-6.206-2.694-8-3.584-.958-.475-5.288-2.888-6.6-3.679-.66-.397-1.738-1.025-2.396-1.394-1.271-.713-10.84-7.543-11.631-8.302-.258-.247-1.437-1.257-2.621-2.244-2.478-2.067-9.043-8.549-11.369-11.227-3.094-3.56-3.624-4.212-5.831-7.178-3.375-4.534-6.063-8.648-7.97-12.2-2.016-3.755-1.913-3.603-2.234-3.281-.354.353 1.876 4.717 3.752 7.344.495.693.9 1.367.9 1.497 0 .25 5.885 8.537 6.587 9.274.227.239 1.031 1.229 1.787 2.2 6.961 8.947 22.012 21.397 33.826 27.98 15.508 8.641 35.73 14.197 50.6 13.901l5.8-.115.103-22.848c.12-26.6.851-23.637-5.967-24.195-2.715-.222-5.489-.573-6.164-.78-.676-.208-1.717-.377-2.313-.377-.597 0-1.731-.27-2.521-.6-.789-.33-1.853-.6-2.363-.6s-1.039-.18-1.175-.4c-.136-.22-.59-.4-1.01-.4-.42 0-1.444-.295-2.276-.655a49.937 49.937 0 00-2.314-.941c-3.413-1.214-12.158-6.029-13.975-7.694-.427-.39-.894-.71-1.039-.71-.145 0-.635-.315-1.089-.7-.454-.385-1.597-1.33-2.539-2.1-34.498-28.17-32.344-83.859 4.236-109.486 1.323-.927 2.623-1.872 2.889-2.1.266-.228.671-.414.9-.414a.41.41 0 00.417-.4c0-.22.257-.4.571-.4.315 0 .81-.225 1.1-.5.643-.608 5.713-3.111 8.729-4.309 6.428-2.554 12.222-3.885 19.682-4.523 3.015-.257 5.671-.658 5.903-.891.288-.29.389-7.701.318-23.4L303.4 83.8l-6-.074c-3.3-.04-6.18-.014-6.4.059" fill="#9fb5c7"/><path d="M96.7 83.824c-.48.495-.369 45.299.114 46.202.339.633.867.779 2.9.799 3.376.034 8.341.61 11.486 1.333 1.43.328 3.14.711 3.8.85.66.139 1.56.4 2 .58.44.18 1.7.63 2.8 1.001 5.444 1.833 14.281 6.416 16.775 8.701.427.39.919.71 1.095.71.894 0 8.141 6.735 12.055 11.203 15.89 18.139 20.903 47.569 11.862 69.641-2.415 5.897-2.578 6.243-4.506 9.556-1.679 2.884-2.329 3.95-2.792 4.578-5.014 6.799-8.138 10.323-11.899 13.422-.935.77-1.9 1.58-2.145 1.8-1.247 1.12-5.123 3.808-7.245 5.024-1.32.757-2.76 1.59-3.2 1.851-.753.447-2.303 1.218-5.975 2.972-.866.414-1.797.753-2.068.753-.271 0-1.002.256-1.625.57-.622.313-1.942.785-2.932 1.048a45.96 45.96 0 00-3.308 1.03c-.83.304-2.195.552-3.033.552-.839 0-1.66.135-1.825.3-.164.165-2.812.51-5.884.766-3.101.259-5.846.682-6.171.952-.504.417-.571 3.679-.482 23.334L96.6 316.2l5.6.114c9.278.19 19.218-1.556 31.8-5.583 2.75-.881 5.171-1.765 5.38-1.966.209-.201.603-.365.876-.365 1.286 0 15.67-7.16 17.375-8.649.348-.303.751-.551.897-.551.748 0 10.183-6.971 14.864-10.982 8.462-7.251 21.15-22.352 23.853-28.39.204-.455.893-1.638 1.532-2.628 1.137-1.764 1.541-3.2.9-3.2-.178 0-.651.743-1.052 1.652-.94 2.131-4.008 7.07-7.046 11.346-8.598 12.097-18.067 21.316-30.148 29.35a421.001 421.001 0 00-4.315 2.9c-.596.414-1.184.752-1.308.752-.123 0-.981.478-1.907 1.062-2.681 1.693-9.064 4.732-14.101 6.715-1.54.606-3.391 1.354-4.114 1.662-.722.309-1.579.561-1.905.561-.326 0-.904.158-1.286.35-.61.308-2.414.856-6.695 2.037-1.366.376-6.622 1.48-9.6 2.017-4.336.78-12.285 1.596-15.555 1.596H97.2v-22.8c0-17.97.106-22.801.5-22.806 20.171-.256 42.543-11.275 53.989-26.594.164-.22.724-.94 1.244-1.6 14.753-18.723 18.174-47.203 8.383-69.8-1.701-3.926-6.711-12.805-7.674-13.6-.133-.11-.866-1.01-1.628-2-5.045-6.55-18.403-18-21-18-.126 0-.901-.417-1.722-.926-.821-.509-2.752-1.443-4.292-2.074-1.54-.632-2.98-1.27-3.2-1.419-.22-.149-1.48-.584-2.8-.967-1.32-.383-2.85-.853-3.4-1.046-3.12-1.09-11.07-2.352-14.876-2.361-1.692-.004-3.175-.165-3.294-.358-.119-.194-.227-10.499-.238-22.9L97.171 84.2l2.715-.113c4.011-.167 18.344 1.649 23.114 2.929 1.32.354 3.03.781 3.8.948 16.126 3.502 35.525 14.449 50.746 28.635 7.294 6.799 18.972 22.312 21.304 28.301.236.605.591 1.1.789 1.1.702 0 .345-1.21-.971-3.292-.733-1.16-1.452-2.378-1.598-2.708-2.675-6.046-14.409-20.066-23.27-27.805-1.76-1.537-3.26-2.93-3.333-3.095-.074-.165-.374-.3-.667-.3-.293 0-.593-.146-.667-.324-.073-.177-1.213-1.121-2.533-2.097-1.32-.976-2.49-1.875-2.6-1.998-.261-.29-8.418-5.356-9.2-5.713-.33-.15-1.32-.718-2.2-1.261C150.446 96.078 141.962 92 141.35 92c-.126 0-.796-.253-1.49-.561-3.624-1.614-10.849-3.865-16.66-5.19-2.514-.573-4.083-.877-9.6-1.863-3.118-.556-16.474-1.001-16.9-.562" fill="#f8aab3"/></g></svg>