<svg width="321" height="269" viewBox="0 0 321 269" fill="none" xmlns="http://www.w3.org/2000/svg">
<path d="M159.403 239.56C226.324 239.56 280.489 185.896 280.489 119.684C280.489 53.4715 226.324 0 159.403 0C92.6777 0 38.3164 53.6646 38.3164 119.877C38.3164 186.089 92.6777 239.56 159.403 239.56Z" fill="#EAEEF9"/>
<path d="M217.286 239.114C198.839 239.693 176.662 239.114 160.962 238.921C145.459 239.5 123.086 239.693 104.639 239.114C122.89 228.883 129.366 209.772 130.151 197.224H191.381C192.755 209.579 199.231 228.883 217.286 239.114Z" fill="#D5DDEA"/>
<g filter="url(#filter0_d_792_201)">
<path d="M276.554 37.3888V195.101C276.554 199.155 273.414 202.05 269.881 202.05H53.2213C49.4926 202.05 46.5488 198.962 46.5488 195.101V37.3888C46.5488 33.7211 49.6888 30.4395 53.2213 30.4395H269.489C273.61 30.6325 276.554 33.7211 276.554 37.3888Z" fill="white"/>
</g>
<path d="M276.037 36.4596V175.43H46.0371V36.4596C46.0371 32.6744 49.2576 29.4299 52.7466 29.4299H269.059C273.085 29.4299 276.037 32.6744 276.037 36.4596Z" fill="#989FB0"/>
<path d="M267.768 39.4299H54.0371V167.43H268.037V39.4299H267.768Z" fill="white"/>
<rect x="63.1523" y="48.7165" width="66.2713" height="49.7325" fill="#EAEEF9"/>
<rect x="145.203" y="48.7166" width="110.452" height="20.2038" fill="#EAEEF9"/>
<rect x="145.203" y="109.328" width="110.452" height="20.2038" fill="#EAEEF9"/>
<rect x="145.203" y="76.6912" width="110.452" height="9.32484" fill="#EAEEF9"/>
<rect x="145.203" y="137.302" width="110.452" height="9.32486" fill="#EAEEF9"/>
<rect x="63.1523" y="109.328" width="66.2713" height="49.7325" fill="#EAEEF9"/>
<path d="M161.158 192.591C164.298 192.591 166.849 190.275 166.849 186.993C166.849 183.905 164.494 181.395 161.158 181.395C158.018 181.395 155.467 183.711 155.467 186.993C155.467 190.082 157.822 192.591 161.158 192.591Z" fill="#D6DDE8"/>
<path d="M2 239.5H312.075" stroke="#D6DDE8" stroke-width="4" stroke-miterlimit="10" stroke-linecap="round" stroke-linejoin="round"/>
<path d="M23.7943 105.399C28.3081 105.399 31.8406 101.924 31.8406 97.4841C31.8406 93.0442 28.3081 89.5695 23.7943 89.5695C19.2805 89.5695 15.748 93.0442 15.748 97.4841C15.748 101.924 19.4768 105.399 23.7943 105.399Z" fill="#EAEEF9"/>
<path d="M15.747 79.7247C18.6907 79.7247 21.242 77.2152 21.242 74.3196C21.242 71.424 18.6907 68.9146 15.747 68.9146C12.8032 68.9146 10.252 71.424 10.252 74.3196C10.252 77.4082 12.8032 79.7247 15.747 79.7247Z" fill="#EAEEF9"/>
<path d="M303.646 125.282C309.338 125.282 313.851 120.842 313.851 115.244C313.851 109.645 309.338 105.206 303.646 105.206C297.955 105.206 293.441 109.645 293.441 115.244C293.441 120.842 297.955 125.282 303.646 125.282Z" fill="#EAEEF9"/>
<path d="M211.474 103.889C211.474 110.607 210.338 116.765 207.78 122.643C202.096 137.198 189.876 148.395 174.814 153.433C169.699 155.113 164.299 155.952 158.615 155.952C129.344 155.952 105.756 132.72 105.756 103.889C105.756 75.0577 129.344 51.825 158.615 51.825C187.887 51.825 211.474 75.3376 211.474 103.889Z" fill="url(#paint0_linear_792_201)"/>
<path d="M170.461 97.3173V87.0042C170.461 81.3789 165.579 76.6911 159.721 76.6911C156.792 76.6911 154.189 77.9412 151.91 79.8163C149.958 81.6914 148.656 84.1915 148.656 87.3167V97.6298C145.727 99.5049 143.449 101.692 141.496 104.818C139.869 107.63 138.893 111.068 138.893 114.506C138.893 125.444 148.005 134.194 159.396 134.194C170.786 134.194 179.899 125.444 179.899 114.506C180.224 107.005 176.319 100.755 170.461 97.3173ZM161.999 116.381V121.694C161.999 122.319 161.348 122.944 160.697 122.944H158.419C157.768 122.944 157.118 122.319 157.118 121.694V118.256V116.381C155.165 115.443 154.189 113.256 154.514 111.068C154.839 109.193 156.467 107.63 158.419 107.318C161.674 106.693 164.603 109.193 164.603 112.006C164.603 113.881 163.626 115.443 161.999 116.381ZM165.254 95.1296C163.301 94.5046 161.674 94.1921 159.396 94.1921C157.443 94.1921 155.49 94.5046 153.538 95.1296V87.3167C153.538 85.7541 154.189 84.1915 155.165 83.254C156.141 82.3164 157.768 81.6914 159.396 81.6914C162.65 81.6914 165.254 84.1915 165.254 87.3167V95.1296Z" fill="white"/>
<defs>
<filter id="filter0_d_792_201" x="2.54883" y="8.43945" width="318.005" height="259.611" filterUnits="userSpaceOnUse" color-interpolation-filters="sRGB">
<feFlood flood-opacity="0" result="BackgroundImageFix"/>
<feColorMatrix in="SourceAlpha" type="matrix" values="0 0 0 0 0 0 0 0 0 0 0 0 0 0 0 0 0 0 127 0" result="hardAlpha"/>
<feOffset dy="22"/>
<feGaussianBlur stdDeviation="22"/>
<feColorMatrix type="matrix" values="0 0 0 0 0.397708 0 0 0 0 0.47749 0 0 0 0 0.575 0 0 0 0.27 0"/>
<feBlend mode="normal" in2="BackgroundImageFix" result="effect1_dropShadow_792_201"/>
<feBlend mode="normal" in="SourceGraphic" in2="effect1_dropShadow_792_201" result="shape"/>
</filter>
<linearGradient id="paint0_linear_792_201" x1="105.707" y1="103.9" x2="211.494" y2="103.9" gradientUnits="userSpaceOnUse">
<stop stop-color="#B0BACC"/>
<stop offset="1" stop-color="#969EAE"/>
</linearGradient>
</defs>
</svg>
