<?xml version="1.0" encoding="utf-8"?>
<!-- Generator: Adobe Illustrator 21.0.0, SVG Export Plug-In . SVG Version: 6.00 Build 0)  -->
<svg version="1.1" id="图层_1" xmlns="http://www.w3.org/2000/svg" xmlns:xlink="http://www.w3.org/1999/xlink" x="0px" y="0px"
	 viewBox="0 0 795 686" style="enable-background:new 0 0 795 686;" xml:space="preserve">
<style type="text/css">
	.st0{fill:#4C4C4C;}
</style>
<title>合并形状</title>
<desc>Created with Sketch.</desc>
<path id="合并形状" class="st0" d="M110.5,634.8c-4.5,0.3-9.1-1.2-12.5-4.6l-58.7-58.7c-6.2-6.2-6.2-16.4,0-22.6
			c6.2-6.2,16.4-6.2,22.6,0l32.5,32.5V466.7L62,499.2c-6.2,6.2-16.4,6.2-22.6,0s-6.2-16.4,0-22.6l58.7-58.7c1.1-1.1,2.3-2,3.5-2.7
			c2.5-1.7,5.6-2.7,8.9-2.7c3.2,0,6.1,0.9,8.6,2.5c1.4,0.7,2.7,1.7,3.9,2.9l58.7,58.7c6.2,6.2,6.2,16.4,0,22.6
			c-6.2,6.2-16.4,6.2-22.6,0l-32.6-32.6v114.8l32.6-32.6c6.2-6.2,16.4-6.2,22.6,0c6.2,6.2,6.2,16.4,0,22.6L123,630.2
			C119.6,633.6,115,635.2,110.5,634.8z M750,320h-93v-45h93v-50h45v95H750z M750,0h45v95h-45V45h-93V0H750z M336,45v50h-45V45V0h138
			v45H336z M750,641V407H336v234H750z M795,641v45H291v-45V407v-45h504v45V641z M291,275v-50h45v50h93v45H291V275z M291,132h45v56
			h-45V132z M750,132h45v56h-45V132z M474,0h138v45H474V0z M474,275h138v45H474V275z M17.5,367h184c9.7,0,17.5,7.8,17.5,17.5
			s-7.8,17.5-17.5,17.5h-184C7.8,402,0,394.2,0,384.5S7.8,367,17.5,367z M17.5,646h184c9.7,0,17.5,7.8,17.5,17.5
			s-7.8,17.5-17.5,17.5h-184C7.8,681,0,673.2,0,663.5S7.8,646,17.5,646z"/>
</svg>
