<?xml version="1.0" encoding="UTF-8"?>
<svg width="26px" height="26px" viewBox="0 0 26 26" version="1.1" xmlns="http://www.w3.org/2000/svg" xmlns:xlink="http://www.w3.org/1999/xlink">
    <!-- Generator: Sketch 61.1 (89650) - https://sketch.com -->
    <title>AI识别</title>
    <desc>Created with Sketch.</desc>
    <g id="页面-1" stroke="none" stroke-width="1" fill="none" fill-rule="evenodd">
        <g id="AI识别">
            <rect id="矩形备份-2" fill="#71AAF2" x="0" y="0" width="26" height="26" rx="4"></rect>
            <g id="AI-(2)" transform="translate(5.000000, 6.000000)" fill="#FFFFFF" fill-rule="nonzero">
                <path d="M7.73723034,0 C9.36603422,0 10.8683164,0.60994382 11.989403,1.72577528 L12.0278813,1.76439326 C13.1200277,2.86001124 13.7409786,4.3538427 13.7790493,5.96714607 L13.7801906,6.0248764 L13.7801906,6.21725843 L12.1989138,6.21725843 L12.1989138,6.03801124 C12.1684247,3.53035955 10.3418492,1.61935955 7.91812703,1.5282809 L7.8444314,1.52607865 L7.73723034,1.52403371 L7.66932275,1.52403371 C6.47428047,1.5261942 5.33435546,2.00927078 4.52421495,2.85686517 L4.45288345,2.93237079 C3.65886755,3.78065184 3.22601995,4.88685052 3.2409001,6.02975281 L3.24228597,6.09495506 L3.24367184,6.11225843 L3.24693271,6.14151685 L3.24986749,6.17769663 C3.25157945,6.19948315 3.25255771,6.21717978 3.25312836,6.23424719 L3.25345445,6.25980899 L3.2532914,6.29040449 C3.24978597,6.58117978 3.19484033,6.74469663 3.0385632,6.902 L3.01394365,6.92630337 C2.95973171,6.98183146 2.81185131,7.15179775 2.57356334,7.43234831 L2.39592752,7.64195506 L1.88918853,8.24497753 C1.84604801,8.29632265 1.8320099,8.36492539 1.85168854,8.42823596 C1.86986789,8.48667416 1.91454179,8.53355056 1.96802003,8.55486517 L1.98155264,8.55958427 L2.01253089,8.56674157 L2.41117208,8.63398876 C2.54772095,8.65648315 2.66168831,8.67465169 2.75266655,8.68825843 L2.81649805,8.69753933 L2.88204151,8.70650562 L2.89410672,8.70674157 C3.01141647,8.71264045 3.11168818,8.77139326 3.19891642,8.87419101 L3.21416098,8.89283146 L3.22834576,8.9111573 C3.26690553,8.96825843 3.29348161,9.03204494 3.30644356,9.09646067 L3.31647073,9.15332584 C3.32217725,9.18840449 3.32592725,9.22379775 3.32788377,9.25635955 L3.32878051,9.28042697 L3.32878051,9.30370787 L3.48962286,12.4372697 L3.8794597,12.3780449 C4.50244866,12.285236 5.12600826,12.195573 5.74997547,12.1086629 L5.99600801,12.0743708 L6.71421433,11.9758202 L6.71421433,13.548382 L6.34842639,13.6054831 C5.4728789,13.7399086 4.59482026,13.8586407 3.71470432,13.961618 L3.38454137,13.9993708 L3.37402507,14 C2.63984049,13.992764 2.03136241,13.4510112 1.96068308,12.7445618 L1.95823743,12.7176629 L1.9551396,12.6500225 L1.82625377,10.046573 L1.52543864,9.98632584 L1.44929736,9.96941573 C0.473482417,9.74730337 0.0336727602,9.37874157 0.00187929106,8.67795506 L0.000737987042,8.65082022 L0.000167335031,8.62368539 C-0.00521309821,8.35469663 0.11918904,8.06730337 0.368727012,7.74664045 L0.823536665,7.16768539 L1.52054733,6.2814382 L1.68383533,6.07733708 L1.68383533,6.00670787 C1.70519402,2.78607865 4.04878031,0.222820225 7.12867073,0.0130561798 L7.22225766,0.00739325843 L7.3181272,0.00306741573 L7.4303826,0 L7.73723034,0 Z M15,6.88658427 L15,13.0955843 L13.40837,13.0955843 L13.40837,6.88658427 L15,6.88658427 Z M11.0486424,6.94738202 L13.2053809,13.0906292 L11.5804901,13.0906292 L11.1669304,11.7297191 L9.40907769,11.7297191 L8.99551802,13.0906292 L7.3857087,13.0906292 L9.53356135,6.94738202 L11.0485609,6.94738202 L11.0486424,6.94738202 Z M10.2828274,8.91052809 L9.87668625,10.3222472 L10.6976099,10.3222472 L10.2828274,8.91052809 Z" id="形状"></path>
            </g>
        </g>
    </g>
</svg>