<svg xmlns="http://www.w3.org/2000/svg" viewBox="0 0 400 250" class="design-iconfont">
  <defs>
    <linearGradient x1="122.415334%" y1="49.0009083%" x2="-44.0028721%" y2="51.286412%" id="vwiymgnmi__9avkxb75na">
      <stop offset="1%"/>
      <stop stop-opacity=".77" offset="10%"/>
      <stop stop-opacity="0" offset="97%"/>
    </linearGradient>
    <linearGradient x1="-14.4923626%" y1="40.710023%" x2="137.671923%" y2="62.6300926%" id="vwiymgnmi__lvm24ejvxb">
      <stop stop-color="#FFF" stop-opacity="0" offset="0%"/>
      <stop stop-color="#FFF" offset="100%"/>
    </linearGradient>
    <linearGradient x1="51.200359%" y1="49.5614955%" x2="-169.396455%" y2="130.904077%" id="vwiymgnmi__v3nh13vz7c">
      <stop stop-opacity="0" offset="0%"/>
      <stop stop-opacity=".8" offset="91%"/>
      <stop offset="100%"/>
    </linearGradient>
    <linearGradient x1="83.9492554%" y1="-160.099858%" x2="-83.7837838%" y2="945.514219%" id="vwiymgnmi__qgwrw3xasd">
      <stop stop-opacity="0" offset="0%"/>
      <stop stop-opacity=".8" offset="91%"/>
      <stop offset="100%"/>
    </linearGradient>
    <linearGradient x1="43.9862822%" y1="49.9224205%" x2="91.8394268%" y2="50.5624515%" id="vwiymgnmi__exgrfr13ae">
      <stop stop-opacity="0" offset="0%"/>
      <stop stop-opacity=".8" offset="91%"/>
      <stop offset="100%"/>
    </linearGradient>
    <linearGradient x1="59.6738476%" y1="-98.2301577%" x2="3.26961413%" y2="631.768509%" id="vwiymgnmi__dx26k0eh4f">
      <stop stop-opacity="0" offset="0%"/>
      <stop stop-opacity=".8" offset="91%"/>
      <stop offset="100%"/>
    </linearGradient>
    <linearGradient x1="36.6366859%" y1="97.0640968%" x2="93.7159116%" y2="-103.966831%" id="vwiymgnmi__dptt4hoi3g">
      <stop stop-opacity="0" offset="0%"/>
      <stop stop-opacity=".8" offset="91%"/>
      <stop offset="100%"/>
    </linearGradient>
    <linearGradient x1="57.4918988%" y1="82.3398329%" x2="19.3431501%" y2="-82.5069638%" id="vwiymgnmi__w9zu3ofcth">
      <stop stop-opacity="0" offset="0%"/>
      <stop stop-opacity=".8" offset="91%"/>
      <stop offset="100%"/>
    </linearGradient>
    <linearGradient x1="87.7758164%" y1="-.33540369%" x2="-192.762577%" y2="370.518236%" id="vwiymgnmi__nt66l5ozxi">
      <stop stop-opacity="0" offset="0%"/>
      <stop stop-opacity=".8" offset="91%"/>
      <stop offset="100%"/>
    </linearGradient>
    <linearGradient x1="89.4407255%" y1="-1.40157159%" x2="-185.10041%" y2="353.702685%" id="vwiymgnmi__88kkzzomjj">
      <stop stop-opacity="0" offset="0%"/>
      <stop stop-opacity=".8" offset="91%"/>
      <stop offset="100%"/>
    </linearGradient>
    <linearGradient x1="50.5759197%" y1="44.6899911%" x2="49.0598055%" y2="58.2080648%" id="vwiymgnmi__dr56jzcwmk">
      <stop stop-color="#FFF" offset="0%"/>
      <stop stop-color="#FFF" stop-opacity=".84" offset="9%"/>
      <stop stop-color="#FFF" stop-opacity=".64" offset="18%"/>
      <stop stop-color="#FFF" stop-opacity=".47" offset="28%"/>
      <stop stop-color="#FFF" stop-opacity=".33" offset="37%"/>
      <stop stop-color="#FFF" stop-opacity=".21" offset="47%"/>
      <stop stop-color="#FFF" stop-opacity=".12" offset="58%"/>
      <stop stop-color="#FFF" stop-opacity=".05" offset="69%"/>
      <stop stop-color="#FFF" stop-opacity=".01" offset="82%"/>
      <stop stop-color="#FFF" stop-opacity="0" offset="100%"/>
    </linearGradient>
    <linearGradient x1="55.3013867%" y1="45.6919086%" x2="47.0079946%" y2="52.5619508%" id="vwiymgnmi__bfxq5batwl">
      <stop stop-color="#FFF" offset="1%"/>
      <stop stop-color="#FFF" stop-opacity="0" offset="97%"/>
    </linearGradient>
    <linearGradient x1="55.3074109%" y1="45.6939904%" x2="47.0140189%" y2="52.5638939%" id="vwiymgnmi__xh4sjuf6um">
      <stop stop-color="#FFF" offset="1%"/>
      <stop stop-color="#FFF" stop-opacity="0" offset="97%"/>
    </linearGradient>
    <linearGradient x1="55.3134228%" y1="45.6934352%" x2="47.0200307%" y2="52.5634775%" id="vwiymgnmi__aim6849fan">
      <stop stop-color="#FFF" offset="1%"/>
      <stop stop-color="#FFF" stop-opacity="0" offset="97%"/>
    </linearGradient>
    <linearGradient x1="55.2942502%" y1="45.6919086%" x2="47.0008581%" y2="52.5619508%" id="vwiymgnmi__gqo5b15b6o">
      <stop stop-color="#FFF" offset="1%"/>
      <stop stop-color="#FFF" stop-opacity="0" offset="97%"/>
    </linearGradient>
    <linearGradient x1="55.3002496%" y1="45.690937%" x2="47.0068575%" y2="52.5608405%" id="vwiymgnmi__ze5c7p2jup">
      <stop stop-color="#FFF" offset="1%"/>
      <stop stop-color="#FFF" stop-opacity="0" offset="97%"/>
    </linearGradient>
    <linearGradient x1="55.3062614%" y1="45.6914922%" x2="47.0128694%" y2="52.5613957%" id="vwiymgnmi__2v2b662zwq">
      <stop stop-color="#FFF" offset="1%"/>
      <stop stop-color="#FFF" stop-opacity="0" offset="97%"/>
    </linearGradient>
    <linearGradient x1="55.3122733%" y1="45.690937%" x2="47.0188812%" y2="52.5608405%" id="vwiymgnmi__y3hla0d1kr">
      <stop stop-color="#FFF" offset="1%"/>
      <stop stop-color="#FFF" stop-opacity="0" offset="97%"/>
    </linearGradient>
    <linearGradient x1="55.2931255%" y1="45.690937%" x2="46.999721%" y2="52.5608405%" id="vwiymgnmi__lov7ifw5cs">
      <stop stop-color="#FFF" offset="1%"/>
      <stop stop-color="#FFF" stop-opacity="0" offset="97%"/>
    </linearGradient>
    <linearGradient x1="50.5837223%" y1="64.3650747%" x2="49.9254744%" y2="45.0063664%" id="vwiymgnmi__7jst66esot">
      <stop offset="1%"/>
      <stop stop-opacity=".77" offset="10%"/>
      <stop stop-opacity="0" offset="97%"/>
    </linearGradient>
    <linearGradient x1="-.02535841%" y1="50.0976325%" x2="99.7352347%" y2="50.0976325%" id="vwiymgnmi__x01i8y3dju">
      <stop stop-color="#ECC4D7" offset="0%"/>
      <stop stop-color="#EFD4D1" offset="42%"/>
      <stop stop-color="#F2EAC9" offset="100%"/>
    </linearGradient>
    <linearGradient x1="49.6404566%" y1="91.5182223%" x2="50.7572493%" y2="3.77451911%" id="vwiymgnmi__irwt9pngov">
      <stop offset="1%"/>
      <stop stop-opacity=".77" offset="10%"/>
      <stop stop-opacity="0" offset="97%"/>
    </linearGradient>
    <linearGradient x1="58.6572958%" y1="5.29202009%" x2="37.86039%" y2="112.592042%" id="vwiymgnmi__9g5n91rozw">
      <stop stop-color="#FFF" offset="3%"/>
      <stop stop-color="#FFF" stop-opacity=".84" offset="9%"/>
      <stop stop-color="#FFF" stop-opacity=".64" offset="18%"/>
      <stop stop-color="#FFF" stop-opacity=".47" offset="28%"/>
      <stop stop-color="#FFF" stop-opacity=".33" offset="37%"/>
      <stop stop-color="#FFF" stop-opacity=".21" offset="47%"/>
      <stop stop-color="#FFF" stop-opacity=".12" offset="58%"/>
      <stop stop-color="#FFF" stop-opacity=".05" offset="69%"/>
      <stop stop-color="#FFF" stop-opacity=".01" offset="82%"/>
      <stop stop-color="#FFF" stop-opacity="0" offset="98%"/>
    </linearGradient>
    <linearGradient x1="-.20805414%" y1="50.0077566%" x2="99.3940999%" y2="50.0077566%" id="vwiymgnmi__q0itu9w84x">
      <stop offset="1%"/>
      <stop stop-opacity=".77" offset="10%"/>
      <stop stop-opacity="0" offset="97%"/>
    </linearGradient>
    <linearGradient x1="8.2006946%" y1="-58.7574221%" x2="61.1482268%" y2="72.8554363%" id="vwiymgnmi__muv3h15fwy">
      <stop offset="1%"/>
      <stop stop-opacity=".77" offset="10%"/>
      <stop stop-opacity="0" offset="97%"/>
    </linearGradient>
    <linearGradient x1="49.9714985%" y1="-76.8482021%" x2="50.0477012%" y2="284.231573%" id="vwiymgnmi__jxntqtsuaz">
      <stop stop-color="#FFF" offset="1%"/>
      <stop stop-color="#FFF" stop-opacity="0" offset="97%"/>
    </linearGradient>
    <linearGradient x1="49.9731497%" y1="-76.910657%" x2="50.0495944%" y2="284.162109%" id="vwiymgnmi__uhyxq7mb6A">
      <stop stop-color="#FFF" offset="1%"/>
      <stop stop-color="#FFF" stop-opacity="0" offset="97%"/>
    </linearGradient>
    <linearGradient x1="49.9666911%" y1="-76.9800514%" x2="50.0428938%" y2="284.092784%" id="vwiymgnmi__ksr2fdluvB">
      <stop stop-color="#FFF" offset="1%"/>
      <stop stop-color="#FFF" stop-opacity="0" offset="97%"/>
    </linearGradient>
    <linearGradient x1="49.9684079%" y1="-77.0494458%" x2="50.0446106%" y2="284.02332%" id="vwiymgnmi__tvy029zpdC">
      <stop stop-color="#FFF" offset="1%"/>
      <stop stop-color="#FFF" stop-opacity="0" offset="97%"/>
    </linearGradient>
    <linearGradient x1="49.9707379%" y1="-77.1188401%" x2="50.0464897%" y2="283.953926%" id="vwiymgnmi__cg6n5d2xqD">
      <stop stop-color="#FFF" offset="1%"/>
      <stop stop-color="#FFF" stop-opacity="0" offset="97%"/>
    </linearGradient>
    <linearGradient x1="49.9723867%" y1="-77.1882345%" x2="50.048379%" y2="283.891471%" id="vwiymgnmi__v03uwpboxE">
      <stop stop-color="#FFF" offset="1%"/>
      <stop stop-color="#FFF" stop-opacity="0" offset="97%"/>
    </linearGradient>
    <linearGradient x1="-.54470855%" y1="51.0657084%" x2="99.5538002%" y2="51.0657084%" id="vwiymgnmi__l0rbznaebF">
      <stop stop-color="#ECC4D7" offset="0%"/>
      <stop stop-color="#EFD4D1" offset="42%"/>
      <stop stop-color="#F2EAC9" offset="100%"/>
    </linearGradient>
    <linearGradient x1=".17242674%" y1="50.8875539%" x2="101.483771%" y2="50.8875539%" id="vwiymgnmi__a45b3gsv0G">
      <stop stop-color="#ECC4D7" offset="0%"/>
      <stop stop-color="#EFD4D1" offset="42%"/>
      <stop stop-color="#F2EAC9" offset="100%"/>
    </linearGradient>
    <linearGradient x1="110.453121%" y1="-105.589788%" x2="37.1155854%" y2="83.5290176%" id="vwiymgnmi__hhv40z5qiH">
      <stop offset="1%"/>
      <stop stop-opacity=".77" offset="10%"/>
      <stop stop-opacity="0" offset="97%"/>
    </linearGradient>
    <linearGradient x1="75.4571911%" y1="-47.5824174%" x2="-11.8171371%" y2="273.256711%" id="vwiymgnmi__anmqupt42I">
      <stop offset="1%"/>
      <stop stop-opacity=".77" offset="10%"/>
      <stop stop-opacity="0" offset="97%"/>
    </linearGradient>
    <linearGradient x1="28.0685055%" y1="-66.4407639%" x2="92.5082013%" y2="276.544595%" id="vwiymgnmi__b1gz38qtwJ">
      <stop offset="1%"/>
      <stop stop-opacity=".77" offset="10%"/>
      <stop stop-opacity="0" offset="97%"/>
    </linearGradient>
    <linearGradient x1="46.676405%" y1="1.28310715%" x2="56.22478%" y2="164.234835%" id="vwiymgnmi__jqg4l7g34K">
      <stop offset="1%"/>
      <stop stop-opacity=".77" offset="10%"/>
      <stop stop-opacity="0" offset="97%"/>
    </linearGradient>
    <linearGradient x1="46.4808443%" y1="-1.26703909%" x2="56.0292193%" y2="161.684604%" id="vwiymgnmi__uh75tsfm6L">
      <stop offset="1%"/>
      <stop stop-opacity=".77" offset="10%"/>
      <stop stop-opacity="0" offset="97%"/>
    </linearGradient>
  </defs>
  <g fill-rule="nonzero" fill="none">
    <path d="M2.70566052,206.508817 C1.6984123,207.305379 0.590439263,208.301082 0.187539975,209.495926 C-0.517533777,211.586902 0.892613728,213.677879 2.30276123,215.271004 C9.95784769,223.435769 22.1455511,225.327605 33.3260064,226.522448 C83.8898669,231.899245 134.957352,232.297526 185.621937,227.717292 C185.219038,228.016003 184.816138,228.414284 184.513964,228.712995 C177.765401,235.782487 182.499468,247.432213 192.3705,248.228775 C255.222789,253.00815 318.578702,247.233072 381.430991,241.358424 C386.467232,240.860572 390.496225,231.998815 394.726667,229.210847 C398.95711,226.422878 401.47523,220.6478 399.057834,216.266707 C395.733915,210.491629 385.862883,210.591199 383.445487,204.31827 C381.028091,198.244481 387.877379,192.668544 390.19405,186.594755 C393.215795,178.52956 387.575205,169.369092 379.920118,165.28671 C372.265032,161.204327 363.199798,161.104757 354.436738,161.104757 C256.330762,160.806046 158.224785,165.38628 60.6224331,174.945029 C49.2405282,176.040303 41.3839921,176.239443 32.2180333,182.313232 C21.7426518,189.183583 12.3752434,198.642762 2.70566052,206.508817 Z" fill="#9ED0C6" opacity=".18"/>
    <path d="M308.606944,240.960143 C310.722166,240.561862 313.139561,240.06401 315.053333,241.159283 C316.060581,241.657135 316.86638,242.553268 317.873628,242.951549 C319.7874,243.748111 321.902621,242.951549 323.917117,242.354127 C331.572204,240.362721 339.529465,243.051119 347.386001,243.4494 C354.839638,243.748111 362.293274,241.955846 369.545462,240.16358 C371.459233,239.665729 373.775904,238.670026 373.574455,236.77819 C373.373005,233.990221 368.739663,234.288932 367.128066,231.998815 L380.323018,225.128464 C381.83389,224.331902 383.344762,223.435769 383.949111,221.942214 C384.654185,220.149949 383.546212,218.058972 381.934615,217.063269 C380.323018,216.067566 378.308521,215.768855 376.39475,215.768855 C367.329516,215.569715 358.566456,218.656394 349.702672,220.54823 C339.42874,222.738777 328.953358,223.236628 318.578702,222.240925 C316.161306,221.942214 313.74391,221.643503 311.427239,222.041784 C305.38375,223.037488 300.448234,228.215144 295.210543,231.003112 C290.980101,233.293229 286.548208,235.085495 282.015591,236.87776 C277.080075,238.869166 267.511217,240.561862 264.187298,244.843385 C268.719915,246.834791 276.173552,245.142096 281.008343,244.743814 C290.174302,244.046822 299.440986,242.752408 308.606944,240.960143 Z" fill="#9ED0C6" opacity=".18"/>
    <path d="M285.339511,61.7335903 L285.339511,172.555342 C285.339511,177.434287 281.310518,181.417099 276.375001,181.417099 L35.7434021,181.417099 C30.8078858,181.417099 26.7788929,177.434287 26.7788929,172.555342 L26.7788929,33.0573419 C26.7788929,28.1783969 30.8078858,24.1955846 35.7434021,24.1955846 L35.7434021,24.1955846 L98.8978654,24.1955846 C104.236281,24.1955846 108.567448,28.2779672 108.970348,33.4556231 L109.574696,41.8195289 C110.078321,48.0924583 115.416736,52.9714033 121.7624,52.9714033 L276.375001,52.9714033 C280.706169,52.9714033 284.432987,56.0580828 285.138061,60.339606 C285.339511,60.7378872 285.339511,61.2357388 285.339511,61.7335903 Z" fill="#7EC5CE"/>
    <path d="M285.339511,61.7335903 L285.339511,172.555342 C285.339511,177.434287 281.310518,181.417099 276.375001,181.417099 L35.7434021,181.417099 C30.8078858,181.417099 26.7788929,177.434287 26.7788929,172.555342 L26.7788929,33.0573419 C26.7788929,28.1783969 30.8078858,24.1955846 35.7434021,24.1955846 L35.7434021,24.1955846 L98.8978654,24.1955846 C104.236281,24.1955846 108.567448,28.2779672 108.970348,33.4556231 L109.574696,41.8195289 C110.078321,48.0924583 115.416736,52.9714033 121.7624,52.9714033 L276.375001,52.9714033 C280.706169,52.9714033 284.432987,56.0580828 285.138061,60.339606 C285.339511,60.7378872 285.339511,61.2357388 285.339511,61.7335903 Z" fill-opacity=".47" fill="url(#vwiymgnmi__9avkxb75na)"/>
    <path fill="#9ED0C6" d="M26.8796178 172.555342L26.8796178 33.0573419"/>
    <path d="M125.388494,52.9714033 L121.863125,52.9714033 C115.517461,52.9714033 110.179045,48.0924583 109.675421,41.8195289 L109.071072,33.4556231 C109.071072,32.758631 108.869623,32.1612091 108.768898,31.464217 L113.704414,31.464217 C119.04283,31.464217 123.373997,35.4470293 123.776896,40.7242555 L124.381245,49.0881613 C124.48197,50.3825753 124.884869,51.7765596 125.388494,52.9714033 Z" fill="#222A72"/>
    <path d="M285.339511,61.7335903 L285.339511,172.555342 C285.339511,177.434287 281.310518,181.417099 276.375001,181.417099 L41.6861666,181.417099 C41.5854418,180.919248 41.5854418,180.421396 41.5854418,179.923545 L41.5854418,40.3259743 C41.5854418,35.4470293 45.6144346,31.464217 50.5499509,31.464217 L108.768898,31.464217 C108.970348,32.0616388 109.071072,32.758631 109.071072,33.4556231 L109.675421,41.8195289 C110.179045,48.0924583 115.517461,52.9714033 121.863125,52.9714033 L125.388494,52.9714033 C127.302265,57.4520671 131.734157,60.2400357 136.568949,60.339606 L285.138061,60.339606 C285.339511,60.7378872 285.339511,61.2357388 285.339511,61.7335903 Z" fill="#7EC5CE"/>
    <path d="M285.339511,61.0504559 L285.339511,172.491555 C285.339511,177.3705 281.310518,181.353312 276.375001,181.353312 L41.6861666,181.353312 C41.5854418,180.85546 41.5854418,180.357609 41.5854418,179.859757 L41.5854418,40.3617573 C41.5854418,35.4828123 45.6144346,31.5 50.5499509,31.5 L108.768898,31.5 C108.970348,32.0974218 109.071072,32.794414 109.071072,33.4914061 L109.675421,41.8553119 C110.179045,48.1282413 115.517461,53.0071863 121.863125,53.0071863 L125.388494,53.0071863 C127.302265,57.4878501 131.734157,60.2400357 136.568949,60.339606 L285.138061,60.339606 C285.192855,60.4168253 285.2202,60.4526083 285.339511,61.0504559 Z" fill="url(#vwiymgnmi__lvm24ejvxb)"/>
    <g transform="translate(117.253204 82.844487)">
      <rect fill="url(#vwiymgnmi__v3nh13vz7c)" width="57.3704109" height="56.7128273" rx="7.51425873"/>
      <rect fill="#7EC5CE" x="3.5140503" width="53.8499247" height="56.7128273" rx="7.27784073"/>
      <path d="M59.5843914,28.540918 L56.6238362,31.3212081 L56.6238362,31.3212081 L55.3366382,32.5173054 C53.2799389,30.0871443 50.1666911,28.7827309 46.9698518,29.0117223 C46.2808409,29.0937635 45.5824128,28.9812665 44.9553871,28.6872491 C42.8250745,27.4911518 46.1653531,23.4129689 46.1653531,23.4129689 C46.9003382,23.4003714 47.6354145,23.4322421 48.3664615,23.5084022 L48.5595412,23.5084022 L49.1452163,23.5783866 C51.9641797,23.9728442 56.4693724,25.2898237 59.5843914,28.540918 Z" fill="#FFF"/>
      <path d="M56.5079883,31.0603571 L56.6238362,31.3212081 L55.3366382,32.5173054 C53.2799389,30.0871443 50.1666911,28.7827309 46.9698518,29.0117223 C46.2808409,29.0937635 45.5824128,28.9812665 44.9553871,28.6872491 L46.1653531,23.4129689 C46.1653531,23.4129689 47.3560112,23.4129689 48.3664615,23.5084022 L48.5595412,23.5084022 C48.756128,23.5187775 48.9517909,23.5421579 49.1452163,23.5783866 C49.1452163,23.5783866 49.8467391,26.543181 49.325424,27.7901761 C49.325424,27.8092628 54.261828,28.6236269 56.5079883,31.0603571 Z" fill="url(#vwiymgnmi__qgwrw3xasd)" opacity=".26"/>
      <rect fill="url(#vwiymgnmi__exgrfr13ae)" x="24.7849958" y="11.954611" width="7.80041935" height="32.8036053" rx="2.88174378"/>
      <path d="M46.9569798,27.9110583 C46.8899344,35.0585375 41.013171,40.8196949 33.7825092,40.8263645 L30.9442378,40.8263645 C29.881001,40.8226246 28.9592388,40.0982403 28.7157996,39.075104 C28.4723603,38.0519676 28.9708396,36.9973614 29.9209155,36.5255039 C30.2398188,36.3720847 30.5895782,36.2916271 30.9442378,36.2901017 L32.0126121,36.2901017 C34.2913644,36.2901017 36.4767849,35.3952467 38.0881061,33.8023946 C39.6994273,32.2095425 40.6046581,30.0491714 40.6046581,27.7965383 L40.6046581,27.7965383 L40.6046581,27.6120339 C40.4443587,22.9502899 36.5572376,19.2628929 31.8388404,19.2966127 L30.5516424,19.2966127 C29.5137288,19.2966127 28.6723335,18.4648615 28.6723335,17.4388445 L28.6723335,17.4388445 L28.6723335,16.6499292 C28.6723335,15.6239122 29.5137288,14.7921559 30.5516424,14.7921559 L33.5701215,14.7921559 C40.8492257,14.7857988 47.0084677,20.6899388 46.9569798,27.9110583 Z" fill="#FFF"/>
      <path d="M43.4429295,28.4327603 C43.3900576,34.64108 38.2931155,39.6512305 32.0126121,39.6684818 L29.5411921,39.6684818 C29.3224468,39.6698454 29.1049748,39.6354487 28.8975931,39.5666449 C28.6277418,39.0300882 28.584638,38.4095185 28.77777,37.8415367 C28.9709019,37.2735549 29.3844385,36.8047184 29.9273515,36.5382283 L29.9273515,36.5382283 C30.2462548,36.3848091 30.5960142,36.3043515 30.9506738,36.3028262 L32.0126121,36.3028262 C34.2913644,36.3028262 36.4767849,35.4079712 38.0881061,33.8151191 C39.6994273,32.2222669 40.6046581,30.0618958 40.6046581,27.8092628 L40.6046581,27.8092628 L40.6046581,27.6247584 C40.4443587,22.9630143 36.5572376,19.2756174 31.8388404,19.3093371 L30.5516424,19.3093371 C29.5137288,19.3093371 28.6723335,18.477586 28.6723335,17.4515689 L28.6723335,17.4515689 L28.6723335,17.1016468 C28.8388409,17.0489059 29.0123793,17.0210292 29.1872127,17.018938 L31.8066604,17.018938 C38.1981705,17.018938 43.3934378,22.1146996 43.4429295,28.4327603 L43.4429295,28.4327603 Z" fill="url(#vwiymgnmi__dx26k0eh4f)" opacity=".26"/>
      <path d="M40.1798828,25.2198393 C40.1798828,25.2198393 41.0423054,27.5038762 39.9674952,30.9903727 C39.9674952,30.9903727 35.8935138,35.1321777 39.3689481,41.7170752 L42.2393995,44.7518541 L38.8991209,48.0029484 C34.6646661,44.770737 32.5239634,39.5314024 33.29981,34.298727 C34.0592568,28.6872491 40.1798828,25.2198393 40.1798828,25.2198393 Z" fill="#FFF"/>
      <path fill="#8DCFD8" d="M36.0479775 50.624183L62.4998946 25.8115257 84.6911866 44.7518541 57.363975 70.6651753z"/>
      <path fill="#7EC5CE" d="M36.0479775 50.624183L37.8050027 60.4601748 57.363975 79.0124077 57.363975 70.6651753z"/>
      <path fill="#7EC5CE" d="M84.6911866 44.7518541L84.6911866 53.779844 57.363975 79.0124077 57.363975 70.6651753z"/>
      <path fill-opacity=".7" fill="url(#vwiymgnmi__dptt4hoi3g)" d="M36.0479775 50.624183L37.8050027 60.4601748 57.363975 79.0124077 57.363975 70.6651753z"/>
      <path fill-opacity=".7" fill="url(#vwiymgnmi__w9zu3ofcth)" d="M84.6911866 44.7518541L84.6911866 53.779844 57.363975 79.0124077 57.363975 70.6651753z"/>
      <path fill="url(#vwiymgnmi__nt66l5ozxi)" d="M40.9264576 55.2113434L67.6293783 30.188733 70.0943623 32.2946277 43.4429295 57.5780892z"/>
      <path fill="url(#vwiymgnmi__88kkzzomjj)" d="M48.8105448 62.4579118L76.1506285 37.4353013 78.6156125 39.5348338 51.3270167 64.8182953z"/>
    </g>
    <path d="M272.849633,0 L272.849633,52.9714033 L121.863125,52.9714033 C115.517461,52.9714033 110.179045,48.0924583 109.675421,41.8195289 L109.071072,33.4556231 C108.668173,28.2779672 104.236281,24.1955846 98.9985902,24.1955846 L55.4854672,24.1955846 L55.4854672,0 L272.849633,0 Z" fill="#7EC5CE"/>
    <path d="M272.849633,0 L272.849633,52.9714033 L121.863125,52.9714033 C115.517461,52.9714033 110.179045,48.0924583 109.675421,41.8195289 L109.071072,33.4556231 C108.668173,28.2779672 104.236281,24.1955846 98.9985902,24.1955846 L55.4854672,24.1955846 L55.4854672,0 L272.849633,0 Z" fill="url(#vwiymgnmi__dr56jzcwmk)"/>
    <path d="M128.510963,19.1174989 L128.510963,52.9714033 L125.388494,52.9714033 L125.388494,19.1174989 C125.388494,18.2213662 126.093567,17.6239443 126.899366,17.6239443 C126.899366,17.6239443 126.899366,17.6239443 126.899366,17.6239443 L126.899366,17.6239443 C127.805889,17.6239443 128.510963,18.2213662 128.510963,19.1174989 C128.510963,19.1174989 128.510963,19.1174989 128.510963,19.1174989 L128.510963,19.1174989 L128.510963,19.1174989 Z" fill="url(#vwiymgnmi__bfxq5batwl)"/>
    <path d="M143.518961,19.1174989 L143.518961,52.9714033 L140.396492,52.9714033 L140.396492,19.1174989 C140.396492,18.2213662 141.101566,17.6239443 141.907364,17.6239443 C142.813888,17.6239443 143.518961,18.3209365 143.518961,19.1174989 Z" fill="url(#vwiymgnmi__xh4sjuf6um)"/>
    <path d="M158.52696,19.1174989 L158.52696,52.9714033 L155.40449,52.9714033 L155.40449,19.1174989 C155.40449,18.2213662 156.109564,17.6239443 156.915363,17.6239443 C157.821886,17.6239443 158.52696,18.3209365 158.52696,19.1174989 L158.52696,19.1174989 L158.52696,19.1174989 Z" fill="url(#vwiymgnmi__aim6849fan)"/>
    <path d="M173.635683,19.1174989 L173.635683,52.9714033 L170.513214,52.9714033 L170.513214,19.1174989 C170.513214,18.2213662 171.218287,17.6239443 172.024086,17.6239443 L172.024086,17.6239443 L172.024086,17.6239443 C172.426985,17.6239443 172.829885,17.8230849 173.132059,18.0222256 C173.434234,18.3209365 173.534958,18.7192177 173.635683,19.1174989 Z" fill="url(#vwiymgnmi__gqo5b15b6o)"/>
    <path d="M188.643682,19.1174989 L188.643682,52.9714033 L185.521212,52.9714033 L185.521212,19.1174989 C185.521212,18.2213662 186.226286,17.6239443 187.032084,17.6239443 C187.938608,17.6239443 188.643682,18.2213662 188.643682,19.1174989 C188.643682,19.1174989 188.643682,19.1174989 188.643682,19.1174989 Z" fill="url(#vwiymgnmi__ze5c7p2jup)"/>
    <path d="M203.65168,19.1174989 L203.65168,52.9714033 L200.529211,52.9714033 L200.529211,19.1174989 C200.529211,18.3209365 201.234284,17.6239443 202.040083,17.6239443 C202.040083,17.6239443 202.040083,17.6239443 202.040083,17.6239443 L202.040083,17.6239443 C202.442982,17.6239443 202.845882,17.8230849 203.148056,18.0222256 C203.45023,18.3209365 203.65168,18.7192177 203.65168,19.1174989 Z" fill="url(#vwiymgnmi__2v2b662zwq)"/>
    <path d="M218.659679,19.1174989 L218.659679,52.9714033 L215.537209,52.9714033 L215.537209,19.1174989 C215.537209,18.2213662 216.242283,17.6239443 217.048081,17.6239443 C217.954605,17.6239443 218.659679,18.2213662 218.659679,19.1174989 C218.659679,19.1174989 218.659679,19.1174989 218.659679,19.1174989 Z" fill="url(#vwiymgnmi__y3hla0d1kr)"/>
    <path d="M233.768402,19.1174989 L233.768402,52.9714033 L230.645932,52.9714033 L230.645932,19.1174989 C230.645932,18.2213662 231.351006,17.6239443 232.156805,17.6239443 C233.063328,17.6239443 233.768402,18.2213662 233.768402,19.1174989 C233.768402,19.1174989 233.768402,19.1174989 233.768402,19.1174989 Z" fill="url(#vwiymgnmi__lov7ifw5cs)"/>
    <path d="M304.275777,86.2278858 C302.563455,87.1240186 300.750408,88.1197216 298.836637,88.4184326 C293.90112,89.214995 289.066329,85.7300343 284.030088,85.7300343 C279.698921,85.7300343 275.770653,88.3188623 273.957606,92.2021042 C278.590948,92.9986667 283.325014,92.8990964 287.958356,92.6999558 L313.844635,91.803823 C315.758407,91.7042527 317.873628,91.6046824 319.082326,90.1111278 C319.888124,89.214995 320.089574,88.0201513 320.593198,86.924878 C321.398997,85.1326124 323.010594,83.7386281 324.017842,82.0459329 C325.22654,80.1540971 326.535963,76.7687067 325.730164,74.4785896 C324.622191,71.3919101 321.600446,75.0760114 319.888124,76.2708551 C314.952608,79.9549565 309.714917,83.2407766 304.275777,86.2278858 Z" fill="#7EC5CE"/>
    <path d="M304.275777,86.2278858 C302.563455,87.1240186 300.750408,88.1197216 298.836637,88.4184326 C293.90112,89.214995 289.066329,85.7300343 284.030088,85.7300343 C279.698921,85.7300343 275.770653,88.3188623 273.957606,92.2021042 C278.590948,92.9986667 283.325014,92.8990964 287.958356,92.6999558 L313.844635,91.803823 C315.758407,91.7042527 317.873628,91.6046824 319.082326,90.1111278 C319.888124,89.214995 320.089574,88.0201513 320.593198,86.924878 C321.398997,85.1326124 323.010594,83.7386281 324.017842,82.0459329 C325.22654,80.1540971 326.535963,76.7687067 325.730164,74.4785896 C324.622191,71.3919101 321.600446,75.0760114 319.888124,76.2708551 C314.952608,79.9549565 309.714917,83.2407766 304.275777,86.2278858 Z" fill-opacity=".5" fill="url(#vwiymgnmi__7jst66esot)"/>
    <path d="M328.14756,28.875389 C328.14756,30.2693733 329.154808,31.464217 329.456983,32.8582013 C329.859882,34.6504668 329.054083,36.7414433 329.859882,38.3345682 C330.86713,40.1268337 333.284526,40.3259743 335.299022,41.1225368 C338.320767,42.5165211 340.133814,45.6032006 339.831639,48.8890207 C339.730914,49.2873019 339.730914,49.6855832 339.932364,49.9842941 C340.234539,50.283005 340.637438,50.4821456 341.040337,50.4821456 L345.875129,50.9799972 C346.479477,51.0795675 346.983102,51.0795675 347.587451,50.7808565 C348.091075,50.4821456 348.393249,49.9842941 348.594699,49.4864426 C350.004846,46.2006224 349.702672,42.4169508 350.609195,38.93199 C351.717168,34.3517559 354.638188,30.2693733 355.343262,25.4899986 C355.846886,22.5028894 355.343262,19.5157802 354.134564,16.7278116 C353.328765,15.0351163 352.120067,13.4419914 350.407746,12.645429 C349.199048,12.1475774 347.889625,11.9484368 346.580202,11.9484368 C341.644686,11.7492962 334.896123,12.2471478 333.5867,18.0222256 C333.183801,20.0136317 333.485975,21.5071863 332.176553,23.1998815 C330.766405,25.0917174 328.14756,26.4857016 328.14756,28.875389 Z" fill="url(#vwiymgnmi__x01i8y3dju)"/>
    <path d="M331.270029,9.35960885 C330.86713,12.3467181 333.385251,14.935546 335.802646,16.8273819 C338.220042,18.6196474 346.378753,22.5028894 346.882377,24.7930064 C347.386001,27.1826938 347.285276,29.5723812 347.083826,31.9620685 C347.486726,33.4556231 349.803397,29.1740999 350.206296,29.0745296 C351.918618,27.8796859 352.422242,29.6719515 352.623692,30.2693733 C352.724416,30.8667952 352.623692,31.5637873 352.321517,32.0616388 C351.616443,33.8539044 348.594699,38.1354276 349.501222,41.3216774 C352.220792,41.8195289 353.026591,35.1483184 355.443987,34.053045 C358.868631,32.4599201 361.890375,30.8667952 362.897623,27.2822641 C364.106321,23.0007409 365.012845,18.1217959 362.897623,14.1389836 C362.595449,13.5415617 362.091825,12.9441399 361.588201,12.4462884 C361.084577,12.0480071 360.480228,11.8488665 359.976604,11.5501556 C358.566456,10.6540228 357.659933,9.26003855 356.652684,7.96562456 C354.134564,4.97851535 350.70992,2.8875389 346.781652,2.09097645 C343.457733,1.4935546 339.529465,1.79226553 336.50772,3.48496074 C334.493224,4.67980443 331.572204,6.77078087 331.270029,9.35960885 Z" fill="#3F3D56"/>
    <path d="M356.249785,103.254408 C357.458483,100.864721 358.465731,98.4750336 359.472979,95.9857759 C362.998348,86.0287452 362.091825,75.1755817 361.084577,64.7206995 C360.983852,63.1275746 360.681677,61.5344497 360.278778,60.0408951 C359.573704,58.2486296 358.667181,56.5559343 357.559208,54.9628094 C356.048336,52.6726924 354.436738,50.3825753 352.724416,48.0924583 C352.321517,47.4950364 351.817893,46.8976146 351.112819,46.7980443 C350.609195,46.698474 350.105571,46.7980443 349.601947,46.8976146 L345.472229,47.8933176 C341.846136,48.7894504 337.917868,49.8847238 335.701922,52.9714033 C329.054083,62.3310121 323.212044,72.985035 319.58595,83.8381984 C316.262031,93.6956588 312.938112,103.553119 309.614193,113.51015 C308.30477,117.393392 307.096072,121.874056 309.312018,125.259446 C311.930864,129.242258 317.772903,129.441399 322.607695,129.142688 L331.169305,128.644837 C334.795398,128.445696 338.723666,128.047415 341.241787,125.458587 C342.047585,124.562454 342.651934,123.666321 343.155558,122.670618 C347.688175,115.202845 352.422242,111.220033 356.249785,103.254408 Z" fill="#7EC5CE"/>
    <path d="M356.249785,103.254408 C357.458483,100.864721 358.465731,98.4750336 359.472979,95.9857759 C362.998348,86.0287452 362.091825,75.1755817 361.084577,64.7206995 C360.983852,63.1275746 360.681677,61.5344497 360.278778,60.0408951 C359.573704,58.2486296 358.667181,56.5559343 357.559208,54.9628094 C356.048336,52.6726924 354.436738,50.3825753 352.724416,48.0924583 C352.321517,47.4950364 351.817893,46.8976146 351.112819,46.7980443 C350.609195,46.698474 350.105571,46.7980443 349.601947,46.8976146 L345.472229,47.8933176 C341.846136,48.7894504 337.917868,49.8847238 335.701922,52.9714033 C329.054083,62.3310121 323.212044,72.985035 319.58595,83.8381984 C316.262031,93.6956588 312.938112,103.553119 309.614193,113.51015 C308.30477,117.393392 307.096072,121.874056 309.312018,125.259446 C311.930864,129.242258 317.772903,129.441399 322.607695,129.142688 L331.169305,128.644837 C334.795398,128.445696 338.723666,128.047415 341.241787,125.458587 C342.047585,124.562454 342.651934,123.666321 343.155558,122.670618 C347.688175,115.202845 352.422242,111.220033 356.249785,103.254408 Z" fill-opacity=".5" fill="url(#vwiymgnmi__irwt9pngov)"/>
    <path fill="#7EC5CE" d="M254.568078 91.0072605H397.597325V192.7681145H254.568078z"/>
    <path fill="url(#vwiymgnmi__9g5n91rozw)" d="M254.568078 91.0072605H397.597325V192.7681145H254.568078z"/>
    <path d="M334.493224,151.944288 C335.198297,152.143429 336.004096,152.242999 336.809895,152.143429 C336.406995,153.139132 337.817143,154.035265 338.925116,153.836124 C340.033089,153.636984 340.939612,152.840421 342.047585,152.740851 C342.651934,152.641281 343.256283,152.840421 343.860632,152.641281 C344.364256,152.44214 344.767155,152.043859 345.06933,151.546007 C346.278028,149.753742 347.083826,147.762336 347.7889,145.770929 C349.501222,141.190695 350.70992,136.411321 352.825141,132.030227 C360.278778,116.6964 361.084577,94.4922213 360.983852,91.0072605 C359.674429,91.0072605 355.846886,91.2064012 354.638188,91.4055418 C354.235289,91.4055418 353.832389,91.6046824 353.42949,91.803823 C353.127316,92.1025339 352.825141,92.5008152 352.724416,92.8990964 C351.414994,96.5831977 351.717168,100.56601 351.314269,104.449252 C350.307021,113.709291 345.170055,122.073196 342.651934,131.034524 C341.543961,134.917766 340.939612,139.298859 338.220042,142.485109 C337.615693,143.182101 336.50772,143.978664 336.104821,144.775226 C335.601197,145.97007 336.30627,146.368351 336.30627,147.563195 C336.30627,147.961476 333.888875,151.745148 334.493224,151.944288 Z" fill="url(#vwiymgnmi__q0itu9w84x)"/>
    <path d="M278.893122,98.275893 C280.202545,98.4750336 281.511967,98.3754633 282.82139,97.977182 C284.030088,97.5789008 285.339511,97.3797602 286.749658,97.3797602 C287.857631,97.3797602 289.167054,97.6784711 289.771403,96.8819087 C290.677926,95.7866353 289.569953,93.8947994 290.577201,92.8990964 C290.778651,92.6003855 291.18155,92.5008152 291.383,92.2021042 C291.685174,92.0029636 291.685174,91.6046824 291.483725,91.3059715 C291.282275,91.2064012 291.080825,91.1068309 290.879376,91.1068309 C286.648933,90.9076902 282.418491,90.9076902 278.188048,91.3059715 C277.080075,91.4055418 275.871377,91.6046824 275.367753,92.5008152 C273.957606,94.5917916 276.878626,97.8776117 278.893122,98.275893 Z" fill="url(#vwiymgnmi__muv3h15fwy)"/>
    <path d="M290.577201,171.609424 L290.577201,171.609424 C289.670678,171.609424 289.066329,171.040851 289.066329,170.391053 L289.066329,115.158242 C289.066329,114.427219 289.771403,113.939871 290.577201,113.939871 L290.577201,113.939871 C291.483725,113.939871 292.088074,114.508444 292.088074,115.158242 L292.088074,115.158242 L292.088074,115.158242 L292.088074,170.391053 C292.088074,171.040851 291.483725,171.609424 290.577201,171.609424 Z" fill="url(#vwiymgnmi__jxntqtsuaz)"/>
    <path d="M305.5852,171.609424 L305.5852,171.609424 C304.678676,171.609424 304.074327,171.040851 304.074327,170.391053 L304.074327,115.158242 C304.074327,114.427219 304.779401,113.939871 305.5852,113.939871 L305.5852,113.939871 C306.491723,113.939871 307.096072,114.508444 307.096072,115.158242 L307.096072,115.158242 L307.096072,115.158242 L307.096072,170.391053 C307.196797,171.040851 306.491723,171.609424 305.5852,171.609424 Z" fill="url(#vwiymgnmi__uhyxq7mb6A)"/>
    <path d="M320.693923,171.609424 L320.693923,171.609424 C319.7874,171.609424 319.183051,171.040851 319.183051,170.391053 L319.183051,115.158242 C319.183051,114.427219 319.888124,113.939871 320.693923,113.939871 L320.693923,113.939871 C321.600446,113.939871 322.204795,114.508444 322.204795,115.158242 L322.204795,115.158242 L322.204795,115.158242 L322.204795,170.391053 C322.204795,171.040851 321.499722,171.609424 320.693923,171.609424 Z" fill="url(#vwiymgnmi__ksr2fdluvB)"/>
    <path d="M335.701922,171.609424 L335.701922,171.609424 C334.795398,171.609424 334.191049,171.040851 334.191049,170.391053 L334.191049,170.391053 L334.191049,115.158242 C334.191049,114.427219 334.896123,113.939871 335.701922,113.939871 C335.701922,113.939871 335.701922,113.939871 335.701922,113.939871 L335.701922,113.939871 C336.608445,113.939871 337.212794,114.508444 337.212794,115.158242 L337.212794,115.158242 L337.212794,170.391053 C337.212794,171.040851 336.50772,171.609424 335.701922,171.609424 Z" fill="url(#vwiymgnmi__tvy029zpdC)"/>
    <path d="M350.70992,171.609424 L350.70992,171.609424 C349.803397,171.609424 349.199048,171.040851 349.199048,170.391053 L349.199048,170.391053 L349.199048,115.158242 C349.199048,114.427219 349.904121,113.939871 350.70992,113.939871 C350.70992,113.939871 350.70992,113.939871 350.70992,113.939871 L350.70992,113.939871 C351.616443,113.939871 352.220792,114.508444 352.220792,115.158242 L352.220792,115.158242 L352.220792,170.391053 C352.220792,171.040851 351.616443,171.609424 350.70992,171.609424 Z" fill="url(#vwiymgnmi__cg6n5d2xqD)"/>
    <path d="M365.717918,171.609424 L365.717918,171.609424 C364.811395,171.609424 364.207046,171.040851 364.207046,170.391053 L364.207046,170.391053 L364.207046,115.158242 C364.207046,114.427219 364.91212,113.939871 365.717918,113.939871 C365.717918,113.939871 365.717918,113.939871 365.717918,113.939871 L365.717918,113.939871 C366.624442,113.939871 367.228791,114.508444 367.228791,115.158242 L367.228791,115.158242 L367.228791,170.391053 C367.329516,171.040851 366.624442,171.609424 365.717918,171.609424 Z" fill="url(#vwiymgnmi__v03uwpboxE)"/>
    <path d="M340.536713,83.5394875 C340.033089,96.981479 338.925116,110.3239 337.414243,123.666321 C337.112069,126.35472 336.809895,129.043118 337.514968,131.631946 C337.817143,132.727219 338.522217,135.714328 339.22729,136.510891 C340.234539,137.705735 341.443236,136.710031 343.054834,136.809602 C345.472229,137.108313 346.278028,138.402727 347.688175,136.510891 C349.098323,134.619055 351.112819,129.441399 351.616443,127.151282 C355.947611,109.129056 357.156309,90.509409 355.141812,72.0889022 C354.839638,69.2013633 354.436738,66.2142541 353.026591,63.6254261 C351.717168,61.0365982 349.199048,58.7464811 346.278028,58.4477702 C341.745411,57.9499186 339.025841,61.7335903 339.328015,65.7164026 C339.932364,71.7901913 340.738163,77.3661285 340.536713,83.5394875 Z" fill="#7EC5CE"/>
    <path d="M276.375001,89.7128466 C275.871377,89.9119872 275.468478,90.3102684 275.166304,90.7085496 C274.964854,91.1068309 274.864129,91.6046824 274.763404,92.1025339 C274.561955,93.9943698 274.360505,95.8862056 275.166304,97.5789008 C275.166304,97.6784711 275.267028,97.7780414 275.367753,97.8776117 C275.468478,97.8776117 275.569203,97.8776117 275.669928,97.8776117 C276.072827,97.7780414 276.375001,97.4793305 276.576451,97.0810493 C276.777901,96.682768 276.878626,96.2844868 276.878626,95.8862056 C277.1808,94.2930807 277.38225,92.6999558 277.684424,91.0072605 C277.38225,92.1025339 277.281525,93.1978073 277.38225,94.392651 C277.482975,95.4879244 277.986599,96.5831977 278.792397,97.4793305 C278.893122,97.6784711 279.094572,97.7780414 279.296021,97.7780414 C279.799645,97.8776117 280.10182,97.3797602 280.30327,96.8819087 C281.109068,95.1892134 281.411243,93.2973776 281.310518,91.4055418 C281.109068,93.2973776 281.411243,95.1892134 282.317766,96.7823384 C282.418491,96.981479 282.519216,97.0810493 282.61994,97.1806196 C282.922115,97.3797602 283.224289,97.3797602 283.526464,97.3797602 C283.828638,97.3797602 284.130813,97.3797602 284.432987,97.1806196 C284.634437,96.981479 284.735162,96.7823384 284.735162,96.5831977 C285.238786,94.9900728 285.440235,93.2973776 285.339511,91.6046824 C285.440235,93.3969479 285.843135,95.2887837 286.447484,96.981479 C286.548208,97.2801899 286.749658,97.5789008 286.951108,97.8776117 C287.454732,98.1763226 288.159806,97.977182 288.562705,97.4793305 C288.864879,96.981479 289.066329,96.3840571 289.066329,95.7866353 C289.167054,94.9900728 288.764155,94.1935104 289.066329,93.4965182 C291.383,85.630464 277.885874,88.8167138 276.375001,89.7128466 Z" fill="url(#vwiymgnmi__l0rbznaebF)"/>
    <path d="M334.291774,143.580383 C333.485975,143.978664 332.478727,144.576086 332.680177,145.472218 C332.881627,146.169211 333.687425,146.368351 334.392499,146.268781 C335.097573,146.169211 335.701922,145.770929 336.406995,145.671359 C336.70917,145.571789 336.910619,145.671359 337.212794,145.770929 C337.313519,145.8705 337.414243,146.06964 337.414243,146.268781 C337.615693,147.463625 337.011344,148.658468 336.205546,149.654171 C335.500472,150.649874 334.593948,151.546007 334.191049,152.740851 C335.097573,153.139132 336.104821,152.641281 336.809895,151.944288 C337.514968,151.247296 338.119317,150.450734 339.025841,149.952882 L336.70917,153.935695 C336.50772,154.333976 336.30627,154.831827 336.608445,155.130538 C337.011344,155.528819 337.615693,155.130538 338.018592,154.732257 C339.22729,153.537413 340.234539,152.242999 341.141062,150.849015 C340.435988,152.242999 340.033089,153.736554 339.831639,155.230109 C340.536713,155.329679 341.040337,154.632687 341.342512,154.035265 L343.357008,150.450734 C343.357008,151.546007 343.054834,152.641281 342.551209,153.636984 C343.558458,153.437843 344.062082,152.242999 344.464981,151.247296 C345.371504,148.558898 346.378753,145.671359 346.177303,142.78382 C346.177303,142.186398 346.076578,141.489406 345.472229,141.091125 C345.170055,140.891984 344.767155,140.792414 344.364256,140.891984 C340.637438,140.991555 337.817143,141.987258 334.291774,143.580383 Z" fill="url(#vwiymgnmi__a45b3gsv0G)"/>
    <path d="M338.925116,137.307453 C339.025841,136.909172 339.22729,136.510891 339.529465,136.11261 C339.932364,135.813899 340.435988,135.614758 341.040337,135.614758 L344.86788,135.216477 C345.774404,135.116907 346.983102,135.116907 347.486726,135.913469 C347.688175,136.411321 347.7889,136.909172 347.688175,137.407024 C347.587451,138.701438 347.386001,139.896281 346.983102,141.190695 C346.882377,141.489406 340.536713,142.186398 340.033089,141.987258 C337.817143,141.389836 338.421492,139.39843 338.925116,137.307453 Z" fill="#9ED0C6"/>
    <path d="M338.925116,137.307453 C339.025841,136.909172 339.22729,136.510891 339.529465,136.11261 C339.932364,135.813899 340.435988,135.614758 341.040337,135.614758 L344.86788,135.216477 C345.774404,135.116907 346.983102,135.116907 347.486726,135.913469 C347.688175,136.411321 347.7889,136.909172 347.688175,137.407024 C347.587451,138.701438 347.386001,139.896281 346.983102,141.190695 C346.882377,141.489406 340.536713,142.186398 340.033089,141.987258 C337.817143,141.389836 338.421492,139.39843 338.925116,137.307453 Z" fill="url(#vwiymgnmi__hhv40z5qiH)"/>
    <path fill="#7EC5CE" d="M300.045335 192.768114L288.46198 231.401393 298.937362 231.401393 320.794648 192.768114z"/>
    <path fill="#7EC5CE" d="M351.012094 192.768114L362.595449 231.401393 352.120067 231.401393 330.262781 192.768114z"/>
    <path d="M298.433737,239.466588 C297.426489,239.765299 296.419241,239.96444 295.411993,239.665729 C294.404745,239.367018 293.598946,238.271745 294.001845,237.375612 C291.685174,237.973034 289.469228,239.167877 287.051833,239.765299 C283.224289,240.761002 279.094572,240.263151 275.166304,239.665729 C275.871377,236.977331 277.684424,234.587643 280.202545,233.293229 C282.720665,231.998815 285.54096,231.700104 288.361255,231.500964 L293.699671,231.102682 C294.807644,231.003112 297.124315,230.40569 298.030838,231.102682 C298.937362,231.899245 299.038086,239.367018 298.433737,239.466588 Z" fill="#7EC5CE"/>
    <path d="M362.897623,239.466588 C361.890375,239.765299 360.883127,239.96444 359.875879,239.665729 C358.868631,239.367018 358.062832,238.271745 358.465731,237.375612 C356.048336,237.973034 353.933114,239.167877 351.515719,239.765299 C347.688175,240.761002 343.558458,240.263151 339.63019,239.665729 C340.335263,236.977331 342.14831,234.587643 344.666431,233.293229 C347.184551,231.998815 350.004846,231.700104 352.825141,231.500964 L358.163557,231.102682 C359.27153,231.003112 361.588201,230.40569 362.494724,231.102682 C363.401248,231.998815 363.501972,239.367018 362.897623,239.466588 Z" fill="#7EC5CE"/>
    <path fill-opacity=".7" fill="url(#vwiymgnmi__anmqupt42I)" d="M300.045335 192.768114L288.46198 231.401393 298.937362 231.401393 320.794648 192.768114z"/>
    <path fill-opacity=".7" fill="url(#vwiymgnmi__b1gz38qtwJ)" d="M351.012094 192.768114L362.595449 231.401393 352.120067 231.401393 330.262781 192.768114z"/>
    <path d="M298.433737,239.466588 C297.426489,239.765299 296.419241,239.96444 295.411993,239.665729 C294.404745,239.367018 293.598946,238.271745 294.001845,237.375612 C291.685174,237.973034 289.469228,239.167877 287.051833,239.765299 C283.224289,240.761002 279.094572,240.263151 275.166304,239.665729 C275.871377,236.977331 277.684424,234.587643 280.202545,233.293229 C282.720665,231.998815 285.54096,231.700104 288.361255,231.500964 L293.699671,231.102682 C294.807644,231.003112 297.124315,230.40569 298.030838,231.102682 C298.937362,231.899245 299.038086,239.367018 298.433737,239.466588 Z" fill="url(#vwiymgnmi__jqg4l7g34K)" opacity=".7"/>
    <path d="M362.897623,239.466588 C361.890375,239.765299 360.883127,239.96444 359.875879,239.665729 C358.868631,239.367018 358.062832,238.271745 358.465731,237.375612 C356.048336,237.973034 353.933114,239.167877 351.515719,239.765299 C347.688175,240.761002 343.558458,240.263151 339.63019,239.665729 C340.335263,236.977331 342.14831,234.587643 344.666431,233.293229 C347.184551,231.998815 350.004846,231.700104 352.825141,231.500964 L358.163557,231.102682 C359.27153,231.003112 361.588201,230.40569 362.494724,231.102682 C363.401248,231.998815 363.501972,239.367018 362.897623,239.466588 Z" fill="url(#vwiymgnmi__uh75tsfm6L)" opacity=".7"/>
  </g>
</svg>
