<?xml version="1.0" encoding="utf-8"?>
<!-- Generator: Adobe Illustrator 21.0.0, SVG Export Plug-In . SVG Version: 6.00 Build 0)  -->
<svg version="1.1" id="图层_1" xmlns="http://www.w3.org/2000/svg" xmlns:xlink="http://www.w3.org/1999/xlink" x="0px" y="0px"
	 viewBox="0 0 200 200" style="enable-background:new 0 0 200 200;" xml:space="preserve">
<style type="text/css">
	.st0{fill:#ffffff;}
</style>
<path class="st0" d="M101.5,131.9c3.5,0,6.2,1.1,8.3,3.2c2.2,2,3.3,4.8,3.3,8.2c0,3.3-1.1,6.1-3.3,8.4c-2.3,2.1-5.2,3.2-8.3,3.2
	c-3,0-5.9-1.2-8-3.4c-2.3-2.1-3.5-5.1-3.5-8.2c0-3.4,1.2-6.2,3.5-8.2C95.6,132.9,98.3,131.9,101.5,131.9z M167.9,170.6
	C151.7,189,128.2,200,102.4,200c-30.9,0-58.1-15.4-73.5-39.7c2.9-2.2,6.6-6.6,9.6-13.2c12.5,22.8,36.8,37.5,64,37.5
	c16.9,0,31.6-5.1,44.1-14.7L167.9,170.6L167.9,170.6z M177.4,157.4l-11-11c5.9-10.3,8.8-22.8,8.8-35.3c0-33.8-22.8-62.5-54.4-70.6
	l11.8-11.8c33.1,12.5,57.4,44.9,57.4,82.4C190.7,128.7,186.3,144.1,177.4,157.4L177.4,157.4z M17.2,133.8
	c-1.5-7.4-2.9-14.7-2.9-22.1c0-46.3,35.3-83.8,80.9-88.2l-7.4,7.4l7.4,7.4c-37.5,3.7-66.2,35.3-66.2,73.5c0,7.4,1.5,15.4,3.7,22.1
	H17.2z M87.7,0l30.9,30.9L87.7,61.8V0z M198,163.2h-44.1v-44.1L198,163.2z M14.2,185.3v-44.1h44.1L14.2,185.3z M101.9,68.7
	L101.9,68.7c-5.3,0-9.7,4.3-9.7,9.7v39c0,5.3,4.3,9.7,9.7,9.7h0c5.3,0,9.7-4.3,9.7-9.7v-39C111.5,73,107.2,68.7,101.9,68.7z"/>
</svg>
