<?xml version="1.0" encoding="UTF-8"?>
<svg width="119" height="125" viewBox="0 0 119 125" fill="none" xmlns="http://www.w3.org/2000/svg">
    <path d="M104.11 46.3345C106.222 46.3345 107.934 44.6206 107.934 42.5065C107.934 40.3923 106.222 38.6785 104.11 38.6785C101.997 38.6785 100.285 40.3923 100.285 42.5065C100.285 44.6206 101.997 46.3345 104.11 46.3345Z" fill="#EAEEF9"/>
    <path d="M2.51618 67.0356C3.90582 67.0356 5.03235 65.9081 5.03235 64.5172C5.03235 63.1263 3.90582 61.9988 2.51618 61.9988C1.12653 61.9988 0 63.1263 0 64.5172C0 65.9081 1.12653 67.0356 2.51618 67.0356Z" fill="#EAEEF9"/>
    <path d="M14.0826 112.312C15.4722 112.312 16.5988 111.185 16.5988 109.794C16.5988 108.403 15.4722 107.276 14.0826 107.276C12.6929 107.276 11.5664 108.403 11.5664 109.794C11.5664 111.185 12.6929 112.312 14.0826 112.312Z" fill="#EAEEF9"/>
    <path d="M27.5325 112.312L62.8415 101.248V55.8867L27.5325 66.8654V112.312Z" fill="#F1F3F9" stroke="#D6DCE8" stroke-width="2" stroke-miterlimit="10" stroke-linejoin="round"/>
    <path d="M98.1504 112.312L62.8414 101.248V55.8867L98.1504 66.8654V112.312Z" fill="#F1F3F9" stroke="#D6DCE8" stroke-width="2" stroke-miterlimit="10" stroke-linejoin="round"/>
    <path d="M62.8415 123.461L27.5325 112.397V67.0356L62.8415 78.0995V123.461Z" fill="white" stroke="#D6DCE8" stroke-width="2" stroke-miterlimit="10" stroke-linejoin="round"/>
    <path d="M62.8414 123.461L98.1504 112.397V67.0356L62.8414 78.0995V123.461Z" fill="white" stroke="#D6DCE8" stroke-width="2" stroke-miterlimit="10" stroke-linejoin="round"/>
    <path d="M62.8414 55.8867L46.2403 43.4612L10.3414 55.5463L27.5324 66.8654L62.8414 55.8867Z" fill="#F1F3F9" stroke="#D6DCE8" stroke-width="2" stroke-miterlimit="10" stroke-linejoin="round"/>
    <path d="M62.8414 55.8867L79.4426 43.4612L115.341 55.5463L98.1504 66.8654L62.8414 55.8867Z" fill="#F1F3F9" stroke="#D6DCE8" stroke-width="2" stroke-miterlimit="10" stroke-linejoin="round"/>
    <path d="M27.5324 67.0356L62.8414 78.0995L45.2291 89.3335L10.3414 77.759L27.5324 67.0356Z" fill="#F1F3F9" stroke="#D6DCE8" stroke-width="2" stroke-miterlimit="10" stroke-linejoin="round"/>
    <path d="M98.1504 67.0356L62.8414 78.0995L80.4538 89.3335L115.341 77.759L98.1504 67.0356Z" fill="#F1F3F9" stroke="#D6DCE8" stroke-width="2" stroke-miterlimit="10" stroke-linejoin="round"/>
    <path d="M72.6929 12.338C77.6395 25.7624 79.1139 28.7452 79.5978 41.9731C79.4117 44.9926 79.2963 48.276 77.8728 50.9199C75.9717 54.9643 71.3216 57.7653 66.9283 57.8107C62.4024 57.8916 57.9653 55.1204 55.9681 50.8473C54.563 48.254 54.6077 44.7067 56.5351 42.3522C58.6304 40.094 62.3166 39.531 64.9683 40.942C67.8852 42.2819 69.6262 45.0681 70.2711 48.0064C70.916 50.9448 70.6326 54.1317 69.8455 57.0294C68.1992 64.0768 66.8357 64.4178 62.7984 76.3495" stroke="#C9D4E2" stroke-width="2" stroke-miterlimit="10" stroke-dasharray="4 4"/>
    <path d="M78.7131 5.23251C78.7016 7.20649 76.8646 8.41518 74.5351 7.78489C72.0823 7.36678 70.3464 6.93586 70.2347 5.17406C70.2909 3.36726 72.2622 2.66011 74.5696 1.86297C77.3361 0.763646 78.5566 3.30354 78.7131 5.23251Z" fill="#F1F3F9" stroke="#D6DCE8" stroke-width="2" stroke-miterlimit="10" stroke-linejoin="round"/>
    <path d="M62.8641 11.2689C64.1071 12.5485 66.7278 12.9216 68.0049 10.967C69.4053 8.80026 70.6039 7.22502 69.3161 5.7782C68.0731 4.49857 66.8633 5.36009 64.0968 6.45941C61.879 7.59092 61.4083 9.86706 62.8641 11.2689Z" fill="#F1F3F9" stroke="#D6DCE8" stroke-width="2" stroke-miterlimit="10" stroke-linejoin="round"/>
    <path d="M68.5997 3.10355C69.731 2.62139 71.0862 2.97513 71.6908 3.88821C71.9484 4.17757 72.2507 4.63412 72.3403 4.96848C73.3032 7.21901 73.0004 9.45016 71.7012 9.97732C70.2786 10.7167 68.3188 9.44983 67.5687 7.32149C67.3896 6.65277 67.3001 6.31841 67.1657 5.81687C67.0203 4.60161 67.4684 3.58572 68.5997 3.10355C68.7677 3.05856 68.5997 3.10355 68.5997 3.10355Z" fill="#F1F3F9"/>
    <path d="M68.5997 3.10355C69.731 2.62139 71.0862 2.97513 71.6908 3.88821C71.9484 4.17757 72.2507 4.63412 72.3403 4.96848C73.3032 7.21901 73.0004 9.45016 71.7012 9.97732C70.2786 10.7167 68.3188 9.44983 67.5687 7.32149C67.3896 6.65277 67.3001 6.31841 67.1657 5.81687C67.0203 4.60161 67.4684 3.58572 68.5997 3.10355ZM68.5997 3.10355C68.5997 3.10355 68.7677 3.05856 68.5997 3.10355Z" stroke="#D6DCE8" stroke-width="2" stroke-miterlimit="10" stroke-linejoin="round"/>
    <path d="M16.5987 39.3314H14.4087V37.1414H12.5315V39.3314H10.3414V41.2712H12.5315V43.4612H14.4087V41.2712H16.5987V39.3314Z" fill="#AAB2C5"/>
    <path d="M21.4094 94.2787H19.2193V92.0886H17.3421V94.2787H15.1521V96.2184H17.3421V98.4085H19.2193V96.2184H21.4094V94.2787Z" fill="#AAB2C5"/>
    <path d="M117.147 94.4027L114.468 93.0498L115.82 90.3703L113.524 89.2107L112.171 91.8902L109.491 90.5373L108.293 92.9107L110.973 94.2635L109.62 96.9431L111.916 98.1027L113.269 95.4231L115.949 96.776L117.147 94.4027Z" fill="#AAB2C5"/>
</svg>
