<?xml version="1.0" encoding="UTF-8"?>
<svg width="24px" height="24px" viewBox="0 0 24 24" version="1.1" xmlns="http://www.w3.org/2000/svg" xmlns:xlink="http://www.w3.org/1999/xlink">
    <!-- Generator: Sketch 52.4 (67378) - http://www.bohemiancoding.com/sketch -->
    <title>分组</title>
    <desc>Created with Sketch.</desc>
    <g id="Icons" stroke="none" stroke-width="1" fill="none" fill-rule="evenodd">
        <g id="Other-Copy" transform="translate(-171.000000, -331.000000)">
            <g id="分组" transform="translate(171.000000, 331.000000)">
                <circle id="椭圆形" fill="#4CD3B4" cx="12" cy="12" r="12"></circle>
                <path d="M17.4,17 L6.6,17 C6.26862915,17 6,16.720178 6,16.375 L6,9.5 C6,9.15482203 6.26862915,8.875 6.6,8.875 L7.8,8.875 C8.13137085,8.875 8.4,9.15482203 8.4,9.5 C8.4,9.84517797 8.13137085,10.125 7.8,10.125 L7.2,10.125 L7.2,15.75 L16.8,15.75 L16.8,10.125 L16.2,10.125 C15.8686292,10.125 15.6,9.84517797 15.6,9.5 C15.6,9.15482203 15.8686292,8.875 16.2,8.875 L17.4,8.875 C17.7313708,8.875 18,9.15482203 18,9.5 L18,16.375 C18,16.720178 17.7313708,17 17.4,17 Z M11.4,12.375 L11.4,7.625 C11.4,7.27982203 11.6686292,7 12,7 C12.3313708,7 12.6,7.27982203 12.6,7.625 L12.6,12.3625 L13.368,11.5625 C13.6060562,11.3501395 13.9609165,11.3644173 14.1825379,11.595273 C14.4041594,11.8261286 14.4178661,12.1957748 14.214,12.44375 L12.48,14.25 C12.366812,14.4075342 12.188899,14.5001972 12,14.5 C11.8405054,14.5010296 11.687194,14.4358003 11.574,14.31875 L9.774,12.44375 C9.57013392,12.1957748 9.58384064,11.8261286 9.80546207,11.595273 C10.0270835,11.3644173 10.3819438,11.3501395 10.62,11.5625 L11.4,12.375 Z" id="形状" fill="#FFFFFF" fill-rule="nonzero"></path>
            </g>
        </g>
    </g>
</svg>