<?xml version="1.0" encoding="UTF-8"?>
<svg width="14px" height="14px" viewBox="0 0 14 14" version="1.1" xmlns="http://www.w3.org/2000/svg" xmlns:xlink="http://www.w3.org/1999/xlink">
    <title>恢复文件</title>
    <g id="2023修改" stroke="none" stroke-width="1" fill="none" fill-rule="evenodd">
        <g id="用户管理" transform="translate(-1266.000000, -718.000000)" fill="#666666" fill-rule="nonzero">
            <g id="恢复文件2" transform="translate(1259.000000, 711.000000)">
                <g id="恢复文件" transform="translate(7.000000, 7.000000)">
                    <path d="M6.5299442,12.7425563 L3.86695133,12.7425563 C3.60040018,12.74337 3.37812227,12.5485618 3.35679944,12.2954503 L2.73441413,3.3047331 L10.8968444,3.3047331 L10.7029867,6.22064139 C10.6854112,6.48567248 10.8944107,6.71506876 11.1723264,6.73578519 C11.3090426,6.74944168 11.4454895,6.70773321 11.5483396,6.62084717 C11.6511897,6.53396114 11.7109731,6.40989766 11.7130874,6.27895955 L11.9273512,3.36305127 L13.1211066,3.36305127 C13.4028557,3.36305127 13.6312585,3.1454685 13.6312585,2.87706656 C13.6312585,2.60866461 13.4028557,2.39108184 13.1211066,2.39108184 L9.81532238,2.39108184 L9.70308896,1.41911241 C9.68108905,0.632889622 9.00843334,0.00500111879 8.18283633,1.84328961e-05 L5.46882827,1.84328961e-05 C4.67991194,-0.00372920856 4.01725531,0.564409212 3.9383726,1.31219578 L3.82613918,2.28416521 L0.510151891,2.28416521 C0.228402781,2.28416521 0,2.50174797 0,2.77014992 C0,3.03855187 0.228402781,3.25613463 0.510151891,3.25613463 L1.70390732,3.25613463 L2.33649566,12.30517 C2.3951311,13.0699902 3.061966,13.6628857 3.86695133,13.6659272 L6.5299442,13.6659272 C6.81169331,13.6659272 7.04009609,13.4483444 7.04009609,13.1799425 C7.01380185,12.9306803 6.79291631,12.7413008 6.5299442,12.7425563 Z M4.95867638,1.40939272 C4.97997551,1.16165108 5.19769454,0.971176981 5.45862523,0.972003778 L8.18283633,0.972003778 C8.44376702,0.971176981 8.66148605,1.16165108 8.68278518,1.40939272 L8.78481556,2.33276368 L4.86684904,2.33276368 L4.95867638,1.40939272 Z" id="形状"></path>
                    <path d="M13.7945071,9.79748888 C13.4849512,9.00460192 12.8572861,8.36142661 12.0497191,8.00958556 C11.2421522,7.65774452 10.3209034,7.62608848 9.48882517,7.92158789 C9.1546913,8.04326217 8.84430721,8.21738508 8.57055176,8.43673169 L8.57055176,7.91186819 C8.57328501,7.78296965 8.5221412,7.65831868 8.42837686,7.56535037 C8.33461251,7.47238206 8.20591244,7.41871599 8.07060291,7.41616379 L8.01958772,7.41616379 C7.73783861,7.41616379 7.50943583,7.63374655 7.50943583,7.9021485 L7.50943583,9.84608736 C7.49877969,9.90722691 7.49877969,9.96962199 7.50943583,10.0307615 C7.52697274,10.0750507 7.55488979,10.1149425 7.59106013,10.1473979 C7.6341701,10.1966074 7.69064037,10.2335915 7.75430874,10.2543145 L9.98877402,10.2543145 C10.2682439,10.2491435 10.4934978,10.0345604 10.4989259,9.7683298 C10.4989259,9.49992786 10.2705231,9.28234509 9.98877402,9.28234509 L8.97867328,9.28234509 C9.22211617,9.04223891 9.51826831,8.85636986 9.84593149,8.73804221 C10.6223579,8.46197747 11.4944082,8.60147911 12.1335894,9.10399821 C12.7727707,9.60651731 13.0819761,10.3957093 12.9447309,11.1742931 C12.8074858,11.9528769 12.2446409,12.6025673 11.4682145,12.878632 C10.2680606,13.3053446 8.93161656,12.7274376 8.47872442,11.5859126 C8.37749585,11.3411774 8.09023434,11.2175927 7.8305685,11.3070651 C7.57090265,11.3965375 7.43309922,11.6665857 7.51963887,11.9163822 C8.0078325,13.1629788 9.25529449,13.9913516 10.6519715,13.9963968 C11.0490648,14.0143694 11.4463525,13.9650042 11.8253208,13.8506014 C13.5490091,13.2322449 14.427725,11.4062634 13.7945071,9.75861011 L13.7945071,9.79748888 Z" id="路径"></path>
                </g>
            </g>
        </g>
    </g>
</svg>