<?xml version="1.0" encoding="UTF-8"?>
<svg width="35px" height="36px" viewBox="0 0 35 36" version="1.1" xmlns="http://www.w3.org/2000/svg" xmlns:xlink="http://www.w3.org/1999/xlink">
    <!-- Generator: Sketch 61.1 (89650) - https://sketch.com -->
    <title>数据抽取</title>
    <desc>Created with Sketch.</desc>
    <g id="页面-1" stroke="none" stroke-width="1" fill="none" fill-rule="evenodd">
        <g id="数据抽取" fill-rule="nonzero">
            <path d="M30.9445623,19.3645766 C30.8279391,19.2840184 30.6961764,19.230162 30.5580127,19.206579 L30.5580127,6.70744531 C30.5729355,5.74540259 30.0878685,4.84972355 29.288979,4.36416724 C28.4900894,3.87861092 27.5014889,3.87861092 26.7025994,4.36416724 C25.9037098,4.84972355 25.4186428,5.74540259 25.4335656,6.70744531 L25.4335656,16.8643341 C25.0663435,16.7583094 24.6971221,16.6564425 24.3152378,16.5621984 C24.2117658,16.5386685 24.1053289,16.5325851 24,16.5441811 L24,18.6230967 C24.3998788,18.7201128 24.7890942,18.8240586 25.1676462,18.937706 C25.2543728,18.9633885 25.344058,18.9766769 25.4342321,18.9772054 L25.4342321,26.6130625 C25.4193093,27.5751052 25.9043763,28.4707842 26.7032658,28.9563405 C27.5021553,29.4418969 28.4907559,29.4418969 29.2896454,28.9563405 C30.0885349,28.4707842 30.573602,27.5751052 30.5586792,26.6130625 L30.5586792,21.6319806 C32.1408664,22.9195224 33.0012723,24.4087189 33.0012723,25.8909858 C33.0012723,27.7682466 32.1096637,29.1667161 31,30.0689655 C30.5649315,30.4227881 30.0567731,31.1483551 30.3970615,31.6007275 C30.7373499,32.0531 31.3659009,32.1329904 31.8009694,31.7791678 C33.894335,30.0758429 35,28.0371197 35,25.8889068 C35,23.4794436 33.5597698,21.1607597 30.9445623,19.3645766 L30.9445623,19.3645766 Z M28.5586186,26.6144484 C28.565698,26.8283281 28.4599985,27.029188 28.2829447,27.1383095 C28.1058909,27.2474309 27.8856874,27.2474309 27.7086336,27.1383095 C27.5315798,27.029188 27.4258803,26.8283281 27.4329597,26.6144484 L27.4329597,6.70744531 C27.4258803,6.49356557 27.5315798,6.29270567 27.7086336,6.18358422 C27.8856874,6.07446278 28.1058909,6.07446278 28.2829447,6.18358422 C28.4599985,6.29270567 28.565698,6.49356557 28.5586186,6.70744531 L28.5586186,26.6144484 Z" id="形状" fill="#FFFFFF"></path>
            <path d="M16.8524147,16.282133 C16.8299389,16.282133 16.8087473,16.2875399 16.7881979,16.2888916 L16.7881979,2.64058679 C16.8025767,1.70230106 16.3351933,0.828740207 15.5654282,0.355174374 C14.7956631,-0.118391458 13.8431031,-0.118391458 13.073338,0.355174374 C12.3035728,0.828740207 11.8361895,1.70230106 11.8505682,2.64058679 L11.8505682,16.7113038 C11.3368338,16.8025448 10.8230994,16.9140616 10.3209241,17.032337 L10.3209241,14.1842654 C10.3209241,13.2558467 9.85030942,12.3979524 9.08635609,11.933743 C8.32240276,11.4695336 7.38117344,11.4695336 6.61722011,11.933743 C5.85326678,12.3979524 5.38265213,13.2558467 5.38265215,14.1842654 L5.38265215,18.9287985 C5.28756929,18.9463502 5.19555514,18.9789345 5.10973075,19.0254464 C4.62321744,19.2975514 4.15155657,19.598103 3.69696116,19.9256911 L3.69375032,19.9290704 C1.27727215,21.6802221 0,23.8287792 0,26.1429218 C0,31.6694241 7.4022705,35.9998316 16.8517726,35.9998316 C19.0019401,36.0073023 21.1463904,35.766149 23.2464815,35.2805409 C23.7657031,35.1584827 24.0926002,34.6165394 23.9766265,34.0700767 C23.8606528,33.5236141 23.3457253,33.1795664 22.8265036,33.3016246 C20.8651618,33.7548961 18.8623977,33.9797323 16.8543413,33.9720771 C8.76302449,33.9720771 1.92907266,30.3900223 1.92907266,26.1429218 C1.92907266,24.0984471 3.48633006,22.541267 4.79314193,21.5950638 C4.98022687,21.4598919 5.17630217,21.3265224 5.38136782,21.1949551 L5.38136782,26.8478431 C5.38136782,28.2830541 6.48683764,29.4465225 7.85050377,29.4465225 C9.2141699,29.4465225 10.3196397,28.2830541 10.3196397,26.8478431 L10.3196397,19.007874 C10.3814972,19.0261651 10.4449774,19.0377154 10.5090793,19.0423428 C10.5821183,19.0424127 10.6549311,19.0337972 10.7261321,19.0166602 C11.0987021,18.9287533 11.4731901,18.8501065 11.8492839,18.7807853 L11.8492839,26.843788 C11.8349051,27.7820737 12.3022885,28.6556345 13.0720536,29.1292004 C13.8418187,29.6027662 14.7943788,29.6027662 15.5641439,29.1292004 C16.333909,28.6556345 16.8012924,27.7820737 16.7869136,26.843788 L16.7869136,18.3022768 C16.8093895,18.3022768 16.830581,18.3097113 16.8511304,18.3097113 C17.2948685,18.3097113 17.7321849,18.3239043 18.1662905,18.3441801 L18.1662905,16.3166019 C17.7286062,16.2955308 17.290553,16.2840387 16.8524147,16.282133 L16.8524147,16.282133 Z M8.39249355,26.843788 C8.39249355,27.1591985 8.14954895,27.4148892 7.8498616,27.4148892 C7.55017424,27.4148892 7.30722964,27.1591985 7.30722964,26.843788 L7.30722964,14.1869689 C7.30722964,13.8715584 7.55017424,13.6158677 7.8498616,13.6158677 C8.14954895,13.6158677 8.39249355,13.8715584 8.39249355,14.1869689 L8.39249355,26.843788 Z M14.8597675,26.843788 C14.8665888,27.0523861 14.7647427,27.2482859 14.5941436,27.3547127 C14.4235445,27.4611394 14.2113687,27.4611394 14.0407696,27.3547127 C13.8701705,27.2482859 13.7683244,27.0523861 13.7751457,26.843788 L13.7751457,2.64058679 C13.7683244,2.43198866 13.8701705,2.23608886 14.0407696,2.12966209 C14.2113687,2.02323532 14.4235445,2.02323532 14.5941436,2.12966209 C14.7647427,2.23608886 14.8665888,2.43198866 14.8597675,2.64058679 L14.8597675,26.843788 Z" id="形状" fill="#FFFFFF"></path>
            <path d="M22.9996735,13.6497147 C23.014232,12.7081855 22.5410066,11.831605 21.7616199,11.3564021 C20.9822332,10.8811993 20.0177668,10.8811993 19.2383801,11.3564021 C18.4589934,11.831605 17.985768,12.7081855 18.0003265,13.6497147 L18.0003265,26.3502853 C17.985768,27.2918145 18.4589934,28.168395 19.2383801,28.6435979 C20.0177668,29.1188007 20.9822332,29.1188007 21.7616199,28.6435979 C22.5410066,28.168395 23.014232,27.2918145 22.9996735,26.3502853 L22.9996735,13.6497147 L22.9996735,13.6497147 Z M21.0490894,26.3502853 C21.055996,26.5596045 20.9528769,26.7561815 20.7801454,26.8629762 C20.6074139,26.9697708 20.3925861,26.9697708 20.2198546,26.8629762 C20.0471231,26.7561815 19.944004,26.5596045 19.9509106,26.3502853 L19.9509106,13.6497147 C19.944004,13.4403955 20.0471231,13.2438185 20.2198546,13.1370238 C20.3925861,13.0302292 20.6074139,13.0302292 20.7801454,13.1370238 C20.9528769,13.2438185 21.055996,13.4403955 21.0490894,13.6497147 L21.0490894,26.3502853 Z" id="形状" fill="#95C9FF"></path>
            <path d="M28,30 C26.8954305,30 26,30.8023571 26,31.7921147 L26,32.2078854 C26,33.197643 26.8954305,34 28,34 C29.1045695,34 30,33.197643 30,32.2078854 L30,31.7921147 C30,30.8023571 29.1045695,30 28,30 L28,30 Z" id="路径" fill="#95C9FF"></path>
        </g>
    </g>
</svg>