<?xml version="1.0" encoding="utf-8"?>
<!-- Generator: Adobe Illustrator 21.0.0, SVG Export Plug-In . SVG Version: 6.00 Build 0)  -->
<svg version="1.1" id="图层_1" xmlns="http://www.w3.org/2000/svg" xmlns:xlink="http://www.w3.org/1999/xlink" x="0px" y="0px"
	 viewBox="0 0 200 200" style="enable-background:new 0 0 200 200;" xml:space="preserve">
<style type="text/css">
	.st0{fill:#1F4268;}
</style>
<path class="st0" d="M136.7,18.7L20.2,138.3L67.2,184L183.7,64.5L136.7,18.7L136.7,18.7z M66.9,165l-27.7-27l5.5-5.6l13.7,13.3
	l9.4-9.6l-13.7-13.4l8.6-8.8l13.7,13.3l9.4-9.6l-13.7-13.3l9.7-10.1l13.7,13.3l9.4-9.6L91.2,84.6l9.7-10.1l13.7,13.3l9.4-9.6
	L110.4,65l11.3-11.6l13.7,13.3l9.4-9.6l-13.6-13.3l5.8-6l27.7,27L66.9,165L66.9,165z"/>
</svg>
