<?xml version="1.0" encoding="utf-8"?>
<!-- Generator: Adobe Illustrator 21.0.0, SVG Export Plug-In . SVG Version: 6.00 Build 0)  -->
<svg version="1.1" id="图层_1" xmlns="http://www.w3.org/2000/svg" xmlns:xlink="http://www.w3.org/1999/xlink" x="0px" y="0px"
	 viewBox="0 0 200 195.4" style="enable-background:new 0 0 200 195.4;" xml:space="preserve">
<style type="text/css">
	.st0{fill:#1F4268;}
</style>
<path class="st0" d="M115,187.5h20c3,0,5-2,5-5v-65c0-3-2-5-5-5h-20c-3,0-5,2-5,5v65C110,185.5,112.5,187.5,115,187.5z M15,187.5h20
	c3,0,5-2,5-5v-100c0-3-2-5-5-5H15c-3,0-5,2-5,5v100C10,185.5,12.5,187.5,15,187.5z M65,187.5h20c3,0,5-2,5-5v-165c0-3-2-5-5-5H65
	c-3,0-5,2-5,5v165C60,185.5,62.5,187.5,65,187.5z M185,65.5h-20c-3,0-5,2-5,5V183c0,3,2,5,5,5h20c3,0,5-2,5-5V70.5
	C190,67.5,188,65.5,185,65.5z"/>
</svg>
