<svg xmlns="http://www.w3.org/2000/svg" xmlns:xlink="http://www.w3.org/1999/xlink" viewBox="0 0 111 45" class="design-iconfont">
  <defs>
    <linearGradient x1=".75366544%" y1=".731%" x2="99.9769983%" y2="100%" id="3p6ts7n8h__g6hes4c6aa">
      <stop stop-color="#297FA9" offset="0%"/>
      <stop stop-color="#196A91" offset="100%"/>
    </linearGradient>
    <linearGradient x1="101.479483%" y1="-.5%" x2=".51972035%" y2="101.5%" id="3p6ts7n8h__flaazvnrgc">
      <stop stop-color="#25C0CA" offset="0%"/>
      <stop stop-color="#1170B4" offset="100%"/>
    </linearGradient>
    <linearGradient x1="50%" y1="0%" x2="50%" y2="100%" id="3p6ts7n8h__pyr147n5rf">
      <stop stop-color="#E4E4E4" offset="0%"/>
      <stop stop-color="#B6E0F9" offset="100%"/>
    </linearGradient>
    <radialGradient cx="0%" cy="18.822%" fx="0%" fy="18.822%" r="65.94%" gradientTransform="matrix(1 0 0 .99977 0 .0000433)" id="3p6ts7n8h__n27qb1oy4b">
      <stop stop-color="#FFF" stop-opacity=".5" offset="0%"/>
      <stop stop-opacity=".5" offset="100%"/>
    </radialGradient>
    <filter x="-27.9%" y="-10.8%" width="155.7%" height="143.3%" filterUnits="objectBoundingBox" id="3p6ts7n8h__4c5e0i7wvd">
      <feOffset dy="2" in="SourceAlpha" result="shadowOffsetOuter1"/>
      <feGaussianBlur stdDeviation="1" in="shadowOffsetOuter1" result="shadowBlurOuter1"/>
      <feColorMatrix values="0 0 0 0 0 0 0 0 0 0 0 0 0 0 0 0 0 0 0.4 0" in="shadowBlurOuter1"/>
    </filter>
    <path d="M3.88794926,12.6281721 C3.99904901,13.4282744 4.21637096,14.0261827 4.54099901,14.4218973 C5.1349762,15.1428566 6.15221634,15.5027942 7.59326138,15.5027942 C8.45604577,15.5027942 9.15678711,15.4079311 9.6954854,15.2176629 C10.7165192,14.8533887 11.2270361,14.1768795 11.2270361,13.186509 C11.2270361,12.6086574 10.9739454,12.1609037 10.4672222,11.8443321 C9.96049895,11.5353495 9.16491636,11.2621439 8.07993247,11.0247152 L6.22754739,10.6089439 C4.40659541,10.1969671 3.14764557,9.74975547 2.45123983,9.26676692 C1.27141469,8.45907562 0.681773093,7.19604158 0.681773093,5.4776648 C0.681773093,3.9094427 1.25136254,2.60683721 2.39162533,1.56930624 C3.53188812,0.531775276 5.20597165,0.0135518674 7.41550178,0.0135518674 C9.25975761,0.0135518674 10.8335804,0.501961168 12.1358862,1.48040599 C13.4381921,2.45830874 14.1210491,3.8774603 14.1844572,5.7389448 L10.6693695,5.7389448 C10.6059614,4.68569367 10.1463878,3.93708851 9.29173266,3.49367141 C8.72160126,3.20095108 8.01273067,3.05459091 7.16566283,3.05459091 C6.22375374,3.05459091 5.47152715,3.24431705 4.909525,3.62431141 C4.34698091,4.00430578 4.06625081,4.5349969 4.06625081,5.21584272 C4.06625081,5.84139692 4.34318726,6.30866531 4.8976021,6.61764788 C5.25366325,6.82363627 6.01401909,7.06485951 7.17758573,7.34240175 L10.1940794,8.06661354 C11.5164374,8.38372724 12.5136254,8.80708758 13.1867273,9.33777871 C14.2316069,10.1617322 14.7545886,11.3532124 14.7545886,12.9133034 C14.7545886,14.5129658 14.1427271,15.8415909 12.9195459,16.8986366 C11.6963648,17.9556822 9.9686282,18.484205 7.73579422,18.484205 C5.4558106,18.484205 3.66249806,17.9638133 2.35585663,16.9224878 C1.04975714,15.8811624 0.396707396,14.4495431 0.396707396,12.6281721 L3.88794926,12.6281721 L3.88794926,12.6281721 Z" id="3p6ts7n8h__ggzksi6gce"/>
  </defs>
  <g fill-rule="nonzero" fill="none">
    <g fill="#444">
      <path d="M5.22,0 C3.852,0 2.718,0.306 1.818,0.918 C0.864,1.566 0.396,2.448 0.396,3.582 C0.396,4.698 0.882,5.562 1.872,6.156 C2.268,6.372 3.24,6.714 4.824,7.218 C6.246,7.65 7.092,7.938 7.38,8.082 C8.19,8.496 8.604,9.054 8.604,9.774 C8.604,10.35 8.316,10.8 7.74,11.124 C7.164,11.448 6.39,11.628 5.418,11.628 C4.338,11.628 3.546,11.43 3.024,11.034 C2.448,10.602 2.088,9.864 1.944,8.856 L0,8.856 C0.108,10.476 0.684,11.664 1.746,12.42 C2.628,13.032 3.852,13.356 5.418,13.356 C7.038,13.356 8.298,13.032 9.198,12.384 C10.098,11.718 10.548,10.818 10.548,9.666 C10.548,8.478 9.99,7.56 8.892,6.894 C8.388,6.588 7.254,6.174 5.526,5.634 C4.32,5.274 3.582,5.004 3.294,4.842 C2.646,4.5 2.34,4.05 2.34,3.474 C2.34,2.826 2.61,2.358 3.168,2.07 C3.618,1.818 4.266,1.692 5.112,1.692 C6.084,1.692 6.804,1.872 7.308,2.25 C7.812,2.61 8.136,3.222 8.316,4.05 L10.26,4.05 C10.134,2.646 9.63,1.62 8.73,0.954 C7.884,0.306 6.714,0 5.22,0 Z" transform="translate(50 14.896)"/>
      <path d="M16.326,3.546 C14.886,3.546 13.77,4.032 12.96,5.004 C12.204,5.904 11.826,7.056 11.826,8.46 C11.826,9.9 12.204,11.052 12.978,11.952 C13.77,12.888 14.868,13.356 16.29,13.356 C17.478,13.356 18.45,13.05 19.17,12.456 C19.89,11.844 20.376,10.908 20.592,9.666 L18.702,9.666 C18.522,11.07 17.73,11.79 16.308,11.79 C15.48,11.79 14.868,11.484 14.454,10.908 C14.004,10.314 13.788,9.486 13.788,8.442 C13.788,7.398 14.004,6.57 14.472,5.994 C14.922,5.4 15.534,5.112 16.326,5.112 C16.974,5.112 17.496,5.256 17.892,5.562 C18.288,5.85 18.54,6.318 18.666,6.948 L20.556,6.948 C20.376,5.796 19.908,4.932 19.188,4.356 C18.468,3.816 17.514,3.546 16.326,3.546 Z" transform="translate(50 14.896)"/>
      <path d="M26.55,3.546 C25.974,3.546 25.47,3.708 25.038,4.068 C24.678,4.32 24.372,4.698 24.138,5.202 L24.138,3.798 L22.23,3.798 L22.23,13.104 L24.138,13.104 L24.138,8.172 C24.138,7.362 24.372,6.696 24.858,6.192 C25.308,5.724 25.83,5.49 26.406,5.49 C26.838,5.49 27.288,5.544 27.756,5.688 L27.756,3.78 C27.432,3.618 27.018,3.546 26.55,3.546 Z" transform="translate(50 14.896)"/>
      <path d="M30.276,0.072 C29.898,0.072 29.592,0.18 29.34,0.432 C29.088,0.666 28.962,0.972 28.962,1.35 C28.962,1.71 29.088,2.034 29.34,2.286 C29.592,2.52 29.898,2.646 30.276,2.646 C30.636,2.646 30.96,2.52 31.212,2.286 C31.464,2.034 31.608,1.728 31.608,1.35 C31.608,0.972 31.482,0.666 31.23,0.432 C30.978,0.18 30.654,0.072 30.276,0.072 Z M29.322,3.798 L29.322,13.104 L31.23,13.104 L31.23,3.798 L29.322,3.798 Z" transform="translate(50 14.896)"/>
      <path d="M33.804,0 L33.804,13.104 L35.586,13.104 L35.586,11.988 C36.234,12.888 37.188,13.356 38.466,13.356 C39.834,13.356 40.896,12.87 41.688,11.898 C42.408,10.998 42.768,9.828 42.768,8.406 C42.768,7.038 42.408,5.904 41.706,5.004 C40.932,4.032 39.888,3.546 38.556,3.546 C37.404,3.546 36.468,4.086 35.712,5.184 L35.712,0 L33.804,0 Z M38.124,5.094 C39.06,5.094 39.762,5.4 40.212,6.048 C40.608,6.588 40.806,7.38 40.806,8.406 C40.806,9.432 40.608,10.224 40.248,10.8 C39.798,11.466 39.114,11.808 38.178,11.808 C37.35,11.808 36.702,11.466 36.252,10.818 C35.856,10.224 35.658,9.468 35.658,8.532 L35.658,8.37 C35.658,7.362 35.892,6.552 36.396,5.94 C36.828,5.364 37.404,5.094 38.124,5.094 Z" transform="translate(50 14.896)"/>
      <path d="M48.51,3.546 C47.142,3.546 46.044,4.014 45.252,4.968 C44.424,5.904 44.028,7.056 44.028,8.442 C44.028,9.972 44.46,11.178 45.324,12.078 C46.116,12.924 47.214,13.356 48.582,13.356 C49.824,13.356 50.85,12.996 51.66,12.294 C52.308,11.718 52.722,10.98 52.938,10.116 L51.03,10.116 C50.778,10.656 50.508,11.07 50.184,11.322 C49.77,11.628 49.23,11.79 48.564,11.79 C47.808,11.79 47.214,11.538 46.782,11.07 C46.35,10.584 46.116,9.882 46.044,8.982 L53.1,8.982 C53.082,7.326 52.704,6.03 51.984,5.094 C51.192,4.05 50.022,3.546 48.51,3.546 Z M48.564,5.112 C50.076,5.112 50.922,5.922 51.102,7.542 L46.08,7.542 C46.188,6.75 46.458,6.156 46.854,5.742 C47.286,5.31 47.844,5.112 48.564,5.112 Z" transform="translate(50 14.896)"/>
      <path d="M59.04,3.546 C58.464,3.546 57.96,3.708 57.528,4.068 C57.168,4.32 56.862,4.698 56.628,5.202 L56.628,3.798 L54.72,3.798 L54.72,13.104 L56.628,13.104 L56.628,8.172 C56.628,7.362 56.862,6.696 57.348,6.192 C57.798,5.724 58.32,5.49 58.896,5.49 C59.328,5.49 59.778,5.544 60.246,5.688 L60.246,3.78 C59.922,3.618 59.508,3.546 59.04,3.546 Z" transform="translate(50 14.896)"/>
    </g>
    <rect x=".3967074" y=".39679868" width="31.7241268" height="31.7314265" rx="3.5" fill="url(#3p6ts7n8h__g6hes4c6aa)" transform="rotate(-30 30.33030712 8.12698194)"/>
    <rect width="31.7241268" height="31.7314265" rx="3.5" transform="rotate(-30 30.87239063 7.1883171)" fill="url(#3p6ts7n8h__n27qb1oy4b)" fill-opacity=".8"/>
    <path d="M9.85033073,6.1948156 L34.5749466,6.19339336 C36.5079432,6.19287956 38.0750367,7.7597928 38.0751479,9.69278942 C38.0751479,9.69292363 38.0751479,9.69305783 38.0747453,9.69319202 L38.0733229,34.4241295 C38.0728091,36.3569689 36.505961,37.923817 34.5731217,37.9243308 L9.84850583,37.9257531 C7.91550923,37.9262669 6.34841572,36.3593536 6.34830453,34.426357 C6.34830452,34.4262228 6.34830452,34.4260886 6.34870713,34.4259544 L6.35012945,9.69501692 C6.35064326,7.76217756 7.91749137,6.19532943 9.85033073,6.1948156 Z" fill-opacity=".9" fill="url(#3p6ts7n8h__flaazvnrgc)" transform="rotate(-15 22.77702101 22.1339955)"/>
    <g transform="translate(14.624094 12.992957)">
      <use fill="#000" filter="url(#3p6ts7n8h__4c5e0i7wvd)" xlink:href="#3p6ts7n8h__ggzksi6gce"/>
      <use fill="url(#3p6ts7n8h__pyr147n5rf)" xlink:href="#3p6ts7n8h__ggzksi6gce"/>
    </g>
  </g>
</svg>
