<svg id="图层_1" data-name="图层 1" xmlns="http://www.w3.org/2000/svg" viewBox="0 0 39.17 39"><defs><style>.cls-1{fill:#0f4068;}</style></defs><title>3</title><rect class="cls-1" x="19.75" width="11.75" height="3.17"/><rect class="cls-1" x="16.83" y="4" width="12.33" height="3"/><rect class="cls-1" x="14.33" y="8" width="14.83" height="3.17"/><rect class="cls-1" y="36" width="39.17" height="3"/><path class="cls-1" d="M11.84,13.41V38.24H32.67V13.41Zm5.91,22.8H15.51v-2.7h2.24Zm0-4.47H15.51V29h2.24Zm0-4.57H15.51V24.48h2.24Zm0-4.4H15.51v-2.7h2.24Zm0-4.41H15.51v-2.7h2.24Zm3.93,17.85H19.44v-2.7h2.24Zm0-4.47H19.44V29h2.24Zm0-4.57H19.44V24.48h2.24Zm0-4.4H19.44v-2.7h2.24Zm0-4.41H19.44v-2.7h2.24Zm4,17.85H23.44v-2.7h2.24Zm0-4.47H23.44V29h2.24Zm0-4.57H23.44V24.48h2.24Zm0-4.4H23.44v-2.7h2.24Zm0-4.41H23.44v-2.7h2.24ZM29.5,36.21H27.26v-2.7H29.5Zm0-4.47H27.26V29H29.5Zm0-4.57H27.26V24.48H29.5Zm0-4.4H27.26v-2.7H29.5Zm0-4.41H27.26v-2.7H29.5Z" transform="translate(-1.17 -1.5)"/></svg>