<?xml version="1.0" encoding="utf-8"?>
<!-- Generator: Adobe Illustrator 21.0.0, SVG Export Plug-In . SVG Version: 6.00 Build 0)  -->
<svg version="1.1" id="Layer_1" xmlns="http://www.w3.org/2000/svg" xmlns:xlink="http://www.w3.org/1999/xlink" x="0px" y="0px"
	 viewBox="0 0 66 66" style="enable-background:new 0 0 66 66;" xml:space="preserve">
<style type="text/css">
	.st0{fill:none;}
	.st1{fill:#AACE5A;}
	.st2{fill:#FFFFFF;}
</style>
<path class="st0" d="M0,0"/>
<circle class="st1" cx="33" cy="33" r="32.2"/>
<path class="st2" d="M38,33h-3.6v-3.6c0-0.5-0.4-0.9-0.9-0.9h-0.9c-0.5,0-0.9,0.4-0.9,0.9V33H28c-0.5,0-0.9,0.4-0.9,0.9v0.9
	c0,0.5,0.4,0.9,0.9,0.9h3.6v3.6c0,0.5,0.4,0.9,0.9,0.9h0.9c0.5,0,0.9-0.4,0.9-0.9v-3.6H38c0.5,0,0.9-0.4,0.9-0.9v-0.9
	C38.9,33.4,38.5,33,38,33z M45.2,22.1H32.5l-1.4-2.1c-0.2-0.4-0.6-0.6-1-0.6H17.9c-0.4,0-0.7,0.3-0.7,0.6v4.7c0,0.6,0,1,0,1V43
	c0,2,1.6,3.6,3.6,3.6h24.4c2,0,3.6-1.6,3.6-3.6V25.8C48.8,23.8,47.2,22.1,45.2,22.1z M45.2,42c0,0.5-0.4,0.9-0.9,0.9H21.7
	c-0.5,0-0.9-0.4-0.9-0.9V26.7c0-0.5,0.4-0.9,0.9-0.9h22.6c0.5,0,0.9,0.4,0.9,0.9L45.2,42L45.2,42z"/>
</svg>
