<?xml version="1.0" encoding="UTF-8"?>
<svg width="142px" height="102px" viewBox="0 0 142 102" version="1.1" xmlns="http://www.w3.org/2000/svg" xmlns:xlink="http://www.w3.org/1999/xlink">
    <title>Settings_Outline</title>
    <g id="2023.6" stroke="none" stroke-width="1" fill="none" fill-rule="evenodd">
        <g id="Schema管理-列表3" transform="translate(-972.000000, -340.000000)" fill-rule="nonzero">
            <g id="编组-19备份" transform="translate(744.000000, 60.000000)">
                <g id="Settings_Outline" transform="translate(228.000000, 280.000000)">
                    <rect id="矩形" fill="#FFFFFF" x="0.674654837" y="0.676211757" width="128.10346" height="87.7452376"></rect>
                    <path d="M128.778115,89.0976612 L0.674654837,89.0976612 C0.302053259,89.0976612 0,88.7949108 0,88.4214494 L0,0.676211757 C0,0.302750316 0.302053259,0 0.674654837,0 L128.778115,0 C129.150717,0 129.45277,0.302750316 129.45277,0.676211757 L129.45277,88.4214494 C129.45277,88.7949108 129.150717,89.0976612 128.778115,89.0976612 Z M1.34930967,87.7452376 L128.10346,87.7452376 L128.10346,1.35242351 L1.34930967,1.35242351 L1.34930967,87.7452376 Z" id="形状" fill="#093F68"></path>
                    <rect id="矩形" fill="#3FC8E8" x="0.674654837" y="0.676211757" width="128.10346" height="11.5294105"></rect>
                    <path d="M128.778115,12.8750719 L0.674654837,12.8750719 C0.302053259,12.8750719 0,12.5723215 0,12.1988601 L0,0.703260228 C0,0.329798786 0.302053259,0.0270484703 0.674654837,0.0270484703 L128.778115,0.0270484703 C129.150717,0.0270484703 129.45277,0.329798786 129.45277,0.703260228 L129.45277,12.1988601 C129.45277,12.5723215 129.150717,12.8750719 128.778115,12.8750719 Z M1.34930967,11.5226483 L128.10346,11.5226483 L128.10346,1.37947199 L1.34930967,1.37947199 L1.34930967,11.5226483 Z" id="形状" fill="#093F68"></path>
                    <ellipse id="椭圆形" fill="#F56132" cx="11.1385514" cy="6.43753593" rx="1.90252664" ry="1.90691716"></ellipse>
                    <path d="M11.1385514,9.0207003 C9.71699357,9.01320485 8.56992325,7.85341619 8.57486264,6.42856696 C8.57983403,5.00371772 9.73494349,3.85197266 11.1565186,3.85444234 C12.5780938,3.85691997 13.7292259,5.01267804 13.7292259,6.43753593 C13.7292259,7.12497399 13.4558602,7.78406083 12.9696227,8.26888212 C12.4833852,8.75370341 11.8243973,9.024264 11.1385514,9.0207003 Z M11.1385514,5.20681193 C10.4622228,5.21428032 9.9192639,5.76854093 9.92420543,6.44645311 C9.92914696,7.12436529 10.4801279,7.67061496 11.1564928,7.66816719 C11.8328578,7.66570292 12.3798754,7.1154662 12.3799163,6.43753593 C12.3781318,6.10933761 12.2463419,5.79529249 12.0135398,5.5644894 C11.7807376,5.33368631 11.465994,5.2050322 11.1385514,5.20681193 L11.1385514,5.20681193 Z" id="形状" fill="#093F68"></path>
                    <ellipse id="椭圆形" fill="#FFBC0E" cx="18.343865" cy="6.43753593" rx="1.90252664" ry="1.90691716"></ellipse>
                    <path d="M18.343865,9.02066484 C16.920527,9.02066484 15.7666835,7.86415864 15.7666835,6.43753593 C15.7666835,5.01091322 16.920527,3.85440702 18.343865,3.85440702 C19.7672031,3.85440702 20.9210465,5.01091322 20.9210465,6.43753593 C20.9173391,7.86261658 19.7656645,9.01694884 18.343865,9.02066484 L18.343865,9.02066484 Z M18.343865,5.20683053 C17.8472372,5.20683053 17.3995106,5.50668228 17.2094594,5.96656536 C17.0194082,6.42644845 17.1244597,6.95579679 17.4756285,7.30777606 C17.8267974,7.65975534 18.354927,7.76504927 18.8137512,7.57455946 C19.2725755,7.38406965 19.5717368,6.9353098 19.5717368,6.43753593 C19.5680495,5.75937285 19.0204667,5.21052633 18.343865,5.20683053 L18.343865,5.20683053 Z" id="形状" fill="#093F68"></path>
                    <ellipse id="椭圆形" fill="#70CC40" cx="25.5491787" cy="6.43753593" rx="1.90252664" ry="1.90691716"></ellipse>
                    <path d="M25.5491787,9.02066484 C24.1258407,9.02066484 22.9719972,7.86415864 22.9719972,6.43753593 C22.9719972,5.01091322 24.1258407,3.85440702 25.5491787,3.85440702 C26.9725167,3.85440702 28.1263602,5.01091322 28.1263602,6.43753593 C28.1263602,7.86415864 26.9725167,9.02066484 25.5491787,9.02066484 Z M25.5491787,5.20683053 C25.0525509,5.20683053 24.6048243,5.50668228 24.4147731,5.96656536 C24.2247218,6.42644845 24.3297733,6.95579679 24.6809422,7.30777606 C25.0321111,7.65975534 25.5602406,7.76504927 26.0190649,7.57455946 C26.4778891,7.38406965 26.7770505,6.9353098 26.7770505,6.43753593 C26.7770505,5.75783611 26.2273136,5.20683053 25.5491787,5.20683053 Z" id="形状" fill="#093F68"></path>
                    <rect id="矩形" fill="#093F68" x="11.1385514" y="20.5500753" width="48.6965862" height="4.44271125"></rect>
                    <path d="M59.8351375,25.6689983 L11.1385514,25.6689983 C10.7659498,25.6689983 10.4638965,25.366248 10.4638965,24.9927866 L10.4638965,20.5568374 C10.4638965,20.183376 10.7659498,19.8806257 11.1385514,19.8806257 L59.8351375,19.8806257 C60.2077391,19.8806257 60.5097924,20.183376 60.5097924,20.5568374 L60.5097924,24.9995487 C60.5060925,25.3703667 60.2051202,25.6689983 59.8351375,25.6689983 Z M11.8132062,24.3165748 L59.1604827,24.3165748 L59.1604827,21.2330492 L11.8132062,21.2330492 L11.8132062,24.3165748 Z" id="形状" fill="#093F68"></path>
                    <rect id="矩形" fill="#093F68" x="11.1385514" y="31.288318" width="48.6965862" height="4.44271125"></rect>
                    <path d="M59.8351375,36.407241 L11.1385514,36.407241 C10.7659498,36.407241 10.4638965,36.1044907 10.4638965,35.7310293 L10.4638965,31.288318 C10.4638965,30.9148566 10.7659498,30.6121063 11.1385514,30.6121063 L59.8351375,30.6121063 C60.2077391,30.6121063 60.5097924,30.9148566 60.5097924,31.288318 L60.5097924,35.7310293 C60.5097924,36.1044907 60.2077391,36.407241 59.8351375,36.407241 Z M11.8132062,35.0548175 L59.1604827,35.0548175 L59.1604827,31.9645298 L11.8132062,31.9645298 L11.8132062,35.0548175 Z" id="形状" fill="#093F68"></path>
                    <rect id="矩形" fill="#093F68" x="11.1385514" y="42.0265607" width="20.4218019" height="4.44271125"></rect>
                    <path d="M31.5603533,47.1522458 L11.1385514,47.1522458 C10.7659498,47.1522458 10.4638965,46.8494955 10.4638965,46.4760341 L10.4638965,42.0265607 C10.4638965,41.6530993 10.7659498,41.350349 11.1385514,41.350349 L31.5603533,41.350349 C31.9329549,41.350349 32.2350081,41.6530993 32.2350081,42.0265607 L32.2350081,46.4760341 C32.2350081,46.8494955 31.9329549,47.1522458 31.5603533,47.1522458 Z M11.8132062,45.7998223 L30.8856984,45.7998223 L30.8856984,42.7027725 L11.8132062,42.7027725 L11.8132062,45.7998223 Z" id="形状" fill="#093F68"></path>
                    <g id="ahcQ9Z" transform="translate(22.541100, 46.505426)" fill="#3FC8E8" stroke="#093F68" stroke-linecap="round" stroke-linejoin="round" stroke-width="2.03">
                        <path d="M49.0961255,28.4594091 C49.3713953,27.1823608 48.7609892,25.878448 47.6051383,25.2744517 C46.6201423,24.7808171 45.5811738,24.3345174 44.5894312,23.9220282 C44.299862,23.8226738 44.1031082,23.5525261 44.0969332,23.2458165 C43.995735,22.3261685 43.860804,21.3997584 43.7056334,20.4801104 C43.6404758,20.2483616 43.7300526,20.0007766 43.9282695,19.8647577 C44.7918277,19.1479732 45.6621324,18.444713 46.4852113,17.6873558 C47.4584081,16.8154715 47.7193181,15.3938475 47.1193869,14.2319137 C46.444732,12.8794902 45.6486393,11.6487848 44.8930259,10.3639825 C44.1576064,8.92072042 42.4296057,8.29898099 40.9462951,8.94393779 C40.0085249,9.2955679 39.0775012,9.62014955 38.1532241,10.0191145 C37.9315806,10.1371341 37.6593557,10.0989347 37.4785692,9.92444484 C36.6869742,9.29331386 35.8796373,8.68472328 35.0565584,8.09867309 C34.8477522,7.97921122 34.7368793,7.7406911 34.7799499,7.50360674 C34.8744016,6.49605123 34.9688532,5.47497147 35.0430653,4.47417807 C35.2074589,3.01558909 34.3025963,1.64945874 32.8976629,1.23512375 C31.4134222,0.815872464 29.9224351,0.430431763 28.4247013,0.078801649 C27.1161952,-0.23121728 25.7655592,0.394021186 25.1526254,1.59351599 C24.6331411,2.62135786 24.1811224,3.6762482 23.7156106,4.72437642 C23.6385978,4.95494146 23.4251735,5.11199434 23.1826332,5.11657924 C22.2246234,5.23153524 21.2666135,5.38030183 20.3086036,5.54259265 C20.0897564,5.61018139 19.852424,5.52815377 19.7216539,5.33972912 C19.0469991,4.48094019 18.331865,3.61538914 17.5897446,2.7904108 C16.7225721,1.79439886 15.2913177,1.51584403 14.1152722,2.11419904 C12.7119902,2.86479409 11.3289477,3.66272396 9.98638462,4.52151289 C8.69871539,5.29694318 8.19416825,6.91580125 8.8124852,8.28801238 C9.18354536,9.27528155 9.57484517,10.2557886 9.93241223,11.2430578 C9.97551,11.3990173 9.95101595,11.5659612 9.86494675,11.7028818 C9.26450394,12.5481465 8.64382149,13.386649 8.01639249,14.2116274 C7.90637368,14.3349319 7.74964555,14.4061132 7.5846134,14.4077288 C6.57937769,14.3401076 5.56064889,14.245438 4.56215973,14.1507683 C3.1198216,13.9407149 1.73400526,14.7946172 1.26984412,16.1794036 C0.817825381,17.7211664 0.419779027,19.2832156 0.0622119629,20.8520268 C-0.203585113,22.1153688 0.399695989,23.4020253 1.53970606,24.0031736 C2.58542105,24.544143 3.66486879,25.003967 4.73756999,25.4840774 C4.9504873,25.5594188 5.0952494,25.7582543 5.1018836,25.9844741 C5.22332147,26.9649811 5.37174553,27.9387261 5.53366269,28.912471 C5.59411967,29.1182633 5.51504604,29.3396338 5.33801279,29.4602025 C4.54192008,30.1364143 3.75257392,30.7585291 2.97672086,31.4347408 C1.75527961,32.4037899 1.46378569,34.1421812 2.30206602,35.4582008 C2.98121856,36.6573496 3.68061074,37.8452283 4.40024257,39.0218368 C5.14947741,40.446763 6.87677256,41.0396675 8.34022682,40.3742603 C9.29823668,40.015868 10.2562466,39.6507137 11.2075099,39.2720351 C11.3891604,39.1850666 11.6058452,39.2230739 11.7472337,39.3667048 C12.4826075,39.9347226 13.2179813,40.5095026 13.9803413,41.0369478 C14.209385,41.1798752 14.3314448,41.445835 14.2906825,41.7131595 C14.1894843,42.7071908 14.1017791,43.7417948 14.0208205,44.7020155 C13.8493849,46.1152507 14.6962371,47.4535356 16.0447851,47.9004971 C17.5964912,48.3603211 19.168437,48.7660482 20.7673689,49.1244404 C22.0451691,49.3876078 23.3414483,48.7656165 23.9382467,47.602964 C24.4374912,46.6021706 24.8760169,45.5743287 25.3280356,44.5464868 C25.4182214,44.2943275 25.6484112,44.1192978 25.9149853,44.1001871 C26.8797417,43.9919932 27.8377516,43.8567508 28.7957615,43.69446 C29.0056061,43.6440356 29.2248969,43.7271295 29.3489784,43.9040856 C30.0236333,44.6952534 30.6645554,45.4728969 31.3189706,46.2640647 C31.7752321,46.8247256 32.4080075,47.2133738 33.1135524,47.3662898 C33.7646237,47.5264662 34.4521157,47.4321712 35.0363187,47.1025673 C36.3114164,46.4263555 37.5595278,45.648712 38.8211324,44.9116412 C40.3136198,44.168828 40.9447443,42.3700197 40.2446541,40.8543706 C39.9005801,39.9144363 39.5699992,38.9812641 39.1719529,38.0480918 C39.0787,37.8546707 39.1135334,37.6237024 39.259658,37.4665497 C39.8668474,36.6956683 40.4582948,35.9090086 41.0340002,35.1065707 C41.1610968,34.8992088 41.4024581,34.7916896 41.6411896,34.836086 C42.6464253,34.9442799 43.6651541,35.0321874 44.6636433,35.1133328 C46.1164139,35.292281 47.4876264,34.3997915 47.9154796,32.99679 C48.3472587,31.5181403 48.7408073,30.00568 49.0961255,28.4594091 Z M21.9277752,34.9104693 C16.2366366,33.4219725 12.825987,27.5921286 14.3087708,21.8872589 C15.7915546,16.1823893 21.6066056,12.7615278 27.2989353,14.2454422 C32.991265,15.7293565 36.4065855,21.5564527 34.928374,27.2625143 C33.4420493,32.9701848 27.6242712,36.3926507 21.9277752,34.9104693 L21.9277752,34.9104693 Z" id="形状"></path>
                    </g>
                    <g id="ahcQ9Z-2" transform="translate(73.592848, 33.462339)" fill="#3FC8E8" stroke="#093F68" stroke-linecap="round" stroke-linejoin="round" stroke-width="2.03">
                        <path d="M66.3464333,30.08128 C66.2811406,28.3278488 65.0503295,26.8363781 63.3442192,26.4432608 C61.8937113,26.1322034 60.4229638,25.8955292 58.9589628,25.6656173 C58.5461663,25.6368438 58.1968566,25.3491517 58.088658,24.9488328 C57.6501324,23.7722243 57.1643809,22.6226643 56.6583898,21.4798665 C56.4905787,21.2016542 56.5205368,20.846786 56.7326018,20.6007912 C57.6163997,19.38361 58.5204371,18.173191 59.3367695,16.9019129 C60.3197561,15.4319907 60.1778687,13.4800223 58.9926955,12.1684306 C57.6433859,10.6942889 56.2131176,9.30805484 54.8098355,7.89477227 C53.3717843,6.26223103 50.9131012,6.03685059 49.2034538,7.38085133 C48.0970199,8.14271658 47.0040791,8.9203601 45.9246313,9.71378189 C45.68381,9.93288491 45.3294225,9.97113779 45.04758,9.80845154 C43.8062151,9.25846598 42.5513571,8.74003696 41.2830061,8.2531645 C40.9712423,8.1692948 40.7449038,7.89922231 40.716296,7.57695274 C40.5138995,6.22452923 40.2912634,4.87210571 40.0416412,3.5196822 C39.7640639,1.56855713 38.1277141,0.0995746563 36.1623758,0.0371916467 C34.0934343,-0.0123972156 32.0267417,-0.0123972156 29.9622979,0.0371916467 C28.1524309,0.0696950022 26.6010466,1.34219291 26.211217,3.11395514 C25.8738896,4.61514524 25.6445069,6.14338382 25.3948846,7.66486027 C25.3662768,7.98712984 25.1399383,8.25720232 24.8281746,8.34107203 C23.6205424,8.82118237 22.4196568,9.33510331 21.2322643,9.8693106 C20.9731058,10.040924 20.6305363,10.0130085 20.4024388,9.80168942 C19.2082998,8.91585202 18.0141607,8.03001462 16.7795424,7.20503627 C15.3179154,6.2203278 13.3774504,6.34813834 12.0569585,7.51609368 C10.4850127,8.96318684 8.95354625,10.4643769 7.50303835,12.0331882 C6.08602913,13.4748007 5.97285089,15.7523154 7.23992297,17.3279263 C8.04276222,18.4910105 8.88608077,19.6270463 9.68217348,20.7968926 C9.78823684,20.9864063 9.81260154,21.2110789 9.74963896,21.4190074 C9.25039438,22.717334 8.72416361,24.0156606 8.17769319,25.2937008 C8.07991895,25.4914035 7.90358705,25.6386858 7.69194171,25.6994278 C6.34263203,25.9496262 4.99332236,26.166014 3.64401268,26.3756396 C1.68801943,26.5920619 0.170691934,28.1870777 0.0481024001,30.1556633 C-0.0193630836,32.3127788 -0.0126165353,34.4766564 0.0481024001,36.6405341 C0.125829245,38.3752511 1.3436301,39.8471647 3.03007678,40.2447427 C4.56828981,40.5896107 6.12674248,40.8262849 7.67844861,41.0900074 C7.99382426,41.1060718 8.26451715,41.3204127 8.35310345,41.6242147 C8.83210838,42.8549201 9.35833915,44.0721013 9.89806302,45.2757582 C10.0435606,45.5261567 10.0137129,45.8416401 9.82385099,46.0601639 C9.00751864,47.1691511 8.19793283,48.2849005 7.41533322,49.4412226 C6.13910992,51.1083505 6.34403353,53.4762788 7.88759161,54.8982515 C9.1739335,56.2236266 10.480515,57.5332233 11.8073362,58.8270418 C13.2533748,60.4377545 15.7069549,60.6253238 17.3799852,59.2530552 C18.5066587,58.4618875 19.6333323,57.6707197 20.7532594,56.8525035 C20.964618,56.687754 21.253177,56.663873 21.4886331,56.7916444 C22.6355464,57.285279 23.7824596,57.7856757 24.9496124,58.2184513 C25.3175581,58.3189703 25.5773499,58.6478857 25.5905345,59.0299054 C25.792931,60.3823289 26.0155671,61.6806554 26.2651894,63.0060305 C26.5176948,64.9002118 28.0667076,66.3538183 29.9690444,66.4817589 C32.141433,66.5629043 34.3205681,66.5493801 36.4929567,66.4817589 C38.2410931,66.3943099 39.7169236,65.1500925 40.1023601,63.438806 C40.4261944,61.9714265 40.6488305,60.4769985 40.8917062,58.9893327 C40.9140396,58.6284542 41.1594953,58.3202505 41.5056421,58.2184513 C42.7200209,57.7518651 43.9209065,57.2447063 45.1150455,56.7240233 C45.3648674,56.57819 45.6796245,56.6081065 45.8976451,56.7984066 C47.0108256,57.6166228 48.1374992,58.4077905 49.2709193,59.2124825 C50.0519631,59.7845092 51.0029368,60.0752256 51.9695387,60.0374609 C52.868824,60.0293172 53.7307884,59.6759916 54.3780564,59.0501917 C55.8015782,57.6977682 57.177874,56.304772 58.5609164,54.9253 C60.2328831,53.4657535 60.456263,50.9431991 59.0669076,49.2113106 C58.3045476,48.1090855 57.521948,47.0136224 56.7326018,45.9249215 C56.5427399,45.7063978 56.5128923,45.3909143 56.6583898,45.1405159 C57.1846206,43.9300968 57.6973582,42.7129157 58.1696166,41.4754481 C58.2596952,41.1693823 58.5271811,40.9495378 58.8442715,40.9209545 C60.1935811,40.718091 61.5428908,40.4949411 62.8922005,40.2447427 C64.8426776,39.9867976 66.3256877,38.3605663 66.4071522,36.3903357 C66.4071522,34.3278899 66.4004056,32.2045849 66.3464333,30.08128 Z M33.1804015,47.6627857 C25.2784307,47.6441007 18.887377,41.2090233 18.9047297,33.2888141 C18.9221533,25.3686048 25.3414002,18.9617813 33.2433765,18.9779222 C41.1453528,18.9941243 47.5384437,25.4271684 47.5235892,33.3473828 C47.4938088,41.2616671 41.0765057,47.6574742 33.1804015,47.6424994 L33.1804015,47.6627857 Z" id="形状"></path>
                    </g>
                    <path d="M118.300726,28.2724136 L68.7135952,28.2724136 C68.3409936,28.2724136 68.0389403,27.9696633 68.0389403,27.5962018 L68.0389403,20.5568374 C68.0389403,20.183376 68.3409936,19.8806257 68.7135952,19.8806257 L118.300726,19.8806257 C118.673327,19.8806257 118.975381,20.183376 118.975381,20.5568374 L118.975381,27.6029639 C118.971681,27.9737819 118.670708,28.2724136 118.300726,28.2724136 Z M69.4017431,26.9199901 L117.626071,26.9199901 L117.626071,21.2330492 L69.38825,21.2330492 L69.4017431,26.9199901 Z" id="形状" fill="#DFEAEF"></path>
                </g>
            </g>
        </g>
    </g>
</svg>