<?xml version="1.0" encoding="utf-8"?>
<!-- Generator: Adobe Illustrator 21.0.0, SVG Export Plug-In . SVG Version: 6.00 Build 0)  -->
<svg version="1.1" id="图层_1" xmlns="http://www.w3.org/2000/svg" xmlns:xlink="http://www.w3.org/1999/xlink" x="0px" y="0px"
	 viewBox="0 0 182 182" style="enable-background:new 0 0 182 182;" xml:space="preserve">
<style type="text/css">
	.st0{fill:#1F4268;}
</style>
<path class="st0" d="M177.7,173.4c-56.7,0-113.4,0-170.2,0c0-4.8,0-9.7,0-14.5c0-2.4-0.2-5.2,0.7-6.7c2.8-4.7,8.6-7.1,13.4-9.9
	c10.8-6.3,24.5-9.4,35.7-15.1c6-3.1,11.8-6.7,14.6-13c1.5-3.5,3.1-10.9,1.2-15.3c-0.7-1.5-2-2.5-3-3.8c-1.3-1.6-2.7-3.3-3.6-5.4
	c-0.8-1.9-1.5-4-2-6.1c-0.4-1.6-0.4-3.4-1.3-4.6c-1.2-1.6-3.7-1.8-4.9-3.4c-2.2-2.8-3.6-10-1.8-14.2c0.6-1.4,1.5-2,2.5-3
	c-0.6-4.4-1.2-8.9-2-13.5c-0.2-1.3-0.6-3.1-0.4-4.6c0.7-4.3,1.3-7.5,2.8-10.8c3.8-8.7,11.9-13.8,21.9-16.4c12.7-3.2,28,0,35.6,5.4
	c5.1,3.6,8.8,8.7,10.8,15.4c0.6,2.1,1.6,5.2,1.2,8c-0.5,3.7-1,7.4-1.4,11.2c-0.3,1.8-0.6,3.6-0.9,5.4c4.4,1.8,3.4,11.2,1.7,15.2
	c-0.6,1.4-1.7,2.6-3,3.3c-1.1,0.6-2.3,0.9-3,1.9c-0.9,1.2-0.9,2.9-1.3,4.6c-0.5,2.1-1.2,4.2-2,6.1c-0.9,2-2.3,3.7-3.6,5.4
	c-1,1.3-2.4,2.3-3,3.9c-1.9,4.4-0.3,11.7,1.2,15.1c2.8,6.3,8.5,9.9,14.6,13c11.3,5.7,25,8.9,35.7,15.1c4.8,2.8,10.6,5.1,13.4,9.9
	c0.9,1.5,0.7,4.3,0.7,6.7C177.7,163.7,177.7,168.5,177.7,173.4z"/>
</svg>
