<?xml version="1.0" encoding="utf-8"?>
<!-- Generator: Adobe Illustrator 21.0.0, SVG Export Plug-In . SVG Version: 6.00 Build 0)  -->
<svg version="1.1" id="图层_1" xmlns="http://www.w3.org/2000/svg" xmlns:xlink="http://www.w3.org/1999/xlink" x="0px" y="0px"
	 viewBox="0 0 200 200" style="enable-background:new 0 0 200 200;" xml:space="preserve">
<path fill="#ffffff" d="M135.3,92.5l-29.8-29.8c-1.4-1.4-3.4-2.3-5.4-2.3s-4,0.8-5.4,2.3l-0.9,1L64.7,92.7c-1.4,1.4-2.2,3.4-2.2,5.4
	c0,2,0.8,4,2.2,5.4c3,3,7.8,3,10.8,0l16.8-16.2v79.8c0,4.2,3.4,7.6,7.6,7.6c4.2,0,7.6-3.4,7.6-7.6V86.3l16.8,16.8
	c1.4,1.4,3.4,2.3,5.4,2.3c2,0,4-0.8,5.4-2.3C138.2,100.2,138.2,95.4,135.3,92.5L135.3,92.5z"/>
<path fill="#ffffff" d="M199,95.1c-0.4-11.1-4.6-21.8-11.9-30.1c-7.2-8.2-17-13.9-27.8-15.9c-2.2-13.9-9.3-26.4-20.2-35.3
	c-11-9-24.9-13.5-39.1-12.7C85.8,0.3,71.9,4.8,60.9,13.8C50,22.7,42.9,35.2,40.7,49.1C30,51.1,20.1,56.7,12.9,65
	C5.6,73.3,1.4,84,1,95.1v0c0.8,13.4,6.7,25.8,16.7,34.7s22.9,13.6,36.3,12.9h6.6c0.3,0,0.7,0.1,1,0.1c2.4,0,4.6-1.2,5.9-3.2
	c1.5-2.3,1.5-5.3,0-7.7c-1.5-2.3-4.2-3.6-6.9-3.2H54c-19.9,1.3-37.2-13.8-38.7-33.7c1.2-17.8,15.4-32,33.2-33.3h6.3v-6.2
	c0.6-11.3,5.7-22.1,14.1-29.7s19.7-11.5,31-10.9h0.1c23.2-1.4,43.6,16.3,45.3,39.5v6.6h6.3c17.8,1.2,32,15.5,33.2,33.3
	c-1.5,19.8-18.8,34.9-38.7,33.7h-6.7c-2.7-0.4-5.4,0.9-6.9,3.2c-1.5,2.3-1.5,5.3,0,7.7s4.2,3.6,6.9,3.2h6.5
	c13.3,0.7,26.1-3.8,36.1-12.6C192,120.6,198,108.4,199,95.1C199,95.1,199,95.1,199,95.1z"/>
</svg>
