<?xml version="1.0" encoding="utf-8"?>
<!-- Generator: Adobe Illustrator 21.0.0, SVG Export Plug-In . SVG Version: 6.00 Build 0)  -->
<svg version="1.1" id="Layer_1" xmlns="http://www.w3.org/2000/svg" xmlns:xlink="http://www.w3.org/1999/xlink" x="0px" y="0px"
	 viewBox="0 0 66 66" style="enable-background:new 0 0 66 66;" xml:space="preserve">
<style type="text/css">
	.st0{fill:none;enable-background:new    ;}
	.st1{fill:#656565;}
	.st2{fill:#FFFFFF;}
</style>
<path class="st0" d="M0,0"/>
<circle class="st1" cx="33" cy="33" r="32.2"/>
<path class="st2" d="M46.2,23.6h-7.1v-7.6L46.2,23.6z M38.1,24.6v-8.5l-16.3,0V31h24.5v-6.4H38.1z M18.1,33.1V48h31.9V33.1H18.1z
	 M29.9,45.7h-8.1v-1.8l5.1-6.6h-4.7v-1.9h7.5v1.8l-5.1,6.6h5.3L29.9,45.7L29.9,45.7L29.9,45.7z M35,45.7h-2.1V35.4H35V45.7L35,45.7z
	 M43.9,37.3c-0.2-0.1-0.4-0.2-0.6-0.2C43,37,42.8,37,42.6,37h-1.6v3.1h1.6c0.2,0,0.5,0,0.7-0.1c0.2,0,0.4-0.1,0.6-0.2
	c0.2-0.1,0.3-0.3,0.4-0.5c0.1-0.2,0.2-0.5,0.2-0.8c0-0.3-0.1-0.6-0.2-0.8C44.2,37.6,44,37.4,43.9,37.3L43.9,37.3z M46.2,39.9
	c-0.1,0.4-0.3,0.7-0.6,1.1c-0.3,0.3-0.6,0.6-1,0.7c-0.4,0.2-0.9,0.3-1.5,0.3H41v3.7h-2.1V35.4h4.2c0.6,0,1.1,0.1,1.5,0.3
	c0.4,0.2,0.7,0.4,1,0.7c0.3,0.3,0.4,0.7,0.6,1c0.1,0.4,0.2,0.8,0.2,1.2C46.4,39.1,46.3,39.5,46.2,39.9L46.2,39.9z"/>
</svg>
