<?xml version="1.0" encoding="utf-8"?>
<!-- Generator: Adobe Illustrator 21.0.0, SVG Export Plug-In . SVG Version: 6.00 Build 0)  -->
<svg version="1.1" id="Layer_1" xmlns="http://www.w3.org/2000/svg" xmlns:xlink="http://www.w3.org/1999/xlink" x="0px" y="0px"
	 viewBox="0 0 66 66" style="enable-background:new 0 0 66 66;" xml:space="preserve">
<style type="text/css">
	.st0{fill:none;enable-background:new    ;}
	.st1{fill:#3794FF;}
	.st2{fill:#FFFFFF;}
</style>
<path class="st0" d="z"/>
<circle class="st1" cx="33" cy="33" r="32.2"/>
<path class="st2" d="M48.5,29H46c-0.4,0-0.7,0.3-0.7,0.7v13.8H20.7V29.7c0-0.4-0.3-0.7-0.7-0.7h-2.5c-0.4,0-0.7,0.3-0.7,0.7v17
	c0,0.4,0.3,0.7,0.7,0.7h31c0.4,0,0.7-0.3,0.7-0.7v-17C49.2,29.3,48.9,29,48.5,29z"/>
<path class="st2" d="M24.7,24.3H31V36c0,0.4,0.3,0.7,0.7,0.7h2.5c0.4,0,0.7-0.3,0.7-0.7V24.3H41c0.3,0,0.5-0.1,0.7-0.4
	c0.1-0.3,0-0.5-0.1-0.7L33.4,14c-0.3-0.3-0.8-0.3-0.9,0l-8.2,9.2c-0.1,0.1-0.3,0.5-0.1,0.7C24.3,24.1,24.4,24.3,24.7,24.3z"/>
</svg>
