<?xml version="1.0" standalone="no"?><!DOCTYPE svg PUBLIC "-//W3C//DTD SVG 1.1//EN" "http://www.w3.org/Graphics/SVG/1.1/DTD/svg11.dtd"><svg t="1640849031997" class="icon" viewBox="0 0 1024 1024" version="1.1" xmlns="http://www.w3.org/2000/svg" p-id="1373" width="32" height="32" xmlns:xlink="http://www.w3.org/1999/xlink"><defs><style type="text/css"></style></defs><path d="M512.001168 512.005838c70.685186 0 131.016631-25.0087 181.010679-75.005083 49.998718-49.996383 75.002748-110.327828 75.002748-181.003674 0-70.66417-25.004029-130.99795-75.002748-181.006009C643.001453 24.997024 582.667673 0 512.001168 0S380.991542 24.997024 330.997494 74.991072c-50.003389 50.008059-75.005083 110.339503-75.005083 181.006009 0 70.675846 25.001694 131.00729 75.005083 181.003674C381.005553 486.997138 441.332327 512.005838 512.001168 512.005838z" p-id="1374" fill="#ffffff"></path><path d="M979.000686 782.335636c-1.559833-22.437777-4.674829-46.66656-9.333312-72.670004-4.667824-26.003443-10.563899-50.103797-17.67655-72.336087-7.112652-22.215945-16.670131-43.885481-28.670104-64.999268-11.995302-21.111452-25.77227-39.107908-41.337909-54.003379-15.565639-14.890801-34.561509-26.771684-56.989946-35.658996-22.456458-8.884977-47.23632-13.335638-74.348926-13.335638-3.995321 0-13.330968 4.777572-27.999936 14.335052-14.654958 9.55748-31.213005 20.226457-49.657797 32.009267-18.442456 11.761795-42.456412 22.437777-71.999836 31.978911-29.557434 9.55748-59.219947 14.337387-89.008554 14.337387-29.776932 0-59.441779-4.779907-88.994543-14.337387-29.550429-9.541134-53.557379-20.217117-72.002171-31.978911-18.442456-11.78281-34.995834-22.449453-49.660132-32.009267-14.671303-9.55748-23.999945-14.335052-27.999936-14.335052-27.110271 0-51.890133 4.450661-74.33258 13.335638-22.447118 8.887312-41.445323 20.777536-57.003956 35.658996-15.553963 14.895471-29.333266 32.891927-41.328569 54.003379-11.995302 21.113787-21.550447 42.792664-28.663099 64.999268-7.110317 22.23229-13.001722 46.332644-17.66721 72.336087-4.670159 26.003443-7.780484 50.215881-9.337982 72.670004-1.555163 22.454123-2.330409 45.454654-2.330409 69.010934 0 53.323871 16.226466 95.446367 48.667723 126.337132 32.448262 30.879089 75.563167 46.316298 129.340044 46.316298l582.679348 0c53.772207 0 96.882441-15.437209 129.335373-46.316298 32.459938-30.890764 48.674728-73.006255 48.674728-126.337132C981.349776 827.79029 980.57453 804.789758 979.000686 782.335636z" p-id="1375" fill="#ffffff"></path></svg>