<svg width="26" height="26" viewBox="0 0 26 26" fill="none" xmlns="http://www.w3.org/2000/svg">
<g id="&#230;&#150;&#135;&#228;&#187;&#182;&#229;&#164;&#185;">
<rect id="&#231;&#159;&#169;&#229;&#189;&#162;" width="26" height="26" fill="white" fill-opacity="0.01"/>
<path id="&#232;&#183;&#175;&#229;&#190;&#132;" d="M20.6187 23H1.66508C1.22173 23 0.916916 22.581 1.02776 22.148L5.33665 10.2486C5.40592 9.95529 5.68302 9.74579 5.97398 9.74579H24.9276C25.3709 9.74579 25.5649 10.1648 25.5649 10.5977L21.256 22.4972C21.1867 22.8044 20.9235 23 20.6187 23Z" fill="#8BD9C0"/>
<path id="&#232;&#183;&#175;&#229;&#190;&#132;_2" d="M22.5223 5.98883H11.9497L9.88268 3.1257C9.82682 3.05587 9.72905 3 9.64525 3H1.74022C1.32123 3 1 3.3352 1 3.74022V22.0922C1 22.1201 1 22.148 1.02793 22.162L5.37151 10.3184C5.44134 10.0251 5.72067 9.81564 6.01397 9.81564H23.2486V6.72905C23.2626 6.32402 22.9274 5.98883 22.5223 5.98883Z" fill="#59C7A4"/>
</g>
</svg>
