<?xml version="1.0" encoding="UTF-8"?>
<svg width="18px" height="19px" viewBox="0 0 18 19" version="1.1" xmlns="http://www.w3.org/2000/svg" xmlns:xlink="http://www.w3.org/1999/xlink">
    <!-- Generator: Sketch 61.1 (89650) - https://sketch.com -->
    <title>标记 (1) copy</title>
    <desc>Created with Sketch.</desc>
    <g id="6" stroke="none" stroke-width="1" fill="none" fill-rule="evenodd">
        <g id="6备份" transform="translate(-648.000000, -143.000000)" fill="#5094ee">
            <g id="标记-(1)-copy" transform="translate(648.000000, 143.000000)">
                <path d="M11.2736869,12.8571429 C14.6820109,13.2632625 17.1415592,14.4176436 17.1428571,15.7764753 C17.1428571,17.4788397 13.3062213,18.8571429 8.57142857,18.8571429 C3.83663581,18.8571429 0,17.4788397 0,15.7764753 C0,14.4357242 2.39854634,13.2910789 5.74197456,12.8710511 L5.74197456,12.8710511 L5.74197456,14.0768925 C3.68348187,14.391218 2.27005278,15.0337771 2.27005278,15.7764753 C2.27005278,16.8279356 5.0917193,17.6805086 8.57142857,17.6805086 C12.0511378,17.6805086 14.8741023,16.8279356 14.8741023,15.7764753 C14.8741023,15.018478 13.4035649,14.3647924 11.2736869,14.0588118 L11.2736869,14.0588118 Z M9.17912428,0 L9.17912428,1.05030575 C9.69882353,1.47919166 10.8286599,2.3117349 11.7572402,2.3117349 C13.0093587,2.3117349 14.8486864,2.32766874 15.6486157,2.56269291 C16.4485449,2.79771708 17.6700929,2.76717722 17.9095621,2.70344185 C18.1515789,2.63970648 16.1912428,5.70564324 16.1912428,5.70564324 L16.1912428,5.70564324 L18,8.83398754 C18,8.83398754 17.0204688,8.535228 15.7237682,8.42634675 C14.4257939,8.31613767 11.2451835,8.55248966 10.4159575,7.93903675 C9.99688633,7.62832683 9.54597081,7.30699435 9.17785051,7.0666589 L9.17785051,7.0666589 L9.17785051,16.2857143 L7.71428571,16.2857143 L7.71428571,0 L9.17912428,0 Z" id="合并形状"></path>
            </g>
        </g>
    </g>
</svg>