<?xml version="1.0" encoding="UTF-8"?>
<svg width="48px" height="57px" viewBox="0 0 48 57" version="1.1" xmlns="http://www.w3.org/2000/svg" xmlns:xlink="http://www.w3.org/1999/xlink">
    <!-- Generator: Sketch 61.1 (89650) - https://sketch.com -->
    <title>word</title>
    <desc>Created with Sketch.</desc>
    <g id="页面-1" stroke="none" stroke-width="1" fill="none" fill-rule="evenodd">
        <g id="Scriber卡片" transform="translate(-344.000000, -134.000000)" fill-rule="nonzero">
            <g id="编组-5备份" transform="translate(98.000000, 134.000000)">
                <g id="word" transform="translate(246.000000, 0.000000)">
                    <path d="M2.86624204,0 C2.14968153,0 1.38535032,0.284242021 0.859872611,0.852726064 C0.334394904,1.42121011 0,2.13181516 0,2.84242021 L0,54.005984 C0,54.7165891 0.286624204,55.4745678 0.859872611,55.9956782 C1.43312102,56.5641622 2.14968153,56.8484043 2.86624204,56.8484043 L44.9044586,56.8484043 C45.6210191,56.8484043 46.3853503,56.5641622 46.910828,55.9956782 C47.4840764,55.4271941 47.7707006,54.7165891 47.7707006,54.005984 L47.7707006,16.1070479 L31.5286624,0 L2.86624204,0 Z" id="路径" fill="#5997EC"></path>
                    <path d="M47.7707006,16.1070479 L34.3949045,16.1070479 C33.6783439,16.1070479 32.9140127,15.8228059 32.388535,15.2543218 C31.8152866,14.7332114 31.5286624,13.9752327 31.5286624,13.2646277 L31.5286624,0 L47.7707006,16.1070479 Z" id="路径" fill="#C4EAFF"></path>
                    <polygon id="路径" fill="#FFFFFF" points="10.0318471 20.9391622 13.9012739 20.9391622 17.7707006 35.3881316 17.8184713 35.3881316 22.0700637 20.9391622 25.7961783 20.9391622 30.0955414 35.3881316 34.0127389 20.9391622 37.7388535 20.9391622 32.0063694 39.5570146 28.1369427 39.5570146 23.8853503 25.2501662 23.8375796 25.2501662 19.5382166 39.509641 15.6687898 39.509641"></polygon>
                </g>
            </g>
        </g>
    </g>
</svg>