<?xml version="1.0" encoding="UTF-8"?>
<svg width="48px" height="57px" viewBox="0 0 48 57" version="1.1" xmlns="http://www.w3.org/2000/svg" xmlns:xlink="http://www.w3.org/1999/xlink">
    <!-- Generator: Sketch 61.1 (89650) - https://sketch.com -->
    <title>pdf</title>
    <desc>Created with Sketch.</desc>
    <g id="页面-1" stroke="none" stroke-width="1" fill="none" fill-rule="evenodd">
        <g id="Scriber卡片" transform="translate(-1528.000000, -134.000000)" fill-rule="nonzero">
            <g id="编组-6" transform="translate(1282.000000, 134.000000)">
                <g id="pdf" transform="translate(246.000000, 0.000000)">
                    <path d="M2.88,0 C2.16,0 1.392,0.285 0.864,0.855 C0.336,1.425 0,2.1375 0,2.85 L0,54.15 C0,54.8625 0.288,55.6225 0.864,56.145 C1.44,56.715 2.16,57 2.88,57 L45.12,57 C45.84,57 46.608,56.715 47.136,56.145 C47.712,55.575 48,54.8625 48,54.15 L48,16.15 L31.68,0 L2.88,0 Z" id="路径" fill="#FF5562"></path>
                    <path d="M48,16 L34.8235294,16 C34.1176471,16 33.3647059,15.7176471 32.8470588,15.1529412 C32.2823529,14.6352941 32,13.8823529 32,13.1764706 L32,0 L48,16 Z" id="路径" fill="#FFBBC0"></path>
                    <path d="M35.1453658,49 C32.1583608,49 29.5032454,43.8062438 28.0808621,40.4399204 C25.7102233,39.4300233 23.1025206,38.516307 20.5896434,37.8911326 C18.3612429,39.381933 14.6156336,41.5940884 11.7234542,41.5940884 C9.92176875,41.5940884 8.64162379,40.680372 8.16749602,39.093391 C7.78819381,37.7949519 8.12008325,36.8812356 8.49938546,36.4003322 C9.25798988,35.3423449 10.8226115,34.8133512 13.1932503,34.8133512 C15.0897614,34.8133512 17.507813,35.1499835 20.2103412,35.8232482 C21.9646139,34.5728995 23.7188867,33.1301894 25.2835083,31.5912987 C24.5723166,28.2249753 23.8137122,22.7907674 25.757636,20.29007 C26.7058916,19.0878116 28.1756876,18.7030889 29.9299604,19.2320826 C31.8738842,19.8091666 32.5850758,21.011425 32.8221397,21.9251414 C33.6281569,25.1952842 29.9299604,29.619595 27.4170832,32.2164731 C27.9860365,34.4767188 28.6972282,36.8331452 29.5980709,38.9972103 C33.2014419,40.6322817 37.4685918,43.0367985 37.9427196,45.6817669 C38.1323707,46.5954832 37.847894,47.4611093 37.1367024,48.1824643 C36.5203363,48.711458 35.8565574,49 35.1453658,49 Z M30.7359776,41.6902691 C32.5376631,45.3932249 34.244523,47.1244769 35.1453658,47.1244769 C35.2876041,47.1244769 35.4772552,47.0763866 35.7617318,46.8359349 C36.0936213,46.4993026 36.0936213,46.2588509 36.0462085,46.0664896 C35.8565574,45.1046829 34.3393486,43.5177018 30.7359776,41.6902691 L30.7359776,41.6902691 Z M13.1932503,36.7369646 C10.8700243,36.7369646 10.2062454,37.3140486 10.0165943,37.5545003 C9.96918152,37.6506809 9.77953042,37.8911326 9.96918152,38.5643973 C10.1114199,39.1414813 10.4907221,39.7185653 11.7234542,39.7185653 C13.2406631,39.7185653 15.4216508,38.8529393 17.9819407,37.3140486 C16.1328424,36.9293259 14.5208081,36.7369646 13.1932503,36.7369646 L13.1932503,36.7369646 Z M22.58098,36.4484226 C24.0981889,36.8812356 25.6628105,37.4102293 27.1326066,37.9873133 C26.611066,36.5926936 26.184351,35.1499835 25.8050488,33.7553638 C24.7619677,34.6690802 23.6714739,35.5827965 22.58098,36.4484226 Z M28.4601643,20.9152444 C27.9386238,20.9152444 27.5593215,21.1076057 27.2274321,21.4923284 C26.2317638,22.7426771 26.1369383,25.9166392 26.8955427,29.9562273 C29.787722,26.8303556 31.3523436,23.9449355 30.9730414,22.4060447 C30.9256287,22.1655931 30.7359776,21.4923284 29.4084198,21.1076057 C29.0291176,20.9633347 28.744641,20.9152444 28.4601643,20.9152444 L28.4601643,20.9152444 Z" id="形状" fill="#FFFFFF"></path>
                </g>
            </g>
        </g>
    </g>
</svg>