<?xml version="1.0" encoding="UTF-8"?>
<svg width="14px" height="16px" viewBox="0 0 14 16" version="1.1" xmlns="http://www.w3.org/2000/svg" xmlns:xlink="http://www.w3.org/1999/xlink">
    <title>最大化</title>
    <g id="页面-1" stroke="none" stroke-width="1" fill="none" fill-rule="evenodd">
        <g id="0" transform="translate(-1403.000000, -312.000000)" fill="#606266" fill-rule="nonzero">
            <g id="最大化" transform="translate(1403.000000, 312.000000)">
                <g id="右箭头" transform="translate(7.080718, 11.954860) rotate(90.000000) translate(-7.080718, -11.954860) translate(4.557060, 9.374142)">
                    <path d="M2.92140207,0.146056755 C2.72667531,-0.0486855849 2.41092999,-0.0486855849 2.21620323,0.146056755 C2.02146089,0.340799094 2.02146089,0.656528832 2.21620323,0.851271172 L3.36275552,2.08632168 L0.480677139,2.08632168 C0.215202985,2.08632168 0,2.30154025 0,2.56699882 C0,2.83247297 0.215218569,3.04767595 0.480677139,3.04767595 L3.3627711,3.04767595 L2.21620323,4.29738965 C2.02146089,4.49211641 2.02146089,4.80786173 2.21620323,5.00260407 C2.3750348,5.16143563 2.66251289,5.26149325 2.92140207,5.00260407 L4.90126207,2.91959823 C4.99477882,2.82608388 5.04731618,2.69924977 5.04731618,2.56699882 C5.04731618,2.43474786 4.99477882,2.30791375 4.90126207,2.2143994 L2.92140207,0.146056755 Z" id="路径"></path>
                </g>
                <g id="右箭头备份" transform="translate(7.080718, 4.523658) rotate(-90.000000) translate(-7.080718, -4.523658) translate(4.557060, 1.942940)">
                    <path d="M2.92140207,0.146056755 C2.72667531,-0.0486855849 2.41092999,-0.0486855849 2.21620323,0.146056755 C2.02146089,0.340799094 2.02146089,0.656528832 2.21620323,0.851271172 L3.36275552,2.08632168 L0.480677139,2.08632168 C0.215202985,2.08632168 0,2.30154025 0,2.56699882 C0,2.83247297 0.215218569,3.04767595 0.480677139,3.04767595 L3.3627711,3.04767595 L2.21620323,4.29738965 C2.02146089,4.49211641 2.02146089,4.80786173 2.21620323,5.00260407 C2.3750348,5.16143563 2.66251289,5.26149325 2.92140207,5.00260407 L4.90126207,2.91959823 C4.99477882,2.82608388 5.04731618,2.69924977 5.04731618,2.56699882 C5.04731618,2.43474786 4.99477882,2.30791375 4.90126207,2.2143994 L2.92140207,0.146056755 Z" id="路径"></path>
                </g>
                <path d="M12.9333337,15.0666667 L12.9333337,1.06666667 L1.06666667,1.06666667 L1.06666667,15.0666667 L12.9333337,15.0666667 Z M0,0 L14,0 L14,16 L0,16 L0,0 Z" id="形状"></path>
            </g>
        </g>
    </g>
</svg>