<?xml version="1.0" encoding="UTF-8"?>
<svg width="14px" height="16px" viewBox="0 0 14 16" version="1.1" xmlns="http://www.w3.org/2000/svg" xmlns:xlink="http://www.w3.org/1999/xlink">
    <title>最小化</title>
    <g id="页面-1" stroke="none" stroke-width="1" fill="none" fill-rule="evenodd">
        <g id="0" transform="translate(-1351.000000, -312.000000)" fill-rule="nonzero">
            <g id="最小化" transform="translate(1351.000000, 312.000000)">
                <path d="M12.9333337,15.0666667 L12.9333337,1.06666667 L1.06666667,1.06666667 L1.06666667,15.0666667 L12.9333337,15.0666667 Z M0,0 L14,0 L14,16 L0,16 L0,0 Z" id="形状" fill="#D0D0D0"></path>
                <path d="M13,15 L13,13 L1,13 L1,15 L13,15 Z M0,12 L14,12 L14,16 L0,16 L0,12 Z" id="形状" fill="#606266" transform="translate(7.000000, 14.000000) scale(1, -1) translate(-7.000000, -14.000000) "></path>
                <g id="右箭头备份-2" transform="translate(7.080718, 6.748920) rotate(90.000000) translate(-7.080718, -6.748920) translate(3.351120, 4.168203)" fill="#DADADA">
                    <path d="M5.33328101,0.146056755 C5.13855425,-0.0486855849 4.82280893,-0.0486855849 4.62808218,0.146056755 C4.43333984,0.340799094 4.43333984,0.656528832 4.62808218,0.851271172 L5.77463446,2.08632168 L0.480677139,2.08632168 C0.215202985,2.08632168 0,2.30154025 0,2.56699882 C0,2.83247297 0.215218569,3.04767595 0.480677139,3.04767595 L5.77465004,3.04767595 L4.62808218,4.29738965 C4.43333984,4.49211641 4.43333984,4.80786173 4.62808218,5.00260407 C4.78691375,5.16143563 5.07439183,5.26149325 5.33328101,5.00260407 L7.31314102,2.91959823 C7.40665776,2.82608388 7.45919512,2.69924977 7.45919512,2.56699882 C7.45919512,2.43474786 7.40665776,2.30791375 7.31314102,2.2143994 L5.33328101,0.146056755 Z" id="路径"></path>
                </g>
            </g>
        </g>
    </g>
</svg>