<?xml version="1.0" encoding="UTF-8"?>
<svg width="15px" height="15px" viewBox="0 0 15 15" version="1.1" xmlns="http://www.w3.org/2000/svg" xmlns:xlink="http://www.w3.org/1999/xlink">
    <title>追踪</title>
    <defs>
        <filter color-interpolation-filters="auto" id="filter-1">
            <feColorMatrix in="SourceGraphic" type="matrix" values="0 0 0 0 0.164706 0 0 0 0 0.721569 0 0 0 0 0.509804 0 0 0 1.000000 0"></feColorMatrix>
        </filter>
    </defs>
    <g id="页面-1" stroke="none" stroke-width="1" fill="none" fill-rule="evenodd">
        <g id="1列表页" transform="translate(-1527.000000, -462.000000)">
            <g id="追踪" transform="translate(1527.000000, 459.000000)" filter="url(#filter-1)">
                <g transform="translate(0.000000, 3.000000)">
                    <path d="M7.50028773,6.27338645 C6.96758742,6.27338645 6.48734021,6.59427738 6.28348462,7.08642829 C6.07962904,7.57857921 6.19231095,8.14506942 6.56898695,8.52174543 C6.94566296,8.89842144 7.51215317,9.01110334 8.00430409,8.80724776 C8.49645501,8.60339217 8.81734593,8.12314496 8.81734593,7.59044465 C8.81650029,6.86340405 8.22732833,6.27423209 7.50028773,6.27338645 Z" id="路径" fill="#2E99EC" fill-rule="nonzero" opacity="0.2"></path>
                    <path d="M7.50028773,5.56786066 C6.37911374,5.56786066 5.47022264,6.47675176 5.47022264,7.59792575 C5.47022264,8.71909974 6.37911374,9.62799084 7.50028773,9.62799084 C8.62146173,9.62799084 9.53035283,8.71909974 9.53035283,7.59792575 C9.52855735,6.47749631 8.62071717,5.56965614 7.50028773,5.56786066 L7.50028773,5.56786066 Z M7.50028773,8.90750285 C6.96758742,8.90750285 6.48734021,8.58661192 6.28348462,8.094461 C6.07962904,7.60231008 6.19231095,7.03581987 6.56898695,6.65914386 C6.94566296,6.28246786 7.51215317,6.16978595 8.00430409,6.37364153 C8.49645501,6.57749712 8.81734593,7.05774433 8.81734593,7.59044465 C8.81650029,8.31748524 8.22732833,8.9066572 7.50028773,8.90750285 L7.50028773,8.90750285 Z M14.557272,7.05640881 L13.7387624,7.05640881 C13.4747457,3.9864213 11.0172766,1.56433786 7.94378301,1.34487257 L7.94378301,0.443303452 C7.94378301,0.198473716 7.74530929,0 7.50047956,0 C7.25564982,0 7.05717611,0.198473716 7.05717611,0.443303452 L7.05717611,1.34487257 C3.98254857,1.56182915 1.52372143,3.98525113 1.26219676,7.05640881 L0.443303452,7.05640881 C0.199854925,7.05971166 0.00330285011,7.25626374 0,7.49971227 C0.000317035547,7.74441056 0.198605156,7.94269868 0.443303452,7.94301572 L1.24896096,7.94301572 C1.42481544,11.0896319 3.91325415,13.6144791 7.05698428,13.8360167 L7.05698428,14.5566965 C7.05698428,14.8015263 7.255458,15 7.50028773,15 C7.74511747,15 7.94359119,14.8015263 7.94359119,14.5566965 L7.94359119,13.8360167 C11.0872463,13.614387 13.5755789,11.089564 13.7514227,7.94301572 L14.5570802,7.94301572 C14.8006461,7.93991657 14.997371,7.74327681 15.0005755,7.49971227 C15.0002584,7.25501397 14.8019703,7.05672585 14.557272,7.05640881 Z M7.94359119,13.0451296 L7.94359119,11.564638 C7.94359119,11.3198083 7.74511747,11.1213346 7.50028773,11.1213346 C7.255458,11.1213346 7.05698428,11.3198083 7.05698428,11.564638 L7.05698428,13.0451296 C4.36205993,12.8279857 2.21229715,10.6500249 2.03927261,7.94263207 L3.43536197,7.94263207 C3.68019171,7.94263207 3.87866542,7.74415835 3.87866542,7.49932862 C3.87866542,7.25449888 3.68019171,7.05602517 3.43536197,7.05602517 L2.05423482,7.05602517 C2.30935969,4.43360999 4.42305971,2.34772434 7.05755975,2.13537604 L7.05755975,3.43440285 C7.05766465,3.67902677 7.25566462,3.87745569 7.50028773,3.87808995 C7.74377874,3.87488775 7.94038898,3.67827751 7.94359119,3.4347865 L7.94359119,2.13575968 C10.5780912,2.34791616 12.6915994,4.43399363 12.9469161,7.05640881 L11.565789,7.05640881 C11.3209592,7.05640881 11.1224855,7.25488253 11.1224855,7.49971227 C11.1224855,7.744542 11.3209592,7.94301572 11.565789,7.94301572 L12.9618783,7.94301572 C12.7882783,10.6500249 10.6387074,12.8279857 7.94359119,13.0451296 L7.94359119,13.0451296 Z" id="形状" fill="#2E99EC" fill-rule="nonzero"></path>
                </g>
            </g>
        </g>
    </g>
</svg>